<svg width="87" height="87" viewBox="0 0 87 87" fill="none" xmlns="http://www.w3.org/2000/svg">
<g clip-path="url(#clip0_129_584)">
<path fill-rule="evenodd" clip-rule="evenodd" d="M53.8802 17.4016C52.4454 17.4016 51.2838 16.2712 51.2838 14.8747C51.2838 13.4782 52.4454 12.3529 53.8802 12.3529C55.3151 12.3529 56.4766 13.4782 56.4766 14.8747C56.4766 16.2712 55.3151 17.4016 53.8802 17.4016ZM33.1198 17.4016C31.6849 17.4016 30.5234 16.2712 30.5234 14.8747C30.5234 13.4782 31.6849 12.3529 33.1198 12.3529C34.5546 12.3529 35.7162 13.4782 35.7162 14.8747C35.7162 16.2712 34.5546 17.4016 33.1198 17.4016ZM55.4149 7.28364L56.382 5.86165L57.349 4.46002L59.5039 1.30905C59.772 0.920291 59.6616 0.398484 59.2621 0.14272C58.8679 -0.118159 58.3266 -0.0107393 58.0691 0.378022L54.779 5.17101L53.7908 6.61358C50.6636 5.43195 47.1791 4.7721 43.5 4.7721C39.8262 4.7721 36.3364 5.43195 33.2092 6.61358L32.2263 5.17101L31.254 3.75411L28.9414 0.378022C28.6734 -0.0107393 28.1373 -0.113044 27.7379 0.14272C27.3437 0.398484 27.2333 0.920291 27.4961 1.30905L29.651 4.46002L30.618 5.86165L31.5904 7.28364C24.248 10.6137 19.2813 16.9208 19.2813 24.1384H67.7187C67.7187 16.9208 62.752 10.6137 55.4149 7.28364ZM19.6545 27.5043H19.2813V64.5491C19.2813 67.4904 21.7357 69.8844 24.7631 69.8844H28.7154C28.5788 70.3294 28.5052 70.7948 28.5052 71.2859V81.9513C28.5052 84.7391 30.8335 87 33.6979 87C36.5623 87 38.8906 84.7391 38.8906 81.9513V71.2859C38.8906 70.7948 38.8119 70.3294 38.6805 69.8844H48.3195C48.1881 70.3294 48.1146 70.7948 48.1146 71.2859V81.9513C48.1146 84.7391 50.4377 87 53.3021 87C56.1718 87 58.5 84.7391 58.5 81.9513V71.2859C58.5 70.7948 58.4212 70.3294 58.2846 69.8844H62.2422C65.2695 69.8844 67.7187 67.4904 67.7187 64.5491V27.5043H19.6545ZM10.6302 27.5043C7.76057 27.5043 5.4375 29.7653 5.4375 32.5531V54.165C5.4375 56.9529 7.76057 59.2139 10.6302 59.2139C13.4947 59.2139 15.8177 56.9529 15.8177 54.165V32.5531C15.8177 29.7653 13.4947 27.5043 10.6302 27.5043ZM76.375 27.5043C73.5053 27.5043 71.1823 29.7653 71.1823 32.5531V54.165C71.1823 56.9529 73.5053 59.2139 76.375 59.2139C79.2394 59.2139 81.5625 56.9529 81.5625 54.165V32.5531C81.5625 29.7653 79.2394 27.5043 76.375 27.5043Z" fill="#95CF00"/>
</g>
<defs>
<clipPath id="clip0_129_584">
<rect width="87" height="87" fill="white"/>
</clipPath>
</defs>
</svg>
