<svg width="87" height="87" viewBox="0 0 87 87" fill="none" xmlns="http://www.w3.org/2000/svg">
<path fill-rule="evenodd" clip-rule="evenodd" d="M56.8583 13.889C60.0297 10.2133 62.1675 5.09376 61.5825 0C57.0122 0.174 51.483 2.91949 48.206 6.59085C45.2633 9.84895 42.6944 15.0549 43.385 20.0487C48.4831 20.4271 53.6868 17.569 56.8583 13.889ZM68.2905 46.2188C68.4181 59.386 80.3429 63.7661 80.4749 63.8227C80.3781 64.1315 78.5703 70.0638 74.1936 76.1972C70.4063 81.4955 66.4782 86.7722 60.2892 86.8853C54.2102 86.9941 52.2528 83.4316 45.2985 83.4316C38.3485 83.4316 36.1756 86.7718 30.4221 86.9936C24.4486 87.2068 19.896 81.2614 16.0823 75.9806C8.27897 65.1796 2.31874 45.4579 10.3244 32.1471C14.3008 25.5395 21.4047 21.3489 29.12 21.2445C34.9835 21.1357 40.5215 25.0252 44.1064 25.0252C47.6914 25.0252 54.4214 20.349 61.4945 21.0363C64.4548 21.1538 72.7684 22.18 78.104 29.6662C77.6729 29.9229 68.1849 35.2134 68.2905 46.2188Z" fill="black"/>
</svg>
