<svg width="87" height="87" viewBox="0 0 87 87" fill="none" xmlns="http://www.w3.org/2000/svg">
<path d="M21.5 65C22.3284 65 23 64.3284 23 63.5C23 62.6716 22.3284 62 21.5 62C20.6716 62 20 62.6716 20 63.5C20 64.3284 20.6716 65 21.5 65Z" fill="#472667"/>
<path d="M66 65C67.1046 65 68 64.3284 68 63.5C68 62.6716 67.1046 62 66 62C64.8954 62 64 62.6716 64 63.5C64 64.3284 64.8954 65 66 65Z" fill="#472667"/>
<path d="M74.7664 63.4153C74.7715 63.4337 74.7835 63.4478 74.7899 63.4655C74.8018 63.4983 74.8169 63.5274 74.8332 63.5578C74.8597 63.6075 74.8898 63.6523 74.9262 63.6937C74.9476 63.7181 74.9683 63.7407 74.9928 63.7621C75.0372 63.8009 75.0857 63.8314 75.138 63.8586C75.1642 63.8723 75.1874 63.8883 75.2153 63.8989C75.2987 63.9305 75.3863 63.9512 75.4781 63.9512L78.3 63.9508C80.9432 63.8466 81.8871 59.4837 81.9861 58.9866C81.9952 58.9402 82 58.8933 82 58.8465C82 57.5681 81.245 57.035 81.159 56.9782C81.0557 56.9105 80.9374 56.8698 80.8139 56.8589L79.5044 56.7448L78.4101 42.9886C78.3222 40.9064 76.6103 40.1394 75.6218 40.0186L39.0144 40.0205C36.598 39.8506 35.7196 40.7814 35.4706 41.1398L29.6489 47.2786L16.6661 48.1043C11.3907 48.6485 10.4728 50.5304 10.3142 51.1233L7.79807 56.8561H6.64277C6.60817 56.8561 6.57308 56.8584 6.53896 56.8632C6.46544 56.8736 5.80897 56.9806 5.37357 57.5596C5.15683 57.8484 4.92375 58.3555 5.04677 59.1334L5.49852 61.9888C5.66768 62.894 6.4563 63.9512 8.12198 63.9512H11.8983C11.9901 63.9512 12.0784 63.9305 12.1617 63.8988C12.1896 63.8882 12.2128 63.8723 12.2388 63.8587C12.2912 63.8314 12.3398 63.801 12.3842 63.7621C12.4087 63.7408 12.4293 63.7182 12.4507 63.6938C12.4872 63.6523 12.5173 63.6074 12.5438 63.5577C12.5601 63.5273 12.5751 63.4983 12.587 63.4656C12.5934 63.4478 12.6055 63.4337 12.6106 63.4153L12.8283 62.6279H13.661C13.6457 62.8253 13.6303 63.0228 13.6303 63.224C13.6303 65.8292 14.9422 68.1338 16.9445 69.5456H3.73817C3.33064 69.5456 3 69.8713 3 70.2728C3 70.6743 3.33064 71 3.73817 71H81.2618C81.6694 71 82 70.6743 82 70.2728C82 69.8713 81.6694 69.5456 81.2618 69.5456H70.3321C72.3344 68.1338 73.6461 65.8292 73.6461 63.224C73.6461 63.0228 73.6308 62.8253 73.6154 62.6279H74.5487L74.7664 63.4153ZM6.94361 61.6791L6.5058 58.9094C6.45006 58.5591 6.5231 58.3668 6.71726 58.3105H8.28297H10.4725C10.88 58.3105 11.2106 57.9848 11.2106 57.5833C11.2106 57.1818 10.88 56.8561 10.4725 56.8561H9.40656L11.6951 51.6424C11.7017 51.6272 11.6996 51.6111 11.7051 51.5958C11.7135 51.5679 11.7313 51.5456 11.7364 51.516C11.7412 51.5008 12.2429 50.0232 16.7906 49.5535L29.6881 48.7338L31.7875 50.945C31.9273 51.0922 32.1224 51.1756 32.3267 51.1756H45.6819V55.0901C45.6819 55.4916 46.0125 55.8173 46.4201 55.8173C46.8276 55.8173 47.1582 55.4916 47.1582 55.0901V51.1756H60.6956V51.8086C60.6956 52.2101 61.0262 52.5358 61.4337 52.5358C61.8413 52.5358 62.1719 52.2101 62.1719 51.8086V51.1756H75.5045C75.5043 51.1756 75.5048 51.1756 75.5045 51.1756C75.5463 51.1754 75.5892 51.1721 75.6319 51.1647C75.6605 51.1598 75.6825 51.1427 75.7097 51.1347C75.7579 51.1207 75.8028 51.1051 75.8463 51.0822C75.8888 51.06 75.9259 51.0344 75.9627 51.0049C75.9991 50.9758 76.0317 50.9461 76.0619 50.9108C76.0929 50.8746 76.1176 50.8368 76.1408 50.7954C76.1635 50.7554 76.1822 50.7157 76.1969 50.6715C76.2125 50.6249 76.2204 50.5784 76.2262 50.5288C76.2294 50.5011 76.2427 50.4769 76.2427 50.4483C76.2427 50.4263 76.2319 50.4078 76.23 50.3863C76.2281 50.3647 76.2355 50.3446 76.2316 50.3229L74.999 43.3915C74.937 43.0435 74.6304 42.7898 74.2719 42.7898H71.3576C70.9501 42.7898 70.6195 43.1155 70.6195 43.517C70.6195 43.9185 70.9501 44.2442 71.3576 44.2442H73.6519L74.6258 49.7211H62.1719V43.517C62.1719 43.1155 61.8413 42.7898 61.4337 42.7898H58.52C58.1125 42.7898 57.7818 43.1155 57.7818 43.517C57.7818 43.9185 58.1125 44.2442 58.52 44.2442H60.6956V49.7211H47.1582V43.517C47.1582 43.1155 46.8276 42.7898 46.4201 42.7898H43.5058C43.0983 42.7898 42.7677 43.1155 42.7677 43.517C42.7677 43.9185 43.0983 44.2442 43.5058 44.2442H45.6819V49.7211H32.6467L30.9991 47.9856L36.5952 42.0843C36.6437 42.0332 36.6629 42.0138 36.6946 41.9513C36.6985 41.9451 37.1324 41.3453 38.9615 41.4731L75.5266 41.4669C75.5814 41.474 76.8761 41.6563 76.9367 43.0757L77.6742 52.3507H75.5045V53.8051H77.7898L78.019 56.688H76.9886C76.581 56.688 76.2504 57.0137 76.2504 57.4152C76.2504 57.8167 76.581 58.1424 76.9886 58.1424H78.785L80.3978 58.2826C80.4521 58.3777 80.5131 58.5368 80.5222 58.7802C80.2603 60.022 79.3929 62.4518 78.2707 62.4968H76.0426L73.7206 54.0987C73.6332 53.7824 73.3415 53.5627 73.0084 53.5627H60.2722C60.0309 53.5627 59.8046 53.6792 59.6667 53.8742L57.5578 56.8561H29.8193L27.7103 53.8742C27.5723 53.6792 27.346 53.5627 27.1047 53.5627H14.3685C14.0355 53.5627 13.7438 53.7824 13.6563 54.0987L11.3343 62.4968H8.12198C7.22811 62.4968 7.00464 62.0134 6.94361 61.6791ZM53.5684 62.4968H33.809L30.8481 58.3105H56.5291L53.5684 62.4968ZM13.2304 61.1735L14.9327 55.0172H26.7193L31.0739 61.1735H29.1292C28.2125 57.8792 25.1546 55.448 21.5238 55.448C17.8926 55.448 14.8347 57.8792 13.918 61.1735H13.2304ZM15.1067 63.224C15.1067 59.7384 17.9853 56.9025 21.5238 56.9025C25.0618 56.9025 27.9405 59.7384 27.9405 63.224C27.9405 66.7096 25.0618 69.5456 21.5238 69.5456C17.9853 69.5456 15.1067 66.7096 15.1067 63.224ZM26.1027 69.5456C28.105 68.1338 29.4168 65.8292 29.4168 63.224C29.4168 63.0228 29.4014 62.8253 29.3861 62.6279H32.0931V62.6144L32.8183 63.6397C32.9612 63.8425 33.1909 63.9381 33.4238 63.9386V63.9512H53.9536V63.9385C54.1866 63.9383 54.4161 63.8426 54.5591 63.6397L55.2973 62.596V62.6279H57.8909C57.8756 62.8253 57.8602 63.0228 57.8602 63.224C57.8602 65.8292 59.172 68.1338 61.1742 69.5456H26.1027ZM65.7532 69.5456C62.2152 69.5456 59.3365 66.7096 59.3365 63.224C59.3365 59.7384 62.2152 56.9025 65.7532 56.9025C69.2912 56.9025 72.1698 59.7384 72.1698 63.224C72.1698 66.7096 69.2912 69.5456 65.7532 69.5456ZM73.3585 61.1735C72.4419 57.8792 69.3839 55.448 65.7532 55.448C62.1224 55.448 59.0644 57.8792 58.1478 61.1735H56.3034L58.4554 58.1308C58.5537 58.0486 58.6285 57.9459 58.6725 57.8238L60.6576 55.0172H72.4442L74.1465 61.1735H73.3585Z" fill="#472667"/>
<path d="M7.38267 32.728C7.41001 32.7426 10.1018 34.2118 10.8452 37.4398C10.9208 37.7688 11.2086 38 11.5381 38C11.5451 38 11.552 38 11.559 37.9995C11.8973 37.9896 12.1819 37.7381 12.2393 37.3978C12.2463 37.3581 12.9494 33.3841 15.498 32.5942C15.8224 32.4935 16.0291 32.173 15.9967 31.8289C15.9638 31.4848 15.6949 31.2115 15.3575 31.1765C15.2347 31.1638 12.3459 30.8145 11.7309 26.6188C11.6776 26.2586 11.3513 25.9872 11.0144 26.0005C10.6571 26.0071 10.36 26.2827 10.3197 26.6448C10.1908 27.7953 9.44046 30.8887 7.53654 31.3798C7.25011 31.4536 7.03924 31.7003 7.00494 31.9991C6.97018 32.2983 7.12127 32.5885 7.38267 32.728ZM11.0839 29.4001C11.7638 30.7918 12.7199 31.5873 13.5431 32.0392C12.5373 32.8575 11.8811 34.0232 11.4672 35.0362C10.7734 33.7074 9.8497 32.7757 9.13457 32.1933C10.08 31.5037 10.6927 30.4174 11.0839 29.4001Z" fill="#472667"/>
<path d="M70.4251 23.7273C70.4554 23.7419 73.4445 25.2111 74.2708 28.4398C74.3548 28.7688 74.6745 29 75.0405 29C75.0482 29 75.056 29 75.0637 28.9995C75.4395 28.9896 75.7556 28.7381 75.8194 28.3978C75.8272 28.358 76.6082 24.3839 79.4392 23.5935C79.8016 23.4919 80.0349 23.169 79.9957 22.823C79.9561 22.4769 79.6549 22.2051 79.277 22.1753C79.2441 22.1725 75.9456 21.8619 75.2547 17.6183C75.1955 17.2581 74.8727 17.0061 74.4588 17C74.0618 17.0066 73.7318 17.2822 73.687 17.6443C73.5444 18.7949 72.7109 21.8884 70.596 22.3791C70.2778 22.4528 70.0436 22.6996 70.0055 22.9983C69.9669 23.2976 70.1347 23.5878 70.4251 23.7273ZM74.536 20.3998C75.2912 21.792 76.3533 22.5866 77.2677 23.039C76.1505 23.8568 75.4215 25.023 74.9617 26.0356C74.1916 24.7072 73.1655 23.775 72.3711 23.1926C73.4214 22.5034 74.1015 21.4171 74.536 20.3998Z" fill="#472667"/>
<path d="M17.4132 40.2374C17.4321 40.2474 19.2715 41.2177 19.787 43.4125C19.8679 43.7582 20.1763 44 20.5294 44C20.5364 44 20.5433 44 20.5508 44C20.9123 43.9901 21.2177 43.7264 21.2808 43.3698C21.2857 43.343 21.7784 40.6714 23.4638 40.159C23.81 40.0532 24.03 39.7185 23.9967 39.358C23.9634 38.9975 23.6764 38.7099 23.3163 38.6697C23.2354 38.6608 21.3279 38.4185 20.9138 35.65C20.8572 35.2711 20.5542 35.002 20.145 35C19.7622 35.0074 19.4438 35.2975 19.4011 35.6783C19.3217 36.3939 18.8156 38.5068 17.5761 38.8202C17.2687 38.8976 17.0413 39.1574 17.005 39.4727C16.9688 39.7875 17.1316 40.0924 17.4132 40.2374ZM20.229 38.2069C20.6148 38.8202 21.0826 39.2641 21.5504 39.575C21.0732 40.0313 20.7161 40.5845 20.4519 41.1164C20.0522 40.4862 19.5903 39.9991 19.1826 39.6425C19.6375 39.2433 19.9772 38.7283 20.229 38.2069Z" fill="#472667"/>
<path d="M61.4132 32.2366C61.4316 32.2461 63.271 33.2168 63.7865 35.4116C63.8674 35.7572 64.1758 36 64.5289 36C64.5364 36 64.5438 36 64.5513 35.9995C64.9138 35.9891 65.2187 35.7249 65.2803 35.3674C65.2852 35.3406 65.7933 32.6662 67.4638 32.1582C67.81 32.0524 68.03 31.7177 67.9967 31.3572C67.9634 30.9967 67.6764 30.7092 67.3163 30.669C67.2354 30.6601 65.3279 30.4178 64.9138 27.6495C64.8582 27.2756 64.5364 27 64.1594 27C64.1555 27 64.151 27 64.1465 27.0005C63.7636 27.007 63.4453 27.2964 63.4016 27.6763C63.3132 28.4445 62.8127 30.5071 61.5761 30.8195C61.2687 30.8969 61.0413 31.1566 61.005 31.4719C60.9688 31.7868 61.1312 32.0916 61.4132 32.2366ZM64.2285 30.2062C64.6148 30.8195 65.0826 31.2634 65.5504 31.5742C65.0732 32.0311 64.7156 32.5837 64.4514 33.1155C64.0517 32.4854 63.5898 31.9983 63.1826 31.6418C63.6375 31.2425 63.9767 30.7276 64.2285 30.2062Z" fill="#472667"/>
<path d="M39.6836 27.7383C39.7646 27.7462 41.6719 27.9616 42.086 30.4222C42.1421 30.755 42.4634 31 42.8403 31C42.8448 31 42.8497 31 42.8547 31C43.2375 30.9934 43.5558 30.7356 43.5986 30.3971C43.678 29.7611 44.1845 27.883 45.4239 27.6045C45.7313 27.5357 45.9587 27.3048 45.995 27.0246C46.0312 26.7443 45.8684 26.4737 45.5868 26.3448C45.5679 26.336 43.7287 25.474 43.2132 23.5227C43.1308 23.2089 42.8209 22.994 42.4485 23.0001C42.086 23.0094 41.7811 23.2442 41.7195 23.562C41.7146 23.5858 41.2071 25.9631 39.5361 26.4146C39.19 26.5086 38.97 26.8061 39.0033 27.1265C39.0366 27.447 39.3236 27.7025 39.6836 27.7383ZM42.5483 25.5636C42.948 26.1237 43.4099 26.5567 43.817 26.8736C43.3622 27.2285 43.023 27.6862 42.7713 28.1496C42.3849 27.6045 41.9177 27.2099 41.4494 26.9336C41.9266 26.528 42.2841 26.0363 42.5483 25.5636Z" fill="#472667"/>
<path d="M84.5913 35.7643C84.573 35.7543 82.7242 34.7577 82.214 32.5875C82.1316 32.2354 81.8435 32.0104 81.4501 32C81.0885 32.0099 80.783 32.2736 80.7199 32.6302C80.7149 32.657 80.2222 35.3288 78.5363 35.8413C78.1901 35.947 77.97 36.2817 78.0033 36.6423C78.0366 37.0028 78.3237 37.2903 78.6838 37.3306C78.7648 37.3395 80.6727 37.5819 81.087 40.3499C81.1431 40.7244 81.4645 41 81.8415 41C81.846 41 81.8509 41 81.8559 41C82.2389 40.9926 82.5573 40.7025 82.6 40.3216C82.6795 39.606 83.1861 37.4935 84.4254 37.1801C84.7319 37.1026 84.9569 36.8439 84.9947 36.5305C85.0319 36.2167 84.871 35.9118 84.5913 35.7643ZM81.7719 37.7934C81.386 37.1801 80.9181 36.7361 80.4502 36.4253C80.9275 35.9689 81.2852 35.4157 81.5489 34.8838C81.9493 35.514 82.4112 36.0012 82.8185 36.3577C82.3635 36.757 82.0243 37.272 81.7719 37.7934Z" fill="#472667"/>
<path d="M28.5 23C28.776 23 29 22.7653 29 22.4761V21.5239C29 21.2347 28.776 21 28.5 21C28.224 21 28 21.2347 28 21.5239V22.4761C28 22.7653 28.224 23 28.5 23Z" fill="#472667"/>
<path d="M28.5 25C28.224 25 28 25.2347 28 25.5239V26.4761C28 26.7653 28.224 27 28.5 27C28.776 27 29 26.7653 29 26.4761V25.5239C29 25.2347 28.776 25 28.5 25Z" fill="#472667"/>
<path d="M25.7858 25H27.2142C27.648 25 28 24.5521 28 24C28 23.4479 27.648 23 27.2142 23H25.7858C25.352 23 25 23.4479 25 24C25 24.5521 25.352 25 25.7858 25Z" fill="#472667"/>
<path d="M29.7859 25H31.2141C31.648 25 32 24.5521 32 24C32 23.4479 31.648 23 31.2141 23H29.7859C29.352 23 29 23.4479 29 24C29 24.5521 29.352 25 29.7859 25Z" fill="#472667"/>
<path d="M51.5 33C51.776 33 52 32.648 52 32.2142V30.7858C52 30.352 51.776 30 51.5 30C51.224 30 51 30.352 51 30.7858V32.2142C51 32.648 51.224 33 51.5 33Z" fill="#472667"/>
<path d="M51.5 34C51.224 34 51 34.352 51 34.7858V36.2142C51 36.648 51.224 37 51.5 37C51.776 37 52 36.648 52 36.2142V34.7858C52 34.352 51.776 34 51.5 34Z" fill="#472667"/>
<path d="M48.7859 34H50.2141C50.648 34 51 33.776 51 33.5C51 33.224 50.648 33 50.2141 33H48.7859C48.352 33 48 33.224 48 33.5C48 33.776 48.352 34 48.7859 34Z" fill="#472667"/>
<path d="M52.7858 34H54.2142C54.648 34 55 33.776 55 33.5C55 33.224 54.648 33 54.2142 33H52.7858C52.352 33 52 33.224 52 33.5C52 33.776 52.352 34 52.7858 34Z" fill="#472667"/>
<path d="M5.5 46C5.77604 46 6 45.648 6 45.2141V43.7859C6 43.352 5.77604 43 5.5 43C5.22396 43 5 43.352 5 43.7859V45.2141C5 45.648 5.22396 46 5.5 46Z" fill="#472667"/>
<path d="M5.5 47C5.22396 47 5 47.352 5 47.7858V49.2142C5 49.648 5.22396 50 5.5 50C5.77604 50 6 49.648 6 49.2142V47.7858C6 47.352 5.77604 47 5.5 47Z" fill="#472667"/>
<path d="M4.21419 47C4.64802 47 5 46.776 5 46.5C5 46.224 4.64802 46 4.21419 46H2.78581C2.35198 46 2 46.224 2 46.5C2 46.776 2.35198 47 2.78581 47H4.21419Z" fill="#472667"/>
<path d="M6.78581 47H8.21419C8.64802 47 9 46.776 9 46.5C9 46.224 8.64802 46 8.21419 46H6.78581C6.35198 46 6 46.224 6 46.5C6 46.776 6.35198 47 6.78581 47Z" fill="#472667"/>
</svg>
