<svg width="87" height="87" viewBox="0 0 87 87" fill="none" xmlns="http://www.w3.org/2000/svg">
<path d="M42.0914 45.1404C42.1439 44.1548 42.8452 43.3206 43.8123 43.1044V42.8202C43.8246 42.4093 44.1614 42.0818 44.5754 42.0818C44.9893 42.0818 45.3261 42.4093 45.3385 42.8202V43.1044C45.8977 43.2496 46.3889 43.5894 46.7226 44.059C46.843 44.2259 46.8925 44.4359 46.8554 44.6399C46.8183 44.8438 46.7009 45.026 46.531 45.1403C46.358 45.2577 46.1479 45.2979 45.944 45.2547C45.7432 45.2145 45.5671 45.0909 45.4559 44.9148C45.2396 44.6553 44.9152 44.5101 44.5753 44.5286C44.0131 44.5286 43.6207 44.853 43.6207 45.1434C43.6207 45.4338 44.0162 45.7582 44.5753 45.7582V45.7551C45.8513 45.6686 46.9573 46.6233 47.0593 47.8961C47.0098 48.8848 46.3054 49.7159 45.3415 49.9352V50.2194V50.2163C45.3291 50.6303 44.9893 50.9578 44.5784 50.9578C44.1644 50.9578 43.8246 50.6303 43.8122 50.2163V49.9321V49.9352C43.253 49.7869 42.7649 49.4501 42.4312 48.9775C42.2149 48.6284 42.3138 48.1711 42.6536 47.9425C42.9935 47.7139 43.4538 47.7942 43.6948 48.1248C43.9111 48.3843 44.2354 48.5264 44.5753 48.511C45.1376 48.511 45.5299 48.1866 45.5299 47.8961C45.5299 47.6057 45.1345 47.2813 44.5753 47.2813C43.2993 47.3679 42.1964 46.4132 42.0914 45.1404ZM32.8504 51.6623C32.6465 51.6623 32.4519 51.5819 32.3098 51.4367C32.1676 51.2946 32.0873 51.1 32.0873 50.8961V42.1407C32.0873 41.9368 32.1676 41.7422 32.3098 41.6001C32.4519 41.4549 32.6465 41.3745 32.8504 41.3745C33.527 41.3745 34.077 40.8277 34.077 40.1511C34.077 39.7278 34.4199 39.3849 34.8401 39.3849H54.3099C54.73 39.3849 55.073 39.7278 55.073 40.1511C55.073 40.8277 55.6229 41.3745 56.2995 41.3745C56.7228 41.3745 57.0626 41.7175 57.0626 42.1407V50.8961C57.0626 51.1 56.9823 51.2946 56.8402 51.4367C56.695 51.5819 56.5003 51.6623 56.2995 51.6623C55.6229 51.6623 55.073 52.2122 55.073 52.8888C55.073 53.309 54.73 53.6519 54.3099 53.6519H34.8401C34.4199 53.6519 34.077 53.309 34.077 52.8888C34.077 52.2122 33.527 51.6623 32.8504 51.6623ZM33.6135 50.238C34.5218 50.5006 35.2324 51.2112 35.4981 52.1195H53.6518C53.9175 51.2112 54.6281 50.5037 55.5364 50.238V42.7954C54.6281 42.5328 53.9175 41.8222 53.6518 40.9139H35.4981C35.2324 41.8222 34.5218 42.5328 33.6135 42.7954V50.238ZM34.3735 46.5152C34.3735 45.8448 34.7783 45.2423 35.3962 44.9828C36.0141 44.7264 36.7278 44.8685 37.2004 45.3443C37.6762 45.817 37.8183 46.5306 37.5619 47.1485C37.3054 47.7664 36.6999 48.1711 36.0295 48.1711C35.1181 48.1681 34.3766 47.4328 34.3735 46.5183L34.3735 46.5152ZM35.9028 46.5152C35.9028 46.6295 36.0419 46.6882 36.1222 46.6048C36.2025 46.5245 36.1438 46.3885 36.0295 46.3885C35.9584 46.3885 35.9028 46.4472 35.9028 46.5183L35.9028 46.5152ZM51.4648 46.5152H51.4617C51.4617 45.8448 51.8664 45.2423 52.4843 44.9828C53.1053 44.7264 53.8159 44.8685 54.2917 45.3443C54.7644 45.817 54.9065 46.5306 54.6501 47.1485C54.3937 47.7664 53.7912 48.1711 53.1208 48.1711C52.2063 48.1681 51.4679 47.4328 51.4617 46.5183L51.4648 46.5152ZM52.9941 46.5152H52.991C52.991 46.6295 53.13 46.6882 53.2103 46.6048C53.2907 46.5245 53.2351 46.3885 53.1207 46.3885C53.0466 46.3885 52.991 46.4472 52.991 46.5183L52.9941 46.5152ZM61.7312 42.0478V55.9164C61.7282 57.387 60.5387 58.5796 59.0681 58.5796H34.8402C33.4437 58.5765 32.2882 57.4951 32.1894 56.1018C30.8331 55.9597 29.8043 54.8166 29.8012 53.4541V39.5823C29.8043 38.1117 30.9937 36.9223 32.4644 36.9192H56.6891C58.0855 36.9223 59.2441 38.0036 59.343 39.4C60.6993 39.5421 61.7282 40.6853 61.7312 42.0478ZM32.4613 54.5877H56.6892C57.3164 54.5877 57.823 54.081 57.823 53.4538V39.5821C57.823 38.958 57.3164 38.4482 56.6892 38.4482H32.4613C31.8341 38.4482 31.3274 38.958 31.3274 39.5821V53.4538C31.3274 54.081 31.8341 54.5877 32.4613 54.5877ZM60.2016 42.0478C60.2016 41.5319 59.8525 41.0808 59.352 40.9511V53.4546C59.3489 54.9252 58.1595 56.1177 56.6889 56.1177H33.7248C33.8206 56.6584 34.2902 57.0538 34.8402 57.0538H59.0681C59.6953 57.0538 60.2019 56.5441 60.2019 55.9169L60.2016 42.0478ZM60.2325 66.4948C60.6712 68.1353 59.9668 69.7017 58.6291 70.0601L38.1675 75.5408V75.5439C37.6083 75.6984 37.0182 75.6984 36.4621 75.5439L27.0393 73.0198L21.7191 78.34C21.4225 78.6365 20.9375 78.6365 20.6378 78.34L11.7527 69.4549C11.4561 69.1552 11.4561 68.6732 11.7527 68.3735L19.4826 60.6406C22.8965 57.2267 25.7295 58.7128 27.803 59.8003H27.806C28.3251 60.0999 28.872 60.344 29.4404 60.5294L38.221 62.8218L38.218 62.8248C38.9162 62.9979 39.5866 63.2635 40.2168 63.6096L47.9684 59.8558C50.3411 58.7066 51.9754 58.9692 52.9301 59.3924C53.8044 59.7786 54.5026 60.483 54.8795 61.3604C55.1575 61.4439 55.4294 61.5551 55.6858 61.6972C56.5077 62.1482 57.1317 62.8897 57.4407 63.7764C58.7939 64.1132 59.8628 65.1512 60.2335 66.4952L60.2325 66.4948ZM54.9433 63.0346C54.0412 62.5372 52.7652 62.5774 51.2483 63.1489L42.5356 66.4485C42.5727 66.5875 42.5974 66.7296 42.6159 66.8718L53.7693 63.8843C54.3656 63.7205 54.9804 63.6217 55.6014 63.5877C55.4191 63.3652 55.1967 63.1767 54.9433 63.0346ZM41.5596 64.6535C41.677 64.7833 41.7882 64.9161 41.8901 65.0582L50.7072 61.7215C51.4147 61.4435 52.1592 61.2643 52.9162 61.1871C52.7339 61.0233 52.53 60.8905 52.3076 60.7916C51.3622 60.3714 50.0924 60.5259 48.6311 61.2334L41.5596 64.6535ZM23.965 73.934L16.1609 66.13L13.3773 68.9136L21.1783 76.7176L23.965 73.934ZM58.7555 66.8962V66.8931C58.4867 65.9601 57.6834 65.2773 56.7165 65.1661C56.6948 65.1661 56.6732 65.1599 56.6516 65.1537C55.8174 65.0487 54.9678 65.1197 54.1646 65.3638L42.4583 68.4934C42.2915 69.0217 42.0011 69.5037 41.6118 69.9022C41.0402 70.5355 40.169 70.8043 39.3379 70.6035L31.1141 68.4007C30.7063 68.2925 30.4622 67.8724 30.5734 67.4646C30.6815 67.0568 31.1017 66.8158 31.5095 66.9239L39.7334 69.1267C40.0331 69.1731 40.3359 69.0557 40.5305 68.8209C41.0495 68.2586 41.238 67.4677 41.0341 66.7293C40.7344 65.6233 39.5944 64.7613 37.8241 64.2979L29.0497 62.0055C28.37 61.7955 27.712 61.5081 27.0941 61.1529C25.0828 60.0994 23.1828 59.1014 20.5629 61.7213L17.2386 65.0425L25.0427 72.8466L26.2692 71.62C26.4639 71.4285 26.745 71.3512 27.0076 71.4223L36.8568 74.0669C37.1534 74.1534 37.4716 74.1534 37.7712 74.0669L58.2297 68.5862C58.7178 68.4533 58.9619 67.6624 58.7549 66.8901L58.7555 66.8962ZM75.2475 26.5353L67.5177 34.2652C65.9266 35.8563 64.4591 36.3815 63.143 36.3815C61.7435 36.2857 60.3871 35.847 59.1946 35.1086C58.6756 34.8089 58.1287 34.5649 57.5603 34.3764L48.7859 32.084C48.0877 31.9079 47.4173 31.6453 46.7871 31.2993L39.0355 35.053C38.0561 35.5628 36.9717 35.847 35.8657 35.8749C35.2478 35.8841 34.6392 35.7606 34.0738 35.5165C33.1995 35.1272 32.5013 34.4259 32.1244 33.5454C31.8463 33.462 31.5745 33.3508 31.3212 33.2117C30.4962 32.7607 29.8722 32.0192 29.5632 31.1325C28.21 30.7988 27.141 29.7577 26.7703 28.4138C26.3316 26.7733 27.036 25.2069 28.3737 24.8485L48.8354 19.3677L48.8323 19.3647C49.3915 19.2102 49.9815 19.2102 50.5376 19.3647L59.9605 21.8888L65.2806 16.5686C65.5803 16.272 66.0623 16.272 66.362 16.5686L75.2471 25.4537C75.5436 25.7534 75.5441 26.2356 75.2475 26.5353ZM32.0568 31.874C32.9589 32.3714 34.2349 32.3312 35.7518 31.7597L44.4645 28.4631V28.4601C44.4305 28.321 44.4027 28.1789 44.3842 28.0368L33.2308 31.0243V31.0274C32.6314 31.1911 32.0166 31.29 31.3956 31.324C31.581 31.5464 31.8034 31.7349 32.0568 31.874ZM45.4405 30.2551C45.3231 30.1253 45.2119 29.9924 45.11 29.8503L36.2929 33.187C35.5823 33.4651 34.8409 33.6443 34.0839 33.7215C34.2662 33.8821 34.4701 34.015 34.6925 34.117C35.6348 34.534 36.9077 34.3826 38.369 33.6752L45.4405 30.2551ZM69.761 29.8596L61.9569 22.0555L60.7304 23.2821C60.5358 23.4736 60.2546 23.5478 59.992 23.4798L50.1428 20.8414C49.8462 20.7549 49.528 20.7549 49.2284 20.8414L28.7668 26.3222C28.2817 26.4519 28.0376 27.2429 28.2446 28.0152V28.0183C28.5103 28.9452 29.3043 29.6248 30.2621 29.7422C30.2961 29.7453 30.327 29.7515 30.3579 29.7577C31.1889 29.8627 32.0355 29.7917 32.8387 29.5476L44.5449 26.4118H44.5419C44.7087 25.8835 44.9991 25.4016 45.3884 25.003C45.963 24.3728 46.8342 24.1009 47.6653 24.3017L55.8892 26.5046C56.297 26.6127 56.538 27.0329 56.4298 27.4407C56.3217 27.8485 55.9015 28.0895 55.4937 27.9813L47.2699 25.7785C47.2204 25.7661 47.171 25.7569 47.1185 25.7569C46.8713 25.7816 46.6396 25.8959 46.4728 26.0813C45.9537 26.6466 45.7622 27.4375 45.9661 28.1728C46.2689 29.2788 47.4058 30.1408 49.1761 30.6042L57.9567 32.8966L57.9537 32.8997C58.6364 33.1098 59.2914 33.3971 59.9093 33.7524C61.9206 34.8059 63.8206 35.8038 66.4405 33.1839L69.761 29.8596ZM73.6259 25.9947L65.8219 18.1906L63.0352 20.9742L70.8392 28.7783L73.6259 25.9947Z" fill="#472667"/>
</svg>
