<svg width="45" height="44" viewBox="0 0 45 44" fill="none" xmlns="http://www.w3.org/2000/svg">
<path d="M32.7705 13.8957C32.7844 13.8957 32.7984 13.8956 32.8125 13.8956C37.4724 13.8956 41.25 17.6801 41.25 22.3487C41.25 26.6996 37.9688 30.2827 33.75 30.75M32.7705 13.8957C32.7983 13.5864 32.8125 13.273 32.8125 12.9564C32.8125 7.25053 28.1955 2.625 22.5 2.625C17.1061 2.625 12.6794 6.77376 12.2258 12.0599M32.7705 13.8957C32.5787 16.0267 31.7411 17.9711 30.4552 19.5309M12.2258 12.0599C7.46996 12.5132 3.75 16.5261 3.75 21.4093C3.75 25.9532 6.9708 29.7435 11.25 30.6137M12.2258 12.0599C12.5217 12.0316 12.8217 12.0172 13.125 12.0172C15.2359 12.0172 17.1839 12.7161 18.7509 13.8956" stroke="#CB1F49" stroke-width="3" stroke-linecap="round" stroke-linejoin="round"/>
<path d="M22.5 21.375V36.375M22.5 21.375C21.1871 21.375 18.7341 25.1143 17.8125 26.0625M22.5 21.375C23.8129 21.375 26.2659 25.1143 27.1875 26.0625" stroke="#CB1F49" stroke-width="3" stroke-linecap="round" stroke-linejoin="round"/>
</svg>
