<svg width="87" height="87" viewBox="0 0 87 87" fill="none" xmlns="http://www.w3.org/2000/svg">
<path d="M76.5236 80.543L72.3929 49.3266C72.3126 48.7118 71.7874 48.2545 71.1695 48.2545H65.3798L64.7897 43.3515C64.7341 42.8943 64.4282 42.505 63.9988 42.3444C61.1348 41.2692 58.101 40.7997 55.0797 40.9449C55.333 40.6885 55.6018 40.4197 55.8953 40.1355C59.4235 36.7092 61.3668 32.103 61.3668 27.1598C61.3668 17.2299 53.3525 9.14844 43.5002 9.14844C33.6478 9.14844 25.6335 17.2276 25.6335 27.1598C25.6335 32.103 27.5768 36.7092 31.105 40.1355C31.3985 40.4197 31.6704 40.6885 31.9206 40.9449C28.896 40.7997 25.8621 41.2693 23.0015 42.3444C22.569 42.505 22.2632 42.8943 22.2106 43.3515L21.6205 48.2545H15.8308C15.2129 48.2545 14.6877 48.7149 14.6074 49.3266L10.4767 80.543C10.4304 80.8952 10.5385 81.2505 10.7733 81.5193C11.0081 81.7881 11.3449 81.9395 11.7033 81.9395H37.2006V82.2361C37.2006 84.1793 38.7824 85.7611 40.7257 85.7611H46.2774C48.2207 85.7611 49.8025 84.1793 49.8025 82.2361V81.9395H75.2999C75.6551 81.9395 75.995 81.785 76.2298 81.5193C76.4615 81.2505 76.57 80.8952 76.5236 80.543ZM62.4296 44.4056L63.0537 49.5836C63.0568 49.6145 63.0599 49.6454 63.066 49.6763L65.7169 71.7229C58.818 70.0082 51.6316 70.0268 44.7396 71.7754V58.5712H44.789C47.8229 58.5712 50.2944 56.1026 50.2944 53.0657C50.2944 53.0348 50.2914 53.0039 50.2914 52.973C51.867 52.4602 53.0101 50.9772 53.0101 49.2285C53.0101 48.1781 52.5961 47.2234 51.9226 46.5191C52.0678 45.4346 52.3335 44.5603 52.868 43.6551C56.0595 43.1237 59.3431 43.3799 62.4296 44.4056ZM37.9296 47.7731H49.0704C49.8767 47.7731 50.5317 48.4281 50.5317 49.2345C50.5317 50.0439 49.8768 50.702 49.0704 50.702H37.9296C37.1233 50.702 36.4683 50.0439 36.4683 49.2345C36.4683 48.4281 37.1232 47.7731 37.9296 47.7731ZM47.8128 53.1704C47.7603 54.7955 46.4226 56.1054 44.7821 56.1054H42.2147C40.5742 56.1054 39.2395 54.7986 39.1839 53.1704H47.8128ZM28.1049 27.1566C28.1049 18.5864 35.0131 11.6169 43.5 11.6169C51.9896 11.6169 58.895 18.5868 58.895 27.1566C58.895 31.4263 57.2174 35.4058 54.1743 38.3591C52.8427 39.6505 51.8695 40.7287 51.1589 41.7514C51.1095 41.8101 51.0662 41.8749 51.0292 41.9429C50.3 43.0428 49.8675 44.0932 49.6172 45.3012H37.3763C37.123 44.0932 36.6936 43.0397 35.9613 41.9398C35.9242 41.8719 35.881 41.8101 35.8346 41.7514C35.1241 40.7256 34.154 39.6506 32.8193 38.3591C29.7824 35.4055 28.1049 31.4263 28.1049 27.1566ZM34.1418 43.6605C34.6763 44.5657 34.9389 45.4401 35.0872 46.5245C34.4137 47.2289 33.9997 48.1836 33.9997 49.234C33.9997 50.9795 35.1428 52.4656 36.7184 52.9785C36.7184 53.0094 36.7153 53.0403 36.7153 53.0712C36.7153 56.105 39.1838 58.5766 42.2208 58.5766H42.2702V71.7808C35.3744 70.0322 28.1881 70.0136 21.2929 71.7283L23.9437 49.6817C23.9499 49.6508 23.953 49.6199 23.9561 49.589L24.5802 44.411C27.6573 43.3791 30.941 43.123 34.1418 43.6605ZM13.1084 79.4705L16.9115 50.7226H21.3233L18.6138 73.2477C18.5644 73.6586 18.725 74.0695 19.0432 74.3382C19.3615 74.607 19.7909 74.6966 20.1894 74.5792C25.7381 72.9449 31.5247 72.5216 37.1971 73.3033V79.4699L13.1084 79.4705ZM47.331 82.2356C47.331 82.8165 46.8583 83.2922 46.2744 83.2922H40.7226C40.1418 83.2922 39.6661 82.8195 39.6661 82.2356V73.7175C40.8339 73.9523 41.9955 74.2397 43.1479 74.5764C43.3765 74.6444 43.6175 74.6444 43.8461 74.5764C44.9985 74.2365 46.1601 73.9523 47.3279 73.7175L47.331 82.2356ZM49.8026 79.4705V73.3039C55.478 72.5223 61.2613 72.9486 66.8103 74.5799C66.9246 74.6139 67.042 74.6293 67.1594 74.6293C67.4467 74.6293 67.731 74.5273 67.9565 74.3358C68.2747 74.067 68.4354 73.6592 68.3859 73.2452L65.6764 50.7201H70.0882L73.8914 79.4681L49.8026 79.4705Z" fill="#472667"/>
<path d="M33.7465 26.8228L37.0956 29.835L36.1533 34.2437C35.9586 35.1551 36.3077 36.0634 37.0677 36.6195C37.8185 37.1602 38.7855 37.2096 39.598 36.7462L43.5 34.4908L47.4082 36.7524C47.7728 36.9594 48.1713 37.0613 48.5667 37.0613C49.0456 37.0613 49.5244 36.9099 49.9385 36.6133C50.6923 36.0634 51.0383 35.1551 50.8468 34.2437L49.9045 29.835L53.2443 26.832C53.9456 26.2141 54.202 25.2718 53.9147 24.3758C53.6274 23.483 52.8674 22.8713 51.9405 22.7786L47.4607 22.309L45.6256 18.1876C45.2455 17.335 44.433 16.8066 43.5 16.8066C42.5669 16.8066 41.7544 17.3349 41.3744 18.1876L39.5393 22.309L35.0657 22.7755C34.1327 22.8682 33.3727 23.4799 33.0854 24.3727C32.795 25.2687 33.0514 26.211 33.7465 26.8228ZM40.5063 24.688C40.9451 24.6416 41.3282 24.3666 41.5073 23.9619L43.5 19.4821L45.4927 23.9619C45.6719 24.3636 46.0519 24.6416 46.4937 24.688L51.3658 25.1977L47.7233 28.4756C47.3958 28.7722 47.2506 29.2202 47.3402 29.6528L48.3659 34.4538L44.1179 31.9976C43.7348 31.7752 43.2652 31.7752 42.8821 31.9976L38.634 34.4538L39.6598 29.6528C39.7525 29.2202 39.6073 28.7722 39.2767 28.4756L35.6341 25.1977L40.5063 24.688Z" fill="#472667"/>
<path d="M61.3421 17.8699C61.5522 17.8699 61.7654 17.8174 61.96 17.7031L67.0917 14.7372C67.6818 14.3973 67.8857 13.6404 67.5428 13.0503C67.2029 12.4602 66.446 12.2563 65.8559 12.5992L60.7243 15.5651C60.1342 15.905 59.9303 16.6619 60.2732 17.252C60.4987 17.6475 60.9127 17.8699 61.3421 17.8699Z" fill="#472667"/>
<path d="M61.9567 36.1628C61.3666 35.823 60.6097 36.0238 60.2698 36.6139C59.93 37.204 60.1308 37.9609 60.7209 38.3007L65.8525 41.2666C66.0472 41.3779 66.2603 41.4335 66.4704 41.4335C66.8968 41.4335 67.3108 41.211 67.5394 40.8156C67.8793 40.2255 67.6784 39.4686 67.0883 39.1287L61.9567 36.1628Z" fill="#472667"/>
<path d="M62.8615 26.9345C62.8615 27.6173 63.4145 28.1703 64.0972 28.1703H70.0229C70.7057 28.1703 71.2587 27.6173 71.2587 26.9345C71.2587 26.2517 70.7057 25.6987 70.0229 25.6987H64.0972C63.4145 25.6987 62.8615 26.2517 62.8615 26.9345Z" fill="#472667"/>
<path d="M19.9119 39.1286C19.3218 39.4685 19.1179 40.2254 19.4609 40.8155C19.6895 41.2109 20.1035 41.4334 20.5299 41.4334C20.7399 41.4334 20.9531 41.3809 21.1478 41.2665L26.2794 38.3006C26.8695 37.9608 27.0734 37.2039 26.7305 36.6138C26.3906 36.0237 25.6337 35.8198 25.0436 36.1627L19.9119 39.1286Z" fill="#472667"/>
<path d="M19.9119 14.7399L25.0436 17.7058C25.2382 17.8171 25.4514 17.8727 25.6615 17.8727C26.0878 17.8727 26.5018 17.6502 26.7304 17.2548C27.0703 16.6647 26.8695 15.9078 26.2794 15.5679L21.1477 12.602C20.5576 12.2622 19.8007 12.463 19.4609 13.0531C19.1179 13.6432 19.3218 14.397 19.9119 14.7399Z" fill="#472667"/>
<path d="M16.9769 28.1667H22.9025C23.5853 28.1667 24.1383 27.6136 24.1383 26.9309C24.1383 26.2481 23.5853 25.6951 22.9025 25.6951L16.9769 25.6982C16.2941 25.6982 15.7411 26.2512 15.7411 26.934C15.7442 27.6136 16.2972 28.1667 16.9769 28.1667Z" fill="#472667"/>
</svg>
