<svg width="100" height="100" viewBox="0 0 100 100" fill="none" xmlns="http://www.w3.org/2000/svg">
<path d="M28.5973 94.9446C15.7084 94.9446 5.18066 84.5557 5.18066 71.6529C5.18066 60.764 12.5696 51.6251 22.5834 48.9862V17.6946C22.5834 14.3196 25.3334 11.5557 28.7223 11.5557H30.3473V9.18066C30.3473 6.93066 32.2223 5.05566 34.3473 5.05566C36.5973 5.05566 38.4723 6.93066 38.4723 9.18066V11.5557H48.3612V9.18066C48.3612 6.93066 50.2362 5.05566 52.4862 5.05566C54.7362 5.05566 56.4862 6.93066 56.4862 9.18066V11.5557H66.5001V9.18066C66.5001 6.93066 68.2501 5.05566 70.5001 5.05566C72.7501 5.05566 74.6251 6.93066 74.6251 9.18066V11.5557H88.5279C92.0279 11.5557 94.7918 14.3057 94.7918 17.6946V53.5001C94.7918 56.7501 92.0418 59.514 88.6529 59.514H84.5279V64.6529C84.5279 68.0279 81.7779 70.7918 78.389 70.7918H51.8751C51.8751 71.0418 51.8751 71.2918 51.8751 71.6668C51.8751 84.5557 41.4862 94.9446 28.5973 94.9446ZM34.3473 31.7223L37.8473 28.5973C38.8473 27.7223 38.9723 26.4723 38.0973 25.5973C37.2223 24.7223 35.9723 25.0973 35.2223 26.0973C34.7223 26.5973 34.0973 26.4723 33.5973 26.0973C32.8473 25.0973 31.5973 24.7223 30.7223 25.5973C29.8473 26.4723 29.9723 27.7223 30.9723 28.5973L34.3473 31.7223ZM39.3612 30.0973L35.1112 33.9723C34.7362 34.2223 34.1112 34.2223 33.7362 33.9723L29.4862 30.0973C27.6112 28.4723 27.4862 25.8473 29.2362 24.0834C30.6112 22.7084 32.7362 22.5834 34.3751 23.9584C36.1251 22.5834 38.2501 22.7084 39.639 24.0834C41.3612 25.8334 41.1112 28.4723 39.3612 30.0973ZM70.5279 46.5001L74.0279 43.3751C74.9029 42.5001 75.1529 41.2501 74.2779 40.3751C73.2779 39.5001 72.1529 39.8751 71.2779 40.8751C70.9029 41.3751 70.1529 41.2501 69.7779 40.8751C68.9029 39.8751 67.7779 39.5001 66.7779 40.3751C65.9029 41.2501 66.1529 42.5001 67.0279 43.3751L70.5279 46.5001ZM75.4168 44.8612L71.2918 48.6112C70.9168 48.9862 70.2918 48.9862 69.7918 48.6112L65.6668 44.8612C63.7918 43.2362 63.6668 40.6112 65.2918 38.8473C66.7918 37.4723 68.9168 37.3473 70.5557 38.5973C72.1807 37.3473 74.3057 37.4723 75.8195 38.8473C77.5418 40.6112 77.2918 43.2362 75.4168 44.8612ZM70.5279 52.6251C73.5279 52.6251 76.0418 55.1251 76.0418 58.139C76.0418 61.1529 73.5418 63.6529 70.5279 63.6529C67.5279 63.6529 65.014 61.1529 65.014 58.139C65.0279 55.014 67.5279 52.6251 70.5279 52.6251ZM70.5279 54.764C68.6529 54.764 67.1529 56.264 67.1529 58.139C67.1529 60.014 68.6529 61.514 70.5279 61.514C72.4029 61.514 73.9029 60.014 73.9029 58.139C73.9029 56.264 72.4168 54.764 70.5279 54.764ZM52.5001 52.6251C55.5001 52.6251 58.014 55.1251 58.014 58.139C58.014 61.1529 55.514 63.6529 52.5001 63.6529C51.7501 63.6529 51.0001 63.5279 50.3751 63.2779C51.0001 65.0279 51.5001 66.7779 51.7501 68.6668H78.4168C80.6668 68.6668 82.4168 66.9168 82.4168 64.6668V20.3334V17.7084C82.4168 16.0834 83.0418 14.7084 83.9168 13.5834H74.6529V15.9584C74.6529 18.2084 72.7779 20.0834 70.5279 20.0834C68.2779 20.0834 66.5279 18.2084 66.5279 15.9584V13.5696H56.514V15.9446C56.514 18.1946 54.764 20.0696 52.514 20.0696C50.264 20.0696 48.389 18.1946 48.389 15.9446V13.5696H38.5001V15.9446C38.5001 18.1946 36.6251 20.0696 34.3751 20.0696C32.2501 20.0696 30.3751 18.1946 30.3751 15.9446V13.5696H28.7501C26.6251 13.5696 24.7501 15.4446 24.7501 17.6946V48.4862C26.0001 48.3612 27.2501 48.2362 28.6251 48.2362C30.0001 48.2362 31.3751 48.3612 32.6251 48.6112C30.5001 47.8612 28.8751 45.7362 28.8751 43.3473C28.8751 40.3473 31.3751 37.8334 34.389 37.8334C37.514 37.8334 40.0279 40.3334 40.0279 43.3473C40.0279 46.3473 37.5279 48.8612 34.389 48.8612C34.264 48.8612 34.139 48.8612 34.014 48.8612C39.2779 50.1112 43.7779 53.1112 47.0279 57.2501C47.3751 54.639 49.7501 52.6251 52.5001 52.6251ZM52.5001 54.764C50.6251 54.764 49.0001 56.264 49.0001 58.139C49.0001 60.014 50.6251 61.514 52.5001 61.514C54.3751 61.514 55.8751 60.014 55.8751 58.139C55.8751 56.264 54.3751 54.764 52.5001 54.764ZM52.5001 37.8612C55.5001 37.8612 58.014 40.3612 58.014 43.3751C58.014 46.3751 55.514 48.889 52.5001 48.889C49.3751 48.889 46.9862 46.389 46.9862 43.3751C47.0001 40.3612 49.3751 37.8612 52.5001 37.8612ZM52.5001 39.9862C50.6251 39.9862 49.0001 41.4862 49.0001 43.3612C49.0001 45.2362 50.6251 46.7362 52.5001 46.7362C54.3751 46.7362 55.8751 45.2362 55.8751 43.3612C55.889 41.4862 54.3751 39.9862 52.5001 39.9862ZM34.3473 39.9862C32.4723 39.9862 30.9723 41.4862 30.9723 43.3612C30.9723 45.2362 32.4723 46.7362 34.3473 46.7362C36.3473 46.7362 37.8473 45.2362 37.8473 43.3612C37.8612 41.4862 36.3473 39.9862 34.3473 39.9862ZM70.5279 23.0834C73.5279 23.0834 76.0418 25.5834 76.0418 28.5973C76.0418 31.6112 73.5418 34.1112 70.5279 34.1112C67.5279 34.1112 65.014 31.6112 65.014 28.5973C65.014 25.5834 67.5279 23.0834 70.5279 23.0834ZM70.5279 25.2084C68.6529 25.2084 67.1529 26.7084 67.1529 28.5834C67.1529 30.4584 68.6529 31.9584 70.5279 31.9584C72.4029 31.9584 73.9029 30.4584 73.9029 28.5834C73.9168 26.7084 72.4168 25.2084 70.5279 25.2084ZM52.5001 23.0834C55.5001 23.0834 58.014 25.5834 58.014 28.5973C58.014 31.6112 55.514 34.1112 52.5001 34.1112C49.3751 34.1112 46.9862 31.6112 46.9862 28.5973C46.9862 25.5834 49.3751 23.0834 52.5001 23.0834ZM52.5001 25.2084C50.6251 25.2084 49.0001 26.7084 49.0001 28.5834C49.0001 30.4584 50.6251 31.9584 52.5001 31.9584C54.3751 31.9584 55.8751 30.4584 55.8751 28.5834C55.889 26.7084 54.3751 25.2084 52.5001 25.2084ZM70.5279 7.18066C69.4029 7.18066 68.5279 8.05566 68.5279 9.18066V15.9446C68.5279 17.0696 69.5279 17.9446 70.5279 17.9446C71.6529 17.9446 72.5279 17.0696 72.5279 15.9446V9.18066C72.5418 8.05566 71.6529 7.18066 70.5279 7.18066ZM34.3473 7.18066C33.3473 7.18066 32.4723 8.05566 32.4723 9.18066V15.9446C32.4723 17.0696 33.3473 17.9446 34.3473 17.9446C35.4723 17.9446 36.3473 17.0696 36.3473 15.9446V9.18066C36.3473 8.05566 35.4723 7.18066 34.3473 7.18066ZM52.5001 7.18066C51.3751 7.18066 50.5001 8.05566 50.5001 9.18066V15.9446C50.5001 17.0696 51.3751 17.9446 52.5001 17.9446C53.5001 17.9446 54.3751 17.0696 54.3751 15.9446V9.18066C54.3751 8.05566 53.5001 7.18066 52.5001 7.18066ZM84.5557 17.6946V20.3196V57.5001H88.6807C90.8057 57.5001 92.6807 55.6251 92.6807 53.5001V17.6946C92.6807 15.4446 90.8057 13.5696 88.5557 13.5696C86.4307 13.5696 84.5557 15.4446 84.5557 17.6946ZM24.9584 72.6668H18.6946C17.3196 72.6668 17.3196 70.5418 18.6946 70.5418H24.9584C25.3334 68.9168 26.8334 67.7918 28.5834 67.7918C30.5834 67.7918 32.3334 69.5418 32.3334 71.6668C32.3334 73.2918 31.2084 74.7918 29.5834 75.2918V81.9307C29.5834 83.3057 27.4584 83.3057 27.4584 81.9307V75.2918C26.2084 74.9168 25.2084 73.9168 24.9584 72.6668ZM28.5973 73.2918C29.4723 73.2918 30.2223 72.5418 30.2223 71.6668C30.2223 70.6668 29.4723 69.9168 28.5973 69.9168C27.5973 69.9168 26.8473 70.6668 26.8473 71.6668C26.8334 72.5418 27.5834 73.2918 28.5973 73.2918ZM44.1112 72.6668H42.3612C40.8612 72.6668 40.8612 70.5418 42.3612 70.5418H44.1112C43.8612 67.0418 42.4862 63.9029 40.2362 61.4029L38.9862 62.6529C37.9862 63.6529 36.4862 62.1529 37.4862 61.1529L38.7362 59.9029C36.3612 57.7779 33.0973 56.2779 29.5973 56.1529V57.9029C29.5973 59.2779 27.4723 59.2779 27.4723 57.9029V56.1529C23.9723 56.2779 20.8334 57.7779 18.3334 59.9029L19.5834 61.1529C20.5834 62.1529 19.0834 63.6529 18.0834 62.6529L16.8334 61.4029C14.7084 63.9029 13.3334 67.0418 13.0834 70.5418H14.8334C16.2084 70.5418 16.2084 72.6668 14.8334 72.6668H13.0696C13.1946 76.1668 14.6946 79.3057 16.8196 81.8057L18.0696 80.5557C19.0696 79.5557 20.5696 81.0557 19.5696 82.0557L18.3196 83.3057C20.8196 85.5557 23.9584 86.9307 27.4584 87.1807V85.3057C27.4584 83.9307 29.5834 83.9307 29.5834 85.3057V87.1807C33.0834 86.9307 36.3473 85.5557 38.7223 83.3057L37.4723 82.0557C36.4723 81.0557 37.9723 79.5557 38.9723 80.5557L40.2223 81.8057C42.4862 79.2918 43.8612 76.1668 44.1112 72.6668ZM28.5973 89.3057C18.8334 89.3057 10.8196 81.4168 10.8196 71.6529C10.8196 61.889 18.8334 53.8751 28.5973 53.8751C38.3612 53.8751 46.2501 61.889 46.2501 71.6529C46.2501 81.4168 38.3612 89.3057 28.5973 89.3057ZM28.5973 92.8196C40.2362 92.8196 49.7501 83.3057 49.7501 71.6668C49.7501 59.9029 40.2362 50.389 28.5973 50.389C16.8334 50.389 7.31955 59.9029 7.31955 71.6668C7.30566 83.3057 16.8196 92.8196 28.5973 92.8196Z" fill="#CB1F49"/>
</svg>
