<svg width="87" height="87" viewBox="0 0 87 87" fill="none" xmlns="http://www.w3.org/2000/svg">
<g clip-path="url(#clip0_86_691)">
<path d="M79.3377 20.6997C79.3315 18.3795 77.7126 16.3744 75.4449 15.88V15.7565C75.4449 14.6813 75.0124 13.6494 74.2462 12.8956C73.48 12.1387 72.442 11.7246 71.3668 11.7402C70.7458 11.7463 70.131 11.8946 69.5749 12.1727C68.8211 10.9956 67.5111 10.2943 66.1147 10.319C65.2342 8.86692 63.6771 7.95856 61.9809 7.90913C60.2817 7.85661 58.6752 8.67223 57.7113 10.0718C56.0306 9.17276 53.9545 9.55893 52.7063 10.9987C51.1801 9.94517 49.1998 9.82155 47.5562 10.6774C45.9126 11.53 44.8745 13.2231 44.859 15.0768V15.5093C42.6161 16.0283 41.028 18.0273 41.028 20.329C41.028 22.5534 42.5727 23.9746 44.3647 24.716C44.2597 25.0991 44.238 25.4977 44.3029 25.8901L46.7127 41.2756H49.1843L46.7127 25.4574C46.7066 25.3895 46.7282 25.3215 46.7745 25.2721H47.3924L47.8867 25.1485H51.7177L52.7681 32.0072C53.3891 31.207 54.1399 30.5181 54.9926 29.9681L54.2511 25.2103H66.1147L65.3115 30.4625C66.1734 31.1267 66.9056 31.9454 67.4742 32.8723L68.5863 25.2103H73.5295C73.5759 25.2598 73.5975 25.3277 73.5913 25.3957L71.1197 41.2139H73.5913L76.0629 25.705C76.1031 25.3744 76.0814 25.0407 76.0011 24.7163C77.8548 24.222 79.3377 22.8005 79.3377 20.6997ZM73.9619 22.8005H46.5894C45.23 22.5533 43.4999 21.8119 43.4999 20.3289C43.5339 18.9541 44.6584 17.8573 46.0333 17.8573H46.2804C46.7253 17.9191 47.1702 17.7337 47.439 17.3754C47.7077 17.0139 47.7634 16.5381 47.578 16.1272C47.4173 15.7997 47.3339 15.4414 47.3308 15.0768C47.3401 13.9461 48.1001 12.9574 49.1907 12.6577C50.2813 12.355 51.4368 12.8122 52.0269 13.7792C52.2926 14.2303 52.8085 14.4651 53.3213 14.3663C53.8342 14.2705 54.2327 13.8627 54.3131 13.3467C54.4366 12.5898 55.0916 12.0399 55.8578 12.0491C56.3954 12.0337 56.9051 12.2901 57.2172 12.7288C57.4952 13.1335 57.9896 13.3344 58.4715 13.2417C58.9535 13.149 59.3334 12.7752 59.4416 12.2963C59.6857 11.181 60.6465 10.3685 61.7865 10.3098C62.9296 10.2511 63.9677 10.9647 64.323 12.0491C64.53 12.6639 65.1787 13.0162 65.8059 12.8524H66.1767C66.5876 12.8369 66.9861 12.9821 67.2888 13.2602C67.5885 13.5383 67.7677 13.9244 67.7831 14.3354C67.7986 14.8822 68.1693 15.3549 68.6945 15.497C69.2228 15.6392 69.782 15.4167 70.0693 14.9533C70.3659 14.4899 70.8788 14.2087 71.4288 14.2118C71.8489 14.1964 72.2568 14.3508 72.5626 14.6413C72.8654 14.9348 73.0353 15.3364 73.0353 15.7566C73.026 15.9945 72.9642 16.2262 72.8499 16.4363C72.6337 16.8503 72.6677 17.3539 72.9426 17.7339C73.2176 18.1139 73.6841 18.3054 74.1475 18.2282H74.3946C75.7695 18.2282 76.8941 19.3249 76.928 20.6998C76.8662 21.9356 75.3831 22.7387 73.9619 22.8005Z" fill="#472667"/>
<path d="M53.7573 16.3125C53.0745 16.3125 52.5215 16.8655 52.5215 17.5483C52.5215 17.6503 52.4381 17.7337 52.3361 17.7337C51.6534 17.7337 51.1003 18.2867 51.1003 18.9695C51.1003 19.6522 51.6534 20.2053 52.3361 20.2053C53.0405 20.2053 53.7171 19.9241 54.2145 19.4267C54.7119 18.9293 54.9931 18.2527 54.9931 17.5483C54.9931 16.8655 54.4401 16.3125 53.7573 16.3125Z" fill="#472667"/>
<path d="M60.7395 16.9918C60.6777 16.9918 60.5541 16.8682 60.5541 16.5593C60.5541 15.8765 60.0011 15.3235 59.3183 15.3235C58.6355 15.3235 58.0825 15.8765 58.0825 16.5593C58.0485 17.2977 58.3111 18.0176 58.8085 18.5612C59.3059 19.1081 60.0011 19.4325 60.7394 19.4633C61.4222 19.4633 61.9752 18.9103 61.9752 18.2275C61.9752 17.5448 61.4222 16.9918 60.7395 16.9918Z" fill="#472667"/>
<path d="M68.1542 18.8458C68.1172 18.7469 68.0986 18.6419 68.0924 18.5368C68.0924 17.854 67.5394 17.301 66.8566 17.301C66.1739 17.301 65.6208 17.854 65.6208 18.5368C65.6208 20.0815 66.5477 21.2556 67.7217 21.2556C68.3272 21.2494 68.837 20.8045 68.9296 20.2082C69.0192 19.612 68.667 19.0342 68.0924 18.8458L68.1542 18.8458Z" fill="#472667"/>
<path d="M61.0487 41.2761H65.065C66.517 39.3049 66.7395 36.6851 65.6366 34.5008C64.5306 32.3135 62.2906 30.9355 59.8438 30.9355C57.397 30.9355 55.157 32.3135 54.051 34.5008C52.9481 36.6851 53.1705 39.3049 54.6226 41.2761H58.6389C56.7482 40.6798 55.5741 38.7952 55.8738 36.8364C56.1735 34.8746 57.8603 33.4287 59.8438 33.4287C61.8272 33.4287 63.5141 34.8746 63.8137 36.8364C64.1134 38.7952 62.9395 40.6798 61.0487 41.2761Z" fill="#472667"/>
<path d="M73.7768 50.297C74.1043 50.297 74.4194 50.1673 74.6512 49.9355C74.8829 49.7038 75.0126 49.3887 75.0126 49.0612V46.0335C75.0126 44.7946 74.0271 43.7812 72.7882 43.7473H11.7395C10.5006 43.7813 9.51508 44.7946 9.51508 46.0335V49.0612C9.51508 49.3887 9.64483 49.7038 9.87654 49.9355C10.1083 50.1673 10.4234 50.297 10.7509 50.297C12.3204 50.297 13.5933 51.5699 13.5933 53.1394C13.5933 54.7089 12.3204 55.9818 10.7509 55.9818C10.0681 55.9818 9.5151 56.5348 9.5151 57.2175V61.2956C9.5151 61.6231 9.64486 61.9382 9.87657 62.17C10.1083 62.4017 10.4234 62.5315 10.7509 62.5315C12.3204 62.5315 13.5933 63.8043 13.5933 65.3738C13.5933 66.9433 12.3204 68.2162 10.7509 68.2162C10.0681 68.2162 9.51512 68.7692 9.51512 69.452V73.5301C9.51512 73.8576 9.64488 74.1727 9.87659 74.4044C10.1083 74.6362 10.4234 74.7659 10.7509 74.7659C12.3204 74.7659 13.5933 76.0388 13.5933 77.6083C13.5933 79.1777 12.3204 80.4506 10.7509 80.4506C10.0682 80.4506 9.51515 81.0037 9.51515 81.6864V84.7141C9.51515 85.953 10.5007 86.9664 11.7396 87.0003H72.7258C73.9647 86.9663 74.9502 85.953 74.9502 84.7141V81.6864C74.9502 81.3589 74.8205 81.0438 74.5887 80.8121C74.357 80.5804 74.0419 80.4506 73.7144 80.4506C72.1449 80.4506 70.872 79.1777 70.872 77.6082C70.872 76.0388 72.1449 74.7659 73.7144 74.7659C74.0419 74.7659 74.357 74.6361 74.5887 74.4044C74.8205 74.1727 74.9502 73.8576 74.9502 73.53V69.452C74.9502 69.1245 74.8205 68.8093 74.5887 68.5776C74.357 68.3459 74.0419 68.2161 73.7144 68.2161C72.1449 68.2161 70.872 66.9433 70.872 65.3738C70.872 63.8043 72.1449 62.5314 73.7144 62.5314C74.0419 62.5314 74.357 62.4017 74.5887 62.1699C74.8205 61.9382 74.9502 61.6231 74.9502 61.2956V57.2175C74.9502 56.89 74.8205 56.5749 74.5887 56.3432C74.357 56.1114 74.0419 55.9817 73.7144 55.9817C72.1449 55.9817 70.872 54.7088 70.872 53.1393C70.872 51.5698 72.1449 50.2969 73.7144 50.2969L73.7768 50.297ZM72.541 58.3295V60.245C70.1683 60.8289 68.4999 62.9607 68.4999 65.4044C68.4999 67.8482 70.1683 69.98 72.541 70.5638V72.4793C70.1683 73.0632 68.4999 75.195 68.4999 77.6387C68.4999 80.0825 70.1683 82.2143 72.541 82.7982V84.5283H59.071C58.8455 84.1637 58.447 83.9444 58.0206 83.9444C57.5943 83.9444 57.1957 84.1637 56.9702 84.5283H11.9873V82.7982C14.36 82.2142 16.0283 80.0825 16.0283 77.6387C16.0283 75.195 14.36 73.0632 11.9873 72.4793V70.5638C14.36 69.9799 16.0283 67.8482 16.0283 65.4044C16.0283 62.9607 14.36 60.8288 11.9873 60.245V58.3295C14.36 57.7456 16.0283 55.6138 16.0283 53.1701C16.0283 50.7263 14.36 48.5945 11.9873 48.0107V46.2188H56.9702C57.1958 46.5833 57.5943 46.8027 58.0206 46.8027C58.447 46.8027 58.8456 46.5833 59.071 46.2188H72.541V47.9489C70.1683 48.5328 68.4999 50.6645 68.4999 53.1083C68.4999 55.5521 70.1683 57.6839 72.541 58.2677V58.3295Z" fill="#472667"/>
<path d="M58.0203 72.294C57.3375 72.294 56.7845 72.847 56.7845 73.5298V74.7038C56.7845 75.3866 57.3375 75.9396 58.0203 75.9396C58.7031 75.9396 59.2561 75.3866 59.2561 74.7038V73.5298C59.2561 73.2023 59.1263 72.8872 58.8946 72.6554C58.6629 72.4237 58.3478 72.294 58.0203 72.294Z" fill="#472667"/>
<path d="M58.0203 78.1023C57.3375 78.1023 56.7845 78.6553 56.7845 79.3381V80.5121C56.7845 81.1949 57.3375 81.7479 58.0203 81.7479C58.7031 81.7479 59.2561 81.1949 59.2561 80.5121V79.3381C59.2561 79.0106 59.1263 78.6955 58.8946 78.4638C58.6629 78.2321 58.3478 78.1023 58.0203 78.1023Z" fill="#472667"/>
<path d="M58.0203 66.4854C57.3375 66.4854 56.7845 67.0384 56.7845 67.7212V68.8952C56.7845 69.578 57.3375 70.131 58.0203 70.131C58.7031 70.131 59.2561 69.578 59.2561 68.8952V67.7212C59.2561 67.3937 59.1263 67.0786 58.8946 66.8468C58.6629 66.6151 58.3478 66.4854 58.0203 66.4854Z" fill="#472667"/>
<path d="M58.0203 48.9993C57.3375 48.9993 56.7845 49.5523 56.7845 50.2351V51.4091C56.7845 52.0919 57.3375 52.6449 58.0203 52.6449C58.7031 52.6449 59.2561 52.0919 59.2561 51.4091V50.2351C59.2561 49.9076 59.1263 49.5925 58.8946 49.3607C58.6629 49.129 58.3478 48.9993 58.0203 48.9993Z" fill="#472667"/>
<path d="M58.0203 60.6778C57.3375 60.6778 56.7845 61.2308 56.7845 61.9136V63.0876C56.7845 63.7704 57.3375 64.3234 58.0203 64.3234C58.7031 64.3234 59.2561 63.7704 59.2561 63.0876V61.9136C59.2561 61.5861 59.1263 61.2709 58.8946 61.0392C58.6629 60.8075 58.3478 60.6778 58.0203 60.6778Z" fill="#472667"/>
<path d="M58.0203 54.8076C57.3375 54.8076 56.7845 55.3607 56.7845 56.0434V57.2175C56.7845 57.9002 57.3375 58.4533 58.0203 58.4533C58.7031 58.4533 59.2561 57.9002 59.2561 57.2175V56.0434C59.2561 55.716 59.1263 55.4008 58.8946 55.1691C58.6629 54.9374 58.3478 54.8076 58.0203 54.8076Z" fill="#472667"/>
<path d="M52.151 52.3977H20.0203C19.3375 52.3977 18.7845 52.9507 18.7845 53.6335V77.114C18.7845 77.4415 18.9142 77.7566 19.146 77.9884C19.3777 78.2201 19.6928 78.3498 20.0203 78.3498H52.151C52.4785 78.3498 52.7936 78.2201 53.0253 77.9884C53.2571 77.7567 53.3868 77.4415 53.3868 77.114V53.6335C53.3868 53.306 53.257 52.9909 53.0253 52.7592C52.7936 52.5274 52.4785 52.3977 52.151 52.3977ZM50.9152 75.8782H21.2561V54.8701H50.9152V75.8782Z" fill="#472667"/>
<path d="M24.9627 64.1381H47.207C47.8898 64.1381 48.4428 63.5851 48.4428 62.9023C48.4428 62.2195 47.8898 61.6665 47.207 61.6665H24.9627C24.2799 61.6665 23.7269 62.2195 23.7269 62.9023C23.7269 63.5851 24.2799 64.1381 24.9627 64.1381Z" fill="#472667"/>
<path d="M26.8166 73.4059C28.315 73.4059 29.6682 72.5037 30.2428 71.1166C30.8144 69.7325 30.4992 68.1383 29.4395 67.0755C28.3767 66.0158 26.7826 65.7007 25.3985 66.2723C24.0113 66.8469 23.1092 68.2001 23.1092 69.6985C23.1092 71.7468 24.7683 73.4059 26.8166 73.4059ZM26.8166 68.4627C27.3171 68.4627 27.7681 68.7624 27.9597 69.2258C28.1481 69.6861 28.0431 70.2175 27.6909 70.5728C27.3356 70.925 26.8042 71.03 26.3439 70.8416C25.8805 70.65 25.5808 70.1989 25.5808 69.6985C25.5808 69.0157 26.1338 68.4627 26.8166 68.4627Z" fill="#472667"/>
<path d="M45.3539 65.9919C43.8555 65.9919 42.5023 66.894 41.9277 68.2812C41.3561 69.6653 41.6713 71.2595 42.7309 72.3223C43.7938 73.382 45.3879 73.6971 46.772 73.1255C48.1592 72.5509 49.0613 71.1977 49.0613 69.6993C49.0613 67.651 47.4022 65.9919 45.3539 65.9919ZM45.3539 70.9351C44.8534 70.9351 44.4024 70.6354 44.2108 70.172C44.0224 69.7117 44.1274 69.1803 44.4796 68.825C44.8349 68.4728 45.3663 68.3678 45.8266 68.5562C46.29 68.7478 46.5897 69.1989 46.5897 69.6993C46.5897 70.0268 46.4599 70.342 46.2282 70.5737C45.9965 70.8054 45.6814 70.9351 45.3539 70.9351Z" fill="#472667"/>
<path d="M36.4562 65.9919C34.9578 65.9919 33.6046 66.894 33.03 68.2812C32.4584 69.6653 32.7735 71.2595 33.8332 72.3223C34.896 73.382 36.4902 73.6971 37.8743 73.1255C39.2615 72.5509 40.1636 71.1977 40.1636 69.6993C40.1636 67.651 38.5045 65.9919 36.4562 65.9919ZM36.4562 70.9351C35.9557 70.9351 35.5046 70.6354 35.3131 70.172C35.1246 69.7117 35.2297 69.1803 35.5819 68.825C35.9372 68.4728 36.4685 68.3678 36.9289 68.5562C37.3923 68.7478 37.692 69.1989 37.692 69.6993C37.692 70.0268 37.5622 70.342 37.3305 70.5737C37.0988 70.8054 36.7837 70.9351 36.4562 70.9351Z" fill="#472667"/>
<path d="M27.9286 10.3808C28.6114 10.3808 29.1644 9.82775 29.1644 9.14498C29.1644 8.4622 28.6114 7.90918 27.9286 7.90918H23.1089C21.7434 7.90918 20.6374 9.01519 20.6374 10.3808V12.9141C17.588 13.2138 14.7457 14.5794 12.608 16.7729C10.4701 18.9664 9.17874 21.8459 8.95935 24.9011C8.16535 25.3305 7.66487 26.1585 7.66178 27.0637V29.5353C7.65869 30.8546 8.69368 31.9421 10.0098 32.0069L10.8749 41.399H13.3465L12.4814 32.0069H31.2655L30.4004 41.2756H32.872L33.7371 32.0069C35.0533 31.942 36.0882 30.8546 36.0852 29.5353V27.0637C36.0821 26.1585 35.5816 25.3305 34.7876 24.9011C34.5682 21.8456 33.2768 18.9662 31.1389 16.7729C29.001 14.5794 26.1586 13.2138 23.1096 12.9141V10.3808H27.9286ZM33.6132 29.5358H10.1327V27.0642H33.6132V29.5358ZM32.3157 24.5926H11.4309C12.1292 19.3744 16.578 15.4813 21.8425 15.4813C27.1069 15.4813 31.5556 19.3741 32.254 24.5926H32.3157Z" fill="#472667"/>
</g>
<defs>
<clipPath id="clip0_86_691">
<rect width="87" height="87" fill="white"/>
</clipPath>
</defs>
</svg>
