<svg width="87" height="87" viewBox="0 0 87 87" fill="none" xmlns="http://www.w3.org/2000/svg">
<path fill-rule="evenodd" clip-rule="evenodd" d="M19.7296 55.3962C19.7177 55.3537 19.7075 55.3095 19.699 55.267C19.3745 53.8567 19.0686 52.5245 18.7815 51.2977L10.2956 53.6035L15.6056 78.339L24.535 75.8531C24.2597 74.7826 23.9437 73.498 23.6004 72.0723C23.5817 72.0145 23.5665 71.9534 23.5563 71.8922C22.5673 67.7733 21.3626 62.5244 20.2955 57.8634C20.1017 57.0189 19.9131 56.1965 19.7296 55.3979V55.3962ZM20.6302 27.9232C20.5605 27.8281 20.5062 27.7227 20.4688 27.6089C19.0159 24.7287 18.2887 22.0796 18.1341 19.7075C17.8537 15.4425 19.3762 12.0321 21.8536 9.6906C24.309 7.36947 27.7041 6.12394 31.1976 6.16132C35.8314 6.2106 40.647 8.49945 43.6665 13.5104C46.562 8.64558 51.0326 6.30236 55.3147 6.13243C57.736 6.03558 60.0997 6.6354 62.0945 7.86904C64.0996 9.10777 65.7309 10.9837 66.6705 13.4306C68.5091 18.2156 67.6714 25.1994 61.6697 33.8144H63.5389C64.1472 33.8144 64.7011 34.0625 65.1005 34.4618C65.4998 34.8611 65.7479 35.4151 65.7479 36.0234V38.8951C65.7479 39.5034 65.4998 40.0573 65.1005 40.4567C64.7011 40.856 64.1472 41.1041 63.5389 41.1041H60.5788V44.0641C60.5788 44.6724 60.3308 45.2264 59.9314 45.6257C59.5321 46.025 58.9782 46.2731 58.3699 46.2731H55.4982C54.8899 46.2731 54.3359 46.025 53.9366 45.6257C53.5373 45.2264 53.2892 44.6724 53.2892 44.0641V42.7557C50.9188 45.1822 48.8406 47.2025 44.7812 50.3393H44.7795V50.341L44.7591 50.3563H44.7574L44.7353 50.3733C44.5093 50.5296 44.2442 50.5942 43.9877 50.5687C43.9792 50.5687 43.9707 50.567 43.9622 50.5653L43.9401 50.5619H43.9333L43.9129 50.5585H43.9061L43.8857 50.5534H43.8772L43.8602 50.5483H43.85L43.833 50.5415H43.8245L43.8058 50.5347H43.7991C43.6699 50.4973 43.5459 50.4396 43.4354 50.3597C31.0175 42.0284 24.0032 34.3955 20.6387 27.9198L20.6302 27.9232ZM22.2326 26.1254L29.5868 26.0609L31.4627 19.0618C31.6242 18.4586 32.2444 18.1 32.8476 18.2615C33.1806 18.3498 33.4372 18.5775 33.5766 18.8664L39.2383 28.6726L40.7167 23.1569C40.8526 22.6505 41.3097 22.3175 41.8093 22.3175H55.6953C56.3206 22.3175 56.8287 22.8239 56.8287 23.4509C56.8287 24.0779 56.3223 24.5842 55.6953 24.5842H42.6776L40.7184 31.8943H40.715C40.6402 32.173 40.4584 32.4244 40.1865 32.5808C39.6462 32.8917 38.9563 32.7048 38.647 32.1645L32.9427 22.2852L31.5511 27.4797H31.5477C31.4202 27.9572 30.9852 28.3123 30.467 28.3157L23.4356 28.3769C26.8137 34.0693 33.2469 40.7268 44.0403 48.0573C47.5985 45.2654 49.5322 43.3742 51.7412 41.1092H50.3258C49.7174 41.1092 49.1635 40.8611 48.7642 40.4618C48.3649 40.0624 48.1168 39.5085 48.1168 38.9002V36.0285C48.1168 35.4202 48.3649 34.8662 48.7642 34.4669C49.1635 34.0676 49.7174 33.8195 50.3258 33.8195H53.2858V30.8595C53.2858 30.2511 53.5339 29.6972 53.9332 29.2979C54.3325 28.8986 54.8865 28.6505 55.4948 28.6505H58.3665C58.9748 28.6505 59.5287 28.8986 59.928 29.2979C60.3274 29.6972 60.5754 30.2511 60.5754 30.8595V31.3998C65.3961 24.0371 66.0843 18.2054 64.5601 14.2411C63.8074 12.2836 62.5058 10.7849 60.9051 9.79425C59.2942 8.79851 57.3741 8.31423 55.3996 8.39409C51.3538 8.55552 47.0819 11.0857 44.6962 16.4212L44.6911 16.4314L44.686 16.4416L44.6792 16.4569L44.6742 16.4671L44.6657 16.4824L44.6606 16.4909L44.6521 16.5062L44.647 16.5164L44.6385 16.5317L44.6351 16.5368L44.6249 16.5537L44.6198 16.5622L44.6096 16.5775L44.6045 16.5843L44.5943 16.5996L44.5892 16.6064L44.5773 16.6234V16.6268L44.5603 16.6455V16.6489C44.5603 16.6489 44.5484 16.6608 44.5433 16.6676L44.5382 16.6727L44.5246 16.688L44.5195 16.6931L44.5059 16.7084L44.5008 16.7135L44.4872 16.7288L44.4804 16.7356L44.4685 16.7475L44.46 16.756L44.4516 16.7644L44.4397 16.7763L44.4329 16.7831L44.4176 16.7967L44.4125 16.8018L44.3972 16.8154L44.3921 16.8205L44.3768 16.8341L44.3717 16.8392L44.353 16.8528H44.3496L44.3309 16.8698H44.3275L44.3105 16.8851L44.3037 16.8902L44.2884 16.9004L44.2816 16.9055L44.2663 16.9157L44.2578 16.9208L44.2408 16.931L44.2358 16.9344L44.2205 16.9429L44.2103 16.948L44.195 16.9565L44.1865 16.9616L44.1712 16.9701L44.161 16.9752L44.1457 16.9819L44.1355 16.987L44.1253 16.9921H44.1219L44.1083 16.9989L44.0947 17.004L44.0862 17.0074L44.0692 17.0142H44.0675C43.9554 17.0584 43.8398 17.0822 43.726 17.0873H43.7005H43.6971H43.6784H43.6665H43.6546H43.6359H43.6325H43.6087C43.4949 17.0805 43.3793 17.0567 43.2672 17.0142H43.2655L43.2485 17.0057L43.24 17.0023L43.2264 16.9972L43.2128 16.9921H43.2094L43.1992 16.9853L43.189 16.9802L43.1737 16.9735L43.1635 16.9684L43.1483 16.9599L43.1398 16.9548L43.1245 16.9463L43.1143 16.9412L43.099 16.9327L43.0939 16.9293L43.0769 16.9191L43.0684 16.914L43.0531 16.9038L43.0463 16.8987L43.031 16.8885L43.0242 16.8834L43.0072 16.8715H43.0038L42.9851 16.8545H42.9817C42.9817 16.8545 42.9698 16.8426 42.963 16.8375L42.9579 16.8324L42.9426 16.8188L42.9375 16.8137L42.9223 16.8001L42.9172 16.795L42.9019 16.7814L42.8951 16.7746L42.8832 16.7627L42.8747 16.7543L42.8662 16.7458L42.8543 16.7339L42.8475 16.7271L42.8339 16.7118L42.8288 16.7067L42.8152 16.6914L42.8101 16.6863L42.7965 16.671L42.7914 16.6659L42.7778 16.6472V16.6438L42.7608 16.6251V16.6217L42.7455 16.6047L42.7404 16.5979L42.7302 16.5826L42.7251 16.5758L42.715 16.5605L42.7099 16.552L42.6997 16.5351L42.6963 16.53L42.6878 16.5147L42.6827 16.5045L42.6742 16.4892L42.6691 16.4807L42.6606 16.4654L42.6555 16.4552L42.6487 16.4399L42.6436 16.4297L42.6385 16.4195C40.1882 10.9412 35.5799 8.46886 31.1807 8.42298C28.2597 8.3924 25.4356 9.42212 23.4033 11.3422C21.3932 13.242 20.1595 16.0389 20.3923 19.5716C20.5232 21.546 21.0992 23.7414 22.2343 26.1305L22.2326 26.1254ZM59.4438 38.839H63.4811V36.0795H59.4438C58.8184 36.0795 58.3104 35.5731 58.3104 34.9461V30.9087H55.5508V34.9461C55.5508 35.5714 55.0445 36.0795 54.4175 36.0795H50.3801V38.839H54.4175C55.0428 38.839 55.5508 39.3454 55.5508 39.9724V44.0097H58.3104V39.9724C58.3104 39.3471 58.8167 38.839 59.4438 38.839ZM21.5002 53.0105C27.0702 48.6367 30.2495 50.5568 34.0557 52.8559C38.3819 55.4692 43.6648 58.6587 56.2322 50.273C56.2713 50.2475 56.3104 50.2238 56.3512 50.2034C57.9298 49.3181 59.6664 49.539 61.1107 50.3376C61.8346 50.7386 62.4888 51.2909 63.0087 51.9213C63.0376 51.957 63.0665 51.9926 63.0937 52.0283L71.289 47.296C71.3196 47.2756 71.3502 47.2569 71.3825 47.2399C73.0001 46.3682 74.7979 46.4651 76.2524 47.1652C76.9984 47.5237 77.6543 48.0386 78.1505 48.6622C78.6653 49.3079 79.0154 50.0742 79.1275 50.9102C79.311 52.2764 78.8658 53.7802 77.4725 55.1753C74.7826 58.2645 49.9723 73.0545 49.8993 73.0969L49.8823 73.1054C48.0964 74.1369 44.4974 74.5141 40.2086 74.4427C35.8739 74.3714 30.7847 73.8616 26.185 73.1224C26.4925 74.3748 26.7712 75.4742 27.0057 76.3509H27.004C27.1637 76.9491 26.812 77.5659 26.2138 77.7307L15.1128 80.8199C15.0721 80.8335 15.0313 80.8454 14.9888 80.8539C14.3771 80.983 13.7773 80.5939 13.6481 79.9822L7.87587 53.0852C7.71274 52.482 8.06788 51.8601 8.6728 51.6953L19.3252 48.8015L19.3643 48.793C19.9726 48.652 20.5809 49.0292 20.722 49.6375C20.9378 50.5585 21.2045 51.7106 21.5036 53.0088L21.5002 53.0105ZM25.6021 70.7299C24.6438 66.7198 23.5087 61.7733 22.4976 57.3571L22.066 55.4777C26.9921 51.2348 29.6599 52.8457 32.8867 54.793C37.7617 57.736 43.7124 61.3299 57.4608 52.1643C58.2662 51.7208 59.2076 51.8669 60.0215 52.3172C60.4973 52.5806 60.9272 52.9425 61.2653 53.352C61.5933 53.7496 61.8329 54.1846 61.9416 54.6077C62.064 55.0818 62.0062 55.5491 61.6884 55.911C60.8014 56.4854 59.9688 57.0274 59.1821 57.5406C52.8542 61.6612 49.6172 63.7699 46.1848 64.4241C42.5756 65.1123 38.4363 64.2661 29.9674 62.5329L28.3718 62.2066C27.7601 62.0826 27.1654 62.4768 27.0397 63.0868C26.9139 63.6969 27.3098 64.2933 27.9199 64.419L29.5154 64.7453C38.28 66.538 42.5637 67.4148 46.5994 66.645C50.4736 65.9058 53.8346 63.7173 60.4106 59.4335C61.2109 58.9119 62.0606 58.3596 62.9645 57.7734C63.0597 57.7224 63.1481 57.6561 63.2279 57.5763C64.2339 56.5703 64.448 55.2993 64.1251 54.047L64.1217 54.0334L72.4173 49.2433L72.453 49.2246C73.3825 48.7234 74.4275 48.7845 75.2788 49.194C75.7121 49.4013 76.0927 49.7004 76.3799 50.0623C76.65 50.4022 76.8319 50.7913 76.8879 51.2042C76.9831 51.9077 76.7044 52.7301 75.8701 53.5661L75.8735 53.5695C75.8055 53.6375 75.7444 53.7174 75.6934 53.8057C74.5702 55.7513 48.8117 71.1089 48.7387 71.153C47.3266 71.9568 44.1423 72.2456 40.2409 72.1811C35.7465 72.1063 30.3667 71.5388 25.6021 70.7282V70.7299Z" fill="#472667"/>
</svg>
