<svg width="735" height="522" viewBox="0 0 735 522" fill="none" xmlns="http://www.w3.org/2000/svg">
<path opacity="0.5" d="M365.767 297.312C374.228 297.312 381.087 293.467 381.087 288.724C381.087 283.982 374.228 280.137 365.767 280.137C357.306 280.137 350.447 283.982 350.447 288.724C350.447 293.467 357.306 297.312 365.767 297.312Z" fill="url(#paint0_linear_82_580)"/>
<path d="M345.676 242.105L346.256 243.128C349.873 249.503 351.098 256.958 349.713 264.155L347.106 277.704C346.201 282.403 348.381 287.159 352.533 289.539L352.574 289.562C356.036 291.548 360.293 291.542 363.749 289.546C367.883 287.159 370.051 282.415 369.149 277.727L366.555 264.253C365.159 256.996 366.416 249.479 370.1 243.072L370.656 242.104H345.676V242.105Z" fill="url(#paint1_linear_82_580)"/>
<path d="M370.656 242.106C370.656 243.283 368.739 244.328 365.765 244.994C363.66 245.466 361.026 245.746 358.166 245.746C355.306 245.746 352.669 245.466 350.563 244.994C347.592 244.328 345.676 243.283 345.676 242.106C345.676 240.094 351.266 238.463 358.166 238.463C365.063 238.463 370.656 240.094 370.656 242.106Z" fill="url(#paint2_linear_82_580)"/>
<path d="M365.768 244.961C365.768 244.971 365.768 244.984 365.765 244.994C363.659 245.466 361.025 245.746 358.165 245.746C355.306 245.746 352.669 245.466 350.563 244.994C350.56 244.984 350.56 244.971 350.56 244.961C350.56 243.734 353.964 242.743 358.165 242.743C362.364 242.743 365.768 243.734 365.768 244.961Z" fill="url(#paint3_linear_82_580)"/>
<path d="M360.967 244.599C360.967 244.599 367.933 153.812 355.676 151.877C343.42 149.942 357.156 244.553 357.156 244.553L360.967 244.599Z" fill="url(#paint4_linear_82_580)"/>
<path d="M353.616 244.599C353.616 244.599 330.238 176.304 341.927 172.909C353.616 169.514 358.841 244.599 358.841 244.599H353.616Z" fill="url(#paint5_linear_82_580)"/>
<path d="M360.967 244.599C360.967 244.599 376.106 200.374 368.537 198.176C360.968 195.979 357.583 244.599 357.583 244.599H360.967Z" fill="url(#paint6_linear_82_580)"/>
<path opacity="0.5" d="M689.072 466.364C689.072 466.364 683.693 497.958 662.529 495.4L595.295 455.966C587.114 451.518 588.34 443.612 596.26 438.714L604.525 433.603L689.072 466.364Z" fill="url(#paint7_linear_82_580)"/>
<path d="M620.464 407.35L620.465 399.068L598.946 411.492L606.179 415.668L620.464 407.35Z" fill="url(#paint8_linear_82_580)"/>
<path d="M598.946 426.999V411.492L670.677 452.906V477.754L607.036 441.011C602.029 438.121 598.946 432.78 598.946 426.999Z" fill="url(#paint9_linear_82_580)"/>
<path d="M684.36 469.853L670.677 477.753V452.906L692.195 440.481V456.282C692.195 461.881 689.208 467.054 684.36 469.853Z" fill="url(#paint10_linear_82_580)"/>
<path d="M692.195 440.481L620.465 399.068L620.464 407.35L685.022 444.623L692.195 440.481Z" fill="url(#paint11_linear_82_580)"/>
<path d="M606.179 415.668L620.465 407.35L685.023 444.623L670.677 452.906L606.179 415.668Z" fill="url(#paint12_linear_82_580)"/>
<path d="M620.465 419.16C620.465 419.16 626.239 402.985 638.301 408.003C650.362 413.02 635.154 425.461 651.584 417.034C668.013 408.607 664.153 444 664.153 444L620.465 419.16Z" fill="url(#paint13_linear_82_580)"/>
<path d="M615.169 416.149C615.169 416.149 615.795 394.88 625.503 395.953C635.212 397.026 621.9 430.153 635.449 416.001C648.998 401.85 645.178 432.189 658.711 428.469C672.244 424.749 681.133 403.434 681.973 426.413C682.813 449.392 670.751 447.752 670.751 447.752L615.169 416.149Z" fill="url(#paint14_linear_82_580)"/>
<path opacity="0.5" d="M506.114 362.681C506.114 362.681 500.735 394.275 479.571 391.718L412.337 352.284C404.156 347.835 405.382 339.93 413.302 335.031L421.567 329.92L506.114 362.681Z" fill="url(#paint15_linear_82_580)"/>
<path d="M437.508 303.668L437.509 295.386L415.989 307.81L423.222 311.986L437.508 303.668Z" fill="url(#paint16_linear_82_580)"/>
<path d="M415.989 323.317V307.81L487.72 349.224V374.071L424.079 337.329C419.073 334.439 415.989 329.098 415.989 323.317Z" fill="url(#paint17_linear_82_580)"/>
<path d="M501.404 366.172L487.721 374.071V349.224L509.24 336.799V352.6C509.239 358.199 506.253 363.372 501.404 366.172Z" fill="url(#paint18_linear_82_580)"/>
<path d="M509.239 336.799L437.508 295.386L437.507 303.668L502.066 340.941L509.239 336.799Z" fill="url(#paint19_linear_82_580)"/>
<path d="M423.222 311.986L437.507 303.668L502.065 340.941L487.72 349.224L423.222 311.986Z" fill="url(#paint20_linear_82_580)"/>
<path d="M437.509 315.478C437.509 315.478 443.282 299.303 455.344 304.32C467.405 309.338 452.198 321.779 468.627 313.352C485.056 304.924 481.196 340.317 481.196 340.317L437.509 315.478Z" fill="url(#paint21_linear_82_580)"/>
<path d="M432.212 312.466C432.212 312.466 432.838 291.197 442.546 292.271C452.254 293.345 438.943 326.47 452.492 312.319C466.04 298.168 462.221 328.506 475.754 324.786C489.287 321.067 498.176 299.752 499.016 322.73C499.856 345.709 487.794 344.069 487.794 344.069L432.212 312.466Z" fill="url(#paint22_linear_82_580)"/>
<path d="M201.499 253.592L269.608 292.915V332.236L201.498 292.915L201.499 253.592Z" fill="url(#paint23_linear_82_580)"/>
<path d="M337.718 253.592L269.609 292.915V332.236L337.719 292.915L337.718 253.592Z" fill="url(#paint24_linear_82_580)"/>
<path d="M201.499 253.592L269.608 214.27L337.717 253.592L269.608 292.915L201.499 253.592Z" fill="url(#paint25_linear_82_580)"/>
<path d="M225.053 253.592L269.609 227.868L314.165 253.592L269.609 279.317L225.053 253.592Z" fill="url(#paint26_linear_82_580)"/>
<path d="M234.082 258.806L269.608 238.295L305.134 258.806L269.608 279.317L234.082 258.806Z" fill="url(#paint27_linear_82_580)"/>
<path d="M210.732 214.27L269.609 248.262V282.251L210.731 248.26L210.732 214.27Z" fill="#472667"/>
<path d="M328.485 214.27L269.609 248.262V282.251L328.487 248.26L328.485 214.27Z" fill="#472667"/>
<path d="M201.499 214.27L269.608 253.592V273.885L201.498 234.565L201.499 214.27Z" fill="url(#paint28_linear_82_580)"/>
<path d="M337.718 214.27L269.609 253.592V273.885L337.719 234.565L337.718 214.27Z" fill="url(#paint29_linear_82_580)"/>
<path d="M201.499 214.27L269.608 174.947L337.717 214.27L269.608 253.592L201.499 214.27Z" fill="url(#paint30_linear_82_580)"/>
<path d="M225.053 214.269L269.609 188.546L314.165 214.269L269.609 239.994L225.053 214.269Z" fill="url(#paint31_linear_82_580)"/>
<path d="M234.082 219.483L269.608 198.972L305.134 219.483L269.608 239.994L234.082 219.483Z" fill="url(#paint32_linear_82_580)"/>
<path d="M210.732 174.947L269.609 208.939V242.928L210.731 208.938L210.732 174.947Z" fill="#472667"/>
<path d="M328.485 174.947L269.609 208.939V242.928L328.487 208.938L328.485 174.947Z" fill="#472667"/>
<path d="M201.499 174.947L269.608 214.27V234.562L201.498 195.242L201.499 174.947Z" fill="url(#paint33_linear_82_580)"/>
<path d="M337.718 174.947L269.609 214.27V234.562L337.719 195.242L337.718 174.947Z" fill="url(#paint34_linear_82_580)"/>
<path d="M201.499 174.947L269.608 135.624L337.717 174.947L269.608 214.27L201.499 174.947Z" fill="url(#paint35_linear_82_580)"/>
<path d="M225.053 174.947L269.609 149.223L314.165 174.947L269.609 200.672L225.053 174.947Z" fill="url(#paint36_linear_82_580)"/>
<path d="M234.082 180.161L269.608 159.65L305.134 180.161L269.608 200.672L234.082 180.161Z" fill="url(#paint37_linear_82_580)"/>
<path d="M269.609 149.223V159.65L234.083 180.161L225.053 174.947L269.609 149.223Z" fill="url(#paint38_linear_82_580)"/>
<path d="M210.732 135.624L269.609 169.617V203.605L210.731 169.615L210.732 135.624Z" fill="#472667"/>
<path d="M328.485 135.624L269.609 169.617V203.605L328.487 169.615L328.485 135.624Z" fill="#472667"/>
<path d="M201.499 115.965L269.608 155.288V194.606L201.498 155.285L201.499 115.965Z" fill="url(#paint39_linear_82_580)"/>
<path d="M337.718 115.965L269.609 155.288V194.606L337.719 155.285L337.718 115.965Z" fill="url(#paint40_linear_82_580)"/>
<path d="M201.499 115.965L269.608 76.6423L337.717 115.965L269.608 155.288L201.499 115.965Z" fill="url(#paint41_linear_82_580)"/>
<path d="M225.053 115.965L269.609 90.2407L314.165 115.965L269.609 141.69L225.053 115.965Z" fill="url(#paint42_linear_82_580)"/>
<path d="M234.082 121.179L269.608 100.668L305.134 121.179L269.608 141.69L234.082 121.179Z" fill="#472667"/>
<path d="M269.609 90.2407V100.668L234.083 121.179L225.053 115.965L269.609 90.2407Z" fill="url(#paint43_linear_82_580)"/>
<path d="M321.568 196.985L328.034 193.253L326.451 192.333L321.568 195.152V196.985Z" fill="url(#paint44_linear_82_580)"/>
<path d="M328.033 188.545V193.253L326.45 192.333V189.514L328.033 188.545Z" fill="url(#paint45_linear_82_580)"/>
<path d="M321.568 195.152V192.333L326.451 189.514V192.333L321.568 195.152Z" fill="url(#paint46_linear_82_580)"/>
<path d="M311.671 202.414L318.137 198.682L316.553 197.762L311.671 200.581V202.414Z" fill="url(#paint47_linear_82_580)"/>
<path d="M318.136 193.974V198.682L316.553 197.762V194.943L318.136 193.974Z" fill="url(#paint48_linear_82_580)"/>
<path d="M311.671 200.581V197.762L316.553 194.943V197.762L311.671 200.581Z" fill="url(#paint49_linear_82_580)"/>
<path d="M289.192 255.627L295.657 251.896L294.074 250.975L289.192 253.794V255.627Z" fill="url(#paint50_linear_82_580)"/>
<path d="M295.656 247.188V251.896L294.074 250.975V248.156L295.656 247.188Z" fill="url(#paint51_linear_82_580)"/>
<path d="M289.192 253.794V250.975L294.074 248.156V250.975L289.192 253.794Z" fill="url(#paint52_linear_82_580)"/>
<path d="M279.294 261.056L285.76 257.324L284.176 256.404L279.294 259.223V261.056Z" fill="url(#paint53_linear_82_580)"/>
<path d="M285.759 252.616V257.324L284.176 256.404V253.585L285.759 252.616Z" fill="url(#paint54_linear_82_580)"/>
<path d="M279.294 259.223V256.404L284.176 253.585V256.404L279.294 259.223Z" fill="url(#paint55_linear_82_580)"/>
<path d="M217.65 198.177L211.185 194.444L212.768 193.524L217.65 196.343V198.177Z" fill="url(#paint56_linear_82_580)"/>
<path d="M211.185 189.737V194.444L212.768 193.524V190.705L211.185 189.737Z" fill="url(#paint57_linear_82_580)"/>
<path d="M217.65 196.343V193.524L212.767 190.705V193.524L217.65 196.343Z" fill="url(#paint58_linear_82_580)"/>
<path d="M227.546 203.605L221.081 199.873L222.664 198.953L227.546 201.772V203.605Z" fill="url(#paint59_linear_82_580)"/>
<path d="M221.081 195.165V199.873L222.664 198.953V196.134L221.081 195.165Z" fill="url(#paint60_linear_82_580)"/>
<path d="M227.547 201.772V198.953L222.665 196.134V198.953L227.547 201.772Z" fill="url(#paint61_linear_82_580)"/>
<path d="M250.026 256.819L243.561 253.086L245.143 252.166L250.026 254.985V256.819Z" fill="url(#paint62_linear_82_580)"/>
<path d="M243.561 248.379V253.086L245.143 252.166V249.347L243.561 248.379Z" fill="url(#paint63_linear_82_580)"/>
<path d="M250.027 254.985V252.166L245.144 249.347V252.166L250.027 254.985Z" fill="url(#paint64_linear_82_580)"/>
<path d="M259.923 262.247L253.457 258.515L255.041 257.595L259.923 260.414V262.247Z" fill="url(#paint65_linear_82_580)"/>
<path d="M253.457 253.808V258.515L255.041 257.595V254.776L253.457 253.808Z" fill="url(#paint66_linear_82_580)"/>
<path d="M259.923 260.414V257.595L255.041 254.776V257.595L259.923 260.414Z" fill="url(#paint67_linear_82_580)"/>
<path d="M424.494 0L734.194 178.801L734.19 426.38L424.494 247.577V0Z" fill="white"/>
<path d="M561.175 252.989L608.51 280.314V375.468C608.51 384.678 603.596 393.188 595.62 397.793L555.812 420.752L507.923 393.102L547.812 370.299C555.811 365.727 560.763 357.233 560.799 348.02L561.175 252.989Z" fill="url(#paint68_linear_82_580)"/>
<path d="M556.127 251.064L603.463 278.389V373.543C603.463 382.753 598.549 391.264 590.572 395.869L555.812 415.934L507.923 388.284L542.763 368.374C550.763 363.802 555.715 355.308 555.751 346.094L556.127 251.064Z" fill="url(#paint69_linear_82_580)"/>
<path d="M507.924 388.285V393.102L555.813 420.751V415.933L507.924 388.285Z" fill="url(#paint70_linear_82_580)"/>
<path d="M415.161 5.62915L724.861 184.43L724.857 432.009L415.161 253.206V5.62915Z" fill="url(#paint71_linear_82_580)"/>
<path d="M415.161 5.62915L724.861 184.43L724.859 404.36L415.162 225.557L415.161 5.62915Z" fill="#1D1D1B"/>
<path d="M420.256 17.5754L717.345 189.096L717.341 391.099L420.256 219.577V17.5754Z" fill="#472667"/>
<path d="M724.857 432.009L734.191 426.38L734.194 178.801L724.86 184.43L724.857 432.009Z" fill="url(#paint72_linear_82_580)"/>
<path d="M415.16 5.62915L424.494 0L734.194 178.801L724.861 184.43L415.16 5.62915Z" fill="url(#paint73_linear_82_580)"/>
<path d="M551.86 318.957C551.86 314.92 554.72 313.268 558.217 315.286C561.713 317.304 564.573 322.258 564.573 326.296C564.573 330.333 561.713 331.986 558.217 329.967C554.721 327.949 551.86 322.994 551.86 318.957Z" fill="url(#paint74_linear_82_580)"/>
<path fill-rule="evenodd" clip-rule="evenodd" d="M516.602 207.796C516.611 210.861 517.333 214.1 518.463 216.736C518.908 217.775 519.419 218.719 519.975 219.522C520.6 220.439 521.285 221.17 522.002 221.658C522.373 221.909 522.736 222.082 523.085 222.182C524.246 222.514 525.267 222.04 526.018 220.92L559.671 281.193C559.533 282.006 559.459 282.922 559.465 283.908C559.482 289.546 561.907 295.764 564.869 297.771C565.24 298.023 565.603 298.196 565.953 298.296C568.393 298.995 570.221 296.119 570.202 291.187C570.2 290.166 570.116 289.117 569.967 288.083L603.643 274.019C604.618 276.507 605.957 278.55 607.431 279.546C607.799 279.797 608.159 279.97 608.505 280.069C608.772 280.146 609.032 280.179 609.282 280.171C609.845 280.163 610.36 279.939 610.814 279.539C612.015 278.486 612.777 276.153 612.767 272.964C612.751 267.901 610.793 262.367 608.249 259.84L608.089 210.098C610.731 210.861 612.557 207.982 612.541 203.049C612.531 199.861 611.751 196.486 610.54 193.791C610.083 192.779 609.565 191.863 609.002 191.082C608.42 190.281 607.796 189.637 607.14 189.192C606.769 188.939 606.406 188.766 606.056 188.666C604.869 188.326 603.827 188.832 603.075 190.01L569.348 130.29C569.565 129.321 569.68 128.195 569.678 126.936C569.66 121.298 567.235 115.08 564.278 113.075C563.906 112.822 563.544 112.649 563.193 112.549C560.753 111.85 558.921 114.725 558.937 119.656C558.943 120.916 559.067 122.205 559.291 123.473L525.802 137.636C524.812 134.776 523.344 132.399 521.712 131.293C521.343 131.042 520.984 130.869 520.636 130.77C520.308 130.676 519.991 130.647 519.688 130.679C519.136 130.734 518.629 130.985 518.189 131.429C517.07 132.54 516.369 134.817 516.378 137.876C516.395 142.944 518.349 148.477 520.896 151.005L521.056 200.748C518.417 199.985 516.585 202.865 516.602 207.796ZM525.349 143.957C525.353 145.608 525.054 146.91 524.547 147.745C524.176 148.368 523.69 148.728 523.138 148.789C522.977 148.808 522.816 148.801 522.655 148.769C522.605 148.759 522.555 148.747 522.505 148.733C522.267 148.665 522.021 148.546 521.77 148.373C521.466 148.167 521.168 147.898 520.888 147.57C519.323 145.76 518.156 142.28 518.147 139.076C518.14 137.271 518.503 135.874 519.106 135.06C519.503 134.505 520.011 134.219 520.584 134.24C520.719 134.244 520.859 134.267 521.002 134.308C521.236 134.375 521.479 134.491 521.727 134.66C522.698 135.32 523.585 136.659 524.236 138.297C524.664 139.371 524.993 140.564 525.177 141.791C525.289 142.513 525.348 143.248 525.349 143.957ZM547.667 169.613C545.221 165.391 542.956 160.735 540.917 155.776C537.295 162.4 535.118 172.19 535.018 184.344L545.229 191.264C545.278 183.069 546.142 175.796 547.667 169.613ZM541.795 154.269C545.935 147.669 551.69 144.813 558.25 146.691C559.288 146.988 560.345 147.403 561.42 147.941C555.657 150.785 551.029 157.591 548.222 167.513C545.894 163.468 543.738 159.011 541.795 154.269ZM563.663 185.904L563.55 150.136C557.349 152.423 552.381 159.26 549.475 169.626C553.763 176.64 558.575 182.283 563.663 185.904ZM563.672 188.596L563.721 203.795L546.641 192.219C546.691 184.479 547.499 177.596 548.923 171.727C553.385 178.994 558.387 184.84 563.672 188.596ZM563.779 221.4L563.729 206.195L546.65 194.62C546.75 202.461 547.603 210.469 549.075 218.302C551.693 217.572 554.507 217.596 557.462 218.442C559.505 219.026 561.618 220.005 563.779 221.4ZM563.788 224.087L563.901 259.854C557.658 249.135 552.627 235.518 549.639 221.163C552.174 220.438 554.901 220.452 557.764 221.271C559.714 221.829 561.727 222.761 563.788 224.087ZM542.028 226.158C546.892 240.342 553.897 252.433 561.78 259.173C555.966 248.473 551.276 235.36 548.393 221.578C546.082 222.483 543.947 224.022 542.028 226.158ZM541.131 223.449C537.457 211.88 535.203 199.087 535.026 186.744L545.233 193.663C545.338 201.957 546.253 210.438 547.822 218.715C545.396 219.641 543.147 221.237 541.131 223.449ZM534.138 193.724C533.899 190.697 533.765 187.677 533.755 184.686C533.745 181.6 533.867 178.663 534.101 175.87C531.682 170.982 529.386 165.769 527.24 160.263C526.211 157.624 525.229 154.951 524.296 152.246C523.85 152.406 523.363 152.412 522.664 152.205L522.824 201.948C523.406 202.53 523.958 203.263 524.461 204.12C525.382 202.674 526.35 201.317 527.365 200.066C529.48 197.459 531.745 195.345 534.138 193.724ZM567.911 125.737C567.912 126.382 567.867 126.984 567.782 127.514C567.619 128.513 567.312 129.292 566.902 129.824C566.413 130.456 565.776 130.711 565.06 130.506C564.825 130.439 564.582 130.322 564.332 130.153C563.321 129.467 562.402 128.049 561.747 126.332C561.33 125.241 561.016 124.037 560.849 122.815C560.758 122.159 560.71 121.502 560.705 120.856C560.696 117.545 561.921 115.619 563.559 116.088C563.795 116.156 564.039 116.273 564.289 116.442C566.274 117.788 567.897 121.954 567.911 125.737ZM600.315 207.412C601.315 206.188 602.265 204.854 603.165 203.432C602.326 201.067 601.813 198.359 601.804 195.775C601.801 194.447 601.932 193.275 602.17 192.268L568.472 132.601C567.708 133.847 566.642 134.392 565.422 134.043C565.073 133.943 564.712 133.77 564.342 133.52C562.675 132.389 561.181 129.925 560.187 126.985L526.726 141.141C526.975 142.475 527.111 143.827 527.117 145.156C527.125 147.854 526.585 149.929 525.692 151.145C526.577 153.702 527.506 156.237 528.481 158.731C530.356 163.548 532.358 168.121 534.455 172.455C535.418 164.702 537.34 158.279 539.999 153.478C540.285 152.956 540.581 152.461 540.885 151.978C545.2 145.155 551.181 142.209 557.998 144.161C559.083 144.471 560.188 144.905 561.311 145.467C562.164 145.899 563.028 146.399 563.903 146.976C563.974 147.021 564.048 147.07 564.122 147.12L564.168 147.151L564.224 147.19L564.279 147.229C564.334 147.267 564.387 147.304 564.441 147.343C565.313 147.949 566.18 148.619 567.034 149.343C575.211 156.33 582.485 168.841 587.557 183.54C587.867 184.432 588.17 185.336 588.458 186.246C591.206 194.803 593.205 204.006 594.214 213.238C596.362 211.71 598.405 209.772 600.315 207.412ZM587.553 187.315C591.248 198.91 593.509 211.735 593.687 224.102L583.475 217.187C583.371 208.868 582.456 200.362 580.876 192.062C583.302 191.137 585.544 189.534 587.553 187.315ZM566.937 151.675C572.74 162.352 577.423 175.449 580.306 189.199C582.61 188.293 584.741 186.743 586.656 184.606C581.796 170.458 574.802 158.404 566.937 151.675ZM593.695 226.507C593.596 238.686 591.405 248.497 587.769 255.121C585.736 250.165 583.476 245.509 581.036 241.279C582.568 235.094 583.435 227.797 583.484 219.586L593.695 226.507ZM570.451 264.155C577.001 266.03 582.749 263.191 586.887 256.618C584.951 251.878 582.798 247.427 580.478 243.38C577.671 253.277 573.05 260.065 567.291 262.911C568.362 263.446 569.416 263.859 570.451 264.155ZM565.163 260.711L565.05 224.944C570.131 228.577 574.943 234.24 579.224 241.257C576.318 251.607 571.354 258.425 565.163 260.711ZM564.992 207.052L565.041 222.256C570.323 226.027 575.322 231.886 579.775 239.16C581.211 233.284 582.018 226.386 582.072 218.628L564.992 207.052ZM564.984 204.651L564.938 189.448C567.073 190.817 569.161 191.781 571.183 192.359C574.157 193.21 576.989 193.229 579.624 192.482C581.103 200.332 581.96 208.36 582.064 216.228L564.984 204.651ZM564.813 150.992L564.929 186.761C566.968 188.066 568.96 188.984 570.89 189.537C573.771 190.361 576.513 190.37 579.061 189.631C576.073 175.29 571.045 161.693 564.813 150.992ZM608.08 206.662C608.029 206.652 607.978 206.639 607.926 206.625C607.689 206.557 607.445 206.439 607.194 206.27C606.89 206.064 606.596 205.792 606.308 205.461C606.089 205.211 605.877 204.917 605.677 204.597C605.131 203.752 604.656 202.695 604.3 201.552C603.846 200.104 603.578 198.501 603.572 196.974C603.57 196.26 603.626 195.607 603.729 195.033C603.91 194.054 604.231 193.298 604.649 192.804C605.131 192.233 605.743 192.007 606.427 192.202C606.661 192.269 606.903 192.386 607.151 192.553C607.488 192.783 607.811 193.089 608.12 193.465C608.705 194.172 609.233 195.116 609.657 196.178C610.345 197.886 610.771 199.92 610.775 201.854C610.784 205.058 609.638 206.969 608.08 206.662ZM604.497 263.275C604.051 264.118 603.791 265.352 603.798 266.885C603.8 267.891 603.916 268.92 604.127 269.921C604.38 271.148 604.772 272.325 605.254 273.34C605.858 274.613 606.608 275.63 607.422 276.185C607.667 276.351 607.91 276.466 608.143 276.533C608.226 276.557 608.308 276.575 608.389 276.586C608.969 276.673 609.495 276.442 609.913 275.947C610.592 275.166 611.005 273.698 610.998 271.764C610.988 268.571 609.825 265.092 608.26 263.272C607.977 262.947 607.683 262.676 607.378 262.469C607.125 262.299 606.881 262.182 606.645 262.114C606.594 262.099 606.543 262.087 606.493 262.077C606.271 262.028 606.06 262.032 605.859 262.079C605.318 262.192 604.85 262.608 604.497 263.275ZM601.702 250.446C599.501 244.8 597.141 239.461 594.653 234.462C594.859 231.824 594.968 229.061 594.959 226.165C594.949 223.173 594.815 220.153 594.577 217.126C597.052 215.483 599.393 213.324 601.574 210.636C602.614 209.358 603.603 207.971 604.542 206.482C605.085 207.444 605.684 208.265 606.323 208.899L606.484 258.646C605.724 258.422 605.193 258.444 604.707 258.643C603.756 255.879 602.752 253.14 601.702 250.446ZM561.273 284.07C561.245 284.399 561.231 284.741 561.232 285.108C561.242 288.892 562.869 293.063 564.855 294.408C565.104 294.577 565.347 294.693 565.582 294.761C567.219 295.229 568.447 293.302 568.434 289.993C568.434 289.581 568.415 289.17 568.375 288.752C568.266 287.527 568.002 286.297 567.631 285.17C566.965 283.157 565.948 281.463 564.812 280.692C564.561 280.522 564.318 280.406 564.083 280.339C563.226 280.094 562.483 280.509 561.97 281.435C561.613 282.076 561.364 282.971 561.273 284.07ZM525.871 207.125C526.746 205.76 527.663 204.482 528.624 203.295C530.471 201.019 532.434 199.132 534.502 197.63C535.509 206.819 537.494 215.985 540.223 224.508C540.518 225.42 540.817 226.323 541.124 227.218C546.199 241.952 553.488 254.502 561.68 261.503C562.533 262.228 563.401 262.903 564.272 263.509L564.541 263.689C564.63 263.75 564.72 263.81 564.81 263.87C565.685 264.448 566.549 264.948 567.401 265.38C568.523 265.941 569.63 266.376 570.713 266.686C577.515 268.632 583.485 265.706 587.796 258.915C588.103 258.438 588.4 257.938 588.685 257.42C591.415 252.519 593.376 245.913 594.321 237.916C596.477 242.349 598.534 247.04 600.457 251.978C601.469 254.572 602.43 257.195 603.344 259.849C602.519 261.085 602.021 263.103 602.026 265.685C602.033 267.302 602.237 268.971 602.594 270.569L569.169 284.536C568.185 281.297 566.594 278.542 564.801 277.331C564.429 277.079 564.065 276.905 563.715 276.804C562.361 276.417 561.197 277.129 560.432 278.676L526.944 218.698C527.204 217.678 527.341 216.454 527.339 215.076C527.33 212.378 526.774 209.558 525.871 207.125ZM521.067 204.185C519.51 203.882 518.36 205.793 518.369 208.996C518.376 210.801 518.753 212.697 519.361 214.338C519.767 215.436 520.278 216.409 520.852 217.168C521.211 217.642 521.595 218.019 521.993 218.292C522.241 218.46 522.482 218.576 522.716 218.643C523.377 218.832 523.97 218.628 524.445 218.102C524.873 217.63 525.205 216.883 525.393 215.921C525.51 215.32 525.573 214.63 525.572 213.876C525.565 212.229 525.257 210.512 524.743 208.987C524.365 207.853 523.876 206.831 523.319 206.018C523.162 205.784 523 205.575 522.835 205.384C522.551 205.055 522.254 204.782 521.949 204.576C521.701 204.404 521.458 204.289 521.226 204.223C521.173 204.207 521.12 204.195 521.067 204.185Z" fill="url(#paint75_linear_82_580)"/>
<path opacity="0.2" d="M602.124 333.499L519.627 65.9412L724.861 184.43L724.859 404.36L602.124 333.499Z" fill="url(#paint76_linear_82_580)"/>
<path opacity="0.2" d="M501.994 55.762L540.373 297.847L492.268 270.074L450.605 26.0931L501.994 55.762Z" fill="url(#paint77_linear_82_580)"/>
<path opacity="0.5" d="M394.19 337.203C405.771 337.203 415.16 334.714 415.16 331.642C415.16 328.571 405.771 326.082 394.19 326.082C382.608 326.082 373.219 328.571 373.219 331.642C373.219 334.714 382.608 337.203 394.19 337.203Z" fill="url(#paint78_linear_82_580)"/>
<path d="M398.212 331.643L391.842 327.688L392.517 320.557L397.563 267.429L391.935 265.476L391.777 270.909L390.334 321.005L390.135 327.855L390.078 329.817L398.212 331.643Z" fill="url(#paint79_linear_82_580)"/>
<path d="M390.334 321.004L392.516 320.557L394.196 320.214L398.536 265.508L391.776 270.908L390.334 321.004Z" fill="#1D1D1B"/>
<path d="M390.135 327.855L390.078 329.817L398.212 331.643L391.841 327.688L390.135 327.855Z" fill="#1D1D1B"/>
<path d="M389.754 333.152L383.383 329.198L384.059 322.067L389.106 268.938L383.477 266.986L383.319 272.418L381.876 322.514L381.678 329.365L381.621 331.326L389.754 333.152Z" fill="url(#paint80_linear_82_580)"/>
<path d="M381.876 322.513L384.059 322.066L385.739 321.724L390.079 267.018L383.319 272.417L381.876 322.513Z" fill="#1D1D1B"/>
<path d="M381.678 329.365L381.621 331.326L389.754 333.152L383.383 329.198L381.678 329.365Z" fill="#1D1D1B"/>
<path d="M405.235 247.119L402.078 250.269L394.254 245.363L400.831 235.92L405.235 247.119Z" fill="url(#paint81_linear_82_580)"/>
<path d="M394.69 233.542L389.753 234.431C385.627 235.174 382.619 238.754 382.599 242.945L380.978 275.065C386.404 277.746 392.944 276.58 397.108 272.186L402.003 267.02L402.122 240.194C402.4 236.087 398.742 232.813 394.69 233.542Z" fill="url(#paint82_linear_82_580)"/>
<path d="M395.567 246.186L390.47 263.277L402.004 267.021L407.608 250.522L395.567 246.186Z" fill="url(#paint83_linear_82_580)"/>
<path d="M391.584 231.378C391.584 231.378 391.771 234.58 392.251 234.919C392.731 235.259 395.22 237.918 393.947 232.618C392.673 227.319 391.584 231.378 391.584 231.378Z" fill="url(#paint84_linear_82_580)"/>
<path d="M394.328 233.586C396.048 233.586 397.443 232.191 397.443 230.471C397.443 228.751 396.048 227.357 394.328 227.357C392.608 227.357 391.213 228.751 391.213 230.471C391.213 232.191 392.608 233.586 394.328 233.586Z" fill="url(#paint85_linear_82_580)"/>
<path d="M394.315 260.386L395.036 262.224L397.432 256.891L384.443 256.674L387.327 247.736L384.537 237.519C381.759 240.663 379.636 244.296 378.746 247.052C371.196 270.423 385.477 262.667 391.193 259.305C392.344 258.627 393.827 259.142 394.315 260.386Z" fill="url(#paint86_linear_82_580)"/>
<path d="M378.465 246.089L386.038 251.55L388.274 244.933C388.394 244.412 388.561 243.905 388.712 243.392C389.397 241.071 387.045 237.046 384.536 237.519C381.758 240.663 379.785 243.511 378.465 246.089Z" fill="url(#paint87_linear_82_580)"/>
<path d="M400.36 224.385C400.36 226.965 399.244 229.403 397.407 230.941C397.437 230.655 397.442 230.487 397.429 230.209L395.192 230.256C395.192 230.256 394.811 231.109 394.329 231.059C393.842 231.01 393.761 231.903 393.761 231.903C393.761 231.903 393.028 229.761 392.724 231.334C392.565 232.151 393.11 232.634 393.11 232.634C393.11 232.634 392.736 233.154 391.98 233.154C387.35 233.154 383.6 229.009 383.6 224.385C383.6 219.754 387.35 216.005 391.98 216.005C396.605 216.005 400.36 219.754 400.36 224.385Z" fill="#1D1D1B"/>
<path opacity="0.4" d="M524.426 413.862C518.289 410.318 508.248 410.318 502.11 413.862C496.872 416.886 496.12 421.547 499.821 425.053L491.967 429.586L328.443 335.711C332.035 332.215 331.253 327.608 326.062 324.611C319.926 321.067 309.884 321.067 303.746 324.611C297.609 328.154 297.609 333.953 303.746 337.496C308.219 340.079 314.761 340.77 320.357 339.589L417.459 395.332L223.995 506.983L126.538 450.376C129.049 447.04 127.966 443 123.26 440.283C117.125 436.739 107.082 436.739 100.945 440.283C94.8069 443.827 94.8069 449.625 100.945 453.169C105.927 456.045 113.481 456.586 119.43 454.793L223.983 515.522L424.871 399.587L491.978 438.112L507.983 428.873C513.543 430.006 519.999 429.304 524.426 426.747C530.562 423.205 530.562 417.405 524.426 413.862Z" fill="#472667"/>
<path opacity="0.4" d="M156.55 352.593L249.575 298.883L249.573 218.323L156.55 272.03V352.593Z" fill="url(#paint88_linear_82_580)"/>
<path opacity="0.4" d="M249.575 204.895L249.573 218.323L156.551 272.03V258.603L249.575 204.895Z" fill="url(#paint89_linear_82_580)"/>
<g opacity="0.4">
<path d="M166.312 325.513C166.391 325.513 166.471 325.494 166.544 325.451L177.792 318.958C178.015 318.83 178.091 318.545 177.962 318.322C177.834 318.099 177.549 318.023 177.326 318.152L166.078 324.645C165.856 324.773 165.779 325.058 165.908 325.281C165.995 325.43 166.151 325.513 166.312 325.513Z" fill="url(#paint90_linear_82_580)"/>
</g>
<g opacity="0.4">
<path d="M166.312 328.307C166.391 328.307 166.471 328.286 166.544 328.244L177.792 321.751C178.015 321.623 178.091 321.338 177.962 321.115C177.834 320.892 177.549 320.816 177.326 320.945L166.078 327.438C165.856 327.566 165.779 327.851 165.908 328.074C165.995 328.223 166.151 328.307 166.312 328.307Z" fill="url(#paint91_linear_82_580)"/>
</g>
<g opacity="0.4">
<path d="M166.312 331.099C166.391 331.099 166.471 331.079 166.544 331.037L177.792 324.544C178.015 324.415 178.091 324.131 177.962 323.908C177.834 323.685 177.549 323.609 177.326 323.737L166.078 330.23C165.856 330.359 165.779 330.643 165.908 330.866C165.995 331.016 166.151 331.099 166.312 331.099Z" fill="url(#paint92_linear_82_580)"/>
</g>
<g opacity="0.4">
<path d="M166.312 333.892C166.391 333.892 166.471 333.872 166.544 333.83L177.792 327.337C178.015 327.208 178.091 326.924 177.962 326.701C177.834 326.478 177.549 326.402 177.326 326.53L166.078 333.023C165.856 333.152 165.779 333.436 165.908 333.659C165.995 333.809 166.151 333.892 166.312 333.892Z" fill="url(#paint93_linear_82_580)"/>
</g>
<g opacity="0.4">
<path d="M170.348 334.327C170.427 334.327 170.507 334.307 170.58 334.265L177.792 330.13C178.015 330.001 178.091 329.717 177.963 329.494C177.834 329.271 177.549 329.195 177.327 329.323L170.115 333.458C169.892 333.587 169.816 333.871 169.944 334.094C170.031 334.243 170.187 334.327 170.348 334.327Z" fill="url(#paint94_linear_82_580)"/>
</g>
<path opacity="0.4" d="M178.025 311.293C178.025 310.763 177.65 310.547 177.191 310.812L169.554 315.221C169.096 315.486 168.72 316.136 168.72 316.665V320.111C168.72 320.641 169.096 320.857 169.554 320.592L177.191 316.183C177.649 315.919 178.024 315.269 178.024 314.74V311.293H178.025Z" fill="url(#paint95_linear_82_580)"/>
<g opacity="0.7">
<path d="M210.113 304.499C211.225 304.499 212.444 304.259 213.792 303.708C220.58 300.931 222.517 290.691 224.391 280.79C225.904 272.791 227.469 264.52 231.538 262.873C232.648 262.422 233.588 262.488 234.496 263.078C239.627 266.41 241.329 284.078 241.551 290.605C241.573 291.235 242.099 291.728 242.731 291.707C243.361 291.685 243.854 291.157 243.833 290.527C243.746 288.004 242.788 265.742 235.739 261.165C234.216 260.175 232.467 260.034 230.681 260.757C225.459 262.873 223.851 271.37 222.149 280.366C220.389 289.669 218.569 299.288 212.928 301.596C207.918 303.646 205.448 300.226 202.59 296.266C199.724 292.298 196.159 287.359 189.491 291.337C187.967 292.246 186.639 292.527 185.429 292.196C182.706 291.451 180.635 287.646 178.632 283.966C176.442 279.942 174.372 276.141 171.115 275.295C169.555 274.89 167.896 275.235 166.181 276.321C165.648 276.658 165.49 277.363 165.827 277.895C166.164 278.428 166.869 278.586 167.402 278.25C168.578 277.505 169.604 277.26 170.541 277.504C172.841 278.101 174.766 281.637 176.628 285.058C178.859 289.157 181.166 293.396 184.826 294.398C186.641 294.894 188.604 294.524 190.66 293.297C195.305 290.526 197.413 292.997 200.738 297.603C203.007 300.743 205.719 304.499 210.113 304.499Z" fill="#D882B6"/>
</g>
<path opacity="0.4" d="M241.026 256.656C241.026 250.696 236.802 248.256 231.64 251.236C226.477 254.215 222.254 261.53 222.254 267.492C222.254 273.453 226.477 275.892 231.64 272.912C236.802 269.933 241.026 262.617 241.026 256.656Z" fill="#D882B6"/>
<path opacity="0.6" d="M236.892 259.043C236.892 255.708 234.528 254.343 231.64 256.01C228.751 257.677 226.388 261.77 226.388 265.106C226.388 268.441 228.751 269.806 231.64 268.139C234.528 266.471 236.892 262.378 236.892 259.043Z" fill="#D882B6"/>
<path d="M234.205 260.594C234.205 258.965 233.051 258.299 231.641 259.113C230.23 259.927 229.076 261.926 229.076 263.555C229.076 265.184 230.23 265.85 231.641 265.036C233.051 264.221 234.205 262.223 234.205 260.594Z" fill="url(#paint96_linear_82_580)"/>
<path d="M268.546 298.973L251.987 288.479L239.757 267.719L233.701 262.364L233.877 264.594C234.075 267.109 236.367 268.926 238.861 268.544L239.174 268.496L248.111 289.556L265.704 302.628L268.546 298.973Z" fill="url(#paint97_linear_82_580)"/>
<path opacity="0.5" d="M262.326 401.224C275.187 401.224 285.613 398.459 285.613 395.048C285.613 391.638 275.187 388.873 262.326 388.873C249.465 388.873 239.039 391.638 239.039 395.048C239.039 398.459 249.465 401.224 262.326 401.224Z" fill="url(#paint98_linear_82_580)"/>
<path d="M256.967 341.347L257.567 395.048H252.277L259.108 397.701L261.363 333.563L256.967 341.347Z" fill="url(#paint99_linear_82_580)"/>
<path d="M261.8 339.833L262.15 364.659L270.33 391.62L266.788 397.421L272.161 393.158L265.155 363.683L267.284 343.091L261.8 339.833Z" fill="url(#paint100_linear_82_580)"/>
<path d="M248.65 339.833L247.494 344.47C247.179 345.736 247.46 347.077 248.257 348.11L249.817 347.595L250.467 345.044L248.65 339.833Z" fill="url(#paint101_linear_82_580)"/>
<path d="M258.204 290.953L255.464 298.448C255.967 301.142 256.095 317.626 255.389 320.273L252.481 331.167C252.481 331.167 253.747 350.05 255.98 350.076C256.035 350.077 256.091 350.077 256.146 350.078C268.122 350.167 276.52 338.049 272.175 326.889C271.2 324.386 270.087 322.203 268.828 320.656C264.869 315.794 267.105 309.301 269.286 305.182C271.973 300.108 269.474 293.675 263.936 292.16C263.716 292.1 263.493 292.046 263.268 292L258.204 290.953Z" fill="url(#paint102_linear_82_580)"/>
<path d="M251.724 300.815L254.087 318.056L247.55 344.3L256.865 319.924L256.896 299.384L255.464 298.448C253.719 297.308 251.441 298.749 251.724 300.815Z" fill="url(#paint103_linear_82_580)"/>
<path d="M251.936 302.368L256.883 307.468L256.895 299.384L258.204 290.953L254.192 293.503C252.246 294.739 251.2 296.996 251.513 299.28L251.936 302.368Z" fill="url(#paint104_linear_82_580)"/>
<path d="M258.978 289.192C260.827 289.192 262.326 287.693 262.326 285.844C262.326 283.995 260.827 282.496 258.978 282.496C257.129 282.496 255.63 283.995 255.63 285.844C255.63 287.693 257.129 289.192 258.978 289.192Z" fill="url(#paint105_linear_82_580)"/>
<path d="M256.059 283.561C257.492 284.962 258.395 286.856 258.153 288.845C258.033 289.831 257.71 290.858 257.031 291.771C254.791 294.783 253.438 299.942 256.796 300.807C260.154 301.671 262.021 298.593 263.982 300.904C265.944 303.215 270.98 299.818 267.796 294.189C264.613 288.56 264.176 279.854 258.436 281.199C255.28 281.939 255.354 282.871 256.059 283.561Z" fill="#1D1D1B"/>
<path d="M252.277 395.048H257.567L259.163 396.138L259.108 397.701L252.277 395.048Z" fill="#1D1D1B"/>
<path d="M271.826 391.746L270.331 391.62L266.788 397.421L272.162 393.158L271.826 391.746Z" fill="#1D1D1B"/>
<path d="M0.00110332 368.106L68.1103 407.429V446.75L0 407.429L0.00110332 368.106Z" fill="url(#paint106_linear_82_580)"/>
<path d="M136.219 368.106L68.1101 407.429V446.75L136.221 407.429L136.219 368.106Z" fill="url(#paint107_linear_82_580)"/>
<path d="M0.000915527 368.106L68.1101 328.784L136.219 368.106L68.1101 407.429L0.000915527 368.106Z" fill="url(#paint108_linear_82_580)"/>
<path d="M23.5544 368.106L68.1104 342.382L112.666 368.106L68.1104 393.831L23.5544 368.106Z" fill="url(#paint109_linear_82_580)"/>
<path d="M32.5846 373.32L68.1099 352.809L103.636 373.32L68.1099 393.831L32.5846 373.32Z" fill="url(#paint110_linear_82_580)"/>
<path d="M9.23354 328.784L68.1101 362.776V396.765L9.23244 362.774L9.23354 328.784Z" fill="#472667"/>
<path d="M126.987 328.784L68.1101 362.776V396.765L126.988 362.774L126.987 328.784Z" fill="#472667"/>
<path d="M0.00110332 328.784L68.1103 368.106V388.399L0 349.078L0.00110332 328.784Z" fill="url(#paint111_linear_82_580)"/>
<path d="M136.219 328.784L68.1101 368.106V388.399L136.221 349.078L136.219 328.784Z" fill="url(#paint112_linear_82_580)"/>
<path d="M0.000915527 328.784L68.1101 289.461L136.219 328.784L68.1101 368.106L0.000915527 328.784Z" fill="url(#paint113_linear_82_580)"/>
<path d="M23.5544 328.784L68.1104 303.059L112.666 328.784L68.1104 354.508L23.5544 328.784Z" fill="url(#paint114_linear_82_580)"/>
<path d="M32.5846 333.998L68.1099 313.487L103.636 333.998L68.1099 354.508L32.5846 333.998Z" fill="url(#paint115_linear_82_580)"/>
<path d="M9.23354 289.461L68.1101 323.454V357.442L9.23244 323.452L9.23354 289.461Z" fill="#472667"/>
<path d="M126.987 289.461L68.1101 323.454V357.442L126.988 323.452L126.987 289.461Z" fill="#472667"/>
<path d="M0.00110332 289.461L68.1103 328.784V349.076L0 309.756L0.00110332 289.461Z" fill="url(#paint116_linear_82_580)"/>
<path d="M136.219 289.461L68.1101 328.784V349.076L136.221 309.756L136.219 289.461Z" fill="url(#paint117_linear_82_580)"/>
<path d="M0.000915527 289.461L68.1101 250.138L136.219 289.461L68.1101 328.784L0.000915527 289.461Z" fill="url(#paint118_linear_82_580)"/>
<path d="M23.5544 289.461L68.1104 263.736L112.666 289.461L68.1104 315.185L23.5544 289.461Z" fill="url(#paint119_linear_82_580)"/>
<path d="M32.5846 294.675L68.1099 274.164L103.636 294.675L68.1099 315.185L32.5846 294.675Z" fill="url(#paint120_linear_82_580)"/>
<path d="M68.1104 263.736V274.164L32.5851 294.675L23.5544 289.461L68.1104 263.736Z" fill="url(#paint121_linear_82_580)"/>
<path d="M9.23354 250.138L68.1101 284.131V318.119L9.23244 284.129L9.23354 250.138Z" fill="#472667"/>
<path d="M126.987 250.138L68.1101 284.131V318.119L126.988 284.129L126.987 250.138Z" fill="#472667"/>
<path d="M0.00110332 230.479L68.1103 269.802V309.12L0 269.8L0.00110332 230.479Z" fill="url(#paint122_linear_82_580)"/>
<path d="M136.219 230.479L68.1101 269.802V309.12L136.221 269.8L136.219 230.479Z" fill="url(#paint123_linear_82_580)"/>
<path d="M0.000839233 230.479L68.11 191.156L136.219 230.479L68.11 269.802L0.000839233 230.479Z" fill="url(#paint124_linear_82_580)"/>
<path d="M23.5544 230.479L68.1104 204.755L112.666 230.479L68.1104 256.204L23.5544 230.479Z" fill="url(#paint125_linear_82_580)"/>
<path d="M32.5846 235.693L68.1099 215.182L103.636 235.693L68.1099 256.204L32.5846 235.693Z" fill="#472667"/>
<path d="M68.1104 204.755V215.182L32.5851 235.693L23.5544 230.479L68.1104 204.755Z" fill="url(#paint126_linear_82_580)"/>
<path d="M120.069 311.499L126.535 307.767L124.951 306.847L120.069 309.666V311.499Z" fill="url(#paint127_linear_82_580)"/>
<path d="M126.535 303.059V307.767L124.952 306.847V304.028L126.535 303.059Z" fill="url(#paint128_linear_82_580)"/>
<path d="M120.069 309.666V306.847L124.951 304.028V306.847L120.069 309.666Z" fill="url(#paint129_linear_82_580)"/>
<path d="M110.173 316.928L116.638 313.196L115.055 312.275L110.173 315.094V316.928Z" fill="url(#paint130_linear_82_580)"/>
<path d="M116.638 308.488V313.196L115.055 312.275V309.457L116.638 308.488Z" fill="url(#paint131_linear_82_580)"/>
<path d="M110.173 315.094V312.275L115.055 309.456V312.275L110.173 315.094Z" fill="url(#paint132_linear_82_580)"/>
<path d="M87.6932 370.141L94.1582 366.409L92.5754 365.489L87.6932 368.308V370.141Z" fill="url(#paint133_linear_82_580)"/>
<path d="M94.1578 361.701V366.409L92.5751 365.489V362.67L94.1578 361.701Z" fill="url(#paint134_linear_82_580)"/>
<path d="M87.6932 368.308V365.489L92.5754 362.67V365.489L87.6932 368.308Z" fill="url(#paint135_linear_82_580)"/>
<path d="M77.7961 375.57L84.2616 371.838L82.6783 370.918L77.7961 373.737V375.57Z" fill="url(#paint136_linear_82_580)"/>
<path d="M84.2612 367.13V371.838L82.678 370.918V368.099L84.2612 367.13Z" fill="url(#paint137_linear_82_580)"/>
<path d="M77.7961 373.737V370.918L82.6783 368.099V370.918L77.7961 373.737Z" fill="url(#paint138_linear_82_580)"/>
<path d="M16.1521 312.691L9.68658 308.959L11.2693 308.039L16.1521 310.857V312.691Z" fill="url(#paint139_linear_82_580)"/>
<path d="M9.6868 304.251V308.959L11.2695 308.039V305.219L9.6868 304.251Z" fill="url(#paint140_linear_82_580)"/>
<path d="M16.1512 310.857V308.039L11.2684 305.219V308.039L16.1512 310.857Z" fill="url(#paint141_linear_82_580)"/>
<path d="M26.0482 318.119L19.5827 314.387L21.166 313.467L26.0482 316.286V318.119Z" fill="url(#paint142_linear_82_580)"/>
<path d="M19.5825 309.679V314.387L21.1658 313.467V310.647L19.5825 309.679Z" fill="url(#paint143_linear_82_580)"/>
<path d="M26.0481 316.286V313.467L21.1659 310.648V313.467L26.0481 316.286Z" fill="url(#paint144_linear_82_580)"/>
<path d="M48.5274 371.333L42.062 367.601L43.6452 366.681L48.5274 369.499V371.333Z" fill="url(#paint145_linear_82_580)"/>
<path d="M42.0621 362.893V367.601L43.6454 366.681V363.861L42.0621 362.893Z" fill="url(#paint146_linear_82_580)"/>
<path d="M48.5278 369.499V366.681L43.6456 363.861V366.681L48.5278 369.499Z" fill="url(#paint147_linear_82_580)"/>
<path d="M58.4245 376.761L51.9595 373.029L53.5423 372.109L58.4245 374.928V376.761Z" fill="url(#paint148_linear_82_580)"/>
<path d="M51.9594 368.321V373.029L53.5421 372.109V369.289L51.9594 368.321Z" fill="url(#paint149_linear_82_580)"/>
<path d="M58.4245 374.928V372.109L53.5423 369.289V372.109L58.4245 374.928Z" fill="url(#paint150_linear_82_580)"/>
<path opacity="0.5" d="M47.9591 480.802C56.4202 480.802 63.2793 476.958 63.2793 472.215C63.2793 467.473 56.4202 463.628 47.9591 463.628C39.498 463.628 32.6389 467.473 32.6389 472.215C32.6389 476.958 39.498 480.802 47.9591 480.802Z" fill="url(#paint151_linear_82_580)"/>
<path d="M27.8669 425.595L28.4478 426.619C32.0639 432.994 33.2897 440.449 31.9045 447.646L29.2968 461.195C28.3921 465.894 30.5728 470.65 34.7246 473.03L34.7654 473.053C38.2271 475.039 42.4842 475.032 45.9404 473.037C50.0745 470.65 52.242 465.906 51.3401 461.218L48.7467 447.744C47.3499 440.487 48.6077 432.97 52.2911 426.563L52.8477 425.595H27.8669V425.595Z" fill="url(#paint152_linear_82_580)"/>
<path d="M52.8473 425.596C52.8473 426.774 50.9314 427.819 47.9568 428.485C45.8511 428.957 43.217 429.237 40.3572 429.237C37.4973 429.237 34.8604 428.957 32.7547 428.485C29.7835 427.819 27.867 426.774 27.867 425.596C27.867 423.585 33.4575 421.953 40.3572 421.953C47.2546 421.953 52.8473 423.585 52.8473 425.596Z" fill="url(#paint153_linear_82_580)"/>
<path d="M47.9591 428.451C47.9591 428.462 47.9591 428.474 47.9563 428.485C45.8507 428.957 43.2165 429.237 40.3567 429.237C37.4969 429.237 34.8599 428.957 32.7542 428.485C32.7515 428.474 32.7515 428.462 32.7515 428.451C32.7515 427.225 36.1558 426.234 40.3567 426.234C44.5548 426.234 47.9591 427.225 47.9591 428.451Z" fill="url(#paint154_linear_82_580)"/>
<path d="M43.1591 428.09C43.1591 428.09 50.125 337.304 37.8682 335.368C25.6114 333.433 39.3477 428.044 39.3477 428.044L43.1591 428.09Z" fill="url(#paint155_linear_82_580)"/>
<path d="M35.807 428.09C35.807 428.09 12.4293 359.795 24.1178 356.4C35.8064 353.005 41.0329 428.09 41.0329 428.09H35.807Z" fill="url(#paint156_linear_82_580)"/>
<path d="M43.1597 428.09C43.1597 428.09 58.2978 383.865 50.729 381.668C43.1602 379.47 39.7758 428.09 39.7758 428.09H43.1597Z" fill="url(#paint157_linear_82_580)"/>
<path opacity="0.5" d="M451.854 493.356C465.671 493.356 476.872 490.386 476.872 486.722C476.872 483.058 465.671 480.088 451.854 480.088C438.037 480.088 426.836 483.058 426.836 486.722C426.836 490.386 438.037 493.356 451.854 493.356Z" fill="url(#paint158_linear_82_580)"/>
<path d="M475.667 384.064L464.626 382.026L461.046 398.646L471.687 401.641L475.667 384.064Z" fill="#472667"/>
<path d="M440.946 384.29L440.263 398.175L444.66 414.607L446.181 416.255L442.455 398.984L443.989 383.82L440.946 384.29Z" fill="url(#paint159_linear_82_580)"/>
<path d="M442.779 416.522L444.745 450.176L442.779 487.452L448.936 485.948L444.365 484.45L448.505 449.385L449.662 416.522H442.779Z" fill="url(#paint160_linear_82_580)"/>
<path d="M442.881 485.507L444.365 484.45L448.936 485.947L442.779 487.452L442.881 485.507Z" fill="#1D1D1B"/>
<path d="M447.22 419.877L451.629 453.531L449.662 490.807L455.819 489.302L451.248 487.804L455.389 452.74L453.891 419.877H447.22Z" fill="url(#paint161_linear_82_580)"/>
<path d="M449.765 488.863L451.248 487.804L455.819 489.302L449.662 490.807L449.765 488.863Z" fill="#1D1D1B"/>
<path d="M438.56 420.674C439.373 424.639 440.956 424.259 440.665 428.295L440.637 432.196V432.206L443.408 433.5C444.71 434.107 446.224 434.046 447.473 433.337L449.292 432.284C454.581 429.222 458.351 433.956 457.932 427.859L455.6 393.361C457.487 391.406 458.901 388.002 457.101 385.961L453.074 380.605C451.358 378.322 448.475 377.24 445.681 377.829L443.446 378.301C443.446 378.301 439.959 379.956 441.144 387.767C442.09 394.001 446.556 396.026 443.39 402.614C440.417 408.802 437.823 417.077 438.56 420.674Z" fill="url(#paint162_linear_82_580)"/>
<path d="M448.257 375.818C450.243 375.818 451.853 374.207 451.853 372.221C451.853 370.234 450.243 368.624 448.257 368.624C446.27 368.624 444.66 370.234 444.66 372.221C444.66 374.207 446.27 375.818 448.257 375.818Z" fill="url(#paint163_linear_82_580)"/>
<path d="M450.665 367.08C451.691 367.398 452.157 368.589 451.644 369.534C450.789 371.109 449.155 374.355 449.123 376.213C449.101 377.512 449.144 378.886 449.363 379.718C449.511 380.279 449.257 380.864 448.727 381.1C445.989 382.322 439.863 384.643 439.861 380.96C439.86 379.11 441.49 374.386 441.848 372.22C442.505 368.255 444.502 367.193 448.312 366.88C449.251 366.803 450.045 366.888 450.665 367.08Z" fill="#1D1D1B"/>
<path d="M448.593 388.359L454.116 402.615L473.439 396.793L475.668 394.508L473.902 391.934L473.139 394.539L470.909 394.092L472.569 395.941L455.51 399.61L452.051 385.389L448.593 388.359Z" fill="url(#paint164_linear_82_580)"/>
<path d="M451.657 381.835C452.549 382.66 453.445 384.13 453.44 386.704L448.055 389.719C448.055 389.719 443.664 384.467 448.326 381.578C449.373 380.929 450.753 380.998 451.657 381.835Z" fill="url(#paint165_linear_82_580)"/>
<path opacity="0.5" d="M330.646 521.032C343.254 521.032 353.475 518.322 353.475 514.978C353.475 511.635 343.254 508.924 330.646 508.924C318.038 508.924 307.817 511.635 307.817 514.978C307.817 518.322 318.038 521.032 330.646 521.032Z" fill="url(#paint166_linear_82_580)"/>
<path d="M326.267 514.978L333.202 510.674L332.467 502.91L326.973 445.072L333.1 442.947L333.272 448.86L334.843 503.398L335.059 510.856L335.121 512.99L326.267 514.978Z" fill="url(#paint167_linear_82_580)"/>
<path d="M334.843 503.398L332.467 502.91L330.638 502.537L325.913 442.982L333.272 448.86L334.843 503.398Z" fill="#1D1D1B"/>
<path d="M335.059 510.856L335.121 512.99L326.267 514.978L333.202 510.673L335.059 510.856Z" fill="#1D1D1B"/>
<path d="M335.475 516.621L342.41 512.317L341.675 504.553L336.181 446.715L342.309 444.59L342.481 450.503L344.051 505.041L344.268 512.498L344.329 514.633L335.475 516.621Z" fill="url(#paint168_linear_82_580)"/>
<path d="M344.052 505.041L341.675 504.553L339.846 504.181L335.122 444.625L342.481 450.503L344.052 505.041Z" fill="#1D1D1B"/>
<path d="M344.268 512.499L344.329 514.633L335.475 516.622L342.41 512.317L344.268 512.499Z" fill="#1D1D1B"/>
<path d="M323.416 410.77L314.192 420.462L303.177 404.972L298.633 404.207L295.504 406.475L300.867 408.375C300.867 408.375 308.283 449.351 328.148 418.765L323.416 410.77Z" fill="url(#paint169_linear_82_580)"/>
<path d="M318.621 415.809L322.058 426.392L330.575 421.05L323.416 410.77L318.621 415.809Z" fill="url(#paint170_linear_82_580)"/>
<path d="M330.101 408.182L335.477 409.149C339.968 409.958 343.243 413.855 343.265 418.418L345.03 453.385C339.123 456.304 332.003 455.034 327.47 450.251L322.14 444.628L322.011 415.423C321.708 410.951 325.69 407.387 330.101 408.182Z" fill="url(#paint171_linear_82_580)"/>
<path d="M329.146 421.947L334.695 440.552L322.139 444.628L316.038 426.667L329.146 421.947Z" fill="#472667"/>
<path d="M333.483 405.825C333.483 405.825 333.278 409.312 332.756 409.681C332.234 410.05 329.525 412.945 330.91 407.175C332.296 401.406 333.483 405.825 333.483 405.825Z" fill="url(#paint172_linear_82_580)"/>
<path d="M330.496 408.228C332.369 408.228 333.887 406.71 333.887 404.838C333.887 402.965 332.369 401.447 330.496 401.447C328.624 401.447 327.106 402.965 327.106 404.838C327.106 406.71 328.624 408.228 330.496 408.228Z" fill="url(#paint173_linear_82_580)"/>
<path d="M327.384 403.491C327.384 403.491 314.79 397.198 316.941 391.702C319.092 386.207 334.695 403.875 334.695 403.875L333.428 406.539C333.428 406.539 333.606 404.313 332.687 404.827C331.768 405.342 331.997 407.06 331.997 407.06L331.389 404.833L327.384 403.491Z" fill="#1D1D1B"/>
<path d="M330.509 437.405L329.724 439.406L327.117 433.599L341.257 433.363L338.117 423.634L341.154 412.51C344.18 415.933 346.49 419.888 347.459 422.889C355.678 448.331 340.131 439.887 333.909 436.227C332.655 435.491 331.041 436.05 330.509 437.405Z" fill="url(#paint174_linear_82_580)"/>
<path d="M347.764 421.841L339.52 427.785L337.086 420.582C336.956 420.015 336.774 419.462 336.609 418.905C335.863 416.378 338.424 411.996 341.154 412.51C344.18 415.933 346.326 419.034 347.764 421.841Z" fill="url(#paint175_linear_82_580)"/>
<path opacity="0.4" d="M306.502 437.989L269.868 416.837L269.868 385.112L306.502 406.262V437.989Z" fill="url(#paint176_linear_82_580)"/>
<g opacity="0.4">
<path d="M273.701 396.531V416.537L278.683 419.414L278.684 399.276L273.701 396.531Z" fill="url(#paint177_linear_82_580)"/>
<path d="M281.174 408.231V421.009L286.157 423.729V411.108L281.174 408.231Z" fill="url(#paint178_linear_82_580)"/>
<path d="M288.53 407.777V425.195L293.512 427.915V410.655L288.53 407.777Z" fill="url(#paint179_linear_82_580)"/>
<path d="M296.155 406.465V429.45L301.105 432.36L301.138 409.342L296.155 406.465Z" fill="url(#paint180_linear_82_580)"/>
</g>
<path opacity="0.4" d="M269.867 379.823L269.868 385.112L306.502 406.262V400.974L269.867 379.823Z" fill="url(#paint181_linear_82_580)"/>
<defs>
<linearGradient id="paint0_linear_82_580" x1="370.356" y1="301.03" x2="370.25" y2="297.071" gradientUnits="userSpaceOnUse">
<stop stop-color="#F6F6F6"/>
<stop offset="1" stop-color="#CCD5ED"/>
</linearGradient>
<linearGradient id="paint1_linear_82_580" x1="347.586" y1="230.413" x2="307.489" y2="257.834" gradientUnits="userSpaceOnUse">
<stop stop-color="#F6F6F6"/>
<stop offset="1" stop-color="#CCD5ED"/>
</linearGradient>
<linearGradient id="paint2_linear_82_580" x1="345.676" y1="245.746" x2="370.656" y2="245.746" gradientUnits="userSpaceOnUse">
<stop stop-color="#F6F6F6"/>
<stop offset="1" stop-color="#CCD5ED"/>
</linearGradient>
<linearGradient id="paint3_linear_82_580" x1="329.313" y1="237.803" x2="329.288" y2="249.356" gradientUnits="userSpaceOnUse">
<stop stop-color="#4790CD"/>
<stop offset="1" stop-color="#EA6FAA"/>
</linearGradient>
<linearGradient id="paint4_linear_82_580" x1="356.692" y1="126.177" x2="338.457" y2="129.229" gradientUnits="userSpaceOnUse">
<stop stop-color="#4790CD"/>
<stop offset="1" stop-color="#EA6FAA"/>
</linearGradient>
<linearGradient id="paint5_linear_82_580" x1="339.373" y1="191.109" x2="363.434" y2="239.609" gradientUnits="userSpaceOnUse">
<stop stop-color="#4790CD"/>
<stop offset="1" stop-color="#EA6FAA"/>
</linearGradient>
<linearGradient id="paint6_linear_82_580" x1="355.433" y1="234.176" x2="375.324" y2="238.931" gradientUnits="userSpaceOnUse">
<stop stop-color="#4790CD"/>
<stop offset="1" stop-color="#EA6FAA"/>
</linearGradient>
<linearGradient id="paint7_linear_82_580" x1="645.612" y1="505.861" x2="646.043" y2="492.909" gradientUnits="userSpaceOnUse">
<stop stop-color="#F6F6F6"/>
<stop offset="1" stop-color="#CCD5ED"/>
</linearGradient>
<linearGradient id="paint8_linear_82_580" x1="596.767" y1="396.907" x2="596.767" y2="416.869" gradientUnits="userSpaceOnUse">
<stop stop-color="#F6F6F6"/>
<stop offset="1" stop-color="#CCD5ED"/>
</linearGradient>
<linearGradient id="paint9_linear_82_580" x1="629.536" y1="420.392" x2="619.348" y2="446.582" gradientUnits="userSpaceOnUse">
<stop stop-color="#F6F6F6"/>
<stop offset="1" stop-color="#CCD5ED"/>
</linearGradient>
<linearGradient id="paint10_linear_82_580" x1="674.929" y1="454.014" x2="676.057" y2="476.198" gradientUnits="userSpaceOnUse">
<stop stop-color="#F6F6F6"/>
<stop offset="1" stop-color="#CCD5ED"/>
</linearGradient>
<linearGradient id="paint11_linear_82_580" x1="634.907" y1="437.168" x2="656.163" y2="475.68" gradientUnits="userSpaceOnUse">
<stop stop-color="#F6F6F6"/>
<stop offset="1" stop-color="#CCD5ED"/>
</linearGradient>
<linearGradient id="paint12_linear_82_580" x1="565.501" y1="390.654" x2="552.411" y2="498.256" gradientUnits="userSpaceOnUse">
<stop stop-color="#4790CD"/>
<stop offset="1" stop-color="#EA6FAA"/>
</linearGradient>
<linearGradient id="paint13_linear_82_580" x1="668.262" y1="393.298" x2="663.416" y2="401.177" gradientUnits="userSpaceOnUse">
<stop stop-color="#4790CD"/>
<stop offset="1" stop-color="#EA6FAA"/>
</linearGradient>
<linearGradient id="paint14_linear_82_580" x1="627.089" y1="357.4" x2="589.789" y2="445.455" gradientUnits="userSpaceOnUse">
<stop stop-color="#4790CD"/>
<stop offset="1" stop-color="#EA6FAA"/>
</linearGradient>
<linearGradient id="paint15_linear_82_580" x1="462.653" y1="402.178" x2="463.085" y2="389.227" gradientUnits="userSpaceOnUse">
<stop stop-color="#F6F6F6"/>
<stop offset="1" stop-color="#CCD5ED"/>
</linearGradient>
<linearGradient id="paint16_linear_82_580" x1="413.81" y1="293.225" x2="413.81" y2="313.187" gradientUnits="userSpaceOnUse">
<stop stop-color="#F6F6F6"/>
<stop offset="1" stop-color="#CCD5ED"/>
</linearGradient>
<linearGradient id="paint17_linear_82_580" x1="446.58" y1="316.709" x2="436.392" y2="342.899" gradientUnits="userSpaceOnUse">
<stop stop-color="#F6F6F6"/>
<stop offset="1" stop-color="#CCD5ED"/>
</linearGradient>
<linearGradient id="paint18_linear_82_580" x1="491.973" y1="350.332" x2="493.101" y2="372.515" gradientUnits="userSpaceOnUse">
<stop stop-color="#F6F6F6"/>
<stop offset="1" stop-color="#CCD5ED"/>
</linearGradient>
<linearGradient id="paint19_linear_82_580" x1="451.95" y1="333.485" x2="473.206" y2="371.997" gradientUnits="userSpaceOnUse">
<stop stop-color="#F6F6F6"/>
<stop offset="1" stop-color="#CCD5ED"/>
</linearGradient>
<linearGradient id="paint20_linear_82_580" x1="382.543" y1="286.972" x2="369.454" y2="394.573" gradientUnits="userSpaceOnUse">
<stop stop-color="#4790CD"/>
<stop offset="1" stop-color="#EA6FAA"/>
</linearGradient>
<linearGradient id="paint21_linear_82_580" x1="485.306" y1="289.616" x2="480.459" y2="297.495" gradientUnits="userSpaceOnUse">
<stop stop-color="#4790CD"/>
<stop offset="1" stop-color="#EA6FAA"/>
</linearGradient>
<linearGradient id="paint22_linear_82_580" x1="444.132" y1="253.717" x2="406.832" y2="341.772" gradientUnits="userSpaceOnUse">
<stop stop-color="#4790CD"/>
<stop offset="1" stop-color="#EA6FAA"/>
</linearGradient>
<linearGradient id="paint23_linear_82_580" x1="180.319" y1="294.58" x2="244.319" y2="345.869" gradientUnits="userSpaceOnUse">
<stop stop-color="#F6F6F6"/>
<stop offset="1" stop-color="#CCD5ED"/>
</linearGradient>
<linearGradient id="paint24_linear_82_580" x1="262.197" y1="311.05" x2="316.583" y2="326.634" gradientUnits="userSpaceOnUse">
<stop stop-color="#F6F6F6"/>
<stop offset="1" stop-color="#CCD5ED"/>
</linearGradient>
<linearGradient id="paint25_linear_82_580" x1="225.278" y1="251.661" x2="223.885" y2="302.993" gradientUnits="userSpaceOnUse">
<stop stop-color="#F6F6F6"/>
<stop offset="1" stop-color="#CCD5ED"/>
</linearGradient>
<linearGradient id="paint26_linear_82_580" x1="289.318" y1="292.024" x2="302.791" y2="238.912" gradientUnits="userSpaceOnUse">
<stop stop-color="#F6F6F6"/>
<stop offset="1" stop-color="#CCD5ED"/>
</linearGradient>
<linearGradient id="paint27_linear_82_580" x1="269.623" y1="239.308" x2="257.462" y2="265.252" gradientUnits="userSpaceOnUse">
<stop stop-color="#F6F6F6"/>
<stop offset="1" stop-color="#CCD5ED"/>
</linearGradient>
<linearGradient id="paint28_linear_82_580" x1="180.456" y1="238.669" x2="221.935" y2="296.514" gradientUnits="userSpaceOnUse">
<stop stop-color="#F6F6F6"/>
<stop offset="1" stop-color="#CCD5ED"/>
</linearGradient>
<linearGradient id="paint29_linear_82_580" x1="264.121" y1="253.659" x2="309.298" y2="276.186" gradientUnits="userSpaceOnUse">
<stop stop-color="#F6F6F6"/>
<stop offset="1" stop-color="#CCD5ED"/>
</linearGradient>
<linearGradient id="paint30_linear_82_580" x1="225.278" y1="212.338" x2="223.885" y2="263.67" gradientUnits="userSpaceOnUse">
<stop stop-color="#F6F6F6"/>
<stop offset="1" stop-color="#CCD5ED"/>
</linearGradient>
<linearGradient id="paint31_linear_82_580" x1="289.318" y1="252.701" x2="302.791" y2="199.589" gradientUnits="userSpaceOnUse">
<stop stop-color="#F6F6F6"/>
<stop offset="1" stop-color="#CCD5ED"/>
</linearGradient>
<linearGradient id="paint32_linear_82_580" x1="269.623" y1="199.985" x2="257.462" y2="225.929" gradientUnits="userSpaceOnUse">
<stop stop-color="#F6F6F6"/>
<stop offset="1" stop-color="#CCD5ED"/>
</linearGradient>
<linearGradient id="paint33_linear_82_580" x1="180.456" y1="199.346" x2="221.934" y2="257.191" gradientUnits="userSpaceOnUse">
<stop stop-color="#F6F6F6"/>
<stop offset="1" stop-color="#CCD5ED"/>
</linearGradient>
<linearGradient id="paint34_linear_82_580" x1="264.121" y1="214.336" x2="309.298" y2="236.864" gradientUnits="userSpaceOnUse">
<stop stop-color="#F6F6F6"/>
<stop offset="1" stop-color="#CCD5ED"/>
</linearGradient>
<linearGradient id="paint35_linear_82_580" x1="225.278" y1="173.015" x2="223.885" y2="224.347" gradientUnits="userSpaceOnUse">
<stop stop-color="#F6F6F6"/>
<stop offset="1" stop-color="#CCD5ED"/>
</linearGradient>
<linearGradient id="paint36_linear_82_580" x1="289.318" y1="213.379" x2="302.791" y2="160.267" gradientUnits="userSpaceOnUse">
<stop stop-color="#F6F6F6"/>
<stop offset="1" stop-color="#CCD5ED"/>
</linearGradient>
<linearGradient id="paint37_linear_82_580" x1="269.623" y1="160.662" x2="257.462" y2="186.606" gradientUnits="userSpaceOnUse">
<stop stop-color="#F6F6F6"/>
<stop offset="1" stop-color="#CCD5ED"/>
</linearGradient>
<linearGradient id="paint38_linear_82_580" x1="267.903" y1="165.408" x2="257.653" y2="152.069" gradientUnits="userSpaceOnUse">
<stop stop-color="#F6F6F6"/>
<stop offset="1" stop-color="#CCD5ED"/>
</linearGradient>
<linearGradient id="paint39_linear_82_580" x1="180.319" y1="156.951" x2="244.317" y2="208.241" gradientUnits="userSpaceOnUse">
<stop stop-color="#F6F6F6"/>
<stop offset="1" stop-color="#CCD5ED"/>
</linearGradient>
<linearGradient id="paint40_linear_82_580" x1="262.197" y1="173.42" x2="316.583" y2="189.005" gradientUnits="userSpaceOnUse">
<stop stop-color="#F6F6F6"/>
<stop offset="1" stop-color="#CCD5ED"/>
</linearGradient>
<linearGradient id="paint41_linear_82_580" x1="225.278" y1="114.033" x2="223.885" y2="165.365" gradientUnits="userSpaceOnUse">
<stop stop-color="#F6F6F6"/>
<stop offset="1" stop-color="#CCD5ED"/>
</linearGradient>
<linearGradient id="paint42_linear_82_580" x1="289.318" y1="154.397" x2="302.791" y2="101.285" gradientUnits="userSpaceOnUse">
<stop stop-color="#F6F6F6"/>
<stop offset="1" stop-color="#CCD5ED"/>
</linearGradient>
<linearGradient id="paint43_linear_82_580" x1="267.903" y1="106.426" x2="257.653" y2="93.0873" gradientUnits="userSpaceOnUse">
<stop stop-color="#F6F6F6"/>
<stop offset="1" stop-color="#CCD5ED"/>
</linearGradient>
<linearGradient id="paint44_linear_82_580" x1="320.495" y1="189.932" x2="319.942" y2="197.012" gradientUnits="userSpaceOnUse">
<stop stop-color="#4790CD"/>
<stop offset="1" stop-color="#DA62A5"/>
</linearGradient>
<linearGradient id="paint45_linear_82_580" x1="326.918" y1="196.603" x2="330.107" y2="196.168" gradientUnits="userSpaceOnUse">
<stop stop-color="#4790CD"/>
<stop offset="1" stop-color="#DA62A5"/>
</linearGradient>
<linearGradient id="paint46_linear_82_580" x1="322.235" y1="185.677" x2="322.235" y2="189.775" gradientUnits="userSpaceOnUse">
<stop stop-color="#4790CD"/>
<stop offset="1" stop-color="#DA62A5"/>
</linearGradient>
<linearGradient id="paint47_linear_82_580" x1="310.598" y1="195.361" x2="310.045" y2="202.441" gradientUnits="userSpaceOnUse">
<stop stop-color="#4790CD"/>
<stop offset="1" stop-color="#DA62A5"/>
</linearGradient>
<linearGradient id="paint48_linear_82_580" x1="317.021" y1="202.032" x2="320.211" y2="201.597" gradientUnits="userSpaceOnUse">
<stop stop-color="#4790CD"/>
<stop offset="1" stop-color="#DA62A5"/>
</linearGradient>
<linearGradient id="paint49_linear_82_580" x1="312.338" y1="185.677" x2="312.338" y2="189.775" gradientUnits="userSpaceOnUse">
<stop stop-color="#4790CD"/>
<stop offset="1" stop-color="#DA62A5"/>
</linearGradient>
<linearGradient id="paint50_linear_82_580" x1="288.119" y1="248.574" x2="287.566" y2="255.655" gradientUnits="userSpaceOnUse">
<stop stop-color="#4790CD"/>
<stop offset="1" stop-color="#DA62A5"/>
</linearGradient>
<linearGradient id="paint51_linear_82_580" x1="294.542" y1="255.247" x2="297.731" y2="254.813" gradientUnits="userSpaceOnUse">
<stop stop-color="#4790CD"/>
<stop offset="1" stop-color="#DA62A5"/>
</linearGradient>
<linearGradient id="paint52_linear_82_580" x1="289.859" y1="244.319" x2="289.859" y2="248.417" gradientUnits="userSpaceOnUse">
<stop stop-color="#4790CD"/>
<stop offset="1" stop-color="#DA62A5"/>
</linearGradient>
<linearGradient id="paint53_linear_82_580" x1="278.221" y1="254.003" x2="277.668" y2="261.083" gradientUnits="userSpaceOnUse">
<stop stop-color="#4790CD"/>
<stop offset="1" stop-color="#DA62A5"/>
</linearGradient>
<linearGradient id="paint54_linear_82_580" x1="284.644" y1="260.674" x2="287.833" y2="260.239" gradientUnits="userSpaceOnUse">
<stop stop-color="#4790CD"/>
<stop offset="1" stop-color="#DA62A5"/>
</linearGradient>
<linearGradient id="paint55_linear_82_580" x1="279.961" y1="244.319" x2="279.961" y2="248.417" gradientUnits="userSpaceOnUse">
<stop stop-color="#4790CD"/>
<stop offset="1" stop-color="#DA62A5"/>
</linearGradient>
<linearGradient id="paint56_linear_82_580" x1="208.94" y1="191.888" x2="209.493" y2="198.968" gradientUnits="userSpaceOnUse">
<stop stop-color="#4790CD"/>
<stop offset="1" stop-color="#DA62A5"/>
</linearGradient>
<linearGradient id="paint57_linear_82_580" x1="213.43" y1="189.495" x2="210.241" y2="189.06" gradientUnits="userSpaceOnUse">
<stop stop-color="#4790CD"/>
<stop offset="1" stop-color="#DA62A5"/>
</linearGradient>
<linearGradient id="paint58_linear_82_580" x1="213.434" y1="186.868" x2="213.434" y2="190.966" gradientUnits="userSpaceOnUse">
<stop stop-color="#4790CD"/>
<stop offset="1" stop-color="#DA62A5"/>
</linearGradient>
<linearGradient id="paint59_linear_82_580" x1="218.835" y1="197.316" x2="219.388" y2="204.396" gradientUnits="userSpaceOnUse">
<stop stop-color="#4790CD"/>
<stop offset="1" stop-color="#DA62A5"/>
</linearGradient>
<linearGradient id="paint60_linear_82_580" x1="223.327" y1="194.925" x2="220.137" y2="194.49" gradientUnits="userSpaceOnUse">
<stop stop-color="#4790CD"/>
<stop offset="1" stop-color="#DA62A5"/>
</linearGradient>
<linearGradient id="paint61_linear_82_580" x1="223.331" y1="186.868" x2="223.331" y2="190.966" gradientUnits="userSpaceOnUse">
<stop stop-color="#4790CD"/>
<stop offset="1" stop-color="#DA62A5"/>
</linearGradient>
<linearGradient id="paint62_linear_82_580" x1="241.315" y1="250.53" x2="241.868" y2="257.61" gradientUnits="userSpaceOnUse">
<stop stop-color="#4790CD"/>
<stop offset="1" stop-color="#DA62A5"/>
</linearGradient>
<linearGradient id="paint63_linear_82_580" x1="245.806" y1="248.137" x2="242.616" y2="247.702" gradientUnits="userSpaceOnUse">
<stop stop-color="#4790CD"/>
<stop offset="1" stop-color="#DA62A5"/>
</linearGradient>
<linearGradient id="paint64_linear_82_580" x1="245.812" y1="245.51" x2="245.812" y2="249.608" gradientUnits="userSpaceOnUse">
<stop stop-color="#4790CD"/>
<stop offset="1" stop-color="#DA62A5"/>
</linearGradient>
<linearGradient id="paint65_linear_82_580" x1="251.212" y1="255.958" x2="251.764" y2="263.038" gradientUnits="userSpaceOnUse">
<stop stop-color="#4790CD"/>
<stop offset="1" stop-color="#DA62A5"/>
</linearGradient>
<linearGradient id="paint66_linear_82_580" x1="255.703" y1="253.567" x2="252.513" y2="253.132" gradientUnits="userSpaceOnUse">
<stop stop-color="#4790CD"/>
<stop offset="1" stop-color="#DA62A5"/>
</linearGradient>
<linearGradient id="paint67_linear_82_580" x1="255.708" y1="245.51" x2="255.708" y2="249.608" gradientUnits="userSpaceOnUse">
<stop stop-color="#4790CD"/>
<stop offset="1" stop-color="#DA62A5"/>
</linearGradient>
<linearGradient id="paint68_linear_82_580" x1="563.558" y1="421.802" x2="573.326" y2="392.539" gradientUnits="userSpaceOnUse">
<stop stop-color="#F6F6F6"/>
<stop offset="1" stop-color="#CCD5ED"/>
</linearGradient>
<linearGradient id="paint69_linear_82_580" x1="559.245" y1="427.09" x2="620.471" y2="388.907" gradientUnits="userSpaceOnUse">
<stop stop-color="#F6F6F6"/>
<stop offset="1" stop-color="#CCD5ED"/>
</linearGradient>
<linearGradient id="paint70_linear_82_580" x1="498.281" y1="420.751" x2="546.17" y2="420.751" gradientUnits="userSpaceOnUse">
<stop stop-color="#F6F6F6"/>
<stop offset="1" stop-color="#CCD5ED"/>
</linearGradient>
<linearGradient id="paint71_linear_82_580" x1="560.205" y1="354.061" x2="594.019" y2="292.179" gradientUnits="userSpaceOnUse">
<stop stop-color="#F6F6F6"/>
<stop offset="1" stop-color="#CCD5ED"/>
</linearGradient>
<linearGradient id="paint72_linear_82_580" x1="757.879" y1="-712.893" x2="688.404" y2="-712.638" gradientUnits="userSpaceOnUse">
<stop stop-color="#F6F6F6"/>
<stop offset="1" stop-color="#CCD5ED"/>
</linearGradient>
<linearGradient id="paint73_linear_82_580" x1="415.16" y1="184.43" x2="734.194" y2="184.43" gradientUnits="userSpaceOnUse">
<stop stop-color="#F6F6F6"/>
<stop offset="1" stop-color="#CCD5ED"/>
</linearGradient>
<linearGradient id="paint74_linear_82_580" x1="595.688" y1="328.232" x2="588.009" y2="326.915" gradientUnits="userSpaceOnUse">
<stop stop-color="#F6F6F6"/>
<stop offset="1" stop-color="#CCD5ED"/>
</linearGradient>
<linearGradient id="paint75_linear_82_580" x1="600.389" y1="-129.243" x2="319.957" y2="-45.2844" gradientUnits="userSpaceOnUse">
<stop stop-color="#F6F6F6"/>
<stop offset="1" stop-color="#CCD5ED"/>
</linearGradient>
<linearGradient id="paint76_linear_82_580" x1="396.007" y1="-44.9098" x2="672.548" y2="403.235" gradientUnits="userSpaceOnUse">
<stop stop-color="#F6F6F6"/>
<stop offset="1" stop-color="#CCD5ED"/>
</linearGradient>
<linearGradient id="paint77_linear_82_580" x1="364.035" y1="17.6638" x2="600.788" y2="131.492" gradientUnits="userSpaceOnUse">
<stop stop-color="#F6F6F6"/>
<stop offset="1" stop-color="#CCD5ED"/>
</linearGradient>
<linearGradient id="paint78_linear_82_580" x1="348.755" y1="295.843" x2="348.755" y2="319.939" gradientUnits="userSpaceOnUse">
<stop stop-color="#F6F6F6"/>
<stop offset="1" stop-color="#CCD5ED"/>
</linearGradient>
<linearGradient id="paint79_linear_82_580" x1="396.25" y1="325.187" x2="385.62" y2="319.756" gradientUnits="userSpaceOnUse">
<stop stop-color="#FAD6C7"/>
<stop offset="1" stop-color="#E4857F"/>
</linearGradient>
<linearGradient id="paint80_linear_82_580" x1="387.792" y1="326.696" x2="377.162" y2="321.265" gradientUnits="userSpaceOnUse">
<stop stop-color="#FAD6C7"/>
<stop offset="1" stop-color="#E4857F"/>
</linearGradient>
<linearGradient id="paint81_linear_82_580" x1="380.472" y1="237.757" x2="382.199" y2="287.694" gradientUnits="userSpaceOnUse">
<stop stop-color="#4790CD"/>
<stop offset="1" stop-color="#DA62A5"/>
</linearGradient>
<linearGradient id="paint82_linear_82_580" x1="401.198" y1="269.795" x2="397.566" y2="232.215" gradientUnits="userSpaceOnUse">
<stop stop-color="#F6F6F6"/>
<stop offset="1" stop-color="#CCD5ED"/>
</linearGradient>
<linearGradient id="paint83_linear_82_580" x1="395.786" y1="232.637" x2="381.726" y2="255.518" gradientUnits="userSpaceOnUse">
<stop stop-color="#4790CD"/>
<stop offset="1" stop-color="#DA62A5"/>
</linearGradient>
<linearGradient id="paint84_linear_82_580" x1="393.535" y1="235.363" x2="393.595" y2="232.845" gradientUnits="userSpaceOnUse">
<stop stop-color="#FAD6C7"/>
<stop offset="1" stop-color="#E4857F"/>
</linearGradient>
<linearGradient id="paint85_linear_82_580" x1="396.308" y1="231.587" x2="395.987" y2="227.846" gradientUnits="userSpaceOnUse">
<stop stop-color="#FAD6C7"/>
<stop offset="1" stop-color="#E4857F"/>
</linearGradient>
<linearGradient id="paint86_linear_82_580" x1="350.567" y1="240.671" x2="353.329" y2="329.919" gradientUnits="userSpaceOnUse">
<stop stop-color="#FAD6C7"/>
<stop offset="1" stop-color="#E4857F"/>
</linearGradient>
<linearGradient id="paint87_linear_82_580" x1="365.519" y1="239.309" x2="367.345" y2="288.257" gradientUnits="userSpaceOnUse">
<stop stop-color="#4790CD"/>
<stop offset="1" stop-color="#DA62A5"/>
</linearGradient>
<linearGradient id="paint88_linear_82_580" x1="150.523" y1="340.096" x2="252.04" y2="359.977" gradientUnits="userSpaceOnUse">
<stop stop-color="#4790CD"/>
<stop offset="1" stop-color="#DA62A5"/>
</linearGradient>
<linearGradient id="paint89_linear_82_580" x1="189.724" y1="198.958" x2="190.442" y2="212.273" gradientUnits="userSpaceOnUse">
<stop stop-color="#4790CD"/>
<stop offset="1" stop-color="#DA62A5"/>
</linearGradient>
<linearGradient id="paint90_linear_82_580" x1="167.588" y1="319.795" x2="167.985" y2="324.507" gradientUnits="userSpaceOnUse">
<stop stop-color="#4790CD"/>
<stop offset="1" stop-color="#DA62A5"/>
</linearGradient>
<linearGradient id="paint91_linear_82_580" x1="167.588" y1="322.588" x2="167.985" y2="327.3" gradientUnits="userSpaceOnUse">
<stop stop-color="#4790CD"/>
<stop offset="1" stop-color="#DA62A5"/>
</linearGradient>
<linearGradient id="paint92_linear_82_580" x1="167.588" y1="325.381" x2="167.985" y2="330.093" gradientUnits="userSpaceOnUse">
<stop stop-color="#4790CD"/>
<stop offset="1" stop-color="#DA62A5"/>
</linearGradient>
<linearGradient id="paint93_linear_82_580" x1="167.588" y1="328.174" x2="167.985" y2="332.886" gradientUnits="userSpaceOnUse">
<stop stop-color="#4790CD"/>
<stop offset="1" stop-color="#DA62A5"/>
</linearGradient>
<linearGradient id="paint94_linear_82_580" x1="170.942" y1="330.384" x2="171.234" y2="333.707" gradientUnits="userSpaceOnUse">
<stop stop-color="#4790CD"/>
<stop offset="1" stop-color="#DA62A5"/>
</linearGradient>
<linearGradient id="paint95_linear_82_580" x1="153.094" y1="313.849" x2="167.833" y2="350.066" gradientUnits="userSpaceOnUse">
<stop stop-color="#4790CD"/>
<stop offset="1" stop-color="#DA62A5"/>
</linearGradient>
<linearGradient id="paint96_linear_82_580" x1="227.484" y1="259.324" x2="230.66" y2="266.954" gradientUnits="userSpaceOnUse">
<stop stop-color="#F6F6F6"/>
<stop offset="1" stop-color="#CCD5ED"/>
</linearGradient>
<linearGradient id="paint97_linear_82_580" x1="236.719" y1="293.003" x2="259.957" y2="311.731" gradientUnits="userSpaceOnUse">
<stop stop-color="#FAD6C7"/>
<stop offset="1" stop-color="#E4857F"/>
</linearGradient>
<linearGradient id="paint98_linear_82_580" x1="211.873" y1="355.294" x2="211.873" y2="382.052" gradientUnits="userSpaceOnUse">
<stop stop-color="#F6F6F6"/>
<stop offset="1" stop-color="#CCD5ED"/>
</linearGradient>
<linearGradient id="paint99_linear_82_580" x1="260.148" y1="372.485" x2="281.051" y2="361.298" gradientUnits="userSpaceOnUse">
<stop stop-color="#FAD6C7"/>
<stop offset="1" stop-color="#E4857F"/>
</linearGradient>
<linearGradient id="paint100_linear_82_580" x1="271.44" y1="370.384" x2="296.765" y2="348.524" gradientUnits="userSpaceOnUse">
<stop stop-color="#FAD6C7"/>
<stop offset="1" stop-color="#E4857F"/>
</linearGradient>
<linearGradient id="paint101_linear_82_580" x1="251.602" y1="342.916" x2="244.331" y2="339.368" gradientUnits="userSpaceOnUse">
<stop stop-color="#FAD6C7"/>
<stop offset="1" stop-color="#E4857F"/>
</linearGradient>
<linearGradient id="paint102_linear_82_580" x1="270.745" y1="345.096" x2="281.91" y2="301.194" gradientUnits="userSpaceOnUse">
<stop stop-color="#F6F6F6"/>
<stop offset="1" stop-color="#CCD5ED"/>
</linearGradient>
<linearGradient id="paint103_linear_82_580" x1="255.13" y1="334.691" x2="265.992" y2="333.296" gradientUnits="userSpaceOnUse">
<stop stop-color="#FAD6C7"/>
<stop offset="1" stop-color="#E4857F"/>
</linearGradient>
<linearGradient id="paint104_linear_82_580" x1="262.78" y1="344.519" x2="271.321" y2="299.492" gradientUnits="userSpaceOnUse">
<stop stop-color="#F6F6F6"/>
<stop offset="1" stop-color="#CCD5ED"/>
</linearGradient>
<linearGradient id="paint105_linear_82_580" x1="267.144" y1="292.013" x2="269.757" y2="274.251" gradientUnits="userSpaceOnUse">
<stop stop-color="#FAD6C7"/>
<stop offset="1" stop-color="#E4857F"/>
</linearGradient>
<linearGradient id="paint106_linear_82_580" x1="-21.1787" y1="409.094" x2="42.8214" y2="460.383" gradientUnits="userSpaceOnUse">
<stop stop-color="#F6F6F6"/>
<stop offset="1" stop-color="#CCD5ED"/>
</linearGradient>
<linearGradient id="paint107_linear_82_580" x1="60.6983" y1="425.564" x2="115.085" y2="441.148" gradientUnits="userSpaceOnUse">
<stop stop-color="#F6F6F6"/>
<stop offset="1" stop-color="#CCD5ED"/>
</linearGradient>
<linearGradient id="paint108_linear_82_580" x1="23.7796" y1="366.175" x2="22.3869" y2="417.507" gradientUnits="userSpaceOnUse">
<stop stop-color="#F6F6F6"/>
<stop offset="1" stop-color="#CCD5ED"/>
</linearGradient>
<linearGradient id="paint109_linear_82_580" x1="87.8203" y1="406.538" x2="101.293" y2="353.426" gradientUnits="userSpaceOnUse">
<stop stop-color="#F6F6F6"/>
<stop offset="1" stop-color="#CCD5ED"/>
</linearGradient>
<linearGradient id="paint110_linear_82_580" x1="68.1249" y1="353.822" x2="55.9638" y2="379.765" gradientUnits="userSpaceOnUse">
<stop stop-color="#F6F6F6"/>
<stop offset="1" stop-color="#CCD5ED"/>
</linearGradient>
<linearGradient id="paint111_linear_82_580" x1="-21.0419" y1="353.182" x2="20.4356" y2="411.028" gradientUnits="userSpaceOnUse">
<stop stop-color="#F6F6F6"/>
<stop offset="1" stop-color="#CCD5ED"/>
</linearGradient>
<linearGradient id="paint112_linear_82_580" x1="62.6219" y1="368.172" x2="107.799" y2="390.7" gradientUnits="userSpaceOnUse">
<stop stop-color="#F6F6F6"/>
<stop offset="1" stop-color="#CCD5ED"/>
</linearGradient>
<linearGradient id="paint113_linear_82_580" x1="23.7796" y1="326.852" x2="22.3869" y2="378.184" gradientUnits="userSpaceOnUse">
<stop stop-color="#F6F6F6"/>
<stop offset="1" stop-color="#CCD5ED"/>
</linearGradient>
<linearGradient id="paint114_linear_82_580" x1="87.8198" y1="367.215" x2="101.293" y2="314.104" gradientUnits="userSpaceOnUse">
<stop stop-color="#F6F6F6"/>
<stop offset="1" stop-color="#CCD5ED"/>
</linearGradient>
<linearGradient id="paint115_linear_82_580" x1="68.1249" y1="314.499" x2="55.9638" y2="340.443" gradientUnits="userSpaceOnUse">
<stop stop-color="#F6F6F6"/>
<stop offset="1" stop-color="#CCD5ED"/>
</linearGradient>
<linearGradient id="paint116_linear_82_580" x1="-21.0419" y1="313.86" x2="20.4356" y2="371.705" gradientUnits="userSpaceOnUse">
<stop stop-color="#F6F6F6"/>
<stop offset="1" stop-color="#CCD5ED"/>
</linearGradient>
<linearGradient id="paint117_linear_82_580" x1="62.6219" y1="328.85" x2="107.799" y2="351.378" gradientUnits="userSpaceOnUse">
<stop stop-color="#F6F6F6"/>
<stop offset="1" stop-color="#CCD5ED"/>
</linearGradient>
<linearGradient id="paint118_linear_82_580" x1="23.78" y1="287.529" x2="22.3873" y2="338.861" gradientUnits="userSpaceOnUse">
<stop stop-color="#F6F6F6"/>
<stop offset="1" stop-color="#CCD5ED"/>
</linearGradient>
<linearGradient id="paint119_linear_82_580" x1="87.8198" y1="327.893" x2="101.293" y2="274.781" gradientUnits="userSpaceOnUse">
<stop stop-color="#F6F6F6"/>
<stop offset="1" stop-color="#CCD5ED"/>
</linearGradient>
<linearGradient id="paint120_linear_82_580" x1="68.1249" y1="275.176" x2="55.9638" y2="301.12" gradientUnits="userSpaceOnUse">
<stop stop-color="#F6F6F6"/>
<stop offset="1" stop-color="#CCD5ED"/>
</linearGradient>
<linearGradient id="paint121_linear_82_580" x1="66.405" y1="279.922" x2="56.1553" y2="266.583" gradientUnits="userSpaceOnUse">
<stop stop-color="#F6F6F6"/>
<stop offset="1" stop-color="#CCD5ED"/>
</linearGradient>
<linearGradient id="paint122_linear_82_580" x1="-21.1788" y1="271.465" x2="42.8189" y2="322.755" gradientUnits="userSpaceOnUse">
<stop stop-color="#F6F6F6"/>
<stop offset="1" stop-color="#CCD5ED"/>
</linearGradient>
<linearGradient id="paint123_linear_82_580" x1="60.6985" y1="287.934" x2="115.084" y2="303.519" gradientUnits="userSpaceOnUse">
<stop stop-color="#F6F6F6"/>
<stop offset="1" stop-color="#CCD5ED"/>
</linearGradient>
<linearGradient id="paint124_linear_82_580" x1="23.7799" y1="228.547" x2="22.3871" y2="279.879" gradientUnits="userSpaceOnUse">
<stop stop-color="#F6F6F6"/>
<stop offset="1" stop-color="#CCD5ED"/>
</linearGradient>
<linearGradient id="paint125_linear_82_580" x1="87.8198" y1="268.911" x2="101.293" y2="215.799" gradientUnits="userSpaceOnUse">
<stop stop-color="#F6F6F6"/>
<stop offset="1" stop-color="#CCD5ED"/>
</linearGradient>
<linearGradient id="paint126_linear_82_580" x1="66.4051" y1="220.94" x2="56.1553" y2="207.601" gradientUnits="userSpaceOnUse">
<stop stop-color="#F6F6F6"/>
<stop offset="1" stop-color="#CCD5ED"/>
</linearGradient>
<linearGradient id="paint127_linear_82_580" x1="118.996" y1="304.446" x2="118.443" y2="311.526" gradientUnits="userSpaceOnUse">
<stop stop-color="#4790CD"/>
<stop offset="1" stop-color="#DA62A5"/>
</linearGradient>
<linearGradient id="paint128_linear_82_580" x1="125.42" y1="311.117" x2="128.609" y2="310.683" gradientUnits="userSpaceOnUse">
<stop stop-color="#4790CD"/>
<stop offset="1" stop-color="#DA62A5"/>
</linearGradient>
<linearGradient id="paint129_linear_82_580" x1="120.736" y1="300.191" x2="120.736" y2="304.289" gradientUnits="userSpaceOnUse">
<stop stop-color="#4790CD"/>
<stop offset="1" stop-color="#DA62A5"/>
</linearGradient>
<linearGradient id="paint130_linear_82_580" x1="109.1" y1="309.875" x2="108.547" y2="316.955" gradientUnits="userSpaceOnUse">
<stop stop-color="#4790CD"/>
<stop offset="1" stop-color="#DA62A5"/>
</linearGradient>
<linearGradient id="paint131_linear_82_580" x1="115.523" y1="316.548" x2="118.712" y2="316.113" gradientUnits="userSpaceOnUse">
<stop stop-color="#4790CD"/>
<stop offset="1" stop-color="#DA62A5"/>
</linearGradient>
<linearGradient id="paint132_linear_82_580" x1="110.84" y1="300.191" x2="110.84" y2="304.289" gradientUnits="userSpaceOnUse">
<stop stop-color="#4790CD"/>
<stop offset="1" stop-color="#DA62A5"/>
</linearGradient>
<linearGradient id="paint133_linear_82_580" x1="86.6203" y1="363.088" x2="86.0674" y2="370.168" gradientUnits="userSpaceOnUse">
<stop stop-color="#4790CD"/>
<stop offset="1" stop-color="#DA62A5"/>
</linearGradient>
<linearGradient id="paint134_linear_82_580" x1="93.043" y1="369.761" x2="96.2324" y2="369.327" gradientUnits="userSpaceOnUse">
<stop stop-color="#4790CD"/>
<stop offset="1" stop-color="#DA62A5"/>
</linearGradient>
<linearGradient id="paint135_linear_82_580" x1="88.3601" y1="358.833" x2="88.3601" y2="362.931" gradientUnits="userSpaceOnUse">
<stop stop-color="#4790CD"/>
<stop offset="1" stop-color="#DA62A5"/>
</linearGradient>
<linearGradient id="paint136_linear_82_580" x1="76.7236" y1="368.517" x2="76.1707" y2="375.597" gradientUnits="userSpaceOnUse">
<stop stop-color="#4790CD"/>
<stop offset="1" stop-color="#DA62A5"/>
</linearGradient>
<linearGradient id="paint137_linear_82_580" x1="83.1463" y1="375.188" x2="86.336" y2="374.754" gradientUnits="userSpaceOnUse">
<stop stop-color="#4790CD"/>
<stop offset="1" stop-color="#DA62A5"/>
</linearGradient>
<linearGradient id="paint138_linear_82_580" x1="78.4633" y1="358.833" x2="78.4633" y2="362.931" gradientUnits="userSpaceOnUse">
<stop stop-color="#4790CD"/>
<stop offset="1" stop-color="#DA62A5"/>
</linearGradient>
<linearGradient id="paint139_linear_82_580" x1="7.44058" y1="306.401" x2="7.99332" y2="313.482" gradientUnits="userSpaceOnUse">
<stop stop-color="#4790CD"/>
<stop offset="1" stop-color="#DA62A5"/>
</linearGradient>
<linearGradient id="paint140_linear_82_580" x1="11.9321" y1="304.009" x2="8.74257" y2="303.574" gradientUnits="userSpaceOnUse">
<stop stop-color="#4790CD"/>
<stop offset="1" stop-color="#DA62A5"/>
</linearGradient>
<linearGradient id="paint141_linear_82_580" x1="11.9355" y1="301.382" x2="11.9355" y2="305.48" gradientUnits="userSpaceOnUse">
<stop stop-color="#4790CD"/>
<stop offset="1" stop-color="#DA62A5"/>
</linearGradient>
<linearGradient id="paint142_linear_82_580" x1="17.337" y1="311.83" x2="17.8897" y2="318.91" gradientUnits="userSpaceOnUse">
<stop stop-color="#4790CD"/>
<stop offset="1" stop-color="#DA62A5"/>
</linearGradient>
<linearGradient id="paint143_linear_82_580" x1="21.8284" y1="309.439" x2="18.6386" y2="309.004" gradientUnits="userSpaceOnUse">
<stop stop-color="#4790CD"/>
<stop offset="1" stop-color="#DA62A5"/>
</linearGradient>
<linearGradient id="paint144_linear_82_580" x1="21.833" y1="301.382" x2="21.833" y2="305.48" gradientUnits="userSpaceOnUse">
<stop stop-color="#4790CD"/>
<stop offset="1" stop-color="#DA62A5"/>
</linearGradient>
<linearGradient id="paint145_linear_82_580" x1="39.8159" y1="365.044" x2="40.3687" y2="372.124" gradientUnits="userSpaceOnUse">
<stop stop-color="#4790CD"/>
<stop offset="1" stop-color="#DA62A5"/>
</linearGradient>
<linearGradient id="paint146_linear_82_580" x1="44.3078" y1="362.652" x2="41.118" y2="362.218" gradientUnits="userSpaceOnUse">
<stop stop-color="#4790CD"/>
<stop offset="1" stop-color="#DA62A5"/>
</linearGradient>
<linearGradient id="paint147_linear_82_580" x1="44.3123" y1="360.025" x2="44.3123" y2="364.122" gradientUnits="userSpaceOnUse">
<stop stop-color="#4790CD"/>
<stop offset="1" stop-color="#DA62A5"/>
</linearGradient>
<linearGradient id="paint148_linear_82_580" x1="49.7137" y1="370.472" x2="50.2666" y2="377.552" gradientUnits="userSpaceOnUse">
<stop stop-color="#4790CD"/>
<stop offset="1" stop-color="#DA62A5"/>
</linearGradient>
<linearGradient id="paint149_linear_82_580" x1="54.2046" y1="368.079" x2="51.0151" y2="367.645" gradientUnits="userSpaceOnUse">
<stop stop-color="#4790CD"/>
<stop offset="1" stop-color="#DA62A5"/>
</linearGradient>
<linearGradient id="paint150_linear_82_580" x1="54.2097" y1="360.025" x2="54.2097" y2="364.122" gradientUnits="userSpaceOnUse">
<stop stop-color="#4790CD"/>
<stop offset="1" stop-color="#DA62A5"/>
</linearGradient>
<linearGradient id="paint151_linear_82_580" x1="52.548" y1="484.52" x2="52.4414" y2="480.562" gradientUnits="userSpaceOnUse">
<stop stop-color="#F6F6F6"/>
<stop offset="1" stop-color="#CCD5ED"/>
</linearGradient>
<linearGradient id="paint152_linear_82_580" x1="29.7772" y1="413.904" x2="-10.3199" y2="441.325" gradientUnits="userSpaceOnUse">
<stop stop-color="#F6F6F6"/>
<stop offset="1" stop-color="#CCD5ED"/>
</linearGradient>
<linearGradient id="paint153_linear_82_580" x1="27.867" y1="429.237" x2="52.8474" y2="429.237" gradientUnits="userSpaceOnUse">
<stop stop-color="#F6F6F6"/>
<stop offset="1" stop-color="#CCD5ED"/>
</linearGradient>
<linearGradient id="paint154_linear_82_580" x1="11.5043" y1="421.293" x2="11.4788" y2="432.846" gradientUnits="userSpaceOnUse">
<stop stop-color="#4790CD"/>
<stop offset="1" stop-color="#EA6FAA"/>
</linearGradient>
<linearGradient id="paint155_linear_82_580" x1="38.8836" y1="309.667" x2="20.6492" y2="312.72" gradientUnits="userSpaceOnUse">
<stop stop-color="#4790CD"/>
<stop offset="1" stop-color="#EA6FAA"/>
</linearGradient>
<linearGradient id="paint156_linear_82_580" x1="21.5635" y1="374.6" x2="45.6243" y2="423.1" gradientUnits="userSpaceOnUse">
<stop stop-color="#4790CD"/>
<stop offset="1" stop-color="#EA6FAA"/>
</linearGradient>
<linearGradient id="paint157_linear_82_580" x1="37.6256" y1="417.667" x2="57.5163" y2="422.421" gradientUnits="userSpaceOnUse">
<stop stop-color="#4790CD"/>
<stop offset="1" stop-color="#EA6FAA"/>
</linearGradient>
<linearGradient id="paint158_linear_82_580" x1="397.652" y1="444.013" x2="397.652" y2="472.76" gradientUnits="userSpaceOnUse">
<stop stop-color="#F6F6F6"/>
<stop offset="1" stop-color="#CCD5ED"/>
</linearGradient>
<linearGradient id="paint159_linear_82_580" x1="445.442" y1="402.916" x2="457.485" y2="392.113" gradientUnits="userSpaceOnUse">
<stop stop-color="#FAD6C7"/>
<stop offset="1" stop-color="#E4857F"/>
</linearGradient>
<linearGradient id="paint160_linear_82_580" x1="447.585" y1="475.713" x2="458.747" y2="473.576" gradientUnits="userSpaceOnUse">
<stop stop-color="#FAD6C7"/>
<stop offset="1" stop-color="#E4857F"/>
</linearGradient>
<linearGradient id="paint161_linear_82_580" x1="453.945" y1="447.12" x2="472.72" y2="430.84" gradientUnits="userSpaceOnUse">
<stop stop-color="#FAD6C7"/>
<stop offset="1" stop-color="#E4857F"/>
</linearGradient>
<linearGradient id="paint162_linear_82_580" x1="458.223" y1="436.119" x2="465.327" y2="378.215" gradientUnits="userSpaceOnUse">
<stop stop-color="#F6F6F6"/>
<stop offset="1" stop-color="#CCD5ED"/>
</linearGradient>
<linearGradient id="paint163_linear_82_580" x1="458.563" y1="376.038" x2="455.755" y2="356.956" gradientUnits="userSpaceOnUse">
<stop stop-color="#FAD6C7"/>
<stop offset="1" stop-color="#E4857F"/>
</linearGradient>
<linearGradient id="paint164_linear_82_580" x1="475.227" y1="396.632" x2="473.599" y2="382.181" gradientUnits="userSpaceOnUse">
<stop stop-color="#FAD6C7"/>
<stop offset="1" stop-color="#E4857F"/>
</linearGradient>
<linearGradient id="paint165_linear_82_580" x1="452.887" y1="388.915" x2="453.067" y2="381.524" gradientUnits="userSpaceOnUse">
<stop stop-color="#F6F6F6"/>
<stop offset="1" stop-color="#CCD5ED"/>
</linearGradient>
<linearGradient id="paint166_linear_82_580" x1="281.185" y1="476.006" x2="281.185" y2="502.238" gradientUnits="userSpaceOnUse">
<stop stop-color="#F6F6F6"/>
<stop offset="1" stop-color="#CCD5ED"/>
</linearGradient>
<linearGradient id="paint167_linear_82_580" x1="331.702" y1="514.428" x2="343.275" y2="508.515" gradientUnits="userSpaceOnUse">
<stop stop-color="#FAD6C7"/>
<stop offset="1" stop-color="#E4857F"/>
</linearGradient>
<linearGradient id="paint168_linear_82_580" x1="340.911" y1="516.072" x2="352.483" y2="510.16" gradientUnits="userSpaceOnUse">
<stop stop-color="#FAD6C7"/>
<stop offset="1" stop-color="#E4857F"/>
</linearGradient>
<linearGradient id="paint169_linear_82_580" x1="255.876" y1="405.809" x2="254.743" y2="494.707" gradientUnits="userSpaceOnUse">
<stop stop-color="#FAD6C7"/>
<stop offset="1" stop-color="#E4857F"/>
</linearGradient>
<linearGradient id="paint170_linear_82_580" x1="303.865" y1="411.31" x2="301.984" y2="465.674" gradientUnits="userSpaceOnUse">
<stop stop-color="#4790CD"/>
<stop offset="1" stop-color="#DA62A5"/>
</linearGradient>
<linearGradient id="paint171_linear_82_580" x1="343.245" y1="449.586" x2="347.199" y2="408.675" gradientUnits="userSpaceOnUse">
<stop stop-color="#F6F6F6"/>
<stop offset="1" stop-color="#CCD5ED"/>
</linearGradient>
<linearGradient id="paint172_linear_82_580" x1="332.585" y1="410.115" x2="332.52" y2="407.374" gradientUnits="userSpaceOnUse">
<stop stop-color="#FAD6C7"/>
<stop offset="1" stop-color="#E4857F"/>
</linearGradient>
<linearGradient id="paint173_linear_82_580" x1="332.413" y1="406.402" x2="332.763" y2="402.33" gradientUnits="userSpaceOnUse">
<stop stop-color="#FAD6C7"/>
<stop offset="1" stop-color="#E4857F"/>
</linearGradient>
<linearGradient id="paint174_linear_82_580" x1="299.485" y1="413.49" x2="296.478" y2="510.651" gradientUnits="userSpaceOnUse">
<stop stop-color="#FAD6C7"/>
<stop offset="1" stop-color="#E4857F"/>
</linearGradient>
<linearGradient id="paint175_linear_82_580" x1="322.548" y1="412.975" x2="320.561" y2="466.262" gradientUnits="userSpaceOnUse">
<stop stop-color="#4790CD"/>
<stop offset="1" stop-color="#DA62A5"/>
</linearGradient>
<linearGradient id="paint176_linear_82_580" x1="298.009" y1="377.583" x2="258.031" y2="385.412" gradientUnits="userSpaceOnUse">
<stop stop-color="#4790CD"/>
<stop offset="1" stop-color="#DA62A5"/>
</linearGradient>
<linearGradient id="paint177_linear_82_580" x1="264.647" y1="389.06" x2="260.559" y2="388.902" gradientUnits="userSpaceOnUse">
<stop stop-color="#4790CD"/>
<stop offset="1" stop-color="#DA62A5"/>
</linearGradient>
<linearGradient id="paint178_linear_82_580" x1="263.816" y1="393.221" x2="259.604" y2="392.865" gradientUnits="userSpaceOnUse">
<stop stop-color="#4790CD"/>
<stop offset="1" stop-color="#DA62A5"/>
</linearGradient>
<linearGradient id="paint179_linear_82_580" x1="265.73" y1="388.887" x2="261.611" y2="388.681" gradientUnits="userSpaceOnUse">
<stop stop-color="#4790CD"/>
<stop offset="1" stop-color="#DA62A5"/>
</linearGradient>
<linearGradient id="paint180_linear_82_580" x1="267.977" y1="383.739" x2="263.916" y2="383.616" gradientUnits="userSpaceOnUse">
<stop stop-color="#4790CD"/>
<stop offset="1" stop-color="#DA62A5"/>
</linearGradient>
<linearGradient id="paint181_linear_82_580" x1="286.191" y1="377.095" x2="285.908" y2="382.338" gradientUnits="userSpaceOnUse">
<stop stop-color="#4790CD"/>
<stop offset="1" stop-color="#DA62A5"/>
</linearGradient>
</defs>
</svg>
