<svg width="87" height="87" viewBox="0 0 87 87" fill="none" xmlns="http://www.w3.org/2000/svg">
<path fill-rule="evenodd" clip-rule="evenodd" d="M50.6925 66.7052L52.4659 69.7762C52.608 69.9925 52.6575 70.2612 52.5957 70.5146C52.537 70.771 52.3732 70.9873 52.1477 71.117C51.9221 71.2499 51.6534 71.2808 51.4031 71.2066C51.1529 71.1325 50.9428 70.9564 50.8254 70.7247L49.0366 67.629L49.018 67.6073C48.3291 66.3994 46.4136 67.3694 47.2787 68.8524C47.807 69.7668 48.8698 71.5279 49.4258 72.2972C50.6586 73.9779 52.4844 75.535 54.3814 76.7862L64.8546 70.7401C63.1214 65.5745 63.9061 64.9658 60.4428 58.969C59.7322 57.7363 58.756 57.9588 58.5767 58.4623L60.208 61.2892C60.3594 61.5086 60.4119 61.7804 60.3532 62.0369C60.2945 62.2964 60.1307 62.5188 59.9021 62.6517C59.6735 62.7845 59.4016 62.8154 59.1483 62.7351C58.895 62.6579 58.6849 62.4787 58.5706 62.2408L56.7879 59.1389C56.7787 59.1296 56.7756 59.1173 56.7663 59.108C56.1051 57.934 54.9404 58.3171 54.7087 58.8825L56.3214 61.6908C56.4666 61.9102 56.513 62.1759 56.4512 62.4292C56.3925 62.6856 56.2318 62.9019 56.0032 63.0348C55.7777 63.1645 55.5089 63.1954 55.2586 63.1213C55.0084 63.0471 54.7983 62.8741 54.6809 62.6393L52.8921 59.5405C52.8828 59.522 52.8736 59.5096 52.8643 59.4911C52.5893 59.0246 52.1506 58.8948 51.7953 58.9875L51.7984 58.9906C51.7551 59.0091 51.7088 59.0246 51.6624 59.04C51.3226 59.1976 51.1032 59.5838 51.2855 60.0719L53.0435 63.1151C53.198 63.3314 53.2536 63.6032 53.1949 63.8628C53.1393 64.1223 52.9755 64.3478 52.7438 64.4807C52.5152 64.6135 52.2402 64.6444 51.9838 64.5672C51.7304 64.4868 51.5235 64.3046 51.4091 64.0636L49.6265 60.9803V60.971L48.1157 58.4933L48.1188 58.4902C48.091 58.4531 48.0663 58.4129 48.0447 58.3728L45.8727 54.8291C45.2672 53.8189 43.8955 54.5727 44.4732 55.5737C48.4988 62.5405 47.7882 61.4251 50.68 66.6986L50.6925 66.7052ZM55.0487 83.3017L53.0035 79.7642C52.7069 79.2482 52.6698 78.618 52.9046 78.0712C51.4927 77.1104 50.192 76.0012 49.0211 74.7623C48.3229 75.0743 47.566 75.235 46.7998 75.235H21.9383C18.8643 75.2319 16.3741 72.7387 16.371 69.6615V16.8004C16.3741 13.7263 18.8642 11.2361 21.9383 11.23H46.7934C49.8675 11.2392 52.3545 13.7294 52.3576 16.8004V57.0814C52.7315 57.1246 53.0898 57.2451 53.4111 57.4366C54.4059 56.309 56.0835 56.1051 57.3162 56.9609C58.0268 56.2317 59.0896 55.9722 60.0566 56.2904C60.7919 56.5191 61.5179 57.0597 62.074 58.0206C65.6578 64.2274 64.9226 64.8762 66.5631 69.8842C67.3416 69.7513 68.1202 70.1159 68.5188 70.7986L70.6011 74.3979C71.1201 75.3 70.8142 76.4525 69.9152 76.9807L57.7178 84.0185C56.757 84.621 55.4903 84.2163 55.0454 83.3018L55.0487 83.3017ZM46.234 70.7958C46.0147 70.4313 45.8139 70.0883 45.647 69.7948C44.3803 67.6291 45.7582 65.4974 47.7139 65.1946C46.0147 62.065 46.095 62.1453 42.848 56.5223C41.742 54.5975 43.0612 52.6882 44.8345 52.4689C45.8108 52.3484 46.8551 52.7346 47.5162 53.8684L47.9302 54.5573V16.8009C47.9271 16.1738 47.4173 15.6671 46.7901 15.664H43.815C43.4103 16.8009 42.3351 17.5578 41.1272 17.5609H27.6169C26.4089 17.5609 25.3337 16.8009 24.929 15.664H21.9384C21.3113 15.6671 20.8046 16.1738 20.8015 16.8009V69.659C20.8046 70.2861 21.3113 70.7928 21.9384 70.799L46.234 70.7958ZM29.0626 49.4168H39.6624C41.099 49.4198 42.2668 50.5846 42.2668 52.0243C42.2668 52.8492 42.0876 53.4826 41.5006 54.0634C41.0156 54.5546 40.3514 54.8295 39.6624 54.8295H29.0626C27.626 54.8265 26.4613 53.6586 26.4613 52.222C26.4613 51.3971 26.6404 50.7637 27.2274 50.183V50.1799C27.7125 49.6917 28.3736 49.4168 29.0626 49.4168ZM39.6592 51.3137H29.0626C28.1141 51.3137 28.1141 52.9295 29.0626 52.9295H39.6592C40.6076 52.9295 40.6076 51.3137 39.6592 51.3137ZM29.0626 56.022H39.6592L39.6623 56.0251C41.0989 56.0282 42.2637 57.193 42.2667 58.6296C42.2667 59.4576 42.0876 60.0879 41.5006 60.6748C41.0155 61.1629 40.3513 61.4379 39.6623 61.4379H29.0626C27.626 61.4317 26.4643 60.267 26.4612 58.8304C26.4612 58.0054 26.6404 57.3721 27.2274 56.7913C27.7124 56.3001 28.3736 56.0251 29.0625 56.0251L29.0626 56.022ZM34.3641 30.7129C38.2785 30.7129 40.2527 35.4584 37.4814 38.2358C34.7102 41.0133 29.9585 39.0267 29.9585 35.1186V35.1216C29.9585 32.6902 31.9327 30.716 34.3641 30.716V30.7129ZM25.4664 23.2117H43.2619C44.9271 23.2147 46.2772 24.5648 46.2803 26.2301V44.016C46.2772 45.6813 44.9271 47.0314 43.2619 47.0376H25.4664C23.8042 47.0252 22.4634 45.6781 22.4603 44.016V26.2301C22.4634 24.571 23.8042 23.2209 25.4664 23.2117ZM29.0626 62.6401H39.6624C41.099 62.6431 42.2637 63.8079 42.2668 65.2445C42.2668 66.0694 42.0876 66.7028 41.5006 67.2897C41.0156 67.7779 40.3514 68.0528 39.6624 68.0528H29.0626C27.626 68.0497 26.4613 66.885 26.4613 65.4453C26.4613 64.6173 26.6404 63.987 27.2274 63.4001V63.4032C27.7125 62.915 28.3736 62.6401 29.0626 62.6401ZM39.6592 64.537H29.0626C28.1141 64.537 28.1141 66.1559 29.0626 66.1559H39.6592C40.6076 66.1559 40.6076 64.537 39.6592 64.537ZM43.0762 38.1222L41.3028 41.1993C41.0402 41.6504 40.4624 41.8048 40.0114 41.5453L38.9362 40.9212C38.3739 41.3661 37.7499 41.7276 37.0825 41.9933V43.2353C37.0825 43.7605 36.6592 44.1837 36.134 44.1837H32.5842C32.0621 44.1837 31.6357 43.7605 31.6357 43.2353V41.9933C30.9684 41.7276 30.3474 41.3662 29.7852 40.9212L28.7038 41.5453C28.2528 41.7987 27.6781 41.6442 27.4155 41.1962L25.636 38.1191C25.3795 37.6649 25.5371 37.0872 25.9882 36.8277L27.0603 36.2098H27.0572C26.9552 35.4992 26.9552 34.7763 27.0572 34.0657L25.9851 33.4478H25.9882C25.534 33.1852 25.3795 32.6075 25.636 32.1533L27.4155 29.0793C27.6781 28.6283 28.2559 28.4707 28.7069 28.7302L29.7852 29.3543C30.3444 28.9032 30.9684 28.5355 31.6357 28.2668V27.0248V27.0279C31.6357 26.5027 32.0621 26.0764 32.5842 26.0764H36.1433C36.6685 26.0764 37.0917 26.5027 37.0917 27.0279V28.2699V28.2668C37.7591 28.5325 38.3831 28.8939 38.9455 29.3419L40.0268 28.7179C40.4779 28.4614 41.0525 28.619 41.312 29.067L43.0854 32.141H43.0885C43.2152 32.3573 43.2491 32.6168 43.1843 32.8578C43.1194 33.0987 42.9618 33.3057 42.7425 33.4293L41.6673 34.0472C41.7754 34.7578 41.7754 35.4807 41.6673 36.1913L42.7425 36.8092C43.1966 37.0718 43.3511 37.6526 43.0885 38.1068L43.0762 38.1222Z" fill="#CB1F49"/>
</svg>
