<svg width="87" height="87" viewBox="0 0 87 87" fill="none" xmlns="http://www.w3.org/2000/svg">
<path d="M30.2759 55.68H32.1029V61.683C32.1029 62.205 31.6679 62.64 31.1459 62.64H24.1859C24.2729 62.379 24.2729 62.031 24.2729 61.683C24.2729 61.335 24.2729 61.074 24.1859 60.726H30.2759V55.68ZM38.3669 71.514H32.3639C32.4509 71.775 32.4509 72.123 32.4509 72.471C32.4509 72.819 32.4509 73.08 32.3639 73.428H39.3239C39.8459 73.428 40.2809 72.993 40.2809 72.471V55.68H38.4539V71.514H38.3669ZM64.6409 63.162V55.68H62.8139V64.119C62.8139 64.641 63.2489 65.076 63.7709 65.076H70.7309C70.6439 64.815 70.6439 64.467 70.6439 64.119C70.6439 63.771 70.6439 63.51 70.7309 63.162H64.6409ZM56.6369 74.037V55.68H54.8099V74.994C54.8099 75.516 55.2449 75.951 55.7669 75.951H62.8139C62.7269 75.69 62.7269 75.342 62.7269 74.994C62.7269 74.646 62.7269 74.385 62.8139 74.037H56.6369ZM47.5019 78.5611C47.8499 78.5611 48.1109 78.561 48.4589 78.648V55.68H46.6319V78.648C46.8929 78.561 47.2409 78.5611 47.5019 78.5611ZM19.8359 58.812C18.2699 58.812 16.9649 60.117 16.9649 61.683C16.9649 63.249 18.2699 64.554 19.8359 64.554C21.4019 64.554 22.7069 63.249 22.7069 61.683C22.6199 60.117 21.4019 58.812 19.8359 58.812ZM27.9269 69.6C26.3609 69.6 25.0559 70.905 25.0559 72.471C25.0559 74.037 26.3609 75.342 27.9269 75.342C29.4929 75.342 30.7979 74.037 30.7979 72.471C30.7979 70.905 29.4929 69.6 27.9269 69.6ZM67.1639 72.123C65.5979 72.123 64.2929 73.428 64.2929 74.994C64.2929 76.56 65.5979 77.865 67.1639 77.865C68.7299 77.865 70.0349 76.56 70.0349 74.994C70.0349 73.428 68.7299 72.123 67.1639 72.123ZM75.0809 61.248C73.5149 61.248 72.2099 62.553 72.2099 64.119C72.2099 65.685 73.5149 66.99 75.0809 66.99C76.6469 66.99 77.9519 65.685 77.9519 64.119C77.9519 62.466 76.7339 61.248 75.0809 61.248ZM47.5019 80.214C45.9359 80.214 44.6309 81.519 44.6309 83.085C44.6309 84.651 45.9359 85.956 47.5019 85.956C49.0679 85.956 50.3729 84.651 50.3729 83.085C50.3729 81.432 49.0679 80.214 47.5019 80.214ZM62.2919 34.365C61.5959 34.365 60.9869 34.974 60.9869 35.67C60.9869 36.366 61.5959 36.975 62.2919 36.975C62.9879 36.975 63.5969 36.366 63.5969 35.67C63.5969 34.974 62.9879 34.365 62.2919 34.365ZM43.6739 38.367C44.3699 38.367 44.9789 37.758 44.9789 37.062C44.9789 36.366 44.3699 35.757 43.6739 35.757C42.9779 35.757 42.3689 36.366 42.3689 37.062C42.3689 37.758 42.9779 38.367 43.6739 38.367ZM28.5359 45.153C29.2319 45.153 29.8409 44.544 29.8409 43.848C29.8409 43.1521 29.2319 42.543 28.5359 42.543C27.8399 42.543 27.2309 43.1521 27.2309 43.848C27.2309 44.544 27.7529 45.153 28.5359 45.153ZM70.1219 53.766C75.8639 53.766 80.5619 48.72 80.5619 42.456C80.5619 36.192 75.8639 31.146 70.1219 31.146C69.6869 31.146 69.1649 31.233 68.6429 31.233C67.8599 31.494 67.1639 31.842 66.5549 32.277C65.9459 32.712 65.4239 33.2341 64.9019 33.843C65.2499 34.3651 65.4239 34.974 65.4239 35.583C65.4239 37.3231 64.0319 38.715 62.2919 38.715C60.5519 38.715 59.1599 37.3231 59.1599 35.583C59.1599 33.843 60.5519 32.451 62.2919 32.451C62.7269 32.451 63.1619 32.538 63.5099 32.712C64.1189 32.016 64.7279 31.32 65.5109 30.798C66.1199 30.3631 66.8159 30.015 67.5119 29.667C67.5119 29.58 67.5119 29.58 67.5119 29.493C67.5119 23.316 63.3359 17.313 56.9849 16.182C50.0249 15.051 43.6739 20.619 42.8039 27.318C42.8039 27.492 42.8039 27.5791 42.7169 27.753C42.7169 28.101 42.6299 28.449 42.6299 28.797C42.9779 29.406 43.3259 30.015 43.5869 30.711C44.0219 31.755 44.2829 32.799 44.5439 33.843C45.8489 34.191 46.8929 35.409 46.8929 36.8881C46.8929 38.628 45.5009 40.0201 43.7609 40.0201C42.0209 40.0201 40.6289 38.628 40.6289 36.8881C40.6289 35.496 41.4989 34.365 42.7169 33.93C42.5429 33.06 42.2819 32.19 41.9339 31.407C41.0639 29.232 39.3239 27.492 37.1489 26.622C32.2769 24.621 26.9699 27.405 25.1429 32.19C24.7079 33.234 24.5339 34.365 24.4469 35.496C25.2299 35.757 26.0999 36.279 26.9699 37.062C28.1879 38.193 28.7969 39.585 29.0579 40.455C29.0579 40.542 29.0579 40.542 29.0579 40.542C30.5369 40.803 31.7549 42.108 31.7549 43.674C31.7549 45.414 30.3629 46.806 28.6229 46.806C26.8829 46.806 25.4909 45.414 25.4909 43.674C25.4909 42.369 26.2739 41.3251 27.3179 40.8031C27.0569 40.107 26.7089 39.15 25.7519 38.367C25.4039 38.019 25.0559 37.758 24.6209 37.497C22.4459 36.279 19.4009 37.236 17.5739 38.715C15.6599 40.281 14.4419 42.804 14.4419 45.327C14.4419 49.938 17.9219 53.6791 22.0979 53.6791H70.1219V53.766ZM46.6319 17.226H42.2819C42.4559 18.792 42.6299 20.358 42.6299 22.011C43.6739 20.097 45.0659 18.444 46.6319 17.226ZM43.2389 5.04605C43.1519 4.95905 42.9779 4.87205 42.8909 4.69805C42.7169 4.52405 42.4559 4.43705 42.2819 4.26305C41.9339 4.00205 41.5859 3.82805 41.3249 3.65405C41.0639 3.48005 40.8899 3.39305 40.6289 3.21905C40.2809 3.04505 40.0199 2.87105 39.6719 2.69705C39.4109 2.61005 39.1499 2.43605 38.8889 2.34905C38.5409 2.17505 38.2799 2.08805 37.9319 1.91405C37.6709 1.82705 37.3229 1.65305 37.0619 1.56605C36.8009 1.47905 36.4529 1.39205 36.1049 1.30505C35.9309 1.21805 35.7569 1.21805 35.4959 1.13105C36.9749 2.52305 38.3669 4.43705 39.4109 6.78605C40.8029 6.26405 42.1079 5.65505 43.2389 5.04605ZM37.5839 7.30805C35.5829 3.13205 32.7989 0.522047 29.7539 0.261047C29.5799 0.261047 29.4929 0.261047 29.3189 0.261047C29.1449 0.261047 29.0579 0.261047 28.8839 0.261047C25.8389 0.522047 23.0549 3.13205 21.0539 7.30805C26.1869 8.61305 32.4509 8.61305 37.5839 7.30805ZM42.0209 15.399H49.7639C50.0249 15.312 50.3729 15.138 50.6339 15.051C50.6339 15.051 50.6339 15.051 50.7209 15.051C49.4159 11.658 47.4149 8.70005 44.7179 6.26405C43.4129 7.13405 41.8469 7.83005 40.1069 8.43905C40.9769 10.527 41.5859 12.876 42.0209 15.399ZM29.3189 10.179C26.1869 10.179 23.0549 9.74405 20.2709 8.96105C19.4879 10.875 18.8789 13.05 18.4439 15.312H40.1069C39.6719 12.963 39.0629 10.875 38.2799 8.96105C35.5829 9.74405 32.4509 10.179 29.3189 10.179ZM33.7559 24.186C35.3219 24.186 36.8009 24.534 38.1929 25.23C38.1929 25.23 38.1929 25.23 38.2799 25.23C38.5409 25.317 38.8019 25.491 38.9759 25.578L39.0629 25.665C39.2369 25.752 39.4979 25.926 39.6719 26.1L39.8459 26.274C40.0199 26.361 40.1939 26.535 40.3679 26.709C40.4549 26.709 40.4549 26.796 40.5419 26.796C40.6289 25.578 40.7159 24.36 40.7159 23.142C40.7159 21.054 40.5419 19.14 40.3679 17.226H18.1829C17.9219 19.14 17.8349 21.054 17.8349 23.142C17.8349 25.143 18.0089 27.144 18.2699 29.0581H24.8819C26.8829 26.1 30.1019 24.186 33.7559 24.186ZM20.6189 30.885C20.2709 30.885 19.9229 30.885 19.5749 30.885C19.2269 30.885 18.8789 30.885 18.5309 30.885C18.5309 30.972 18.6179 31.146 18.6179 31.32C18.6179 31.494 18.7049 31.581 18.7049 31.755C18.9659 33.06 19.3139 34.365 19.7489 35.67C20.7059 35.409 21.6629 35.322 22.6199 35.409C22.7069 33.843 23.1419 32.364 23.7509 30.972C23.7509 30.972 22.7939 30.972 22.7069 30.972C22.0109 30.885 21.3149 30.885 20.6189 30.885ZM17.4869 36.627C17.6609 36.54 17.8349 36.453 18.0959 36.366C17.4869 34.626 17.0519 32.799 16.7039 30.885H7.82991V30.972C9.13491 34.452 11.2229 37.584 14.0069 40.107C14.0069 40.02 14.0939 40.0201 14.0939 39.933C14.8769 38.628 16.0949 37.41 17.4869 36.627ZM16.0079 23.142C16.0079 21.054 16.0949 19.14 16.3559 17.226H7.22091C6.69891 19.14 6.43791 21.141 6.43791 23.142C6.43791 25.143 6.69891 27.144 7.22091 29.0581H16.3559C16.0949 27.144 16.0079 25.143 16.0079 23.142ZM18.5309 8.43905C16.7909 7.83005 15.2249 7.04705 13.9199 6.26405C11.2229 8.70005 9.13491 11.832 7.82991 15.312V15.399H16.6169C17.0519 12.876 17.6609 10.527 18.5309 8.43905ZM23.1419 1.13105C22.9679 1.13105 22.7939 1.21805 22.6199 1.30505C22.2719 1.39205 22.0109 1.47905 21.6629 1.65305C21.4019 1.74005 21.1409 1.82705 20.8799 2.00105C20.5319 2.17505 20.1839 2.26205 19.9229 2.43605C19.6619 2.52305 19.4009 2.69705 19.1399 2.78405C18.7919 2.95805 18.4439 3.13205 18.0959 3.30605C17.8349 3.39305 17.6609 3.56705 17.3999 3.65405C17.0519 3.91505 16.7039 4.08905 16.3559 4.35005C16.1819 4.43705 16.0079 4.61105 15.8339 4.69805C15.6599 4.78505 15.5729 4.95905 15.3989 5.04605C16.5299 5.74205 17.8349 6.26405 19.2269 6.78605C20.3579 4.43705 21.6629 2.52305 23.1419 1.13105Z" fill="#CB1F49"/>
</svg>
