<svg width="83" height="83" viewBox="0 0 83 83" fill="none" xmlns="http://www.w3.org/2000/svg">
<path fill-rule="evenodd" clip-rule="evenodd" d="M7.05669 40.2995H19.6978V42.7007H7.05669C6.77543 43.4506 6.23979 44.0781 5.54322 44.4735C4.84665 44.8689 4.03335 45.0072 3.24523 44.8643C2.4571 44.7214 1.74417 44.3063 1.2308 43.6914C0.717431 43.0766 0.436218 42.301 0.436218 41.5001C0.436218 40.6991 0.717431 39.9235 1.2308 39.3087C1.74417 38.6938 2.4571 38.2788 3.24523 38.1358C4.03335 37.9929 4.84665 38.1312 5.54322 38.5266C6.23979 38.9221 6.77543 39.5495 7.05669 40.2995ZM22.099 55.3331V27.6671C22.1013 26.191 22.6887 24.7761 23.7324 23.7324C24.7761 22.6887 26.191 22.1014 27.667 22.0991H55.333C56.809 22.1014 58.2239 22.6887 59.2676 23.7324C60.3113 24.7761 60.8987 26.191 60.901 27.6671V55.3331C60.8987 56.8091 60.3113 58.224 59.2676 59.2677C58.2239 60.3114 56.809 60.8988 55.333 60.9011H27.667C26.191 60.8988 24.7761 60.3114 23.7324 59.2677C22.6887 58.224 22.1013 56.8091 22.099 55.3331ZM35.9668 41.5001C35.9668 42.5944 36.2913 43.6642 36.8993 44.5741C37.5073 45.4841 38.3715 46.1933 39.3825 46.6121C40.3936 47.0309 41.5061 47.1404 42.5795 46.9269C43.6528 46.7134 44.6387 46.1865 45.4126 45.4126C46.1864 44.6388 46.7134 43.6529 46.9269 42.5795C47.1404 41.5062 47.0308 40.3937 46.612 39.3826C46.1932 38.3715 45.484 37.5074 44.5741 36.8994C43.6641 36.2914 42.5944 35.9669 41.5 35.9669C40.0325 35.9669 38.6251 36.5498 37.5874 37.5875C36.5498 38.6252 35.9668 40.0326 35.9668 41.5001ZM28.5631 42.6224C28.5607 42.8732 28.6465 43.1169 28.8055 43.3109C28.9646 43.5049 29.1867 43.6369 29.4331 43.6838C29.9569 43.7669 30.4555 43.9663 30.8921 44.2674C31.3287 44.5685 31.6923 44.9637 31.9561 45.4238C32.0997 45.9379 32.1258 46.4778 32.0324 47.0034C31.939 47.529 31.7286 48.0268 31.4167 48.4601C31.2778 48.6675 31.2164 48.9174 31.2435 49.1656C31.2705 49.4138 31.3842 49.6446 31.5646 49.8173L33.148 51.4007C33.3207 51.581 33.5514 51.6947 33.7997 51.7218C34.0479 51.7488 34.2977 51.6875 34.5052 51.5486C34.9433 51.2469 35.4436 51.0473 35.969 50.9645C36.4945 50.8817 37.0318 50.9178 37.5415 51.0701C38.0016 51.3339 38.3967 51.6975 38.6978 52.1341C38.9989 52.5707 39.1984 53.0692 39.2815 53.5931C39.3284 53.8395 39.4604 54.0616 39.6544 54.2206C39.8484 54.3796 40.0921 54.4654 40.3429 54.4631H42.5875C42.8383 54.4654 43.082 54.3796 43.276 54.2206C43.47 54.0616 43.602 53.8395 43.6489 53.5931C43.732 53.0692 43.9315 52.5707 44.2326 52.1341C44.5337 51.6975 44.9288 51.3339 45.3889 51.0701C45.9024 50.9252 46.4419 50.8977 46.9675 50.9896C47.4931 51.0814 47.9913 51.2903 48.4252 51.6008C48.6327 51.7397 48.8825 51.801 49.1307 51.774C49.379 51.7469 49.6097 51.6332 49.7824 51.4529L51.3658 49.8695C51.5706 49.7035 51.7063 49.4672 51.7465 49.2067C51.7867 48.9462 51.7285 48.68 51.5833 48.4601C51.281 48.0289 51.0781 47.536 50.9894 47.017C50.9006 46.4979 50.9281 45.9657 51.07 45.4586C51.3338 44.9985 51.6974 44.6033 52.134 44.3022C52.5706 44.0011 53.0692 43.8017 53.593 43.7186C53.8394 43.6717 54.0615 43.5397 54.2206 43.3457C54.3796 43.1517 54.4654 42.908 54.463 42.6572V40.3778C54.4654 40.1269 54.3796 39.8832 54.2206 39.6892C54.0615 39.4952 53.8394 39.3633 53.593 39.3164C53.0692 39.2332 52.5706 39.0338 52.134 38.7327C51.6974 38.4316 51.3338 38.0365 51.07 37.5764C50.9227 37.0641 50.8923 36.5253 50.9812 35.9998C51.07 35.4743 51.2758 34.9754 51.5833 34.5401C51.7222 34.3326 51.7836 34.0828 51.7565 33.8345C51.7295 33.5863 51.6157 33.3555 51.4354 33.1829L49.852 31.5647C49.6774 31.3753 49.4399 31.2559 49.1838 31.2287C48.9277 31.2015 48.6705 31.2683 48.46 31.4168C48.0261 31.7272 47.5279 31.9361 47.0023 32.0279C46.4767 32.1198 45.9372 32.0923 45.4237 31.9475C44.9636 31.6836 44.5685 31.32 44.2674 30.8834C43.9662 30.4468 43.7668 29.9483 43.6837 29.4245C43.6368 29.178 43.5048 28.9559 43.3108 28.7969C43.1168 28.6379 42.8731 28.5521 42.6223 28.5545H40.3777C40.1269 28.5521 39.8832 28.6379 39.6892 28.7969C39.4952 28.9559 39.3632 29.178 39.3163 29.4245C39.2332 29.9483 39.0337 30.4468 38.7326 30.8834C38.4315 31.32 38.0364 31.6836 37.5763 31.9475C37.0628 32.0923 36.5233 32.1198 35.9977 32.0279C35.4721 31.9361 34.9739 31.7272 34.54 31.4168C34.3325 31.2778 34.0827 31.2165 33.8345 31.2435C33.5862 31.2706 33.3555 31.3843 33.1828 31.5647L31.5646 33.1481C31.3753 33.3226 31.2559 33.5601 31.2286 33.8162C31.2014 34.0723 31.2683 34.3296 31.4167 34.5401C31.719 34.9712 31.9219 35.4641 32.0106 35.9831C32.0994 36.5022 32.0719 37.0344 31.93 37.5416C31.6662 38.0017 31.3026 38.3968 30.866 38.6979C30.4294 38.999 29.9308 39.1984 29.407 39.2816C29.1606 39.3284 28.9385 39.4604 28.7794 39.6544C28.6204 39.8484 28.5346 40.0921 28.537 40.343V42.5876L28.5631 42.6224ZM55.6462 73.9424H49.8172C49.5119 73.943 49.2178 73.8273 48.9948 73.6188C48.7717 73.4103 48.6365 73.1247 48.6166 72.8201V63.3023H51.0178V71.5847H55.6462C55.9267 70.8315 56.4629 70.2008 57.1611 69.8028C57.8594 69.4049 58.6753 69.2649 59.4662 69.4074C60.2572 69.5499 60.973 69.9658 61.4884 70.5824C62.0039 71.1991 62.2863 71.9772 62.2863 72.7809C62.2863 73.5846 62.0039 74.3628 61.4884 74.9794C60.973 75.596 60.2572 76.0119 59.4662 76.1544C58.6753 76.2969 57.8594 76.1569 57.1611 75.759C56.4629 75.361 55.9267 74.7303 55.6462 73.9772V73.9424ZM7.05669 71.6717H31.9822V63.3023H34.3834V72.8723C34.3834 73.1907 34.2569 73.4961 34.0317 73.7212C33.8066 73.9464 33.5012 74.0729 33.1828 74.0729H7.08279C6.80231 74.826 6.2661 75.4567 5.56785 75.8547C4.8696 76.2526 4.05372 76.3926 3.26275 76.2501C2.47179 76.1076 1.75604 75.6917 1.24057 75.0751C0.72511 74.4585 0.442705 73.6803 0.442705 72.8766C0.442705 72.0729 0.72511 71.2948 1.24057 70.6781C1.75604 70.0615 2.47179 69.6456 3.26275 69.5031C4.05372 69.3606 4.8696 69.5006 5.56785 69.8986C6.2661 70.2965 6.80231 70.9272 7.08279 71.6804L7.05669 71.6717ZM40.2994 75.9434V63.3023H42.7006V75.9434C43.4506 76.2246 44.078 76.7603 44.4734 77.4568C44.8688 78.1534 45.0071 78.9667 44.8642 79.7548C44.7213 80.5429 44.3062 81.2559 43.6914 81.7692C43.0765 82.2826 42.301 82.5638 41.5 82.5638C40.699 82.5638 39.9235 82.2826 39.3086 81.7692C38.6938 81.2559 38.2787 80.5429 38.1358 79.7548C37.9928 78.9667 38.1312 78.1534 38.5266 77.4568C38.922 76.7603 39.5494 76.2246 40.2994 75.9434ZM27.3538 9.02295H33.1828C33.4945 9.02055 33.7947 9.14032 34.0191 9.35662C34.2435 9.57291 34.3743 9.8685 34.3834 10.1801V19.6631H31.9822V11.4155H27.3538C27.0733 12.1686 26.5371 12.7993 25.8389 13.1973C25.1406 13.5952 24.3247 13.7352 23.5338 13.5927C22.7428 13.4502 22.027 13.0343 21.5116 12.4177C20.9961 11.8011 20.7137 11.0229 20.7137 10.2192C20.7137 9.41551 20.9961 8.63736 21.5116 8.02073C22.027 7.40411 22.7428 6.98821 23.5338 6.84571C24.3247 6.70322 25.1406 6.84318 25.8389 7.24115C26.5371 7.63912 27.0733 8.26979 27.3538 9.02295ZM73.9771 27.3539V33.1829C73.9795 33.4945 73.8597 33.7947 73.6434 34.0192C73.4271 34.2436 73.1315 34.3744 72.82 34.3835H63.3022V31.9823H71.5846V27.3539C70.8314 27.0734 70.2008 26.5372 69.8028 25.8389C69.4048 25.1407 69.2649 24.3248 69.4074 23.5338C69.5499 22.7428 69.9658 22.0271 70.5824 21.5116C71.199 20.9962 71.9771 20.7138 72.7808 20.7138C73.5845 20.7138 74.3627 20.9962 74.9793 21.5116C75.5959 22.0271 76.0118 22.7428 76.1543 23.5338C76.2968 24.3248 76.1569 25.1407 75.7589 25.8389C75.3609 26.5372 74.7303 27.0734 73.9771 27.3539ZM75.9433 11.3285H51.0178V19.6979H48.6166V10.1801C48.6166 9.86164 48.7431 9.55626 48.9682 9.3311C49.1934 9.10595 49.4988 8.97945 49.8172 8.97945H75.9172C76.1977 8.22629 76.7339 7.59562 77.4321 7.19765C78.1304 6.79968 78.9463 6.65972 79.7372 6.80221C80.5282 6.94471 81.2439 7.36061 81.7594 7.97723C82.2749 8.59386 82.5573 9.37201 82.5573 10.1757C82.5573 10.9794 82.2749 11.7575 81.7594 12.3742C81.2439 12.9908 80.5282 13.4067 79.7372 13.5492C78.9463 13.6917 78.1304 13.5517 77.4321 13.1538C76.7339 12.7558 76.1977 12.1251 75.9172 11.372L75.9433 11.3285ZM71.6716 75.9434V51.0179H63.3022V48.6167H72.8722C73.1906 48.6167 73.496 48.7431 73.7211 48.9683C73.9463 49.1935 74.0728 49.4988 74.0728 49.8173V75.9173C74.826 76.1977 75.4566 76.7339 75.8546 77.4322C76.2526 78.1304 76.3925 78.9463 76.25 79.7373C76.1075 80.5283 75.6916 81.244 75.075 81.7595C74.4584 82.2749 73.6802 82.5573 72.8765 82.5573C72.0729 82.5573 71.2947 82.2749 70.6781 81.7595C70.0615 81.244 69.6456 80.5283 69.5031 79.7373C69.3606 78.9463 69.5005 78.1304 69.8985 77.4322C70.2965 76.7339 70.9271 76.1977 71.6803 75.9173L71.6716 75.9434ZM42.7006 7.05675V19.6979H40.2994V7.05675C39.5494 6.77549 38.922 6.23985 38.5266 5.54328C38.1312 4.84671 37.9928 4.03342 38.1358 3.24529C38.2787 2.45716 38.6938 1.74423 39.3086 1.23086C39.9235 0.717492 40.699 0.436279 41.5 0.436279C42.301 0.436279 43.0765 0.717492 43.6914 1.23086C44.3062 1.74423 44.7213 2.45716 44.8642 3.24529C45.0071 4.03342 44.8688 4.84671 44.4734 5.54328C44.078 6.23985 43.4506 6.77549 42.7006 7.05675ZM75.9433 42.7268H63.3022V40.2995H75.9433C76.2246 39.5495 76.7602 38.9221 77.4568 38.5266C78.1534 38.1312 78.9666 37.9929 79.7548 38.1358C80.5429 38.2788 81.2558 38.6938 81.7692 39.3087C82.2826 39.9235 82.5638 40.6991 82.5638 41.5001C82.5638 42.301 82.2826 43.0766 81.7692 43.6914C81.2558 44.3063 80.5429 44.7214 79.7548 44.8643C78.9666 45.0072 78.1534 44.8689 77.4568 44.4735C76.7602 44.0781 76.2246 43.4506 75.9433 42.7007V42.7268ZM9.02289 55.6463V49.8173C9.02049 49.5056 9.14026 49.2054 9.35655 48.9809C9.57285 48.7565 9.86844 48.6257 10.18 48.6167H19.663V51.0179H11.4154V55.6463C12.1686 55.9267 12.7992 56.4629 13.1972 57.1612C13.5952 57.8595 13.7351 58.6753 13.5926 59.4663C13.4501 60.2573 13.0342 60.973 12.4176 61.4885C11.801 62.0039 11.0228 62.2864 10.2191 62.2864C9.41544 62.2864 8.6373 62.0039 8.02067 61.4885C7.40405 60.973 6.98815 60.2573 6.84565 59.4663C6.70316 58.6753 6.84312 57.8595 7.24109 57.1612C7.63906 56.4629 8.26972 55.9267 9.02289 55.6463ZM11.3284 7.05675V31.9823H19.6978V34.3835H10.18C9.86157 34.3835 9.5562 34.257 9.33104 34.0318C9.10588 33.8066 8.97939 33.5013 8.97939 33.1829V7.08285C8.22622 6.80238 7.59556 6.26617 7.19759 5.56792C6.79962 4.86967 6.65965 4.05378 6.80215 3.26281C6.94465 2.47185 7.36055 1.7561 7.97717 1.24064C8.5938 0.725171 9.37195 0.442766 10.1756 0.442766C10.9793 0.442766 11.7575 0.725171 12.3741 1.24064C12.9907 1.7561 13.4066 2.47185 13.5491 3.26281C13.6916 4.05378 13.5517 4.86967 13.1537 5.56792C12.7557 6.26617 12.1251 6.80238 11.3719 7.08285L11.3284 7.05675Z" fill="#CB1F49"/>
</svg>
