<svg width="87" height="87" viewBox="0 0 87 87" fill="none" xmlns="http://www.w3.org/2000/svg">
<path d="M73.7926 41.8162C74.2498 43.2558 75.5968 44.3001 77.1849 44.3001C79.1467 44.3001 80.744 42.7028 80.744 40.741C80.744 38.7791 79.1467 37.1819 77.1849 37.1819C75.5938 37.1819 74.2499 38.2261 73.7926 39.6658H60.7671V36.8173H64.6753C65.2685 36.8173 65.7505 36.3353 65.7505 35.7421C65.7505 35.1489 65.2685 34.667 64.6753 34.667H60.7671V32.1119C60.7671 30.87 59.7785 29.8566 58.5612 29.8566H56.1421V27.1038H59.3768C59.8525 28.5744 61.2273 29.6341 62.8555 29.6341C64.8729 29.6341 66.5104 27.9967 66.5104 25.9792C66.5104 23.9618 64.8729 22.3244 62.8555 22.3244C61.2027 22.3244 59.8031 23.4304 59.352 24.9412H55.0638C54.4706 24.9412 53.9886 25.4231 53.9886 26.0163V29.8442H50.9517V22.0463H55.0885C55.6817 22.0463 56.1637 21.5643 56.1637 20.9711V16.6613C57.6281 16.1855 58.6878 14.8107 58.6878 13.1887C58.6878 11.1713 57.0504 9.53385 55.0329 9.53385C53.0155 9.53385 51.3781 11.1713 51.3781 13.1887C51.3781 14.8509 52.4934 16.2504 54.0103 16.6922V19.896H49.8734C49.2802 19.896 48.7983 20.378 48.7983 20.9712V29.8531H45.7613V26.1921C45.7613 25.5989 45.2794 25.1169 44.6862 25.1169C44.093 25.1169 43.611 25.5989 43.611 26.1921V29.8531H41.2692V22.3951H41.1827H37.7503C37.2282 24.3013 35.4795 25.7008 33.4096 25.7008C30.9256 25.7008 28.9082 23.6834 28.9082 21.1994C28.9082 18.7155 30.9256 16.6981 33.4096 16.6981C35.4826 16.6981 37.222 18.0976 37.7503 20.0038H41.1827H41.2692V16.9916C41.2692 12.7033 37.7811 9.22461 33.5022 9.22461C29.5786 9.22461 26.3285 12.1442 25.8063 15.9227C22.7446 14.863 19.4636 15.5118 17.0968 17.7424C15.3883 19.3551 14.48 21.4745 14.4553 23.6742C14.5418 23.6495 14.6376 23.6433 14.7396 23.6433H20.1091C20.5355 23.6433 20.931 23.8719 21.1441 24.2365L23.7763 28.7996C24.1007 28.7286 24.4313 28.6884 24.7742 28.6884C26.8473 28.6884 28.5867 30.0879 29.115 31.9942H41.1922H41.2787H58.583C58.5922 31.9942 58.6293 32.0251 58.6293 32.09V61.0293C58.6293 61.0911 58.5891 61.1251 58.583 61.1251H41.2787H41.1922H33.7495C33.3232 61.1251 32.9277 60.8965 32.7146 60.5319L30.0329 55.8822C29.6127 56.0182 29.1616 56.08 28.7044 56.08C26.2205 56.08 24.203 54.0625 24.203 51.5786C24.203 50.2408 24.787 49.0328 25.7231 48.208L23.5327 44.4202H12.055C11.7306 44.4202 11.4371 44.2935 11.2239 44.0866C8.24874 46.3573 6.4321 49.8114 6.27147 53.6328H10.3928C10.9149 51.7266 12.6636 50.3271 14.7336 50.3271C17.2175 50.3271 19.2349 52.3445 19.2349 54.8284C19.2349 57.3124 17.2175 59.3298 14.7336 59.3298C12.6605 59.3298 10.9211 57.9303 10.3928 56.0241L6.37342 56.0272C6.9666 60.164 9.55248 63.7385 13.3341 65.6043H26.653C27.0793 65.6043 27.4748 65.8329 27.6879 66.1975L30.2986 70.7205C30.5766 70.6649 30.8609 70.6402 31.1513 70.6402C33.6352 70.6402 35.6526 72.6576 35.6526 75.1416C35.6526 77.6255 33.6352 79.6429 31.1513 79.6429C28.6673 79.6429 26.6499 77.6255 26.6499 75.1416C26.6499 73.8038 27.2338 72.6113 28.1607 71.7895L25.9702 67.9863H13.4581C13.9493 73.4609 17.839 76.7417 21.9603 77.6844C23.1313 81.8923 27.0055 84.8736 31.4267 84.8736C34.0528 84.8736 36.5213 83.8541 38.3781 81.9942C40.238 80.1343 41.2575 77.6689 41.2575 75.0429V63.2907H43.5993V70.9156C43.5993 71.5088 44.0813 71.9907 44.6745 71.9907H48.5888V77.5271C47.1491 77.9843 46.1049 79.3313 46.1049 80.9194C46.1049 82.8812 47.7021 84.4785 49.664 84.4785C51.6258 84.4785 53.2231 82.8812 53.2231 80.9194C53.2231 79.3283 52.1788 77.9844 50.7391 77.5271V70.9156C50.7391 70.3224 50.2572 69.8404 49.664 69.8404H45.7496V63.2907H48.5982V66.0497C48.5982 66.6428 49.0801 67.1248 49.6733 67.1248C50.2665 67.1248 50.7485 66.6429 50.7485 66.0497V63.2907H53.597V65.8859C53.597 66.479 54.079 66.961 54.6722 66.961H58.5865V72.5221C57.1469 72.9793 56.1026 74.3263 56.1026 75.9144C56.1026 77.8762 57.6999 79.4734 59.6617 79.4734C61.6236 79.4734 63.2208 77.8762 63.2208 75.9144C63.2208 74.3233 62.1766 72.9794 60.7369 72.5221V65.8797C60.7369 65.2865 60.2549 64.8045 59.6617 64.8045H55.7473V63.2845H58.5464C59.7637 63.2845 60.7524 62.2712 60.7524 61.0291V56.8151H66.091V60.0097C64.6513 60.4669 63.6071 61.8139 63.6071 63.4019C63.6071 65.3638 65.2043 66.961 67.1662 66.961C69.128 66.961 70.7253 65.3638 70.7253 63.4019C70.7253 61.8109 69.681 60.467 68.2413 60.0097V55.74C68.2413 55.1468 67.7594 54.6648 67.1662 54.6648H60.7524V51.8163H64.6606C65.2537 51.8163 65.7357 51.3343 65.7357 50.7411C65.7357 50.1479 65.2538 49.666 64.6606 49.666H60.7524V46.8174H67.4658L71.8251 51.254C71.374 51.8472 71.1052 52.5917 71.1052 53.3888C71.1052 55.3506 72.7025 56.9479 74.6643 56.9479C76.6262 56.9479 78.2234 55.3506 78.2234 53.3888C78.2234 51.4269 76.6262 49.8297 74.6643 49.8297C74.2936 49.8297 73.9352 49.8853 73.6047 49.9873L68.6862 44.9731C68.4792 44.7661 68.2042 44.6487 67.92 44.6487H60.7462V41.8001H73.7717L73.7926 41.8162ZM77.1849 39.3384C77.9603 39.3384 78.5936 39.9717 78.5936 40.7472C78.5936 41.5226 77.9603 42.1559 77.1849 42.1559C76.4094 42.1559 75.7761 41.5226 75.7761 40.7472C75.7761 39.9717 76.4094 39.3384 77.1849 39.3384ZM62.8465 24.4875C63.6683 24.4875 64.3418 25.161 64.3418 25.9828C64.3418 26.8046 63.6683 27.4781 62.8465 27.4781C62.0246 27.4781 61.3512 26.8046 61.3512 25.9828C61.3512 25.161 62.0247 24.4875 62.8465 24.4875ZM53.5288 13.1925C53.5288 12.3707 54.2023 11.6972 55.0241 11.6972C55.8459 11.6972 56.5194 12.3707 56.5194 13.1925C56.5194 14.0144 55.8459 14.6878 55.0241 14.6878C54.2022 14.6878 53.5288 14.0143 53.5288 13.1925ZM49.6608 79.5269C50.4362 79.5269 51.0695 80.1602 51.0695 80.9356C51.0695 81.7111 50.4362 82.3444 49.6608 82.3444C48.8853 82.3444 48.252 81.7111 48.252 80.9356C48.252 80.1602 48.8853 79.5269 49.6608 79.5269ZM59.6737 74.5188C60.4491 74.5188 61.0824 75.1522 61.0824 75.9276C61.0824 76.703 60.4491 77.3364 59.6737 77.3364C58.8982 77.3364 58.2649 76.703 58.2649 75.9276C58.2649 75.1522 58.8982 74.5188 59.6737 74.5188ZM67.1811 62.0153C67.9566 62.0153 68.5899 62.6487 68.5899 63.4241C68.5899 64.1996 67.9566 64.8329 67.1811 64.8329C66.4057 64.8329 65.7724 64.1995 65.7724 63.4241C65.7724 62.6486 66.4057 62.0153 67.1811 62.0153ZM74.6855 51.9929C75.461 51.9929 76.0943 52.6263 76.0943 53.4017C76.0943 54.1771 75.4609 54.8105 74.6855 54.8105C73.91 54.8105 73.2767 54.1771 73.2767 53.4017C73.2767 52.6263 73.9101 51.9929 74.6855 51.9929ZM31.1547 77.2712C29.993 77.2712 29.0414 76.3227 29.0414 75.158C29.0414 73.9963 29.9899 73.0447 31.1547 73.0447C32.3164 73.0447 33.2679 73.9932 33.2679 75.158C33.2679 76.3196 32.3194 77.2712 31.1547 77.2712ZM33.4007 19.0927C34.5624 19.0927 35.5139 20.0412 35.5139 21.2059C35.5139 22.3676 34.5655 23.3192 33.4007 23.3192C32.239 23.3192 31.2875 22.3707 31.2875 21.2059C31.2875 20.0442 32.2359 19.0927 33.4007 19.0927ZM26.8664 33.2025C26.8664 34.3642 25.918 35.3158 24.7532 35.3158C23.5915 35.3158 22.64 34.3673 22.64 33.2025C22.64 32.0408 23.5884 31.0893 24.7532 31.0893C25.9149 31.0893 26.8664 32.0378 26.8664 33.2025ZM14.7125 56.9606C13.5509 56.9606 12.5993 56.0122 12.5993 54.8474C12.5993 53.6857 13.5478 52.7342 14.7125 52.7342C15.8742 52.7342 16.8258 53.6826 16.8258 54.8474C16.8258 56.0091 15.8773 56.9606 14.7125 56.9606ZM11.3728 42.2513C9.71993 39.6901 9.15759 37.0548 9.60248 34.1287C9.95777 31.5026 11.5488 28.0949 14.8855 26.5131C14.8299 26.3555 14.7897 26.2041 14.7434 26.0466H19.4023L21.6577 29.9455C20.7957 30.7674 20.2582 31.9228 20.2582 33.2049C20.2582 35.6889 22.2756 37.7063 24.7595 37.7063C26.8326 37.7063 28.572 36.3068 29.1003 34.4006H41.1775H41.264V34.8207H53.5784C54.7957 34.8207 55.7844 35.8094 55.7844 37.0267V40.524C55.7844 41.1172 55.3024 41.5991 54.7092 41.5991C54.116 41.5991 53.634 41.1172 53.634 40.524V37.0267C53.634 37.0267 53.6093 36.9803 53.5877 36.9803H41.2732V54.862H53.5877C53.5877 54.862 53.634 54.8373 53.634 54.8156V45.8009C53.634 45.2077 54.116 44.7257 54.7092 44.7257C55.3024 44.7257 55.7844 45.2077 55.7844 45.8009V54.8156C55.7844 56.0329 54.7957 57.0216 53.5784 57.0216H41.264V58.7857H41.1775H34.4238L32.0264 54.6427C32.7463 53.8425 33.1819 52.7921 33.1819 51.6304C33.1819 49.1465 31.1644 47.129 28.6805 47.129C28.3962 47.129 28.1182 47.1599 27.8494 47.2094L25.2388 42.6863C25.0256 42.3156 24.6301 42.0931 24.2038 42.0931H12.0404C11.7963 42.0931 11.5739 42.1642 11.3854 42.2908L11.3728 42.2513ZM28.6802 49.4776C29.8419 49.4776 30.7935 50.4261 30.7935 51.5908C30.7935 52.7525 29.845 53.7041 28.6802 53.7041C27.5185 53.7041 26.567 52.7556 26.567 51.5908C26.567 50.4292 27.5155 49.4776 28.6802 49.4776Z" fill="#CB1F49"/>
</svg>
