<svg width="21" height="21" viewBox="0 0 21 21" fill="none" xmlns="http://www.w3.org/2000/svg">
<g id="Solid/Brands/Instagram">
<g id="Subtract">
<path d="M10.5 7.65623C8.92942 7.65623 7.65623 8.92942 7.65623 10.5C7.65623 12.0705 8.92942 13.3437 10.5 13.3437C12.0705 13.3437 13.3437 12.0705 13.3437 10.5C13.3437 8.92942 12.0705 7.65623 10.5 7.65623Z" fill="white"/>
<path fill-rule="evenodd" clip-rule="evenodd" d="M5.92332 2.69626C8.94043 2.35906 12.0595 2.35906 15.0767 2.69626C16.7377 2.88192 18.0775 4.19072 18.2725 5.85764C18.6333 8.94202 18.6333 12.0579 18.2725 15.1423C18.0775 16.8092 16.7377 18.118 15.0767 18.3037C12.0595 18.6409 8.94043 18.6409 5.92332 18.3037C4.26222 18.118 2.92243 16.8092 2.72747 15.1423C2.36672 12.0579 2.36672 8.94202 2.72747 5.85764C2.92243 4.19072 4.26222 2.88192 5.92332 2.69626ZM14.875 5.24998C14.3917 5.24998 14 5.64173 14 6.12498C14 6.60823 14.3917 6.99998 14.875 6.99998C15.3582 6.99998 15.75 6.60823 15.75 6.12498C15.75 5.64173 15.3582 5.24998 14.875 5.24998ZM6.34373 10.5C6.34373 8.20455 8.20454 6.34373 10.5 6.34373C12.7954 6.34373 14.6562 8.20455 14.6562 10.5C14.6562 12.7954 12.7954 14.6562 10.5 14.6562C8.20454 14.6562 6.34373 12.7954 6.34373 10.5Z" fill="white"/>
</g>
</g>
</svg>
