<svg width="87" height="87" viewBox="0 0 87 87" fill="none" xmlns="http://www.w3.org/2000/svg">
<path fill-rule="evenodd" clip-rule="evenodd" d="M57.8188 74.0923H44.3497C43.8793 74.0923 43.4785 73.7125 43.4785 73.2211V62.7317C43.4785 62.2612 43.8584 61.8605 44.3497 61.8605H57.8188C58.2892 61.8605 58.69 62.2403 58.69 62.7317V73.2211C58.6726 73.6916 58.2892 74.0923 57.8188 74.0923ZM45.2035 72.3673H56.9472V63.5996H45.2035V72.3673Z" fill="#CB1F49"/>
<path fill-rule="evenodd" clip-rule="evenodd" d="M69.5066 74.0926H32.6446C32.1742 74.0926 31.7734 73.7128 31.7734 73.2214C31.7734 72.7301 32.1533 72.3502 32.6446 72.3502H69.5066C69.9771 72.3502 70.3778 72.7301 70.3778 73.2214C70.3778 73.7128 69.9771 74.0926 69.5066 74.0926Z" fill="#CB1F49"/>
<path fill-rule="evenodd" clip-rule="evenodd" d="M78.2192 57.1243H23.9503C23.4799 57.1243 23.0791 56.7445 23.0791 56.2531C23.0791 55.7617 23.4589 55.3819 23.9503 55.3819H78.2192C78.6896 55.3819 79.0904 55.7617 79.0904 56.2531C79.0904 56.7445 78.6896 57.1243 78.2192 57.1243Z" fill="#CB1F49"/>
<path fill-rule="evenodd" clip-rule="evenodd" d="M75.7511 63.6029H26.4031C24.5701 63.6029 23.082 62.1149 23.082 60.2819V35.5436C23.082 35.0732 23.4619 34.6725 23.9532 34.6725C24.4446 34.6725 24.8244 35.0523 24.8244 35.5436V60.2819C24.8244 61.1705 25.5493 61.8779 26.4205 61.8779H75.7685C76.6571 61.8779 77.3646 61.1531 77.3646 60.2819V24.3816C77.3646 23.4929 76.6397 22.7855 75.7685 22.7855H36.5995C36.129 22.7855 35.7283 22.4056 35.7283 21.9143C35.7283 21.4229 36.1081 21.0431 36.5995 21.0431H75.748C77.581 21.0431 79.069 22.5311 79.069 24.3642V60.2645C79.069 62.0975 77.581 63.6029 75.748 63.6029L75.7511 63.6029Z" fill="#CB1F49"/>
<path fill-rule="evenodd" clip-rule="evenodd" d="M39.3421 57.1591C38.8717 57.1591 38.4709 56.7793 38.4709 56.2879V53.4025V47.6316C38.4709 46.8336 38.7253 46.1088 39.2341 45.471C39.2341 45.471 39.2341 45.4536 39.2515 45.4536C39.5059 45.1434 39.7952 44.8716 40.1227 44.5998C39.7603 44.4186 39.4676 44.2374 39.1958 44.0004C38.8159 43.6728 38.5615 43.2756 38.3977 42.8016C38.2723 42.4392 38.3071 42.0768 38.4883 41.7841C38.8159 41.2753 39.4153 41.2021 39.8857 41.1498C40.0112 41.1324 40.2133 41.115 40.2865 41.0941C40.4851 41.0035 40.6663 40.8571 40.8127 40.6933C41.0113 40.4563 41.1577 40.2403 41.2483 40.0382C41.2483 40.0207 41.2657 40.0207 41.2657 40.0033C41.5027 39.5851 41.6456 39.0973 41.7571 38.6617C41.8825 38.1912 41.9731 37.6824 42.0463 37.1562C42.1195 36.6126 42.1369 36.0655 42.1718 35.5219V35.4661C42.2066 34.9574 42.2449 34.4486 42.2972 33.9223C42.3878 33.1975 42.5133 32.3995 42.7328 31.5979C43.0221 30.4898 43.388 29.5106 43.8933 28.6394C44.3846 27.7507 44.9457 27.0433 45.5799 26.4614C46.5592 25.5553 47.723 24.9559 49.0473 24.6841C49.793 24.5203 50.5911 24.4471 51.4448 24.4855C52.1522 24.5203 52.7691 24.6318 53.351 24.7956C53.4764 24.8305 53.6228 24.8688 53.7866 24.9211C55.0933 25.3741 56.219 26.1547 57.1459 27.2628C57.7453 27.9877 58.2367 28.8414 58.6339 29.8033C58.9789 30.6745 59.2508 31.5806 59.4145 32.5075C59.5609 33.2149 59.6515 33.9223 59.7038 34.5774C59.7386 34.905 59.7595 35.25 59.777 35.5741C59.8118 36.3373 59.885 37.2259 60.0488 38.0623C60.1742 38.6791 60.3032 39.1531 60.4844 39.5851C60.6307 39.9301 60.7562 40.1845 60.92 40.3831C61.0838 40.5992 61.2476 40.763 61.4288 40.8919C61.6274 41.0383 61.8469 41.108 62.063 41.1463C63.0597 41.1637 63.4255 41.6168 63.5684 42.0001C63.7845 42.6343 63.4604 43.3417 62.6414 44.0317C62.3696 44.2687 62.0804 44.4324 61.8051 44.5405C62.0037 44.7042 62.1849 44.8506 62.3313 45.0109C62.5857 45.2827 62.8017 45.572 62.9655 45.8473C63.2548 46.3386 63.4011 46.8648 63.4011 47.4433V56.2111C63.4011 56.6815 63.0213 57.0823 62.5299 57.0823C62.0386 57.0823 61.6587 56.7024 61.6587 56.2111V47.4433C61.6587 47.1715 61.603 46.9346 61.4775 46.7185C61.3695 46.5547 61.2406 46.3561 61.0593 46.1749C60.8607 45.9762 60.5889 45.7567 60.223 45.5197C59.986 45.3559 59.7316 45.2305 59.4424 45.0841C59.3169 45.0493 59.08 44.9378 58.9162 44.6834C58.735 44.4115 58.7176 44.084 58.8813 43.7947C59.0068 43.5578 59.2263 43.4149 59.4633 43.3591C59.5539 43.3417 59.6445 43.3243 59.7351 43.3034C60.0627 43.2685 60.4077 43.1954 60.7701 43.0664C61.0594 42.9584 61.2615 42.8678 61.4427 42.7388C61.0977 42.6482 60.7527 42.4845 60.4461 42.2684C60.1185 42.0314 59.8292 41.7422 59.5574 41.3798C59.2473 40.9616 59.0487 40.5434 58.9232 40.2193C58.6862 39.6757 58.5224 39.0937 58.3796 38.3689C58.1809 37.4245 58.1252 36.4627 58.0694 35.6473C58.052 35.3197 58.0346 35.013 58.0137 34.7203V34.6854C57.9788 34.086 57.8882 33.4518 57.7593 32.7966C57.5955 31.9603 57.3794 31.1797 57.0693 30.42C56.7417 29.622 56.3235 28.9145 55.8531 28.3326C55.1456 27.4788 54.257 26.8621 53.2568 26.517H53.2394C53.1488 26.4821 53.0582 26.4612 52.9502 26.4264C52.9328 26.4264 52.9328 26.4264 52.9153 26.409C52.4623 26.2835 51.9709 26.1929 51.3925 26.172C50.7025 26.1372 50.0509 26.1894 49.4514 26.3358C48.4164 26.5518 47.5279 27.0084 46.7821 27.7158C46.2733 28.1688 45.8377 28.7508 45.4404 29.4582C45.0222 30.2039 44.6947 31.0368 44.4438 32.016C44.2626 32.7234 44.1545 33.4483 44.0639 34.1209C44.0082 34.5739 43.9733 35.0653 43.9385 35.5532V35.6089C43.9036 36.1351 43.8653 36.7345 43.813 37.3339C43.7398 37.9507 43.6318 38.5327 43.4854 39.0938C43.3391 39.62 43.1579 40.2193 42.8512 40.8013C42.6874 41.1115 42.4888 41.4356 42.1961 41.7806L42.1786 41.798C41.8685 42.143 41.5061 42.4323 41.0878 42.6344C40.9066 42.725 40.708 42.7808 40.5268 42.7982C40.6348 42.8714 40.7638 42.9445 40.9275 43.0142C41.2168 43.1397 41.5269 43.2303 41.8336 43.3035C42.0496 43.3383 42.2866 43.3767 42.5061 43.4115C42.8163 43.4464 43.0672 43.6485 43.1961 43.9377C43.3216 44.2269 43.2693 44.5545 43.0881 44.7915C42.9801 44.9378 42.872 44.9901 42.6699 45.1191C41.6733 45.6627 41.398 45.8439 41.3283 45.8997L41.3109 45.9171C41.0565 46.1157 40.8404 46.3178 40.6557 46.5513C40.4013 46.8789 40.2759 47.2239 40.2759 47.6211C40.2933 49.5447 40.2759 51.5067 40.2759 53.392V56.2775C40.2201 56.7688 39.8403 57.1487 39.3489 57.1487L39.3421 57.1591Z" fill="#CB1F49"/>
<path fill-rule="evenodd" clip-rule="evenodd" d="M44.7507 35.0699C44.1339 35.0699 43.5345 34.9967 42.9734 34.8712C42.503 34.7632 42.2277 34.2893 42.3392 33.8362C42.4472 33.3832 42.9211 33.0904 43.3742 33.202C44.8448 33.547 46.6953 33.31 48.455 32.5294C50.5076 31.6408 52.1385 30.1527 52.7204 28.6438C52.919 28.1524 53.0828 27.4102 52.7761 26.7027C52.703 26.5215 52.5949 26.3403 52.466 26.194C52.1558 25.8315 52.2116 25.2879 52.5914 24.9778C52.9539 24.6676 53.4975 24.7234 53.8077 25.1032C54.0237 25.375 54.2258 25.6852 54.3687 26.0092C54.8043 26.9885 54.7869 28.1141 54.3513 29.257C53.5881 31.1981 51.6471 32.9962 49.1589 34.0835C47.6884 34.7387 46.1655 35.0628 44.7472 35.0628L44.7507 35.0699Z" fill="#CB1F49"/>
<path fill-rule="evenodd" clip-rule="evenodd" d="M56.6931 33.9642C56.0937 33.9642 55.5326 33.8562 54.9855 33.6192C52.9329 32.7654 52.0618 30.6048 52.0269 30.5142C51.8457 30.0786 52.0617 29.5698 52.5182 29.3886C52.9538 29.2074 53.4626 29.4235 53.6438 29.8591C53.6612 29.8939 54.3164 31.4551 55.6754 32.0197C56.4212 32.3298 57.2924 32.2741 58.2333 31.8733C58.6689 31.6921 59.1777 31.8907 59.3589 32.3263C59.54 32.7619 59.3414 33.2707 58.9058 33.4519C58.1252 33.7969 57.4004 33.9607 56.693 33.9607L56.6931 33.9642Z" fill="#CB1F49"/>
<path fill-rule="evenodd" clip-rule="evenodd" d="M50.9403 41.7499C46.9466 41.7499 44.7861 37.8469 44.7861 34.1634C44.7861 33.693 45.166 33.2922 45.6573 33.2922C46.1487 33.2922 46.5285 33.6721 46.5285 34.1634C46.5285 36.5959 47.9085 40.0249 50.9577 40.0249C53.3901 40.0249 55.3868 37.4844 55.3868 34.3795C55.3868 33.9788 55.352 33.5815 55.2962 33.1982C55.223 32.7277 55.5506 32.2921 56.0211 32.2189C56.4915 32.1457 56.9271 32.4733 57.0003 32.9437C57.0735 33.4142 57.1084 33.8881 57.1084 34.376C57.0909 38.4428 54.331 41.7464 50.9367 41.7464L50.9403 41.7499Z" fill="#CB1F49"/>
<path fill-rule="evenodd" clip-rule="evenodd" d="M42.3357 45.1816C41.9175 45.1816 41.5377 44.8715 41.4819 44.4359C41.4087 43.9654 41.7363 43.5298 42.2067 43.4566C42.3531 43.4392 45.4546 42.9304 47.089 39.2992C47.2876 38.8636 47.7964 38.6649 48.232 38.8636C48.6676 39.0622 48.8662 39.571 48.6676 40.0066C46.615 44.5263 42.625 45.1257 42.4612 45.1605C42.4054 45.1605 42.3706 45.178 42.3357 45.178L42.3357 45.1816Z" fill="#CB1F49"/>
<path fill-rule="evenodd" clip-rule="evenodd" d="M59.6695 45.1265C59.6137 45.1265 59.5614 45.1265 59.4883 45.1091C59.3245 45.0742 55.5679 44.2553 53.5362 39.7356C53.3376 39.3 53.5362 38.7912 53.9718 38.5926C54.4074 38.3939 54.9162 38.5926 55.1148 39.0282C56.784 42.75 59.8157 43.4016 59.8332 43.4191C60.3037 43.5097 60.5964 43.9627 60.5058 44.4366C60.4152 44.8374 60.0702 45.1265 59.6695 45.1265Z" fill="#CB1F49"/>
<path fill-rule="evenodd" clip-rule="evenodd" d="M51.0478 45.5964C49.6678 45.5964 48.0334 45.0144 46.183 43.2929C46.1273 43.2929 46.075 43.3104 46.0192 43.3104C45.5488 43.3835 45.1132 43.0385 45.0574 42.5646C45.0017 42.0942 45.3293 41.6586 45.8032 41.6028C46.183 41.5471 46.4374 41.5296 46.4583 41.5296C46.6953 41.5122 46.9497 41.6028 47.1135 41.784C50.7447 45.342 52.8495 43.5439 54.2469 42.3451C54.7557 41.9095 55.1355 41.5819 55.6094 41.5471C55.8812 41.5122 56.282 41.5471 56.7002 41.6377C57.1706 41.7283 57.4634 42.1987 57.3728 42.6552C57.2822 43.1257 56.8117 43.4184 56.3552 43.3278C56.1183 43.272 55.9545 43.272 55.8639 43.2546C55.7558 43.3278 55.5363 43.509 55.3725 43.6554C54.5362 44.3454 53.0865 45.5964 51.0513 45.5964L51.0478 45.5964Z" fill="#CB1F49"/>
<path fill-rule="evenodd" clip-rule="evenodd" d="M43.1344 57.1244C42.6639 57.1244 42.2632 56.7446 42.2632 56.2532V49.3185C42.2632 48.848 42.643 48.4473 43.1344 48.4473C43.6257 48.4473 44.0056 48.8271 44.0056 49.3185V56.2532C43.9882 56.7236 43.6048 57.1244 43.1344 57.1244Z" fill="#CB1F49"/>
<path fill-rule="evenodd" clip-rule="evenodd" d="M58.2193 57.1244C57.7489 57.1244 57.3481 56.7446 57.3481 56.2532V49.3185C57.3481 48.848 57.728 48.4473 58.2193 48.4473C58.7107 48.4473 59.0905 48.8271 59.0905 49.3185V56.2532C59.0731 56.7236 58.6898 57.1244 58.2193 57.1244Z" fill="#CB1F49"/>
<path fill-rule="evenodd" clip-rule="evenodd" d="M50.0334 38.2823H46.3116C45.8412 38.2823 45.4404 37.9024 45.4404 37.4111C45.4404 36.9197 45.8203 36.5399 46.3116 36.5399H50.0334C50.5039 36.5399 50.9046 36.9197 50.9046 37.4111C50.9046 37.9024 50.5039 38.2823 50.0334 38.2823Z" fill="#CB1F49"/>
<path fill-rule="evenodd" clip-rule="evenodd" d="M51.0301 38.8086H50.5387C49.7581 38.8086 49.1587 38.1918 49.1587 37.4286C49.1587 36.6654 49.7755 36.0486 50.5387 36.0486H51.0301C51.8107 36.0486 52.4101 36.6654 52.4101 37.4286C52.4101 37.791 52.2637 38.1534 52.0093 38.4079C51.7549 38.6623 51.3925 38.8086 51.0301 38.8086ZM50.7757 37.1951C50.7199 37.2683 50.6851 37.3415 50.6851 37.4321C50.6851 37.5227 50.7199 37.5959 50.7757 37.669C50.8314 37.6133 50.8663 37.5227 50.8663 37.4321C50.8837 37.3415 50.8488 37.2509 50.7757 37.1951Z" fill="#CB1F49"/>
<path fill-rule="evenodd" clip-rule="evenodd" d="M8.97599 36.704C8.75993 36.704 8.61357 36.6483 8.46721 36.5577C8.15706 36.3765 7.97586 36.1046 7.92358 35.7596C7.77722 34.871 8.64842 33.8535 10.3385 31.9856C11.0111 31.2398 12.0809 30.0445 12.3527 29.4974C11.1017 27.8804 10.4292 25.9951 10.4292 24.0541C10.4292 18.5168 15.8202 14 22.445 14C29.0696 14 34.4608 18.5024 34.4608 24.0541C34.4608 29.6089 29.0698 34.1082 22.445 34.1082C20.8106 34.1082 19.2146 33.8364 17.6883 33.2927C17.1063 33.4391 15.221 34.2545 13.8236 34.8713C10.7186 36.2513 9.5928 36.704 8.97599 36.704ZM22.4451 15.7216C16.7822 15.7216 12.1546 19.4608 12.1546 24.0537C12.1546 25.6881 12.754 27.2841 13.8622 28.6467C14.7159 29.6817 13.4823 31.0616 11.5935 33.149C11.2485 33.5498 10.8129 34.0203 10.4331 34.4733C11.2869 34.1283 12.3219 33.6753 13.1198 33.3128C16.9497 31.6262 17.5665 31.4241 18.131 31.6436C19.4935 32.1524 20.9432 32.4068 22.4312 32.4068C28.0941 32.4068 32.7217 28.6676 32.7217 24.0747C32.7217 19.4817 28.1288 15.725 22.4482 15.725L22.4451 15.7216ZM17.5454 33.2185H17.5628C17.5628 33.236 17.5454 33.2185 17.5454 33.2185Z" fill="#CB1F49"/>
<path fill-rule="evenodd" clip-rule="evenodd" d="M27.2533 22.7122H16.2901C15.8197 22.7122 15.4189 22.3324 15.4189 21.841C15.4189 21.3497 15.7988 20.9698 16.2901 20.9698H27.2533C27.7237 20.9698 28.1245 21.3497 28.1245 21.841C28.1245 22.3324 27.7237 22.7122 27.2533 22.7122Z" fill="#CB1F49"/>
<path fill-rule="evenodd" clip-rule="evenodd" d="M27.2533 26.3572H16.2901C15.8197 26.3572 15.4189 25.9774 15.4189 25.486C15.4189 24.9947 15.7988 24.6148 16.2901 24.6148H27.2533C27.7237 24.6148 28.1245 24.9947 28.1245 25.486C28.1245 25.9774 27.7237 26.3572 27.2533 26.3572Z" fill="#CB1F49"/>
</svg>
