<svg width="80" height="80" viewBox="0 0 80 80" fill="none" xmlns="http://www.w3.org/2000/svg">
<path d="M40.1243 21.1016C56.5945 8.31518 48.1415 0 48.1415 0C49.3995 13.2185 34.5325 16.3396 30.5473 25.423C27.828 31.6213 32.4095 37.0483 40.1188 43.8885C39.4373 42.3735 38.386 40.9015 37.322 39.4112C33.6923 34.3283 29.9113 29.033 40.1243 21.1016Z" fill="#E76F00"/>
<path d="M42.7538 46.6925C42.7538 46.6925 47.7088 42.6947 43.7848 38.252C30.4828 23.1796 58.3333 16.3396 58.3333 16.3396C41.3293 24.5312 43.8678 29.3935 48.1418 35.3005C52.7178 41.6345 42.7538 46.6925 42.7538 46.6925Z" fill="#E76F00"/>
<path d="M57.3424 58.614C72.6056 50.8145 65.5486 43.3195 60.6229 44.3293C59.4154 44.5763 58.8771 44.7905 58.8771 44.7905C58.8771 44.7905 59.3254 44.1 60.1814 43.801C69.9261 40.4323 77.4204 53.7373 57.0356 59.007C57.0356 59.007 57.2719 58.7995 57.3424 58.614Z" fill="#5382A1"/>
<path d="M25.5823 48.7422C16.0326 47.4882 30.8186 44.0347 30.8186 44.0347C30.8186 44.0347 25.0766 43.654 18.0147 47.0107C9.66427 50.983 38.6701 52.7895 53.6849 48.9062C55.2459 47.858 57.4033 46.9495 57.4033 46.9495C57.4033 46.9495 51.2591 48.0285 45.1401 48.5362C37.6529 49.153 29.6146 49.2732 25.5823 48.7422Z" fill="#5382A1"/>
<path d="M29.216 56.1895C23.8906 55.648 27.3775 53.1097 27.3775 53.1097C13.5975 57.6072 35.0445 62.7075 54.2998 57.1705C52.253 56.461 50.9515 55.1632 50.9515 55.1632C41.5408 56.9452 36.1025 56.8882 29.216 56.1895Z" fill="#5382A1"/>
<path d="M31.5363 64.2478C26.215 63.6463 29.3238 61.8685 29.3238 61.8685C16.8149 65.3055 36.9323 72.4062 52.8583 65.6943C50.2498 64.6968 48.382 63.5452 48.382 63.5452C41.2778 64.8672 37.9828 64.971 31.5363 64.2478Z" fill="#5382A1"/>
<path d="M64.8467 68.347C64.8467 68.347 67.1472 70.211 62.313 71.653C53.1202 74.3915 24.0523 75.2185 15.9773 71.7622C13.0746 70.5205 18.5181 68.7972 20.2304 68.4355C22.0161 68.0547 23.0366 68.1257 23.0366 68.1257C19.8085 65.8895 2.17122 72.5167 14.0778 74.4147C46.5487 79.593 73.2692 72.0827 64.8467 68.347Z" fill="#5382A1"/>
<path d="M70.0001 72.4197C69.4674 79.2367 46.9694 80.6707 32.3186 79.7485C22.7609 79.1457 20.8454 77.6395 20.8174 77.6175C29.9649 79.1005 45.3874 79.3705 57.8921 77.0562C68.9759 75.004 70.0001 72.4197 70.0001 72.4197Z" fill="#5382A1"/>
</svg>
