<svg width="37" height="37" viewBox="0 0 37 37" fill="none" xmlns="http://www.w3.org/2000/svg">
<path d="M10.791 15.4165V26.2082" stroke="white" stroke-width="1.5" stroke-linecap="round" stroke-linejoin="round"/>
<path d="M16.959 20.0415V26.2082M16.959 20.0415C16.959 17.4871 19.0296 15.4165 21.584 15.4165C24.1384 15.4165 26.209 17.4871 26.209 20.0415V26.2082M16.959 20.0415V15.4165" stroke="white" stroke-width="1.5" stroke-linecap="round" stroke-linejoin="round"/>
<path d="M10.7993 10.7915H10.7891" stroke="white" stroke-width="2" stroke-linecap="round" stroke-linejoin="round"/>
<path d="M3.85352 18.4998C3.85352 11.5957 3.85352 8.14368 5.99834 5.99883C8.14319 3.854 11.5952 3.854 18.4993 3.854C25.4034 3.854 28.8555 3.854 31.0004 5.99883C33.1452 8.14368 33.1452 11.5957 33.1452 18.4998C33.1452 25.4039 33.1452 28.856 31.0004 31.0009C28.8555 33.1457 25.4034 33.1457 18.4993 33.1457C11.5952 33.1457 8.14319 33.1457 5.99834 31.0009C3.85352 28.856 3.85352 25.4039 3.85352 18.4998Z" stroke="white" stroke-width="1.5" stroke-linejoin="round"/>
</svg>
