<svg width="197" height="29" viewBox="0 0 197 29" fill="none" xmlns="http://www.w3.org/2000/svg">
<path d="M5.48722 11.4052V17.6866C5.48722 19.4208 6.14095 20.9011 7.44892 22.1281C8.7569 23.3549 10.3349 23.9684 12.1836 23.9684V28.6795C8.93992 28.6795 6.17592 27.6084 3.89157 25.4652C1.60695 23.3223 0.464905 20.7295 0.464905 17.6866V0.412043H5.48722V6.69378H12.1836V11.4052H5.48722Z" fill="white"/>
<path d="M31.9843 13.2454C30.6763 12.0184 29.0977 11.4051 27.2499 11.4051C25.4013 11.4051 23.8232 12.0184 22.5152 13.2454C22.0793 13.6544 21.7216 14.0881 21.4429 14.5456H33.0566C32.7776 14.0881 32.4197 13.6544 31.9843 13.2454ZM22.5152 22.1281C23.8232 23.3549 25.4013 23.9684 27.2499 23.9684C29.0977 23.9684 30.6763 23.3549 31.9843 22.1281L32.0106 22.1035L35.5676 25.4408L35.5416 25.4652C33.257 27.6084 30.4933 28.6795 27.2499 28.6795C24.0062 28.6795 21.2422 27.6084 18.9579 25.4652C16.6733 23.3223 15.5315 20.7295 15.5315 17.6866C15.5315 14.6441 16.6733 12.0515 18.9579 9.90829C21.2422 7.76561 24.0062 6.69378 27.2499 6.69378C30.4933 6.69378 33.257 7.76561 35.5416 9.90829C37.826 12.0515 38.9683 14.6441 38.9683 17.6866C38.9683 18.2103 38.9157 18.7338 38.8113 19.2573H37.294H20.7629C21.0416 20.3367 21.6259 21.2939 22.5152 22.1281Z" fill="white"/>
<path d="M62.3267 25.4652C60.042 27.6084 57.2783 28.6795 54.0349 28.6795C50.7913 28.6795 48.0273 27.6084 45.7429 25.4652C43.4583 23.3221 42.3163 20.7295 42.3163 17.6866C42.3163 14.6441 43.4583 12.0515 45.7429 9.90829C48.0273 7.76561 50.7913 6.69378 54.0349 6.69378C57.2783 6.69378 60.042 7.76561 62.3267 9.90829L62.3527 9.93295L58.7953 13.2698L58.7693 13.2454C57.4613 12.0184 55.8828 11.4051 54.0349 11.4051C52.1861 11.4051 50.6083 12.0184 49.3003 13.2454C47.9923 14.4724 47.3386 15.953 47.3386 17.6866C47.3386 19.4208 47.9923 20.9011 49.3003 22.1281C50.6083 23.3549 52.1861 23.9684 54.0349 23.9684C55.8828 23.9684 57.4613 23.3549 58.7693 22.1281L58.7953 22.1035L62.3527 25.4406L62.3267 25.4652Z" fill="white"/>
<path d="M69.1013 17.6866V28.6794H64.079V0.412226H69.1013V8.63239C71.0367 7.34027 73.269 6.69372 75.7976 6.69372C79.041 6.69372 81.8047 7.76555 84.0894 9.90822C86.3737 12.0514 87.5158 14.644 87.5158 17.6866V28.6794H82.4937V17.6866C82.4937 15.9532 81.8397 14.4723 80.532 13.2453C79.224 12.0183 77.6455 11.4051 75.7976 11.4051C73.949 11.4051 72.371 12.0183 71.063 13.2453C69.755 14.4723 69.1013 15.9532 69.1013 17.6866Z" fill="white"/>
<path d="M90.864 6.69384H114.301L100.908 23.9682H114.301V28.6796H90.864L104.256 11.4052H90.864V6.69384Z" fill="white"/>
<path d="M150.902 28.6796H145.88V17.6867C145.88 14.6441 147.022 12.0515 149.307 9.90835C151.591 7.76543 154.355 6.69384 157.599 6.69384C160.842 6.69384 163.606 7.76543 165.89 9.90835C168.175 12.0515 169.317 14.6441 169.317 17.6867V28.6796H164.295V17.6867C164.295 15.953 163.641 14.4722 162.333 13.2455C161.025 12.0185 159.446 11.4052 157.599 11.4052C155.75 11.4052 154.172 12.0185 152.864 13.2455C151.556 14.4722 150.902 15.953 150.902 17.6867V28.6796Z" fill="white"/>
<path d="M189.118 13.2454C187.81 12.0184 186.231 11.4051 184.383 11.4051C182.535 11.4051 180.957 12.0184 179.649 13.2454C179.213 13.6544 178.855 14.0881 178.576 14.5456H190.19C189.911 14.0881 189.553 13.6544 189.118 13.2454ZM179.649 22.1281C180.957 23.3549 182.535 23.9684 184.383 23.9684C186.231 23.9684 187.81 23.3549 189.118 22.1281L189.144 22.1035L192.701 25.4408L192.675 25.4652C190.391 27.6084 187.627 28.6795 184.383 28.6795C181.14 28.6795 178.376 27.6084 176.091 25.4652C173.807 23.3223 172.665 20.7295 172.665 17.6866C172.665 14.6441 173.807 12.0515 176.091 9.90829C178.376 7.76561 181.14 6.69378 184.383 6.69378C187.627 6.69378 190.391 7.76561 192.675 9.90829C194.96 12.0515 196.102 14.6441 196.102 17.6866C196.102 18.2103 196.049 18.7338 195.945 19.2573H194.428H177.896C178.175 20.3367 178.76 21.2939 179.649 22.1281Z" fill="white"/>
<path fill-rule="evenodd" clip-rule="evenodd" d="M139.064 16.3585C140.495 16.3585 141.663 15.2633 141.663 13.9213C141.663 12.5779 140.495 11.4834 139.064 11.4834C137.633 11.4834 136.466 12.5779 136.466 13.9213C136.466 15.2633 137.633 16.3585 139.064 16.3585Z" fill="white"/>
<path fill-rule="evenodd" clip-rule="evenodd" d="M135.518 11.779C136.538 11.779 137.371 10.9985 137.371 10.0409C137.371 9.08326 136.538 8.30276 135.518 8.30276C134.498 8.30276 133.665 9.08326 133.665 10.0409C133.665 10.9985 134.498 11.779 135.518 11.779Z" fill="white"/>
<path fill-rule="evenodd" clip-rule="evenodd" d="M136.5 17.4812C136.5 21.0285 133.434 23.9041 129.653 23.9041V28.7144C136.267 28.7144 141.628 23.6853 141.628 17.4812H136.5ZM117.679 17.4812C117.679 11.2772 123.039 6.24835 129.653 6.24835V11.0584C125.871 11.0584 122.806 13.9342 122.806 17.4812H117.679Z" fill="white"/>
<path fill-rule="evenodd" clip-rule="evenodd" d="M120.242 23.4793C121.673 23.4793 122.84 22.384 122.84 21.0414C122.84 19.6987 121.673 18.6041 120.242 18.6041C118.811 18.6041 117.643 19.6987 117.643 21.0414C117.643 22.384 118.811 23.4793 120.242 23.4793Z" fill="white"/>
<path fill-rule="evenodd" clip-rule="evenodd" d="M123.788 26.6594C124.808 26.6594 125.641 25.8789 125.641 24.9213C125.641 23.9637 124.808 23.1832 123.788 23.1832C122.768 23.1832 121.935 23.9637 121.935 24.9213C121.935 25.8789 122.768 26.6594 123.788 26.6594Z" fill="white"/>
</svg>
