<svg width="87" height="87" viewBox="0 0 87 87" fill="none" xmlns="http://www.w3.org/2000/svg">
<path d="M41.8565 31.602L42.2519 31.3912C42.7833 31.1017 43.3951 31.001 43.9913 31.0985C44.5907 31.1961 45.1406 31.4918 45.5608 31.9356L47.9644 34.4466C48.3939 34.8903 48.6781 35.463 48.7708 36.0797C48.8635 36.6996 48.7646 37.3321 48.4896 37.8954L48.2826 38.3139L48.2857 38.3108C47.8532 39.1509 47.847 40.1516 48.2703 40.9949C48.4649 41.4039 48.641 41.8193 48.8079 42.2283C48.9747 42.6374 49.123 43.0685 49.2651 43.4996C49.401 43.9401 49.6389 44.3429 49.9571 44.6764C50.2754 45.0005 50.6646 45.2397 51.0941 45.3813L51.5173 45.526C52.0951 45.718 52.5987 46.0956 52.9509 46.6022C53.3031 47.1151 53.4915 47.7255 53.4884 48.3518V51.8949C53.4946 52.5211 53.3062 53.1347 52.9509 53.6476C52.5987 54.1511 52.0951 54.5288 51.5173 54.7206L51.0972 54.8654C50.6677 55.0038 50.2753 55.2493 49.9571 55.5734C49.6389 55.9069 49.401 56.3097 49.2651 56.7534C49.123 57.1845 48.9747 57.6061 48.8079 58.0183C48.641 58.4306 48.4618 58.8427 48.2703 59.2518C47.847 60.0983 47.8532 61.0989 48.2857 61.9391L48.4927 62.3544L48.4896 62.3513C48.7646 62.9145 48.8604 63.547 48.7708 64.1669C48.6781 64.7868 48.3939 65.3595 47.9645 65.8064L45.5608 68.3143V68.3112C44.702 69.2268 43.3518 69.4534 42.252 68.8618L41.8534 68.6479C41.0532 68.1979 40.08 68.1916 39.2737 68.6321C38.8813 68.8335 38.489 69.0192 38.0935 69.1922C37.6981 69.3653 37.2903 69.5227 36.8793 69.6705H36.8762C36.4499 69.8121 36.0606 70.0607 35.7485 70.3911C35.4334 70.7278 35.1986 71.1338 35.0688 71.5775L34.9329 72.0212H34.9298C34.7506 72.619 34.3922 73.1414 33.9041 73.5159C33.419 73.884 32.8289 74.0823 32.2265 74.0791H28.8249C28.2225 74.0791 27.6324 73.884 27.1473 73.5159C26.6561 73.1414 26.2947 72.619 26.1154 72.0243L25.9795 71.5838H25.9764C25.8467 71.1401 25.6149 70.7341 25.2998 70.3974C24.9847 70.0702 24.5985 69.8216 24.1721 69.6737C23.7551 69.5258 23.3534 69.3684 22.9549 69.1954C22.5532 69.0223 22.167 68.8367 21.7716 68.6353C20.9652 68.1979 19.9982 68.2042 19.198 68.6541L18.7964 68.8681C17.6996 69.4597 16.3495 69.2363 15.4906 68.3206L13.0839 65.8127C12.2065 64.8938 11.9964 63.5061 12.5618 62.3607L12.7626 61.9453C13.1951 61.1051 13.2013 60.1045 12.778 59.2581C12.5834 58.849 12.4073 58.44 12.2405 58.0246C12.0736 57.6093 11.9253 57.1907 11.7832 56.7597C11.6473 56.3191 11.4125 55.9132 11.0974 55.5828C10.7761 55.2556 10.3837 55.0133 9.95426 54.8717L9.531 54.7269V54.7301C8.95326 54.535 8.45275 54.1574 8.10056 53.6539C7.74217 53.141 7.55372 52.5243 7.5599 51.8949V48.3517C7.55681 47.7256 7.74527 47.1119 8.10056 46.599C8.45276 46.0956 8.95324 45.7179 9.531 45.526L9.95426 45.3813H9.95735C10.3868 45.2397 10.7761 44.9974 11.0974 44.6764C11.4094 44.3429 11.6442 43.9401 11.7801 43.4996C11.9223 43.0685 12.0767 42.6468 12.2374 42.2283C12.4011 41.8098 12.5803 41.4071 12.775 40.9949C13.1982 40.1515 13.192 39.1509 12.7595 38.3108L12.5587 37.8922V37.8954C11.9933 36.75 12.2003 35.3623 13.0808 34.4466L15.4875 31.9356C15.9077 31.4919 16.4577 31.1992 17.0539 31.0985C17.6502 31.001 18.2619 31.1017 18.7933 31.3912L19.1949 31.602C19.9951 32.052 20.9622 32.0583 21.7685 31.6177C22.1608 31.4163 22.5563 31.2307 22.9518 31.0576C23.3441 30.8845 23.7581 30.7272 24.1691 30.5793C24.5954 30.4346 24.9816 30.1891 25.2967 29.8619C25.6088 29.5252 25.8405 29.1192 25.9733 28.6755L26.1093 28.2318H26.1124C26.2915 27.6371 26.653 27.1148 27.1443 26.7434C27.6262 26.3721 28.2163 26.1739 28.8219 26.177H32.2203C32.8258 26.1739 33.4159 26.3721 33.901 26.7434C34.3922 27.1147 34.7506 27.6371 34.9329 28.2318L35.0688 28.6755H35.0719C35.2048 29.1192 35.4365 29.5251 35.7516 29.8619C36.0667 30.1891 36.4529 30.4346 36.8793 30.5793C37.2964 30.7272 37.698 30.8877 38.0935 31.0576C38.492 31.2275 38.8813 31.4163 39.2737 31.6177H39.2768C40.0831 32.0583 41.0563 32.052 41.8565 31.602ZM63.8817 60.9008C66.1865 60.9008 68.3955 61.8543 69.9989 63.5409C73.385 67.0967 73.385 72.7484 69.9989 76.3041C68.3955 77.9939 66.1865 78.9473 63.8817 78.9473C61.5739 78.9473 59.3649 77.9939 57.7614 76.3041C54.3847 72.7452 54.3847 67.0998 57.7614 63.5409C59.3679 61.8542 61.5739 60.9008 63.8817 60.9008ZM68.794 64.7997C67.5057 63.4466 65.7354 62.6819 63.8848 62.6819C62.0373 62.6819 60.264 63.4466 58.9787 64.7997C56.2661 67.6537 56.2661 72.185 58.9787 75.0391C60.264 76.3922 62.0373 77.1599 63.8848 77.1599C65.7354 77.1599 67.5057 76.3921 68.794 75.0391C71.5035 72.185 71.5035 67.6569 68.794 64.7997ZM71.2903 57.3357L71.5529 57.1909C72.3963 56.741 73.4282 56.914 74.0862 57.6157L75.6896 59.2835V59.2803C76.0171 59.6233 76.2334 60.0639 76.3014 60.5359C76.3724 61.011 76.3014 61.4956 76.0913 61.9236L75.9584 62.1974H75.9553C75.8348 62.4334 75.77 62.6914 75.7669 62.9557C75.7669 63.2201 75.8287 63.4812 75.943 63.7172C76.0758 64.0004 76.1963 64.2773 76.3075 64.5574C76.4157 64.8343 76.5269 65.1238 76.6196 65.4196V65.4165C76.6968 65.6682 76.8297 65.8948 77.0089 66.0836C77.188 66.2692 77.4105 66.4045 77.6546 66.4832L77.9388 66.5807V66.5776C78.3806 66.7255 78.7637 67.015 79.0325 67.402C79.3043 67.7922 79.4495 68.261 79.4495 68.7394V71.0994C79.4495 71.5809 79.3043 72.0497 79.0325 72.4431C78.7637 72.8301 78.3806 73.1196 77.9388 73.2643L77.6546 73.3619C77.4105 73.4406 77.1881 73.5759 77.0089 73.7584C76.8297 73.9472 76.6968 74.1769 76.6196 74.4255C76.5269 74.715 76.4219 75.0076 76.3075 75.2877C76.1932 75.5646 76.0758 75.8446 75.943 76.1279C75.702 76.6062 75.7082 77.1726 75.9553 77.6477L76.0882 77.9215H76.0913C76.3014 78.3494 76.3724 78.8371 76.3014 79.3092C76.2303 79.7812 76.0171 80.2217 75.6896 80.5616L74.0862 82.2293C73.4282 82.9279 72.3963 83.1009 71.5529 82.6541L71.2903 82.5094C71.0678 82.3867 70.8176 82.3206 70.5642 82.3143C70.3109 82.3143 70.0576 82.3804 69.832 82.4999C69.5663 82.6352 69.2975 82.7611 69.0288 82.8807C68.7569 82.994 68.4819 83.1041 68.2039 83.2048L68.2069 83.2079C67.9629 83.2866 67.7435 83.4251 67.5674 83.6107C67.3882 83.8027 67.2585 84.0324 67.1812 84.2841L67.0886 84.5799V84.5768C66.9526 85.033 66.6746 85.4358 66.3007 85.7222C65.93 86.0022 65.4789 86.1533 65.0186 86.1533H62.7509C62.2906 86.1533 61.8395 86.0022 61.4688 85.7222C61.0949 85.4327 60.8169 85.0331 60.6748 84.5768L60.5852 84.281V84.2841C60.511 84.0324 60.3782 83.8027 60.2021 83.6107C60.0229 83.4282 59.8035 83.2866 59.5626 83.2079C59.2845 83.1072 59.0095 83.0003 58.7376 82.8838C58.4658 82.7643 58.2032 82.6384 57.9344 82.5031V82.4999C57.7089 82.3804 57.4586 82.3143 57.2022 82.3143C56.9488 82.3206 56.7017 82.3867 56.4792 82.5094L56.2105 82.6541C55.8027 82.8744 55.3361 82.9499 54.8789 82.8712C54.4216 82.7957 53.9984 82.5723 53.6771 82.2325L52.0799 80.5647C51.4064 79.8599 51.2457 78.7994 51.6782 77.9215L51.8111 77.6478C51.9316 77.4118 51.9965 77.1506 52.0026 76.8863C51.9995 76.622 51.9377 76.3608 51.8234 76.1216C51.6906 75.8384 51.5701 75.5615 51.4558 75.2814C51.3415 75.0014 51.2395 74.7119 51.1468 74.4192V74.4224C51.0696 74.1707 50.9368 73.9441 50.7607 73.7553C50.5784 73.5728 50.3559 73.4343 50.1119 73.3588L49.8276 73.2644C49.3858 73.1165 49.0027 72.827 48.734 72.44C48.4621 72.0498 48.3169 71.5778 48.3169 71.0995V68.7426C48.3169 68.2611 48.4621 67.7954 48.734 67.4021C49.0028 67.015 49.3858 66.7287 49.8276 66.5808L50.1119 66.4832C50.3529 66.4046 50.5753 66.2693 50.7576 66.0868C50.9337 65.898 51.0665 65.6683 51.1469 65.4197C51.2395 65.1239 51.3446 64.8375 51.4558 64.5575C51.567 64.2774 51.6906 64.0005 51.8234 63.7173V63.7204C51.9378 63.4813 51.9965 63.2201 51.9995 62.9558C51.9934 62.6915 51.9285 62.4334 51.8111 62.2006L51.6782 61.9268C51.2426 61.0489 51.4033 59.9885 52.0768 59.2836L53.674 57.6159H53.6771C53.9984 57.276 54.4186 57.0526 54.8789 56.974C55.3331 56.8984 55.8027 56.974 56.2105 57.1942L56.4793 57.339H56.4762C56.6986 57.4617 56.9489 57.5278 57.2022 57.5341C57.4555 57.5309 57.7089 57.468 57.9344 57.3484C58.2032 57.2131 58.4689 57.0809 58.7377 56.9677C59.0064 56.8544 59.2845 56.7442 59.5626 56.6436H59.5595C59.8036 56.5617 60.0229 56.4201 60.199 56.2376C60.3782 56.0457 60.5111 55.8128 60.5852 55.5579L60.6748 55.2653C60.8138 54.809 61.0919 54.4094 61.4688 54.123C61.8364 53.843 62.2875 53.6919 62.7509 53.6919H65.0125C65.4728 53.6919 65.9238 53.843 66.2946 54.123C66.6715 54.4094 66.9465 54.809 67.0855 55.2653L67.1782 55.5579C67.2523 55.8128 67.3821 56.0457 67.5613 56.2376C67.7405 56.4233 67.9598 56.5617 68.2008 56.6436C68.4789 56.7442 68.7538 56.8512 69.0257 56.9677C69.2976 57.0841 69.5602 57.2131 69.829 57.3484C70.0545 57.468 70.3048 57.5341 70.5612 57.5341C70.8145 57.5278 71.0617 57.4617 71.2841 57.339L71.2903 57.3357ZM72.3314 58.7832L72.0626 58.9311C71.6023 59.1797 71.0863 59.3118 70.5643 59.315C70.0452 59.3181 69.5323 59.1923 69.072 58.95C68.8496 58.8367 68.6148 58.7234 68.3707 58.6164C68.1297 58.5094 67.8919 58.4213 67.6509 58.3332C67.1535 58.1633 66.7055 57.8707 66.3441 57.4867C65.9795 57.0966 65.7076 56.6277 65.5531 56.1148L65.4635 55.819C65.4327 55.7215 65.374 55.6365 65.2967 55.5736C65.2164 55.5138 65.1175 55.4792 65.0156 55.4823H62.751C62.6521 55.4792 62.5532 55.5106 62.4729 55.5736C62.3926 55.6334 62.3339 55.7215 62.3061 55.819L62.2134 56.1148C62.0558 56.6277 61.787 57.0966 61.4225 57.4867C61.061 57.8706 60.6131 58.1601 60.1157 58.3332C59.8747 58.4182 59.6306 58.5157 59.3958 58.6164C59.161 58.7171 58.92 58.8367 58.6914 58.95C58.2311 59.1923 57.7182 59.3181 57.1992 59.315C56.6771 59.3118 56.1642 59.1797 55.7008 58.9311L55.432 58.7863L55.4351 58.7895C55.3486 58.7391 55.2467 58.7234 55.1478 58.7391C55.0489 58.758 54.9563 58.8084 54.8883 58.8839L53.2911 60.5422C53.2169 60.6146 53.1675 60.709 53.152 60.8128C53.1366 60.9167 53.1551 61.0237 53.2045 61.1149L53.3374 61.3918C53.8224 62.3704 53.8286 63.5221 53.3559 64.5071C53.2447 64.7431 53.1397 64.9854 53.0408 65.2402C52.9389 65.4983 52.8523 65.7343 52.7689 65.986C52.6052 66.4989 52.3271 66.9678 51.9595 67.3548C51.5888 67.7324 51.1377 68.0125 50.6403 68.1792L50.3591 68.2768V68.2736C50.2664 68.3051 50.183 68.3649 50.1212 68.4435C50.0656 68.5317 50.0347 68.6324 50.0378 68.7362V71.0994C50.0347 71.2064 50.0625 71.3102 50.1212 71.3952C50.1799 71.477 50.2634 71.5368 50.3591 71.5651L50.6403 71.6626C51.1377 71.8262 51.5887 72.1095 51.9595 72.4839C52.3272 72.8709 52.6052 73.3398 52.7689 73.8527C52.8523 74.1076 52.9358 74.3562 53.0408 74.5985C53.1428 74.8533 53.2478 75.0956 53.3559 75.3316V75.3348C53.8286 76.3166 53.8224 77.4714 53.3374 78.45L53.2045 78.7301V78.7269C53.1551 78.8182 53.1366 78.9252 53.152 79.0259C53.1675 79.1297 53.2169 79.2241 53.2911 79.2965L54.8883 80.9642C54.9594 81.0398 55.0489 81.0901 55.1478 81.109C55.2467 81.1247 55.3486 81.1058 55.4351 81.0586L55.7039 80.9139H55.7008C56.1612 80.6653 56.674 80.5331 57.1961 80.53C57.7151 80.5269 58.228 80.6527 58.6883 80.8982C58.9169 81.0114 59.1487 81.1247 59.3927 81.2317C59.6368 81.3355 59.8716 81.4268 60.1126 81.5118V81.5086C60.6069 81.6817 61.0549 81.9743 61.4194 82.3582C61.784 82.7453 62.0527 83.2141 62.2103 83.7302L62.303 84.026V84.0228C62.3308 84.1235 62.3895 84.2085 62.4698 84.2683C62.5502 84.3312 62.649 84.3627 62.7479 84.3627H65.0094C65.1114 84.3627 65.2102 84.3312 65.2906 84.2683C65.3709 84.2085 65.4265 84.1204 65.4574 84.0228L65.547 83.727V83.7302C65.7015 83.2141 65.9733 82.7452 66.3379 82.3582C66.7024 81.9713 67.1504 81.6817 67.6447 81.5086C67.8888 81.4237 68.1267 81.3324 68.3646 81.2286C68.6025 81.1279 68.8403 81.0083 69.0659 80.895V80.8982C69.5293 80.6527 70.0391 80.5268 70.5581 80.53C71.0833 80.5331 71.5961 80.6653 72.0565 80.9139L72.3191 81.0586H72.3222C72.5013 81.1593 72.7269 81.1216 72.8659 80.9642L74.4631 79.2965H74.4662C74.5404 79.2241 74.5898 79.1297 74.6084 79.0259C74.6207 78.9252 74.6022 78.8213 74.5558 78.7269L74.4199 78.4469L74.4168 78.45C74.1789 77.9654 74.0522 77.4337 74.0492 76.8924C74.0492 76.3512 74.1696 75.8194 74.4014 75.3348C74.5157 75.0988 74.6207 74.8533 74.7196 74.6016C74.8215 74.3467 74.9111 74.1076 74.9914 73.8558V73.8527C75.1552 73.3398 75.4302 72.8709 75.8009 72.4839C76.1685 72.1094 76.6196 71.8262 77.117 71.6626L77.4012 71.5651H77.3982C77.4939 71.5336 77.5773 71.477 77.6391 71.3952C77.6947 71.307 77.7226 71.2064 77.7226 71.0994V68.7425C77.7226 68.6386 77.6947 68.5379 77.6391 68.4498C77.5773 68.368 77.4939 68.3082 77.3982 68.2799L77.1139 68.1824H77.117C76.6196 68.0187 76.1685 67.7355 75.8009 67.3611C75.4301 66.9741 75.1521 66.5052 74.9914 65.9923C74.908 65.7374 74.8184 65.4888 74.7196 65.2465C74.6207 65.0011 74.5126 64.7493 74.4014 64.5133V64.5102C74.1696 64.0256 74.0522 63.4938 74.0492 62.9557C74.0522 62.4145 74.1789 61.8796 74.4168 61.3981L74.5527 61.1212L74.5558 61.118C74.6022 61.0268 74.6207 60.9229 74.6084 60.8191C74.5898 60.7153 74.5404 60.6209 74.4662 60.5485L72.869 58.8807H72.8659C72.7979 58.8052 72.7083 58.7549 72.6095 58.736C72.5106 58.7234 72.4087 58.7391 72.3222 58.7895L72.3314 58.7832ZM63.8813 17.7216C66.1861 17.7216 68.3951 18.6751 69.9985 20.3648C73.3846 23.9206 73.3846 29.5691 69.9985 33.128C68.3951 34.8147 66.1861 35.7681 63.8813 35.7681C61.5735 35.7681 59.3645 34.8146 57.761 33.128C54.3843 29.5691 54.3843 23.9237 57.761 20.3648C59.3675 18.675 61.5735 17.7248 63.8813 17.7216ZM68.7936 21.6236C67.5053 20.2673 65.735 19.5027 63.8844 19.5027C62.0369 19.5027 60.2636 20.2673 58.9783 21.6236C56.2658 24.4745 56.2658 29.0058 58.9783 31.8565C60.2636 33.2128 62.0339 33.9805 63.8844 33.9805C65.735 33.9805 67.5084 33.2128 68.7936 31.8565C71.5031 29.0025 71.5031 24.4743 68.7936 21.6236ZM71.2899 14.1628L71.5525 14.018V14.0149C72.3959 13.568 73.4247 13.7411 74.0858 14.4334L75.6862 16.1042C76.0136 16.4441 76.2268 16.8846 76.2979 17.3566C76.3689 17.8287 76.2948 18.3164 76.0847 18.7444L75.9519 19.0181C75.8314 19.251 75.7665 19.5122 75.7634 19.7733C75.7634 20.0408 75.8252 20.302 75.9395 20.538C76.0723 20.8181 76.1928 21.0981 76.3041 21.375C76.4122 21.6488 76.5234 21.9446 76.6161 22.2404V22.2372C76.7675 22.747 77.1537 23.1435 77.6511 23.3008L77.9353 23.3983C78.3771 23.5462 78.7602 23.8357 79.029 24.2228C79.3009 24.6129 79.4461 25.0818 79.4461 25.5601V27.9202C79.4461 28.3985 79.3009 28.8673 79.029 29.2607C78.7571 29.6477 78.3771 29.9341 77.9353 30.0851L77.6511 30.1826C77.407 30.2582 77.1846 30.3935 77.0054 30.5791C76.8262 30.7679 76.6933 30.9945 76.6161 31.2462C76.5234 31.5357 76.4184 31.8252 76.3041 32.1084C76.1898 32.3916 76.0723 32.6654 75.9395 32.9486V32.9455C75.8252 33.1815 75.7634 33.4426 75.7634 33.7101C75.7665 33.9713 75.8314 34.2325 75.9519 34.4653L76.0847 34.7454V34.7422C76.2979 35.1733 76.3689 35.6579 76.2979 36.1331C76.2268 36.6051 76.0136 37.0425 75.6862 37.3855L74.0827 39.0532C73.4247 39.7518 72.3897 39.9249 71.5494 39.4686L71.2868 39.3302C70.8357 39.0753 70.2858 39.0721 69.8285 39.3239C69.5628 39.4592 69.294 39.585 69.0253 39.7046C68.7534 39.8179 68.4784 39.928 68.2003 40.0287H68.2034C67.9594 40.1042 67.74 40.2458 67.5639 40.4315C67.3847 40.6234 67.255 40.8532 67.1777 41.1017L67.085 41.3975V41.4007C66.946 41.857 66.671 42.2566 66.2972 42.543C65.9265 42.823 65.4754 42.9741 65.012 42.9741H62.7505C62.2901 42.9741 61.8391 42.823 61.4683 42.543C61.0945 42.2535 60.8164 41.8538 60.6743 41.4007L60.5847 41.1049V41.1017C60.5106 40.8532 60.3777 40.6234 60.2016 40.4315C60.0224 40.249 59.8031 40.1105 59.5621 40.0287C59.2841 39.928 59.0091 39.8179 58.7372 39.7046C58.4653 39.5913 58.2027 39.4592 57.934 39.3239C57.4798 39.0721 56.9299 39.0753 56.4788 39.3302L56.2101 39.4686C55.8022 39.692 55.3357 39.7707 54.8785 39.6952C54.4212 39.6165 53.998 39.3931 53.6767 39.0532L52.0795 37.3855C51.4059 36.6806 51.2453 35.6202 51.6778 34.7423L51.8107 34.4623V34.4654C51.9312 34.2294 51.996 33.9714 52.0022 33.7102C51.9991 33.4459 51.9373 33.1847 51.823 32.9455C51.6902 32.6623 51.5697 32.3854 51.4554 32.1053C51.3411 31.8284 51.2391 31.5358 51.1464 31.2432V31.2463C51.0692 30.9977 50.9364 30.768 50.7603 30.5792C50.578 30.3967 50.3555 30.2614 50.1115 30.1827L49.8272 30.0852H49.8303C49.3885 29.9341 49.0054 29.6478 48.7366 29.2608C48.4617 28.8706 48.3165 28.4017 48.3196 27.9202V25.5602C48.3165 25.0819 48.4617 24.613 48.7366 24.2228C49.0023 23.8358 49.3854 23.5494 49.8272 23.4016L50.1115 23.304C50.6089 23.1467 50.9951 22.7502 51.1465 22.2436C51.2391 21.9478 51.3442 21.6614 51.4554 21.3783C51.5666 21.0951 51.6902 20.8213 51.823 20.5412C51.9374 20.3021 51.9961 20.044 51.9991 19.7766C51.993 19.5154 51.9281 19.2573 51.8107 19.0213L51.6778 18.7476C51.2422 17.8697 51.4029 16.8093 52.0764 16.1075L53.6736 14.4367H53.6767C53.998 14.0968 54.4182 13.8734 54.8785 13.7979C55.3327 13.7224 55.8023 13.7979 56.2101 14.0181L56.4789 14.1629L56.4758 14.1597C56.6982 14.2825 56.9485 14.3517 57.2018 14.3548C57.4551 14.3548 57.7085 14.2919 57.934 14.1692C58.1997 14.0307 58.4685 13.9017 58.7373 13.7884C59.0091 13.6689 59.2841 13.565 59.5622 13.4643H59.5591C59.8032 13.3825 60.0225 13.2441 60.1986 13.0584C60.3778 12.8665 60.5106 12.6367 60.5848 12.3819L60.6744 12.0924V12.0892C60.8134 11.6329 61.0915 11.2333 61.4684 10.9469C61.836 10.6637 62.2871 10.5127 62.7505 10.5127H65.012C65.4755 10.5127 65.9265 10.6637 66.2973 10.9438C66.6742 11.2301 66.9492 11.6298 67.0851 12.0892L67.1778 12.3787C67.2519 12.6336 67.3848 12.8665 67.564 13.0584C67.7401 13.2441 67.9594 13.3825 68.2035 13.4612C68.4815 13.5619 68.7565 13.6689 69.0284 13.7853C69.3003 13.9049 69.5629 14.0244 69.8316 14.166L69.8286 14.1692C70.0541 14.2919 70.3074 14.3548 70.5608 14.3548C70.8141 14.3486 71.0644 14.2825 71.2868 14.1597L71.2899 14.1628ZM72.3279 15.6008L72.0653 15.7456H72.0622C71.6019 15.9942 71.0859 16.1263 70.5639 16.1295C70.0448 16.1326 69.532 16.0068 69.0716 15.7613C68.8492 15.6449 68.6144 15.5348 68.3703 15.4278C68.1294 15.3239 67.8915 15.2327 67.6505 15.1446C67.1562 14.9746 66.7051 14.6851 66.3437 14.3012C65.9791 13.9142 65.7072 13.4422 65.5527 12.9293L65.4632 12.6335C65.4323 12.5359 65.3736 12.451 65.2963 12.3849C65.2129 12.3283 65.1171 12.2999 65.0152 12.2999H62.7506C62.6517 12.2968 62.5528 12.3283 62.4725 12.3849C62.3922 12.4478 62.3335 12.5359 62.3057 12.6335L62.213 12.9293C62.0554 13.4422 61.7866 13.9142 61.4221 14.3012C61.0606 14.6851 60.6127 14.9746 60.1153 15.1446C59.8743 15.2327 59.6302 15.3271 59.3954 15.4278C59.1606 15.5285 58.9196 15.6417 58.691 15.7613C58.2307 16.0068 57.7178 16.1326 57.1988 16.1295C56.6767 16.1232 56.1669 15.9942 55.7035 15.7456L55.4347 15.6008C55.3451 15.5536 55.2463 15.5347 55.1474 15.5473C55.0485 15.5694 54.959 15.6197 54.8879 15.6952L53.2907 17.363V17.3598C53.2165 17.4322 53.1671 17.5297 53.1516 17.6304C53.1362 17.7343 53.1547 17.8413 53.2042 17.9325L53.337 18.2063C53.822 19.1849 53.8282 20.3397 53.3555 21.3247C53.2443 21.5575 53.1393 21.803 53.0404 22.0579C52.9384 22.3033 52.8519 22.5519 52.7685 22.8036V22.8068C52.6048 23.3165 52.3267 23.7854 51.9591 24.1693C51.5884 24.55 51.1373 24.8332 50.6399 24.9968L50.3587 25.0944C50.263 25.1227 50.1795 25.1825 50.1208 25.2643C50.0652 25.3493 50.0343 25.45 50.0374 25.5538V27.9138C50.0343 28.0177 50.0621 28.1215 50.1208 28.2096C50.1826 28.2883 50.266 28.3481 50.3587 28.3796L50.6399 28.4771V28.474C51.1373 28.6407 51.5883 28.9208 51.9591 29.2984C52.3268 29.6854 52.6017 30.1511 52.7685 30.6609C52.8519 30.9158 52.9354 31.1706 53.0404 31.4129C53.1454 31.6552 53.2474 31.9101 53.3555 32.1461V32.1493C53.8282 33.1311 53.822 34.2858 53.337 35.2614L53.2042 35.5383V35.5414C53.1547 35.6327 53.1362 35.7365 53.1516 35.8404C53.1671 35.9442 53.2165 36.0386 53.2907 36.111L54.8879 37.7787C54.9559 37.8511 55.0485 37.9014 55.1474 37.9203C55.2463 37.9392 55.3482 37.9172 55.4347 37.8668L55.7035 37.7284H55.7004C56.1608 37.4798 56.6736 37.3476 57.1957 37.3445C57.7147 37.3413 58.2276 37.4672 58.6879 37.7095C58.9165 37.8228 59.1483 37.9329 59.3923 38.0399C59.6364 38.1469 59.8712 38.2381 60.1122 38.3231C61.1193 38.6755 61.901 39.5031 62.2099 40.5415L62.3026 40.8342C62.3304 40.9317 62.3891 41.0198 62.4694 41.0827C62.5498 41.1425 62.6486 41.1709 62.7475 41.1677H65.009C65.111 41.1709 65.2098 41.1425 65.2901 41.0827C65.3674 41.0198 65.4261 40.9317 65.457 40.8342L65.5466 40.5415C65.701 40.0286 65.9729 39.5597 66.3375 39.1696C66.702 38.7857 67.15 38.4962 67.6443 38.3231C67.8884 38.2381 68.1263 38.1469 68.3642 38.0399C68.6021 37.9361 68.8399 37.8259 69.0655 37.7095V37.7126C69.5289 37.4672 70.0387 37.3413 70.5577 37.3445C71.0829 37.3476 71.5957 37.4798 72.0561 37.7284L72.3187 37.8668H72.3218C72.4083 37.9203 72.5102 37.9392 72.6091 37.9235C72.7079 37.9046 72.7975 37.8542 72.8655 37.7787L74.4689 36.1235C74.5431 36.0512 74.5925 35.9568 74.611 35.8529C74.6234 35.7491 74.6049 35.6452 74.5585 35.5508L74.4226 35.2739C74.1847 34.7893 74.058 34.2576 74.0549 33.7163C74.0549 33.1782 74.1754 32.6464 74.404 32.1587C74.5183 31.9227 74.6234 31.6772 74.7223 31.4255C74.8242 31.1738 74.9138 30.9283 74.9941 30.6734H74.9972C75.161 30.1637 75.4359 29.6948 75.8066 29.3109C76.1743 28.9333 76.6254 28.6533 77.1197 28.4865L77.4039 28.389V28.3921C77.4997 28.3606 77.5831 28.3009 77.6418 28.2222C77.6974 28.1341 77.7283 28.0302 77.7252 27.9264V25.5601C77.7283 25.4562 77.6974 25.3555 77.6418 25.2706C77.5831 25.1888 77.4997 25.129 77.4039 25.1007L77.1197 25.0031C76.6254 24.8395 76.1712 24.5563 75.8066 24.1756C75.4328 23.7948 75.1578 23.3259 74.9972 22.813C74.9138 22.5582 74.8242 22.3096 74.7253 22.061C74.6265 21.8124 74.5183 21.5638 74.4071 21.331H74.404C74.1754 20.8464 74.0549 20.3146 74.0549 19.7733C74.058 19.2321 74.1847 18.6972 74.4226 18.2126L74.5585 17.9388C74.6049 17.8444 74.6234 17.7406 74.611 17.6399C74.5956 17.536 74.5462 17.4416 74.4689 17.3693L72.8717 15.7015C72.7357 15.541 72.5071 15.5001 72.3248 15.6071L72.3279 15.6008ZM30.5268 37.0077C33.8789 37.0108 37.0858 38.3954 39.4214 40.8466C41.7848 43.3356 43.1072 46.6618 43.1072 50.1234C43.1072 53.5879 41.7848 56.914 39.4214 59.4002C37.0888 61.8578 33.8788 63.2454 30.5236 63.2454C27.1715 63.2454 23.9615 61.8577 21.6291 59.4002C19.2687 56.9112 17.9464 53.585 17.9464 50.1234C17.9464 46.6618 19.2688 43.3359 21.6291 40.8466C23.9647 38.3953 27.1716 37.0108 30.5268 37.0077ZM38.2104 42.1084C36.196 39.9907 33.4217 38.7918 30.5269 38.7918C27.6289 38.7918 24.8546 39.9907 22.8402 42.1084C18.6014 46.5799 18.6014 53.6666 22.8402 58.135C24.8546 60.2558 27.6289 61.4547 30.5269 61.4547C33.4218 61.4547 36.1961 60.2558 38.2104 58.135C42.4492 53.6666 42.4492 46.5801 38.2104 42.1084ZM43.03 32.9863L42.6283 33.1972C41.3493 33.8957 39.8107 33.9052 38.5224 33.2223C38.1733 33.0398 37.8149 32.8731 37.4411 32.7126C37.0672 32.5552 36.7089 32.4073 36.332 32.2783C35.6492 32.0423 35.0344 31.6427 34.5339 31.1172C34.0334 30.5823 33.6596 29.9372 33.4464 29.2291L33.3105 28.7855L33.3074 28.7886C33.2394 28.5494 33.0942 28.3386 32.8996 28.1876C32.705 28.0397 32.4671 27.9642 32.223 27.9673H28.8245C28.5836 27.9642 28.3457 28.0428 28.1479 28.1876C27.9533 28.3386 27.8112 28.5495 27.7401 28.7886L27.6042 29.2323V29.2291C27.391 29.9371 27.0203 30.5822 26.5198 31.1172C26.0193 31.6427 25.4014 32.0423 24.7186 32.2783C24.3479 32.4073 23.9741 32.5521 23.6096 32.7126C23.245 32.8731 22.8773 33.043 22.5282 33.2223C21.2399 33.9052 19.7014 33.8957 18.4223 33.1972L18.0237 32.9863C17.5881 32.7346 17.0382 32.8258 16.7014 33.2035L14.2978 35.7114C14.1217 35.8876 14.0074 36.1142 13.9641 36.3628C13.9301 36.6113 13.9734 36.8662 14.0846 37.0928L14.2854 37.5081L14.2885 37.505C14.9589 38.8487 14.9682 40.4377 14.3132 41.7877C14.1402 42.1495 13.9795 42.5271 13.8251 42.9141C13.6675 43.3012 13.5347 43.6819 13.408 44.069L13.4049 44.0721C13.1825 44.777 12.8025 45.4189 12.2927 45.9507C11.7861 46.4699 11.1681 46.8569 10.4823 47.0803L10.059 47.2251C9.82729 47.3006 9.62647 47.4485 9.48436 47.6499C9.34224 47.8544 9.26809 48.103 9.27427 48.3516V51.8947C9.26809 52.1465 9.34224 52.3919 9.48436 52.5996C9.62648 52.801 9.82729 52.9489 10.059 53.0244L10.4823 53.1692V53.166C11.165 53.3957 11.786 53.7859 12.2927 54.302C12.8025 54.8307 13.1825 55.4726 13.4049 56.1774C13.5285 56.5708 13.6675 56.9547 13.822 57.3354C13.9765 57.7162 14.1371 58.1001 14.3101 58.4619L14.3132 58.4587C14.9682 59.8118 14.9589 61.4009 14.2885 62.7445L14.0877 63.1631H14.0846C13.9734 63.3865 13.9301 63.6382 13.9641 63.8868C14.0043 64.1354 14.1217 64.3619 14.2978 64.5382L16.7014 67.0492C17.0382 67.4237 17.585 67.5118 18.0237 67.2664L18.4192 67.0524C19.7013 66.357 21.2399 66.3475 22.5282 67.0304C22.8773 67.2066 23.2357 67.3796 23.6095 67.5401C23.9834 67.6975 24.3448 67.8391 24.7186 67.9744C25.4014 68.2135 26.0162 68.6132 26.5167 69.1418C27.0172 69.6767 27.388 70.3218 27.598 71.0266L27.734 71.4703H27.7371C27.8081 71.7063 27.9502 71.914 28.1449 72.065C28.3395 72.2129 28.5774 72.2916 28.8215 72.2884H32.2199C32.464 72.2916 32.7019 72.2129 32.8965 72.065C33.0912 71.9171 33.2333 71.7094 33.3043 71.4703L33.4403 71.0266C33.6565 70.3218 34.0304 69.6767 34.5309 69.1418C35.0314 68.6163 35.6462 68.2167 36.3258 67.9807C36.7027 67.8453 37.0766 67.7006 37.4349 67.5464C37.7933 67.3891 38.1671 67.2129 38.5162 67.0366H38.5193C39.1527 66.7 39.8571 66.5237 40.5739 66.53C41.2906 66.5363 41.992 66.7157 42.6253 67.0587L43.027 67.2726C43.2402 67.3891 43.4842 67.43 43.7221 67.3954C43.96 67.3545 44.1794 67.2349 44.3462 67.0555L46.7529 64.5444C46.929 64.3682 47.0433 64.1417 47.0835 63.8931C47.1175 63.6445 47.0773 63.3928 46.9661 63.1693L46.7591 62.7508C46.4316 62.0869 46.2586 61.3537 46.2524 60.6111C46.2463 59.8653 46.4131 59.1322 46.7375 58.465C46.9043 58.1032 47.0711 57.7256 47.2256 57.3385C47.3832 56.9515 47.5129 56.5739 47.6427 56.1806V56.1837C47.8682 55.4788 48.2482 54.8369 48.758 54.3083C49.2647 53.7891 49.8826 53.402 50.5654 53.1723L50.9918 53.0275V53.0307C51.2204 52.9552 51.4212 52.8073 51.5633 52.6059C51.7054 52.4013 51.7796 52.1528 51.7765 51.901V48.3516C51.7796 48.0998 51.7054 47.8513 51.5633 47.6467C51.4212 47.4485 51.2204 47.3006 50.9918 47.2219L50.5654 47.0772V47.0803C49.8826 46.8569 49.2617 46.4667 48.758 45.9475C48.2483 45.4189 47.8683 44.777 47.6427 44.069C47.5129 43.6819 47.377 43.2918 47.2256 42.9141C47.0742 42.5334 46.9074 42.1495 46.7375 41.7877C46.4131 41.1206 46.2463 40.3874 46.2524 39.6416C46.2586 38.899 46.4316 38.1689 46.7591 37.505L46.9661 37.0896C47.0742 36.8631 47.1175 36.6082 47.0835 36.3596C47.0402 36.1142 46.9259 35.8876 46.7529 35.7114L44.3462 33.2034C44.1794 33.0209 43.9631 32.9014 43.7221 32.8573C43.4842 32.8227 43.2402 32.8667 43.027 32.9832L43.03 32.9863Z" fill="#472667"/>
</svg>
