<svg width="87" height="87" viewBox="0 0 87 87" fill="none" xmlns="http://www.w3.org/2000/svg">
<path fill-rule="evenodd" clip-rule="evenodd" d="M25.1697 9.99127H61.8299C65.8957 10.0005 69.186 13.2939 69.1983 17.3597V77.5518C69.186 81.6145 65.8926 84.9079 61.8299 84.9172H25.1697C21.1039 84.9079 17.8136 81.6145 17.8013 77.5488V17.3566C17.8136 13.2939 21.107 10.0005 25.1697 9.99127ZM43.4998 40.8707C40.9726 40.8707 38.8007 42.6564 38.3064 45.1342C37.8152 47.612 39.1405 50.0928 41.4762 51.0599C43.8087 52.0269 46.5028 51.2082 47.9054 49.1073C49.308 47.0065 49.0331 44.2073 47.2473 42.4216C46.2525 41.4268 44.9056 40.8676 43.4998 40.8707ZM46.0023 43.6636C44.8067 42.468 42.9375 42.2826 41.5319 43.2218C40.1262 44.161 39.5793 45.9591 40.2281 47.5224C40.8738 49.0826 42.5329 49.9693 44.1888 49.6387C45.8448 49.3081 47.0405 47.856 47.0405 46.1661C47.0405 45.2269 46.6666 44.3248 46.0023 43.6636ZM44.1116 38.9737L43.8984 37.6143H43.1013L42.8851 38.9768C42.8294 39.3476 42.539 39.6411 42.1683 39.7059C41.7605 39.7894 41.362 39.9129 40.9788 40.0736C40.5834 40.2373 40.2065 40.4382 39.8512 40.673C39.5453 40.8769 39.1468 40.8676 38.8533 40.6513L37.7318 39.8357L37.1726 40.3949L37.9882 41.5134L37.9851 41.5165C38.2075 41.8254 38.2075 42.2394 37.9851 42.5484C37.5247 43.2497 37.2003 44.0344 37.0335 44.8593C36.9594 45.2208 36.669 45.4957 36.3075 45.5513L34.9481 45.7676V46.5647L36.3106 46.781V46.7779C36.6813 46.8366 36.9748 47.1239 37.0366 47.4946C37.2096 48.3226 37.5371 49.1105 38.0037 49.8148C38.2076 50.1207 38.1983 50.5192 37.9851 50.8158L37.1726 51.9342L37.7318 52.4934L38.8533 51.6779C39.1592 51.4554 39.5763 51.4554 39.8821 51.6779C40.5865 52.1413 41.3713 52.4626 42.1931 52.6325C42.5546 52.7035 42.8326 52.9939 42.8882 53.3585L43.1014 54.7179H43.8985L44.1147 53.3554C44.1734 52.9816 44.4608 52.6912 44.8315 52.6263C45.2393 52.5429 45.6378 52.4193 46.024 52.2587C46.4164 52.0949 46.7933 51.8941 47.1486 51.6593C47.4545 51.4554 47.853 51.4647 48.1496 51.6778L49.2711 52.4934L49.8303 51.9342L49.0147 50.8127C48.7923 50.5069 48.7923 50.0898 49.0147 49.7839C49.4782 49.0826 49.7995 48.2979 49.9694 47.4729C50.0404 47.1115 50.3308 46.8334 50.6923 46.7778L52.0548 46.5615V45.7645L50.6923 45.5482V45.5544C50.3185 45.4957 50.025 45.2053 49.9632 44.8376C49.7902 44.0096 49.4627 43.2218 48.9961 42.5174C48.7922 42.2115 48.8015 41.813 49.0147 41.5164L49.8303 40.398L49.2711 39.8388L48.1495 40.6544V40.6513C47.8437 40.8737 47.4266 40.8737 47.1207 40.6513C46.7747 40.4258 46.4071 40.228 46.024 40.0705C45.6316 39.9067 45.2238 39.7832 44.8098 39.6966C44.4483 39.6256 44.1703 39.3352 44.1146 38.9706L44.1116 38.9737ZM45.5451 36.8358C45.4586 36.2735 44.9766 35.8595 44.4082 35.8564H42.5915C42.0231 35.8595 41.5411 36.2735 41.4515 36.8358L41.2507 38.1303C40.6112 38.3095 39.9933 38.5628 39.4125 38.8903L38.3496 38.118C37.8893 37.7843 37.2529 37.8337 36.8513 38.2354L35.5691 39.5206C35.1644 39.9222 35.115 40.5587 35.4517 41.019L36.2241 42.0818C36.0603 42.3691 35.9151 42.6688 35.7885 42.9777C35.6587 43.2836 35.5506 43.5987 35.4641 43.92L34.1727 44.1239H34.1696C33.6073 44.2104 33.1933 44.6955 33.1902 45.2639V47.0775C33.1933 47.646 33.6073 48.131 34.1696 48.2175L35.461 48.4214H35.4641C35.5506 48.7427 35.6587 49.0578 35.7854 49.3637C35.9151 49.6727 36.0603 49.9723 36.2241 50.2596L35.4517 51.3225C35.115 51.7828 35.1644 52.4192 35.5691 52.8208L36.8513 54.1061C37.2529 54.5077 37.8893 54.5571 38.3496 54.2235L39.4125 53.4511V53.448C39.7029 53.6118 39.9995 53.7601 40.3084 53.8867C40.6173 54.0134 40.9325 54.1215 41.2507 54.2111L41.4546 55.5025C41.5442 56.0648 42.0261 56.4788 42.5946 56.4819H44.4112C44.9797 56.4819 45.4617 56.0648 45.5482 55.5025L45.7521 54.2111C46.3947 54.0319 47.0126 53.7786 47.5934 53.448L48.6562 54.2204L48.6531 54.2235C49.1135 54.5572 49.7499 54.5077 50.1515 54.1061L51.4337 52.8209H51.4367C51.8384 52.4192 51.8878 51.7828 51.5541 51.3225L50.7818 50.2597C50.9455 49.9723 51.0907 49.6726 51.2174 49.3637C51.3441 49.0579 51.4522 48.7427 51.5418 48.4214L52.8332 48.2175C53.3955 48.131 53.8126 47.646 53.8126 47.0775V45.2639C53.8126 44.6955 53.3955 44.2105 52.8332 44.1239L51.5418 43.92C51.4522 43.5987 51.3441 43.2836 51.2174 42.9777C51.0907 42.6688 50.9455 42.3691 50.7818 42.0818L51.5541 41.019C51.8878 40.5586 51.8384 39.9222 51.4367 39.5206L50.1546 38.2354H50.1515C49.7499 37.8337 49.1134 37.7843 48.6531 38.118L47.5903 38.8903H47.5934C47.0095 38.5629 46.3916 38.3064 45.749 38.1303L45.5451 36.8389V36.8358ZM27.0576 43.5895H30.7155V45.2887H26.2049C25.9948 44.6059 25.5438 44.0189 24.9351 43.642C24.8888 43.608 24.8393 43.5771 24.7868 43.5555C23.3718 42.7831 21.5985 43.2805 20.7921 44.677C20.7797 44.6955 20.7705 44.7172 20.7612 44.7357H20.7581C19.9796 46.1538 20.477 47.9333 21.8765 48.7428C21.8951 48.7551 21.9167 48.7644 21.9352 48.7737H21.9383C23.3286 49.5399 25.0804 49.0733 25.9052 47.7171C25.933 47.6769 25.9577 47.6337 25.9794 47.5904C26.072 47.4143 26.1493 47.232 26.2111 47.0436H30.7217V48.7397L27.0576 48.7428C26.8228 48.7335 26.5911 48.8231 26.4211 48.9899C26.2512 49.1537 26.1524 49.3823 26.1524 49.6202C26.1524 49.8581 26.2512 50.0836 26.4211 50.2504C26.5911 50.4142 26.8228 50.5038 27.0576 50.4976H30.7155V52.1937H27.1935C26.9618 52.1937 26.7394 52.2864 26.5756 52.4532L25.3244 53.6983C24.0238 53.0093 22.4141 53.377 21.5398 54.5634C20.6654 55.7498 20.789 57.3933 21.8302 58.4375C22.8713 59.4787 24.518 59.6023 25.7013 58.728C26.8876 57.8536 27.2553 56.244 26.5664 54.9402L27.5581 53.9485H30.7156V56.6116C30.7187 57.9061 31.7629 58.9504 33.0574 58.9535H35.7143V62.1078L34.7226 63.0996C33.422 62.4106 31.8123 62.7783 30.938 63.9615C30.0636 65.1479 30.1872 66.7945 31.2284 67.8357C32.2695 68.8768 33.9162 69.0005 35.0995 68.1261C36.2858 67.2517 36.6535 65.6422 35.9646 64.3383L37.2127 63.0902C37.3796 62.9265 37.4722 62.704 37.4722 62.4692V58.9503H39.1714V62.6052C39.1714 63.0902 39.5638 63.4857 40.0489 63.4857C40.5339 63.4857 40.9263 63.0902 40.9263 62.6052V58.9503H42.6224V63.4609H42.6255C41.9396 63.671 41.3557 64.1252 40.9757 64.7338C40.9448 64.7802 40.917 64.8296 40.8954 64.879C40.123 66.2971 40.6204 68.0705 42.0169 68.8769C42.0354 68.8892 42.0571 68.8985 42.0756 68.9077C43.4937 69.6894 45.2763 69.192 46.0827 67.7893C46.095 67.7708 46.1043 67.7492 46.1136 67.7306C46.8798 66.3373 46.4133 64.5855 45.057 63.7607C45.0137 63.7328 44.9705 63.7081 44.9241 63.6896C44.7511 63.5938 44.5658 63.5166 44.3773 63.4579V58.9503H46.0734V62.6052C46.0734 63.0902 46.4689 63.4857 46.9539 63.4857C47.439 63.4857 47.8314 63.0903 47.8314 62.6052V58.9503H49.5275V62.4692H49.5305C49.5275 62.704 49.6201 62.9265 49.787 63.0933L51.0351 64.3414C50.3462 65.6421 50.7138 67.2518 51.9002 68.1261C53.0835 69.0005 54.7302 68.8769 55.7713 67.8357C56.8125 66.7945 56.9361 65.1479 56.0617 63.9646C55.1874 62.7782 53.5778 62.4106 52.2771 63.0995L51.2853 62.1078V58.9503H53.9423C55.2337 58.9472 56.281 57.903 56.2841 56.6116V53.9484H59.4416L60.4333 54.9402C59.7444 56.2408 60.112 57.8505 61.2953 58.7248C62.4816 59.6022 64.1252 59.4786 65.1694 58.4375C66.2106 57.3963 66.3342 55.7497 65.4599 54.5633C64.5855 53.38 62.9759 53.0124 61.6752 53.6982L60.4271 52.4501H60.424C60.2602 52.2832 60.0378 52.1936 59.8061 52.1936H56.2841V50.4975H59.942C60.1768 50.5037 60.4085 50.4141 60.5785 50.2504C60.7484 50.0835 60.8473 49.858 60.8473 49.6201C60.8473 49.3822 60.7484 49.1536 60.5785 48.9899C60.4086 48.823 60.1768 48.7334 59.942 48.7427H56.2841V47.0435H60.7947C61.0048 47.7294 61.4559 48.3133 62.0645 48.6902C62.1109 48.7242 62.1603 48.7551 62.2128 48.7767C63.6278 49.5491 65.4011 49.0517 66.2075 47.6552C66.2199 47.6367 66.2292 47.615 66.2384 47.5965H66.2415C67.0201 46.1784 66.5227 44.3988 65.1231 43.5894C65.1046 43.5771 65.0829 43.5678 65.0644 43.5585H65.0613C63.671 42.7923 61.9193 43.2589 61.0944 44.6151C61.0666 44.6553 61.0419 44.6985 61.0203 44.7418C60.9276 44.9179 60.8504 45.1002 60.7886 45.2886H56.2841V43.5894H59.9421C60.1769 43.5987 60.4086 43.5091 60.5785 43.3423C60.7484 43.1785 60.8473 42.9499 60.8473 42.712C60.8473 42.4741 60.7484 42.2486 60.5785 42.0818C60.4086 41.918 60.1769 41.8284 59.9421 41.8346H56.2841V40.1385H59.8061C60.0378 40.1385 60.2603 40.0458 60.424 39.879L61.6721 38.6308H61.6752C62.9759 39.3198 64.5855 38.9522 65.4599 37.7657C66.3342 36.5825 66.2106 34.9358 65.1695 33.8946C64.1283 32.8535 62.4816 32.7299 61.2984 33.6042C60.112 34.4786 59.7444 36.0882 60.4333 37.3889L59.4415 38.3806H56.2841V35.7236C56.281 34.4322 55.2337 33.3849 53.9423 33.3849H51.2853V30.2213L52.277 29.2296C53.5777 29.9185 55.1873 29.5509 56.0617 28.3645C56.936 27.1812 56.8124 25.5345 55.7713 24.4934C54.7301 23.4522 53.0834 23.3286 51.9002 24.2029C50.7138 25.0773 50.3462 26.6869 51.035 27.9876L49.7869 29.2357V29.2388C49.6201 29.4026 49.5274 29.625 49.5274 29.8598V33.3849H47.8282V29.7269C47.8282 29.2419 47.4359 28.8464 46.9508 28.8464C46.4657 28.8464 46.0733 29.2419 46.0733 29.7269V33.3849H44.3772V28.8712C45.0631 28.6611 45.647 28.2069 46.0239 27.5983C46.0579 27.5519 46.0888 27.5025 46.1135 27.4531C46.8828 26.035 46.3854 24.2616 44.9889 23.4553C44.9704 23.4429 44.9488 23.4336 44.9302 23.4244C43.5121 22.6458 41.7326 23.1432 40.9232 24.5428C40.9108 24.5613 40.9015 24.583 40.8923 24.6015C40.1261 25.9949 40.5926 27.7435 41.9519 28.5715C41.989 28.5993 42.0322 28.624 42.0755 28.6456C42.2485 28.7383 42.4339 28.8155 42.6223 28.8742V33.3849H40.9262V29.7269C40.9262 29.2419 40.5308 28.8464 40.0457 28.8464C39.5607 28.8464 39.1683 29.2419 39.1683 29.7269V33.3849H37.4691V29.8598C37.4722 29.6281 37.3795 29.4056 37.2127 29.2388L35.9645 27.9907C36.6535 26.69 36.2858 25.0804 35.0994 24.206C33.9162 23.3317 32.2695 23.4553 31.2283 24.4964C30.1872 25.5376 30.0636 27.1842 30.9379 28.3675C31.8123 29.5539 33.4218 29.9215 34.7226 29.2326L35.7143 30.2243V33.3849H33.0573C31.7628 33.3849 30.7155 34.4322 30.7155 35.7267V38.3806H27.558L26.5663 37.3889C27.2553 36.0882 26.8876 34.4816 25.7044 33.6074C24.5242 32.733 22.8775 32.8566 21.8364 33.8947C20.7952 34.9328 20.6716 36.5794 21.546 37.7627C22.4172 38.946 24.0237 39.3167 25.3244 38.6309L26.5725 39.879H26.5756C26.7393 40.0428 26.9618 40.1355 27.1935 40.1355H30.7155V41.8347H27.0575C26.8227 41.8285 26.591 41.9181 26.4211 42.0818C26.2512 42.2486 26.1523 42.4742 26.1523 42.7121C26.1523 42.95 26.2512 43.1786 26.4211 43.3423C26.591 43.5092 26.8228 43.5988 27.0576 43.5895ZM23.0721 35.1339C22.6581 35.5448 22.5902 36.1905 22.9115 36.6786C23.2359 37.1636 23.8568 37.3552 24.3975 37.1328C24.9351 36.9103 25.244 36.3388 25.1328 35.7672C25.0216 35.1925 24.518 34.7785 23.9341 34.7785C23.6097 34.7785 23.3008 34.9052 23.0722 35.1369L23.0721 35.1339ZM22.7137 56.331C22.7137 56.9119 23.1277 57.4124 23.6962 57.5266C24.2678 57.6379 24.8393 57.332 25.0618 56.7944C25.2842 56.2569 25.0958 55.639 24.6107 55.3146C24.1257 54.9933 23.4831 55.0551 23.0722 55.466C22.8405 55.6977 22.7137 56.0066 22.7137 56.331ZM22.2812 45.5857C21.9723 46.1696 22.1824 46.8926 22.7508 47.2232L22.7848 47.2448C23.3687 47.5537 24.0916 47.3436 24.4222 46.7752C24.7559 46.1913 24.5551 45.4467 23.9742 45.1068C23.3903 44.7701 22.6427 44.9709 22.3059 45.5548L22.2843 45.5888L22.2812 45.5857ZM32.4705 66.5939C32.8814 67.0048 33.5271 67.0696 34.0091 66.7453C34.4941 66.4209 34.6795 65.803 34.457 65.2654C34.2346 64.7278 33.663 64.422 33.0945 64.5363C32.523 64.6475 32.1121 65.148 32.1121 65.7319C32.1121 66.0563 32.2388 66.3653 32.4705 66.5939ZM53.6677 66.9522C54.2485 66.9522 54.749 66.5413 54.8633 65.9698C54.9745 65.3982 54.6686 64.8267 54.1311 64.6042C53.5935 64.3817 52.9756 64.5702 52.6512 65.0553C52.3299 65.5372 52.3917 66.1829 52.8026 66.5938C53.0312 66.8224 53.3432 66.9522 53.6677 66.9522ZM42.9287 67.3848C43.5095 67.6937 44.2324 67.4867 44.563 66.9152L44.5816 66.8812H44.5847C44.8936 66.2973 44.6866 65.5744 44.115 65.2438C43.5311 64.9101 42.7835 65.1078 42.4436 65.6887C42.11 66.2757 42.3108 67.0233 42.8947 67.3601L42.9287 67.3786L42.9287 67.3848ZM63.9281 57.1955C64.339 56.7815 64.4039 56.1358 64.0795 55.6508C63.7551 55.1657 63.1341 54.9803 62.5935 55.2028C62.0559 55.4283 61.75 55.9999 61.8643 56.5715C61.9786 57.143 62.4822 57.5539 63.0661 57.5539C63.3874 57.5539 63.6995 57.4272 63.9281 57.1955ZM64.2865 35.9983C64.2865 35.4144 63.8756 34.9139 63.304 34.7996C62.7325 34.6884 62.1609 34.9912 61.9384 35.5318C61.716 36.0694 61.9045 36.6873 62.3864 37.0117C62.8715 37.3361 63.5172 37.2712 63.9281 36.8603C64.1567 36.6317 64.2865 36.3196 64.2865 35.9983ZM64.719 46.7436V46.7405C65.0249 46.1566 64.8179 45.4368 64.2494 45.1031L64.2154 45.0846C63.6315 44.7756 62.9086 44.9826 62.578 45.5542C62.2444 46.1381 62.4452 46.8827 63.026 47.2225C63.6099 47.5593 64.3576 47.3585 64.6943 46.7746L64.716 46.7406L64.719 46.7436ZM54.5297 25.7379C54.1188 25.327 53.4732 25.2621 52.9912 25.5865C52.5061 25.9109 52.3208 26.5288 52.5432 27.0664C52.7657 27.6039 53.3372 27.9098 53.9057 27.7955C54.4773 27.6843 54.8882 27.1838 54.8882 26.5999C54.8882 26.2755 54.7615 25.9665 54.5297 25.7379ZM33.3326 25.3795C32.7518 25.3795 32.2513 25.7904 32.137 26.362C32.0258 26.9335 32.3316 27.5051 32.8692 27.7275C33.4068 27.95 34.0246 27.7615 34.349 27.2765C34.6704 26.7945 34.6086 26.1488 34.1977 25.7379C33.969 25.5093 33.657 25.3795 33.3326 25.3795ZM44.0779 24.947C43.494 24.638 42.7711 24.845 42.4405 25.4166L42.4219 25.4506H42.4188C42.1099 26.0345 42.32 26.7574 42.8884 27.088C43.4754 27.4216 44.22 27.2239 44.5599 26.64C44.8966 26.0561 44.6958 25.3084 44.1119 24.9716L44.0779 24.9531L44.0779 24.947ZM53.9429 35.1362H33.0581C32.7368 35.1393 32.4773 35.3989 32.4742 35.7202V56.6112C32.4773 56.9325 32.7368 57.1921 33.0581 57.1951H53.9429C54.2642 57.1921 54.5237 56.9325 54.5268 56.6112V35.7233C54.5237 35.402 54.2642 35.1425 53.9429 35.1394V35.1362ZM39.5863 16.6084H47.415C47.6498 16.6146 47.8816 16.525 48.0515 16.3613C48.2214 16.1944 48.3203 15.9658 48.3203 15.731C48.3203 15.4931 48.2214 15.2645 48.0515 15.0976C47.8816 14.9339 47.6498 14.8443 47.415 14.8505H39.5863C39.3515 14.8443 39.1198 14.9339 38.9499 15.0976C38.78 15.2645 38.6811 15.4931 38.6811 15.731C38.6811 15.9658 38.78 16.1944 38.9499 16.3613C39.1198 16.525 39.3515 16.6146 39.5863 16.6084ZM50.0999 77.888C50.0968 76.368 48.8641 75.1353 47.3409 75.1322H39.6605C38.1374 75.1322 36.9016 76.3649 36.9016 77.888C36.9016 79.4112 38.1374 80.647 39.6605 80.647H47.344H47.3409C48.8641 80.6439 50.0968 79.4112 50.0999 77.888ZM48.0484 78.5955C48.3388 78.3113 48.4253 77.8788 48.2708 77.505C48.1164 77.128 47.7487 76.884 47.3409 76.8871H39.6605C39.1043 76.8871 38.6564 77.335 38.6564 77.888C38.6564 78.4441 39.1044 78.8921 39.6605 78.8921H47.344H47.3409C47.6066 78.8921 47.863 78.784 48.0484 78.5955ZM19.5575 70.8626H67.4447V21.4679H19.5575V70.8626ZM67.4415 72.6175H19.5575V77.5483C19.5698 80.644 22.0754 83.1526 25.1711 83.1619H61.8313C64.927 83.1527 67.4326 80.644 67.445 77.5483V72.6175H67.4415ZM19.5575 19.7128H67.4447V17.3585C67.4323 14.2628 64.9267 11.7542 61.831 11.7449H25.1708C22.0751 11.7542 19.5696 14.2628 19.5572 17.3585L19.5575 19.7128Z" fill="#CB1F49"/>
</svg>
