<svg width="76" height="76" viewBox="0 0 76 76" fill="none" xmlns="http://www.w3.org/2000/svg">
<path d="M75.9998 0H70.9331V60.8H75.9998V0Z" fill="#CB1F49"/>
<path d="M60.8 70.9333H0V76H60.8V70.9333Z" fill="#CB1F49"/>
<path d="M15.2 40.5334H10.1333V65.8668H15.2V40.5334Z" fill="#CB1F49"/>
<path d="M30.4002 25.3333H25.3335V65.8666H30.4002V25.3333Z" fill="#CB1F49"/>
<path d="M45.5999 10.1333H40.5332V30.4H45.5999V10.1333Z" fill="#CB1F49"/>
<path d="M60.8001 0H55.7334V30.4H60.8001V0Z" fill="#CB1F49"/>
<path d="M50.6668 65.8666C47.6605 65.8666 44.7218 64.9751 42.2221 63.3049C39.7225 61.6347 37.7743 59.2608 36.6238 56.4833C35.4734 53.7059 35.1724 50.6497 35.7589 47.7012C36.3454 44.7527 37.793 42.0443 39.9188 39.9185C42.0445 37.7928 44.7529 36.3451 47.7014 35.7586C50.6499 35.1721 53.7062 35.4731 56.4836 36.6236C59.261 37.774 61.6349 39.7223 63.3051 42.2219C64.9753 44.7215 65.8668 47.6603 65.8668 50.6666C65.8668 54.6979 64.2654 58.564 61.4148 61.4146C58.5643 64.2651 54.6981 65.8666 50.6668 65.8666ZM50.6668 40.5332C48.6626 40.5332 46.7034 41.1275 45.037 42.241C43.3706 43.3545 42.0718 44.9371 41.3048 46.7887C40.5379 48.6403 40.3372 50.6778 40.7282 52.6435C41.1192 54.6091 42.0843 56.4147 43.5015 57.8319C44.9186 59.2491 46.7242 60.2142 48.6899 60.6052C50.6556 60.9962 52.693 60.7955 54.5447 60.0285C56.3963 59.2616 57.9789 57.9628 59.0924 56.2963C60.2058 54.6299 60.8001 52.6707 60.8001 50.6666C60.8001 47.979 59.7325 45.4016 57.8322 43.5012C55.9318 41.6008 53.3543 40.5332 50.6668 40.5332Z" fill="#CB1F49"/>
<path d="M60.0417 56.4801L56.459 60.0627L71.6495 75.2533L75.2322 71.6706L60.0417 56.4801Z" fill="#CB1F49"/>
</svg>
