<svg width="87" height="87" viewBox="0 0 87 87" fill="none" xmlns="http://www.w3.org/2000/svg">
<path d="M76.5908 47.4545C76.5908 56.5935 72.8896 64.864 66.9022 70.8512C61.063 76.6873 53.0549 80.3548 44.1944 80.5367C43.8082 80.546 43.4992 80.858 43.4992 81.2442V84.6766C43.4992 84.967 43.3355 85.2141 43.0667 85.3254C42.7979 85.4366 42.5044 85.3779 42.3005 85.174L35.9423 78.8096C35.6643 78.5377 35.6643 78.0898 35.9423 77.8117L42.3005 71.4535C42.5044 71.2496 42.7979 71.1878 43.0667 71.3021C43.3355 71.4165 43.4992 71.6605 43.4992 71.9509V75.371C43.4992 75.5656 43.5734 75.7355 43.7124 75.8746C43.8545 76.0136 44.0275 76.0785 44.2253 76.0754C51.847 75.89 58.7274 72.7202 63.7449 67.6997C68.9291 62.5186 72.1325 55.3599 72.1325 47.454C72.1325 39.548 68.9287 32.3895 63.7449 27.2083C61.709 25.1723 59.364 23.436 56.7874 22.0828C56.4228 21.8912 56.2745 21.4463 56.4537 21.0726L57.7266 18.4311C57.8162 18.2395 57.9706 18.1067 58.1746 18.0418C58.3785 17.9707 58.5793 17.9893 58.7677 18.0881C61.78 19.6545 64.5203 21.6719 66.8991 24.054C72.8865 30.0445 76.5908 38.3156 76.5908 47.4545ZM30.2143 72.819C27.6376 71.472 25.2989 69.7357 23.2567 67.6997C18.0756 62.5186 14.8715 55.3599 14.8715 47.454C14.8715 39.5481 18.0753 32.3895 23.2567 27.2083C28.2803 22.1848 35.1607 19.0184 42.7827 18.8326C42.9773 18.8233 43.1503 18.8944 43.2894 19.0334C43.4315 19.1693 43.5025 19.3423 43.5025 19.537V22.957C43.5025 23.2474 43.6725 23.4946 43.9412 23.6058C44.21 23.714 44.5004 23.6583 44.7074 23.4514L51.0656 17.0932C51.3437 16.8213 51.3437 16.3733 51.0656 16.0953L44.7074 9.73707C44.5004 9.53316 44.21 9.47137 43.9412 9.58568C43.6725 9.69381 43.5025 9.94406 43.5025 10.2345L43.4994 13.6669C43.4994 14.0469 43.1905 14.3651 42.8105 14.3743C33.9499 14.5535 25.942 18.2208 20.1027 24.0598C14.1184 30.0442 10.4141 38.3144 10.4141 47.4533C10.4141 56.5923 14.1153 64.8628 20.1027 70.85C22.4816 73.2289 25.222 75.2464 28.2309 76.8158C28.4224 76.9147 28.6201 76.9332 28.8302 76.8622C29.0341 76.7911 29.1824 76.6614 29.2782 76.4667L30.548 73.8252C30.7303 73.4607 30.582 73.0097 30.2143 72.8181L30.2143 72.819ZM43.4992 65.293C39.4767 65.293 35.8527 64.6597 33.2514 63.6339C30.996 62.7442 29.6027 61.6474 29.6027 60.5599V55.7558C30.3689 56.3026 31.3019 56.7877 32.3647 57.2047C35.2348 58.3355 39.1739 59.0399 43.5023 59.0399C47.8338 59.0399 51.7696 58.3386 54.643 57.2047C55.7058 56.7876 56.6357 56.3026 57.405 55.7558V60.5599C57.405 61.6474 56.0086 62.7442 53.7563 63.6339C51.1457 64.6597 47.5281 65.293 43.4992 65.293ZM38.7414 60.733C38.0401 60.6372 37.3635 60.5198 36.7085 60.3869C36.0443 60.2479 35.4202 60.0965 34.8455 59.9266C34.1998 59.7351 33.5232 60.1089 33.3379 60.7577C33.1525 61.4034 33.5233 62.08 34.169 62.2653C34.8239 62.4569 35.5098 62.6237 36.2142 62.772C36.9124 62.9203 37.6477 63.0439 38.417 63.1489C39.0844 63.2354 39.6961 62.7689 39.7857 62.1016C39.8753 61.4343 39.4087 60.8226 38.7414 60.733ZM54.6426 48.4897C55.7054 48.0726 56.6353 47.5845 57.4046 47.0407V51.8541C57.4046 52.9478 56.0082 54.0446 53.7559 54.9313C51.1515 55.9539 47.5306 56.5903 43.5018 56.5903C39.4793 56.5903 35.8553 55.9539 33.254 54.9313C30.9986 54.0415 29.6053 52.9447 29.6053 51.8541V47.0407C30.3715 47.5814 31.3045 48.0726 32.3673 48.4897C35.2374 49.6205 39.1765 50.3218 43.5049 50.3218C47.8302 50.3248 51.7661 49.6235 54.6426 48.4897ZM38.7414 51.9283C38.0401 51.8387 37.3635 51.7213 36.7085 51.5854C36.0443 51.4464 35.4202 51.2919 34.8455 51.122C34.1998 50.9366 33.5232 51.3073 33.3379 51.9531C33.1525 52.5988 33.5233 53.2754 34.169 53.4607C34.8239 53.6553 35.5098 53.8252 36.2142 53.9735C36.9124 54.1157 37.6477 54.2423 38.417 54.3474C39.0844 54.437 39.6961 53.9705 39.7857 53.3031C39.8753 52.6358 39.4087 52.021 38.7414 51.9283ZM57.4021 43.1421C57.4021 44.2358 56.0057 45.3325 53.7534 46.2192C51.1489 47.2419 47.5281 47.8752 43.4993 47.8752C39.4768 47.8752 35.8527 47.2419 33.2514 46.2192C30.9961 45.3295 29.6027 44.2327 29.6027 43.1421V38.2514C30.3689 38.7983 31.3019 39.2833 32.3648 39.7004C35.2349 40.8312 39.174 41.5355 43.5023 41.5355C47.8338 41.5355 51.7697 40.8342 54.6431 39.7004C55.7059 39.2833 56.6358 38.7983 57.4051 38.2514L57.4021 43.1421ZM38.7414 43.1298C38.0401 43.034 37.3635 42.9166 36.7085 42.7837C36.0443 42.6447 35.4202 42.4933 34.8455 42.3234C34.1998 42.1319 33.5232 42.5057 33.3379 43.1514C33.1525 43.8002 33.5233 44.4768 34.169 44.6653C34.8239 44.8568 35.5098 45.0237 36.2142 45.172C36.9124 45.3203 37.6477 45.4438 38.417 45.5489C39.0844 45.6354 39.6961 45.1689 39.7857 44.5016C39.8753 43.8311 39.4087 43.2194 38.7414 43.1298ZM53.7528 31.2724C51.1484 30.2498 47.5275 29.6164 43.4987 29.6164C39.4762 29.6164 35.8522 30.2498 33.2509 31.2724C30.9955 32.1622 29.6022 33.259 29.6022 34.3496C29.6022 35.4432 30.9986 36.54 33.2509 37.4267C35.8523 38.4493 39.4762 39.0858 43.4987 39.0858C47.5274 39.0858 51.1452 38.4493 53.7528 37.4267C56.0082 36.5369 57.4015 35.4401 57.4015 34.3496C57.4015 33.259 56.0051 32.1622 53.7528 31.2724Z" fill="#CB1F49"/>
</svg>
