<svg width="87" height="87" viewBox="0 0 87 87" fill="none" xmlns="http://www.w3.org/2000/svg">
<g clip-path="url(#clip0_173_326)">
<path d="M83.921 3.48273H3.08034C1.38248 3.48273 0 4.86385 0 6.56035V58.464V59.8234V66.6964C0 68.3929 1.38248 69.774 3.08034 69.774H31.6123L30.2801 79.083H24.08V83.52H62.92V79.083H56.7199L55.3877 69.774H83.921C85.6189 69.774 87 68.3929 87 66.6964V59.8234V58.464V6.56035C87 4.86385 85.6189 3.48273 83.921 3.48273ZM84.2812 58.4627H2.71875V6.56035C2.71875 6.36596 2.88459 6.20148 3.08034 6.20148H83.9224C84.1168 6.20148 84.2812 6.36596 84.2812 6.56035V58.4627Z" fill="#CB1F49"/>
<path d="M16.9785 44.1322C18.4208 44.1322 19.5899 42.9631 19.5899 41.5208C19.5899 40.0786 18.4208 38.9095 16.9785 38.9095C15.5363 38.9095 14.3672 40.0786 14.3672 41.5208C14.3672 42.9631 15.5363 44.1322 16.9785 44.1322Z" fill="#CB1F49"/>
<path d="M51.1035 44.1321C52.5458 44.1321 53.7149 42.963 53.7149 41.5208C53.7149 40.0786 52.5458 38.9094 51.1035 38.9094C49.6613 38.9094 48.4922 40.0786 48.4922 41.5208C48.4922 42.963 49.6613 44.1321 51.1035 44.1321Z" fill="#CB1F49"/>
<path d="M33.9881 19.522C31.2313 19.522 28.9883 21.7636 28.9883 24.5218C28.9883 27.28 31.2299 29.523 33.9881 29.523C36.7462 29.523 38.9892 27.28 38.9892 24.5218C38.9892 21.7636 36.7449 19.522 33.9881 19.522ZM33.9881 26.8028C32.7306 26.8028 31.707 25.7792 31.707 24.5205C31.707 23.263 32.7306 22.2394 33.9881 22.2394C35.2468 22.2394 36.2705 23.263 36.2705 24.5205C36.2705 25.7792 35.2468 26.8028 33.9881 26.8028Z" fill="#CB1F49"/>
<path d="M67.6839 14.8892C62.3728 14.8892 58.0513 19.2107 58.0513 24.5204C58.0513 26.7008 58.7881 28.7086 60.0156 30.3249L55.005 35.3791C53.8753 34.6586 52.5432 34.2277 51.1063 34.2277C49.5267 34.2277 48.0735 34.7443 46.8786 35.6007L41.6532 30.3304C42.8821 28.7127 43.6216 26.7035 43.6216 24.5204C43.6216 19.2107 39.3001 14.8892 33.989 14.8892C28.678 14.8892 24.3565 19.2107 24.3565 24.5204C24.3565 26.6845 25.0824 28.676 26.2909 30.2869L21.0804 35.4973C19.9114 34.698 18.5003 34.229 16.9792 34.229C12.9582 34.229 9.6875 37.4997 9.6875 41.5207C9.6875 45.5418 12.9582 48.8124 16.9792 48.8124C21.0002 48.8124 24.2709 45.5418 24.2709 41.5207C24.2709 40.001 23.8005 38.5899 23.0026 37.4195L28.2117 32.2104C29.8239 33.4243 31.8195 34.1529 33.989 34.1529C36.1382 34.1529 38.1175 33.4365 39.7215 32.243L44.9959 37.565C44.255 38.7068 43.8133 40.0608 43.8133 41.5207C43.8133 45.5418 47.0839 48.8124 51.1049 48.8124C55.126 48.8124 58.3966 45.5418 58.3966 41.5207C58.3966 39.9194 57.8624 38.4485 56.9829 37.2441L61.9446 32.2389C63.55 33.4352 65.5306 34.1529 67.6825 34.1529C72.9936 34.1529 77.315 29.8315 77.315 24.5204C77.3164 19.2107 72.995 14.8892 67.6839 14.8892ZM21.5535 41.5207C21.5535 44.0424 19.5022 46.0937 16.9805 46.0937C14.4589 46.0937 12.4062 44.0437 12.4062 41.5207C12.4062 38.9991 14.4575 36.9478 16.9792 36.9478C17.7445 36.9478 18.4555 37.1544 19.0903 37.4875C19.9127 37.9198 20.5802 38.5872 21.0125 39.4096C21.3455 40.0445 21.5535 40.7554 21.5535 41.5207ZM33.989 31.4342C32.5712 31.4342 31.2526 31.0019 30.1542 30.2678C29.3944 29.7594 28.7419 29.1042 28.2348 28.343C27.5048 27.2473 27.0753 25.9341 27.0753 24.5204C27.0753 20.7087 30.176 17.608 33.989 17.608C37.8021 17.608 40.9028 20.7087 40.9028 24.5204C40.9028 25.9491 40.4665 27.2786 39.7215 28.3824C39.209 29.1395 38.5484 29.7853 37.7844 30.2896C36.6928 31.0087 35.3906 31.4342 33.989 31.4342ZM51.1063 46.095C48.5847 46.095 46.5334 44.0437 46.5334 41.5221C46.5334 40.822 46.7033 40.1668 46.986 39.5728C47.281 38.9502 47.7147 38.4118 48.2435 37.985C48.2557 37.9755 48.2666 37.966 48.2788 37.9565C48.4542 37.8178 48.6404 37.69 48.8361 37.5772C49.5077 37.1884 50.2771 36.9492 51.1077 36.9492C51.7928 36.9492 52.4371 37.1109 53.0217 37.3828C53.4335 37.5745 53.8087 37.8273 54.1418 38.1264C54.1513 38.1359 54.1635 38.1427 54.173 38.1522C54.3267 38.2936 54.4694 38.4472 54.604 38.609C54.6244 38.6334 54.6447 38.6579 54.6638 38.6824C54.7984 38.8509 54.9234 39.0276 55.0335 39.2152C55.4345 39.8949 55.6806 40.6766 55.6806 41.5221C55.6792 44.0437 53.6279 46.095 51.1063 46.095ZM67.6839 31.4342C63.8708 31.4342 60.7701 28.3334 60.7701 24.5204C60.7701 20.7087 63.8708 17.608 67.6839 17.608C71.4969 17.608 74.5977 20.7087 74.5977 24.5204C74.5977 28.3334 71.4969 31.4342 67.6839 31.4342Z" fill="#CB1F49"/>
<path d="M67.6795 19.5219C64.9227 19.5219 62.6797 21.7635 62.6797 24.5217C62.6797 27.2799 64.9213 29.5228 67.6795 29.5228C70.4376 29.5228 72.6806 27.2799 72.6806 24.5217C72.6806 21.7635 70.4363 19.5219 67.6795 19.5219ZM67.6795 26.8027C66.422 26.8027 65.3984 25.7791 65.3984 24.5203C65.3984 23.2629 66.422 22.2393 67.6795 22.2393C68.9383 22.2393 69.9619 23.2629 69.9619 24.5203C69.9619 25.7791 68.9383 26.8027 67.6795 26.8027Z" fill="#CB1F49"/>
</g>
<defs>
<clipPath id="clip0_173_326">
<rect width="87" height="87" fill="white"/>
</clipPath>
</defs>
</svg>
