<svg width="87" height="87" viewBox="0 0 87 87" fill="none" xmlns="http://www.w3.org/2000/svg">
<g clip-path="url(#clip0_173_319)">
<path fill-rule="evenodd" clip-rule="evenodd" d="M36.705 62.3244V77.3984C36.6216 79.0296 35.2746 80.3118 33.6402 80.3118C32.0059 80.3118 30.6589 79.0296 30.5755 77.3984V65.3924H17.7786C15.5943 65.3924 13.824 63.6221 13.824 61.4378V46.2532C13.824 43.6333 15.9496 41.5077 18.5695 41.5077H22.5858C23.6825 41.4892 24.7361 41.9217 25.4961 42.7095L30.5196 47.7237H37.6378C39.0868 47.8009 40.2206 48.9997 40.2206 50.4486C40.2206 51.8976 39.0868 53.0963 37.6378 53.1735H29.3886C28.6688 53.1766 27.9767 52.8893 27.467 52.3826L24.81 49.7318C24.7235 49.6453 24.5968 49.6206 24.4856 49.67C24.3713 49.7164 24.3002 49.8245 24.3033 49.945V57.7367C24.3033 58.5647 24.9706 59.2351 25.7986 59.2382H33.6367C34.4522 59.2382 35.2339 59.5657 35.8117 60.1434C36.3863 60.7242 36.7081 61.5058 36.705 62.3244ZM39.9243 32.0816L37.8203 34.303H46.0782L51.1079 39.6015C51.5188 40.0525 52.1738 40.1946 52.736 39.9567C53.3076 39.7405 53.6814 39.1906 53.6783 38.5819V34.3029H55.9337H55.9306C57.4722 34.2968 58.7204 33.0517 58.7234 31.5101V19.4582C58.7234 18.7167 58.4299 18.0062 57.9047 17.484C57.3826 16.9588 56.672 16.6653 55.9305 16.6653H54.7936V27.7934C54.7936 30.1599 52.8719 32.0785 50.5053 32.0785L39.9243 32.0816ZM26.6362 27.7934V15.7384C26.6362 14.1998 27.8812 12.9517 29.4198 12.9486H50.5054C52.044 12.9517 53.289 14.1998 53.289 15.7384V27.7934C53.289 29.332 52.044 30.5801 50.5054 30.5863H39.284L34.2451 35.8847C33.8249 36.3234 33.1822 36.4625 32.62 36.24C32.0546 36.0145 31.6838 35.4707 31.6808 34.8621V30.5863H29.4192C27.8807 30.5801 26.6362 29.332 26.6362 27.7934ZM32.0304 19.458C32.015 19.6712 32.0953 19.8813 32.2467 20.0327C32.3981 20.1841 32.6082 20.2613 32.8213 20.2489H47.1439C47.5579 20.2489 47.8947 19.9122 47.8947 19.4951C47.8947 19.0811 47.5579 18.7444 47.1439 18.7444H32.781C32.3886 18.7629 32.0706 19.0657 32.0304 19.458ZM32.0304 24.0768C32.0304 24.2807 32.1138 24.4784 32.2652 24.6174C32.4135 24.7596 32.6174 24.8337 32.8213 24.8183H41.568C41.7812 24.8399 41.9913 24.7719 42.1488 24.6298C42.3064 24.4877 42.396 24.2838 42.396 24.0706C42.396 23.8605 42.3064 23.6566 42.1488 23.5145C41.9913 23.3724 41.7812 23.3013 41.568 23.3229H32.7818C32.581 23.3229 32.3894 23.4002 32.2473 23.5423C32.1083 23.6844 32.0273 23.876 32.0304 24.0768ZM47.6604 78.5538H39.3376C38.6796 78.5569 38.1451 79.0945 38.1451 79.7556V80.7596C38.1451 81.4208 38.6796 81.9584 39.3376 81.9614H47.6604C48.3184 81.9583 48.8529 81.4208 48.8529 80.7596V79.7556C48.8529 79.0944 48.3184 78.5569 47.6604 78.5538ZM56.3604 56.8505V55.8464C56.3542 55.1853 55.8166 54.6539 55.1555 54.6539H31.8419C31.1807 54.6539 30.6432 55.1853 30.637 55.8464V56.8505C30.637 57.5147 31.1777 58.0523 31.8419 58.0523H55.1555C55.4768 58.0523 55.7827 57.9256 56.0082 57.7001C56.2337 57.4745 56.3604 57.1687 56.3604 56.8505ZM45.9275 77.059V59.557H41.0708V77.059H45.9275ZM73.1672 61.448V46.2539C73.1672 43.634 71.0416 41.5084 68.4217 41.5084H64.3868C63.2993 41.4961 62.2551 41.9286 61.5013 42.7102L56.4777 47.7244H49.3596C47.9106 47.8016 46.7768 49.0004 46.7768 50.4493C46.7768 51.8983 47.9106 53.097 49.3596 53.1742H57.6087C58.3286 53.1773 59.0207 52.89 59.5304 52.3833L62.1874 49.7325C62.2739 49.646 62.4006 49.6213 62.5118 49.6707C62.6261 49.7171 62.6972 49.8252 62.6941 49.9457V57.7374C62.6941 58.5654 62.0267 59.2358 61.1988 59.2389H53.3607C51.6708 59.2389 50.2959 60.6106 50.2929 62.3006V77.399C50.3763 79.0303 51.7233 80.3124 53.3576 80.3124C54.992 80.3124 56.339 79.0303 56.4224 77.399V65.393H69.2193C71.3974 65.3899 73.161 63.6261 73.1672 61.448ZM77.1217 46.6738C75.7871 46.6738 74.7057 47.7521 74.6996 49.0837V61.4479C74.6965 64.454 72.2589 66.8885 69.2497 66.8885H62.8452C61.5075 66.8885 60.423 67.9729 60.423 69.3076C60.423 70.6453 61.5075 71.7298 62.8452 71.7298H69.9634C75.1908 71.6927 79.4203 67.4663 79.4543 62.2389V49.0837C79.4543 47.7706 78.4039 46.6955 77.0877 46.6646L77.1217 46.6738ZM61.3652 79.8208C61.1613 80.7137 61.7082 81.6096 62.598 81.8414C63.4846 82.0731 64.396 81.554 64.6556 80.6735L66.6575 73.2062H63.1355L61.3652 79.8208ZM77.0015 70.6914C76.0932 71.4514 75.0644 72.0539 73.9583 72.4802L76.1549 80.6732C76.399 81.5815 77.332 82.1221 78.2403 81.8781C79.1486 81.6371 79.6893 80.704 79.4452 79.7958L77.0015 70.6914ZM66.4358 40.3371C68.2709 40.3402 69.9269 39.2372 70.6282 37.5442C71.3326 35.8481 70.9464 33.8986 69.6488 32.601C68.3512 31.3035 66.3987 30.9173 64.7057 31.6186C63.0126 32.323 61.9096 33.979 61.9128 35.8141C61.9128 38.3104 63.9363 40.3371 66.4358 40.3371ZM24.153 66.8879H17.7794C14.7733 66.8879 12.3326 64.4534 12.3295 61.4473V49.083C12.3295 47.7484 11.2451 46.664 9.91044 46.664C8.5727 46.664 7.48828 47.7484 7.48828 49.083V62.1979C7.52536 67.4407 11.7765 71.6761 17.0195 71.6888H24.1377C25.4755 71.6888 26.5568 70.6044 26.5568 69.2666C26.5568 67.932 25.4755 66.8476 24.1377 66.8476L24.153 66.8879ZM23.8595 73.2152H20.3406L22.3425 80.6732C22.5835 81.5815 23.5165 82.1221 24.4279 81.8781C25.3362 81.6371 25.8738 80.704 25.6328 79.7958L23.8595 73.2152ZM7.5533 79.8205C7.3494 80.7134 7.89623 81.6093 8.78293 81.8411C9.6727 82.0728 10.5841 81.5537 10.8436 80.6732L13.0433 72.4549H13.0402C11.9342 72.0316 10.9054 71.426 9.99705 70.6691L7.5533 79.8205ZM20.6033 40.3368C22.4384 40.3398 24.0914 39.2369 24.7958 37.5439C25.5002 35.8478 25.1109 33.8983 23.8164 32.6007C22.5188 31.3032 20.5662 30.917 18.8732 31.6183C17.1771 32.3227 16.0741 33.9786 16.0772 35.8138C16.0772 38.3101 18.1039 40.3368 20.6033 40.3368Z" fill="#CB1F49"/>
</g>
<defs>
<clipPath id="clip0_173_319">
<rect width="87" height="87" fill="white"/>
</clipPath>
</defs>
</svg>
