<svg width="87" height="87" viewBox="0 0 87 87" fill="none" xmlns="http://www.w3.org/2000/svg">
<path d="M26.5265 20.8875C26.5265 21.5415 25.9883 22.0724 25.3253 22.0724H12.2657C11.6027 22.0724 11.0645 21.5415 11.0645 20.8875C11.0645 20.2336 11.6027 19.7027 12.2657 19.7027H25.3253C25.9883 19.7027 26.5265 20.2336 26.5265 20.8875ZM50.0305 19.7027H36.9709C36.308 19.7027 35.7697 20.2336 35.7697 20.8875C35.7697 21.5415 36.308 22.0724 36.9709 22.0724H50.0305C50.6935 22.0724 51.2317 21.5415 51.2317 20.8875C51.2317 20.2336 50.6935 19.7027 50.0305 19.7027ZM74.7317 19.7027H61.6721C61.0091 19.7027 60.4709 20.2336 60.4709 20.8875C60.4709 21.5415 61.0091 22.0724 61.6721 22.0724H74.7317C75.3947 22.0724 75.9329 21.5415 75.9329 20.8875C75.9329 20.2336 75.3947 19.7027 74.7317 19.7027ZM56.7027 55.0106V74.5769C56.7027 78.0682 48.4011 79 43.4998 79C38.5952 79 30.3006 78.0682 30.3006 74.5769V55.0106C30.3006 51.5193 38.5986 50.5875 43.4998 50.5875C48.401 50.5875 56.7027 51.5193 56.7027 55.0106ZM54.3003 57.7426C51.4701 59.0295 46.7437 59.4373 43.5 59.4373C40.2563 59.4373 35.5335 59.0294 32.7034 57.7426V61.473C33.0919 62.1164 36.6349 63.5897 43.5 63.5897C50.3651 63.5897 53.9152 62.1165 54.3003 61.473V57.7426ZM54.3003 64.2648C51.4701 65.5516 46.7437 65.9594 43.5 65.9594C40.2563 65.9594 35.5335 65.5516 32.7034 64.2648V67.9952C33.0919 68.6386 36.6349 70.1119 43.5 70.1119C50.3651 70.1119 53.9152 68.6387 54.3003 67.9952V64.2648ZM32.7463 55.0109C33.3095 55.6824 36.8454 57.0642 43.4964 57.0642C50.1476 57.0642 53.6871 55.6824 54.2501 55.0109C53.6762 54.3393 50.1367 52.9576 43.4964 52.9576C36.856 52.9576 33.3166 54.3358 32.7463 55.0109ZM54.3003 74.5213V70.7874C51.4701 72.0742 46.7437 72.4821 43.5 72.4821C40.2563 72.4821 35.5335 72.0742 32.7034 70.7874V74.5213C33.1026 75.1683 36.6492 76.6345 43.5 76.6345C50.3508 76.6345 53.9006 75.1683 54.3003 74.5213ZM41.8429 61.5123C41.8429 62.1662 42.3811 62.6972 43.0441 62.6972H43.9602C44.6232 62.6972 45.1614 62.1662 45.1614 61.5123C45.1614 60.8583 44.6232 60.3274 43.9602 60.3274H43.0441C42.3811 60.3274 41.8429 60.8583 41.8429 61.5123ZM43.9602 73.3719H43.0441C42.3811 73.3719 41.8429 73.9028 41.8429 74.5568C41.8429 75.2108 42.3811 75.7417 43.0441 75.7417H43.9602C44.6232 75.7417 45.1614 75.2108 45.1614 74.5568C45.1614 73.9028 44.6232 73.3719 43.9602 73.3719ZM41.8429 68.0346C41.8429 68.6886 42.3811 69.2195 43.0441 69.2195H43.9602C44.6232 69.2195 45.1614 68.6886 45.1614 68.0346C45.1614 67.3806 44.6232 66.8497 43.9602 66.8497H43.0441C42.3811 66.8497 41.8429 67.3806 41.8429 68.0346ZM25.325 26.8274H12.2973C11.6343 26.8274 11.0961 27.3584 11.0961 28.0123C11.0961 28.6663 11.6343 29.1972 12.2973 29.1972H25.325C25.9879 29.1972 26.5262 28.6663 26.5262 28.0123C26.5262 27.3584 25.9879 26.8274 25.325 26.8274ZM25.325 23.2658H12.2654C11.6024 23.2658 11.0642 23.7967 11.0642 24.4507C11.0642 25.1046 11.6024 25.6355 12.2654 25.6355H25.325C25.9879 25.6355 26.5262 25.1046 26.5262 24.4507C26.5262 23.7967 25.9879 23.2658 25.325 23.2658ZM25.325 16.1423H12.2654C11.6024 16.1423 11.0642 16.6733 11.0642 17.3272C11.0642 17.9812 11.6024 18.5121 12.2654 18.5121H25.325C25.9879 18.5121 26.5262 17.9812 26.5262 17.3272C26.5262 16.6733 25.9879 16.1423 25.325 16.1423ZM25.325 12.5807H17.7256C17.0626 12.5807 16.5244 13.1116 16.5244 13.7656C16.5244 14.4195 17.0626 14.9504 17.7256 14.9504H25.325C25.9879 14.9504 26.5262 14.4195 26.5262 13.7656C26.5262 13.1116 25.9879 12.5807 25.325 12.5807ZM25.325 30.3926H24.1487C23.4857 30.3926 22.9475 30.9235 22.9475 31.5775C22.9475 32.2315 23.4857 32.7624 24.1487 32.7624H25.325C25.9879 32.7624 26.5262 32.2315 26.5262 31.5775C26.5262 30.9235 25.9879 30.3926 25.325 30.3926ZM19.9035 30.3926H12.3006C11.6376 30.3926 11.0994 30.9235 11.0994 31.5775C11.0994 32.2315 11.6376 32.7624 12.3006 32.7624H19.9035C20.5665 32.7624 21.1047 32.2315 21.1047 31.5775C21.1047 30.9235 20.5665 30.3926 19.9035 30.3926ZM31.702 36.5386V12.7068C31.702 12.3939 31.8303 12.0915 32.0549 11.87L36.6387 7.34844C36.8633 7.12694 37.1698 7.00036 37.487 7.00036H54.0899C54.7528 7.00036 55.2911 7.53127 55.2911 8.18524V36.5382C55.2911 37.1922 54.7528 37.7231 54.0899 37.7231H44.6939V45.2649L45.1929 44.7058C45.6314 44.2136 46.3906 44.1679 46.8896 44.6003C47.3887 45.0328 47.435 45.7817 46.9966 46.274L44.3945 49.1887C44.1664 49.4454 43.8384 49.5896 43.4927 49.5896C43.1469 49.5896 42.819 49.4419 42.5909 49.1887L39.9924 46.274C39.554 45.7817 39.6039 45.0328 40.1029 44.6003C40.6019 44.1679 41.3611 44.2171 41.7996 44.7093L42.2915 45.2613V37.7231H32.8992C32.2362 37.7231 31.698 37.1921 31.698 36.5382L31.702 36.5386ZM52.8928 9.37013H39.7831V13.7827C39.7831 14.4366 39.2448 14.9675 38.5818 14.9675H34.1085V35.3502H52.8968L52.8928 9.37013ZM34.7142 12.5978H37.3768V9.97131L34.7142 12.5978ZM50.0303 26.8274H37.0027C36.3397 26.8274 35.8015 27.3583 35.8015 28.0122C35.8015 28.6662 36.3397 29.1971 37.0027 29.1971H50.0303C50.6933 29.1971 51.2316 28.6662 51.2316 28.0122C51.2316 27.3583 50.6933 26.8274 50.0303 26.8274ZM50.0303 23.2657H36.9707C36.3078 23.2657 35.7695 23.7966 35.7695 24.4506C35.7695 25.1045 36.3078 25.6355 36.9707 25.6355H50.0303C50.6933 25.6355 51.2316 25.1045 51.2316 24.4506C51.2316 23.7966 50.6933 23.2657 50.0303 23.2657ZM50.0303 16.1423H36.9707C36.3078 16.1423 35.7695 16.6732 35.7695 17.3271C35.7695 17.9811 36.3078 18.512 36.9707 18.512H50.0303C50.6933 18.512 51.2316 17.9811 51.2316 17.3271C51.2316 16.6732 50.6933 16.1423 50.0303 16.1423ZM42.4239 14.9504H50.0268C50.6898 14.9504 51.228 14.4194 51.228 13.7655C51.228 13.1115 50.6898 12.5806 50.0268 12.5806H42.4239C41.7609 12.5806 41.2227 13.1115 41.2227 13.7655C41.2227 14.4194 41.7609 14.9504 42.4239 14.9504ZM50.0303 30.3924H48.8541C48.1911 30.3924 47.6529 30.9233 47.6529 31.5772C47.6529 32.2312 48.1911 32.7621 48.8541 32.7621H50.0303C50.6933 32.7621 51.2316 32.2312 51.2316 31.5772C51.2316 30.9233 50.6933 30.3924 50.0303 30.3924ZM44.6053 30.3924H37.0024C36.3394 30.3924 35.8012 30.9233 35.8012 31.5772C35.8012 32.2312 36.3394 32.7621 37.0024 32.7621H44.6053C45.2683 32.7621 45.8065 32.2312 45.8065 31.5772C45.8065 30.9233 45.2683 30.3924 44.6053 30.3924ZM80 8.18525V36.5382C80 37.1922 79.4618 37.7231 78.7988 37.7231H71.1103V41.8122C71.1103 42.4662 70.5721 42.9971 69.9091 42.9971H54.1011V45.2649L54.6001 44.7058C55.0385 44.2136 55.7977 44.1679 56.2968 44.6003C56.7958 45.0328 56.8421 45.7817 56.4037 46.274L53.8017 49.1888C53.5735 49.4454 53.2456 49.5896 52.8998 49.5896C52.5541 49.5896 52.2262 49.4419 51.9981 49.1888L49.396 46.274C48.9576 45.7817 49.0039 45.0328 49.5029 44.6003C50.0019 44.1679 50.7612 44.2136 51.1996 44.7058L51.6986 45.2649V41.8122C51.6986 41.1582 52.2369 40.6273 52.8998 40.6273H68.7079V37.7231H57.6083C56.9453 37.7231 56.4071 37.1922 56.4071 36.5382V12.7064C56.4071 12.3935 56.5354 12.0911 56.76 11.8696L61.3438 7.34808C61.5684 7.12658 61.8749 7 62.1921 7H78.7949C79.4579 7 79.9962 7.53091 79.9962 8.18488L80 8.18525ZM59.4187 12.5978H62.0814V9.97131L59.4187 12.5978ZM77.5974 9.37013H64.4876V13.7827C64.4876 14.4366 63.9494 14.9675 63.2864 14.9675H58.8131V35.3502H77.6013L77.5974 9.37013ZM74.7316 26.8274H61.704C61.041 26.8274 60.5028 27.3584 60.5028 28.0123C60.5028 28.6663 61.041 29.1972 61.704 29.1972H74.7316C75.3946 29.1972 75.9328 28.6663 75.9328 28.0123C75.9328 27.3584 75.3946 26.8274 74.7316 26.8274ZM74.7316 23.2658H61.672C61.0091 23.2658 60.4708 23.7967 60.4708 24.4507C60.4708 25.1046 61.0091 25.6355 61.672 25.6355H74.7316C75.3946 25.6355 75.9328 25.1046 75.9328 24.4507C75.9328 23.7967 75.3946 23.2658 74.7316 23.2658ZM74.7316 16.1423H61.672C61.0091 16.1423 60.4708 16.6733 60.4708 17.3272C60.4708 17.9812 61.0091 18.5121 61.672 18.5121H74.7316C75.3946 18.5121 75.9328 17.9812 75.9328 17.3272C75.9328 16.6733 75.3946 16.1423 74.7316 16.1423ZM67.1287 14.9504H74.7316C75.3946 14.9504 75.9328 14.4195 75.9328 13.7656C75.9328 13.1116 75.3946 12.5807 74.7316 12.5807H67.1287C66.4658 12.5807 65.9275 13.1116 65.9275 13.7656C65.9275 14.4195 66.4658 14.9504 67.1287 14.9504ZM74.7316 30.3924H73.5553C72.8924 30.3924 72.3541 30.9234 72.3541 31.5773C72.3541 32.2313 72.8924 32.7622 73.5553 32.7622H74.7316C75.3946 32.7622 75.9328 32.2313 75.9328 31.5773C75.9328 30.9234 75.3946 30.3924 74.7316 30.3924ZM69.303 30.3924H61.7037C61.0407 30.3924 60.5025 30.9234 60.5025 31.5773C60.5025 32.2313 61.0407 32.7622 61.7037 32.7622H69.303C69.966 32.7622 70.5042 32.2313 70.5042 31.5773C70.5042 30.9234 69.966 30.3924 69.303 30.3924ZM32.8991 42.9973H20.502C19.839 42.9973 19.3008 42.4664 19.3008 41.8125V37.7233H8.20121C7.53822 37.7233 7 37.1924 7 36.5385V12.7067C7 12.3938 7.12831 12.0914 7.35288 11.8699L11.9367 7.34835C12.1613 7.12685 12.4678 7.00027 12.785 7.00027H29.3878C30.0508 7.00027 30.5891 7.53118 30.5891 8.18515V36.5381C30.5891 37.1921 30.0508 37.723 29.3878 37.723H21.6994V40.6272H34.0965C34.7595 40.6272 35.2977 41.1581 35.2977 41.8121V45.2613L35.7896 44.7092C36.228 44.217 36.9872 44.1678 37.4863 44.6003C37.9853 45.0327 38.0352 45.7816 37.5968 46.2739L34.9983 49.1887C34.7701 49.4453 34.4422 49.5895 34.0965 49.593C33.7507 49.593 33.4228 49.4453 33.1947 49.1922L30.5926 46.2774C30.1542 45.7852 30.2005 45.0363 30.6995 44.6038C31.1986 44.1713 31.9578 44.217 32.3962 44.7093L32.8953 45.2683V43.0005L32.8991 42.9973ZM10.012 12.5985H12.6746V9.97203L10.012 12.5985ZM9.40244 35.3538H28.1907V9.37076H15.0809V13.7833C15.0809 14.4373 14.5427 14.9682 13.8797 14.9682H9.40636V35.3508L9.40244 35.3538Z" fill="#CB1F49"/>
</svg>
