<svg width="87" height="87" viewBox="0 0 87 87" fill="none" xmlns="http://www.w3.org/2000/svg">
<path fill-rule="evenodd" clip-rule="evenodd" d="M50.4448 62.5873C50.4448 62.1321 50.8093 61.7611 51.2635 61.7611C51.7146 61.7611 52.0823 62.129 52.0823 62.5873V64.9382C52.0823 65.3934 51.7177 65.7644 51.2635 65.7644C50.8125 65.7644 50.4448 65.3965 50.4448 64.9382V62.5873ZM9.96288 44.2982C11.934 44.2982 13.5312 45.9101 13.5312 47.8993C13.5312 49.8884 11.934 51.5003 9.96288 51.5003C7.99177 51.5003 6.39453 49.8884 6.39453 47.8993C6.39762 45.9101 7.99486 44.2982 9.96288 44.2982ZM77.0328 44.2982C79.0039 44.2982 80.6011 45.9101 80.6011 47.8993C80.6011 49.8884 79.0039 51.5003 77.0328 51.5003C75.0617 51.5003 73.4644 49.8884 73.4644 47.8993C73.4675 45.9101 75.0647 44.2982 77.0328 44.2982ZM43.4998 78.142C45.4709 78.142 47.0681 79.7539 47.0681 81.743C47.0681 83.7322 45.4709 85.3441 43.4998 85.3441C41.5287 85.3441 39.9314 83.7322 39.9314 81.743C39.9314 79.7539 41.5287 78.142 43.4998 78.142ZM43.4998 10.4384C45.4802 10.4384 47.0867 12.0596 47.0867 14.0583C47.0867 16.0568 45.4802 17.6781 43.4998 17.6781C41.5194 17.6781 39.9129 16.0569 39.9129 14.0583C39.9129 12.0566 41.5194 10.4384 43.4998 10.4384ZM48.6191 13.6623C56.0462 14.7816 62.6949 18.3078 67.7647 23.427C72.8314 28.5434 76.3191 35.2558 77.4288 42.7546C77.299 42.7453 77.1662 42.739 77.0333 42.739C76.6379 42.739 76.2548 42.7827 75.884 42.87C74.8089 35.7582 71.4877 29.3882 66.6715 24.5249C61.8581 19.6643 55.5498 16.3094 48.502 15.2183C48.5854 14.8442 48.6317 14.4545 48.6317 14.0554C48.6317 13.9245 48.6284 13.7901 48.6191 13.6623ZM77.4288 53.0469C77.299 53.0563 77.1662 53.0625 77.0333 53.0625C76.6379 53.0625 76.2548 53.0189 75.884 52.9316C74.8089 60.0465 71.4846 66.4166 66.662 71.2798C61.8424 76.1437 55.5308 79.5017 48.4806 80.5864C48.564 80.9574 48.6104 81.3472 48.6104 81.7462C48.6104 81.8803 48.6042 82.0144 48.5949 82.1453C56.0282 81.026 62.6826 77.5029 67.7563 72.3861C72.8323 67.2635 76.3199 60.5481 77.4288 53.0469ZM38.4021 82.1393C30.9689 81.02 24.3145 77.4968 19.2408 72.3801C14.1671 67.2634 10.68 60.5481 9.57035 53.0461C9.7001 53.0555 9.83295 53.0617 9.9658 53.0617C10.3613 53.0617 10.7444 53.0181 11.1151 52.9308C12.1902 60.0457 15.5176 66.4158 20.3371 71.279C25.1566 76.1422 31.4683 79.5009 38.5185 80.5856C38.4351 80.9566 38.3887 81.3464 38.3887 81.7454C38.3856 81.8764 38.3887 82.0073 38.4011 82.1383L38.4021 82.1393ZM9.57114 42.7546C10.6802 35.2562 14.1683 28.5465 19.2353 23.427C24.3051 18.3075 30.9534 14.7813 38.3808 13.6623C38.3715 13.7932 38.3653 13.9242 38.3653 14.0582C38.3653 14.4573 38.4117 14.8471 38.4951 15.2212C31.4479 16.3124 25.139 19.6672 20.3255 24.5278C15.5091 29.3916 12.1879 35.758 11.113 42.8728C10.7454 42.7886 10.3592 42.7419 9.96377 42.7419C9.83092 42.7387 9.7009 42.7421 9.57114 42.7546ZM53.9087 61.0813C53.9087 60.6261 54.2733 60.255 54.7275 60.255C55.1785 60.255 55.5462 60.6229 55.5462 61.0813V63.454C55.5462 63.9092 55.1816 64.2802 54.7275 64.2802C54.2764 64.2802 53.9087 63.9123 53.9087 63.454V61.0813ZM50.4454 51.6342C50.4454 51.179 50.81 50.8079 51.2641 50.8079C51.7152 50.8079 52.0829 51.1758 52.0829 51.6342V53.985C52.0829 54.4402 51.7183 54.8113 51.2641 54.8113C50.8131 54.8113 50.4454 54.4434 50.4454 53.985V51.6342ZM53.9087 50.1283C53.9087 49.6731 54.2733 49.302 54.7275 49.302C55.1785 49.302 55.5462 49.6699 55.5462 50.1283V52.501C55.5462 52.9562 55.1816 53.3273 54.7275 53.3273C54.2764 53.3273 53.9087 52.9594 53.9087 52.501V50.1283ZM50.4454 40.6812V43.032C50.4454 43.4873 50.81 43.8583 51.2641 43.8583C51.7152 43.8583 52.0829 43.4904 52.0829 43.032V40.6812C52.0829 40.226 51.7183 39.855 51.2641 39.855C50.8131 39.855 50.4454 40.2229 50.4454 40.6812ZM53.9087 39.1753V41.548C53.9087 42.0032 54.2733 42.3743 54.7275 42.3743C55.1785 42.3743 55.5462 42.0064 55.5462 41.548V39.1753C55.5462 38.7201 55.1816 38.3491 54.7275 38.3491C54.2764 38.3522 53.9087 38.7201 53.9087 39.1753ZM31.0214 46.4211C32.4487 47.2255 34.3426 47.8896 36.5392 48.3417C38.6339 48.7751 41.0035 49.0183 43.4999 49.0183C47.6707 49.0183 51.4612 48.3417 54.2206 47.2505C55.5244 46.7329 56.6119 46.1156 57.4245 45.4141V53.4396C57.4245 54.6774 55.9724 55.8684 53.6275 56.7975C51.0508 57.817 47.4701 58.4468 43.4999 58.4468C40.9078 58.4468 38.4857 58.1787 36.4033 57.711C34.2993 57.2402 32.5476 56.5668 31.3211 55.7655V55.7624L31.2809 55.7343V55.7374H31.2778C30.697 55.3508 30.2459 54.9424 29.9493 54.5153C29.7053 54.163 29.5724 53.8013 29.5724 53.4396V45.4204C29.9771 45.7696 30.4529 46.097 30.9905 46.4026C31.0029 46.4119 31.0121 46.4149 31.0214 46.4211ZM57.4211 34.3305C56.6086 35.0289 55.5211 35.6493 54.2173 36.167C51.4584 37.2582 47.6676 37.9347 43.4966 37.9347C39.3258 37.9347 35.5353 37.2582 32.7758 36.167C31.472 35.6494 30.3845 35.032 29.572 34.3305V42.3561C29.572 42.7739 29.745 43.1886 30.0694 43.5939C30.4587 44.0834 31.0518 44.5479 31.818 44.9813C33.1063 45.7078 34.8364 46.3096 36.8631 46.7273C38.8373 47.1357 41.0927 47.3665 43.4993 47.3665C47.4693 47.3665 51.047 46.7367 53.6269 45.7171C55.9718 44.788 57.4239 43.5971 57.4239 42.3593V34.3305L57.4211 34.3305ZM43.4996 26.2651C39.5296 26.2651 35.9519 26.8949 33.372 27.9144C31.0271 28.8435 29.575 30.0345 29.575 31.2723C29.575 32.5101 31.027 33.7011 33.372 34.6302C35.9486 35.6497 39.5294 36.2795 43.4996 36.2795C47.4698 36.2795 51.0472 35.6497 53.6271 34.6302C55.972 33.701 57.4241 32.5101 57.4241 31.2723C57.4241 30.0345 55.9721 28.8435 53.6271 27.9144C51.0474 26.898 47.4698 26.2651 43.4996 26.2651ZM30.425 57.1413L30.3849 57.1132C30.3756 57.107 30.3663 57.1008 30.3571 57.0945C30.0728 56.9043 29.8102 56.7079 29.5754 56.5053V64.5276C29.5754 65.7654 31.0275 66.9564 33.3724 67.8855C35.9491 68.905 39.5298 69.5348 43.5 69.5348C47.4702 69.5348 51.0477 68.905 53.6276 67.8855C55.9725 66.9563 57.4246 65.7654 57.4246 64.5276V56.5021C56.6121 57.2005 55.5246 57.8209 54.2208 58.3385C51.4619 59.4297 47.6711 60.1063 43.5 60.1063C40.806 60.1063 38.2633 59.8225 36.0543 59.3268C33.7558 58.8092 31.8155 58.0579 30.4253 57.1474L30.425 57.1413Z" fill="#CB1F49"/>
</svg>
