<svg width="87" height="87" viewBox="0 0 87 87" fill="none" xmlns="http://www.w3.org/2000/svg">
<path fill-rule="evenodd" clip-rule="evenodd" d="M31.4323 29.61C30.8947 29.61 30.4591 29.1743 30.4591 28.6367C30.4591 28.0992 30.8947 27.6635 31.4323 27.6635H47.6641C48.2017 27.6635 48.6373 28.0991 48.6373 28.6367C48.6373 29.1743 48.2017 29.61 47.6641 29.61H31.4323ZM53.0961 29.2547L53.1054 29.2578C53.4606 29.3412 53.7541 29.6192 53.8376 30.0023C53.9859 30.6851 54.1929 31.3524 54.4586 31.9919C54.7181 32.6222 55.0425 33.2401 55.4225 33.8333C55.611 34.1237 55.6326 34.5068 55.4534 34.8281L55.4256 34.8775L54.644 36.277L55.5801 37.2131L56.5162 38.1523L57.9157 37.3707L57.9188 37.3676C58.2277 37.176 58.6325 37.1637 58.96 37.3738C59.5562 37.7569 60.171 38.0782 60.8013 38.3408C61.4408 38.6065 62.1081 38.8135 62.7909 38.9618C63.1307 39.036 63.4211 39.2924 63.5231 39.6508L63.5385 39.7033L63.9742 41.2388H66.625L67.0606 39.7033L67.0637 39.694C67.1471 39.3387 67.4251 39.0452 67.8052 38.9618C68.4879 38.8104 69.1552 38.6065 69.7948 38.3408C70.425 38.0813 71.0398 37.7569 71.6361 37.3738V37.3769C71.9265 37.1884 72.3096 37.1668 72.6309 37.346L72.6803 37.3738L74.0767 38.1554L75.0129 37.2162L75.949 36.2801L75.1673 34.8806L75.1643 34.8775C74.9696 34.5685 74.9573 34.1607 75.1704 33.8333C75.5535 33.237 75.8748 32.6222 76.1344 31.9919C76.4001 31.3524 76.6071 30.6851 76.7554 30.0023C76.8295 29.6625 77.0829 29.3721 77.4443 29.2701L77.4969 29.2547L79.0323 28.8191V26.1682L77.4969 25.7326L77.4876 25.7295C77.1323 25.6461 76.8388 25.3681 76.7554 24.9881C76.6071 24.3053 76.4001 23.638 76.1344 22.9984C75.8749 22.3682 75.5505 21.7503 75.1704 21.1571C74.9851 20.8667 74.9603 20.4836 75.1395 20.1623L75.1673 20.1129L75.949 18.7134L74.0767 16.8411L72.6803 17.6228L72.6772 17.6259C72.3683 17.8205 71.9636 17.8329 71.633 17.6197C71.0367 17.2397 70.4219 16.9153 69.7917 16.6526C69.1521 16.39 68.4848 16.18 67.8021 16.0317V16.0347C67.4622 15.9606 67.1718 15.7073 67.0729 15.3489L67.0575 15.2933L66.6219 13.7578H63.9711L63.5354 15.2933V15.3025C63.452 15.6578 63.174 15.9513 62.794 16.0347C62.1112 16.183 61.4439 16.39 60.8044 16.6557C60.1741 16.9152 59.5593 17.2396 58.963 17.6197C58.6726 17.8082 58.2895 17.8298 57.9682 17.6506L57.9188 17.6228L56.5193 16.8411L54.6471 18.7134L55.4287 20.1129L55.4318 20.116C55.6264 20.4249 55.6388 20.8297 55.4256 21.1602C55.0858 21.6854 54.7953 22.2323 54.5513 22.7884C54.5358 22.8378 54.5142 22.8873 54.4895 22.9305L54.4586 23.0016C54.1929 23.6411 53.9859 24.3053 53.8376 24.9912C53.7634 25.331 53.5101 25.6214 53.1517 25.7234L53.0961 25.7388L51.5545 26.1744V28.8191L53.0961 29.2547ZM52.0734 30.9848L50.3217 30.4874C49.8707 30.3607 49.5864 29.9374 49.6142 29.4895V25.4361C49.6142 24.9912 49.9139 24.6173 50.3217 24.503V24.4999L52.0734 24.0025C52.1229 23.8172 52.1754 23.6318 52.2341 23.4464L28.8928 23.4495C27.7929 23.4495 26.7951 23.8975 26.0721 24.6205C25.3491 25.3434 24.9011 26.3413 24.9011 27.4412V37.9112C26.2235 37.9576 27.5426 38.2263 28.7692 38.7175C32.2727 40.1263 35.013 43.3332 35.013 48.3287V54.9587C35.013 57.8473 33.8328 60.4735 31.9297 62.3766C31.1326 63.1736 30.2089 63.8441 29.1925 64.3538V66.2168H33.2088C35.9059 66.2168 38.3559 67.3197 40.1292 69.0962C41.9057 70.8696 43.0055 73.3227 43.0055 76.0167V81.1514H48.7798V69.5567C47.2938 68.8059 46.0332 67.6814 45.1188 66.3034C44.1147 64.7926 43.5308 62.9792 43.5308 61.0296C43.5308 59.077 44.1178 57.2605 45.128 55.7435C46.1692 54.1833 47.6552 52.9444 49.407 52.2123C49.9044 52.0053 50.4729 52.2401 50.6768 52.7375C50.7293 52.858 50.7509 52.9877 50.7509 53.1113H50.754V61.4807L53.0835 62.8246L55.413 61.4807V53.1113C55.413 52.5737 55.8486 52.1381 56.3862 52.1381C56.5437 52.1381 56.6889 52.1752 56.8218 52.2401C58.5457 52.9754 60.0101 54.2019 61.0389 55.7435C62.0491 57.2605 62.6362 59.0771 62.6362 61.0297C62.6362 62.9791 62.0522 64.7927 61.0482 66.3035C60.1368 67.6783 58.8732 68.8029 57.3902 69.5567V81.1514H61.5085C62.6083 81.1514 63.6062 80.7034 64.3292 79.9805C65.0521 79.2575 65.5001 78.2596 65.5001 77.1598V43.1847H63.2386C62.7721 43.1847 62.3797 42.8541 62.287 42.4123L61.8082 40.7193C61.2212 40.5648 60.6403 40.3671 60.0657 40.1292C59.5003 39.8944 58.9473 39.6195 58.4129 39.3105L56.8187 40.2033C56.4294 40.4196 55.9599 40.3393 55.6602 40.0396L55.6571 40.0427L52.7468 37.1324C52.4131 36.7987 52.373 36.2828 52.6263 35.9027L53.4759 34.3796C53.1639 33.8482 52.892 33.2952 52.6572 32.7299C52.4255 32.1521 52.2279 31.5718 52.0734 30.9848ZM53.0065 21.5034H28.8932C27.2558 21.5034 25.7698 22.1707 24.6946 23.2458C23.6195 24.3209 22.9522 25.807 22.9522 27.4413V38.0103C22.0284 38.1338 21.117 38.3717 20.2519 38.7209C16.7484 40.1296 14.0081 43.3365 14.0081 48.332V54.962C14.0081 57.8507 15.1883 60.4768 17.0914 62.3799C17.8885 63.177 18.8122 63.8474 19.8286 64.3571V66.2201H15.8123C13.1183 66.2201 10.6683 67.3231 8.89186 69.0995C7.1154 70.8729 6.01556 73.3228 6.01556 76.0169V82.1248C6.01556 82.6624 6.45118 83.1011 6.98878 83.1011H61.5093C63.1467 83.1011 64.6328 82.4338 65.7079 81.3556C66.7831 80.2804 67.4504 78.7944 67.4504 77.1601V43.1787C67.8396 43.1416 68.1826 42.8728 68.2938 42.4712L68.7912 40.7195C69.3782 40.565 69.9591 40.3673 70.5337 40.1294C71.099 39.8946 71.6521 39.6196 72.1865 39.3106L73.7096 40.1602C74.0865 40.4135 74.6056 40.3734 74.9393 40.0397L77.8496 37.1294L77.8465 37.1263C78.1462 36.8266 78.2234 36.354 78.0071 35.9709L77.1174 34.3767C77.4294 33.8453 77.7013 33.2923 77.9361 32.727C78.174 32.1523 78.3686 31.5715 78.5231 30.9845L80.2161 30.5056C80.6548 30.413 80.9854 30.0206 80.9854 29.5541V25.4389H80.9823C80.9823 25.0126 80.7012 24.6233 80.2717 24.5028L78.52 24.0054C78.3656 23.4184 78.1678 22.8375 77.933 22.266C77.6982 21.6976 77.4264 21.1476 77.1143 20.6132L77.9639 19.0901C78.2172 18.7131 78.177 18.1941 77.8434 17.8604L74.9331 14.9501L74.93 14.9532C74.6303 14.6535 74.1607 14.5763 73.7715 14.7926L72.1773 15.6823C71.6459 15.3703 71.0929 15.0984 70.5245 14.8636C69.9498 14.6257 69.369 14.428 68.782 14.2735L68.3031 12.5805C68.2166 12.1387 67.8243 11.8081 67.3578 11.8081H63.2395V11.8112C62.8132 11.8112 62.4239 12.0923 62.3034 12.5218L61.806 14.2735C61.219 14.428 60.6381 14.6257 60.0635 14.8636C59.4982 15.0984 58.9451 15.3702 58.4107 15.6823L56.8876 14.8327C56.5106 14.5794 55.9916 14.6196 55.6579 14.9532L52.7476 17.8635L52.7507 17.8666C52.451 18.1663 52.3738 18.639 52.5901 19.0251L53.4798 20.6193C53.313 20.9035 53.1523 21.2001 53.0071 21.5029L53.0065 21.5034ZM68.1508 22.4271L68.1724 22.4426L68.2033 22.458C69.5936 23.2613 70.5266 24.5527 70.9128 25.9893C71.299 27.429 71.1353 29.0139 70.3351 30.4041L70.332 30.4011C69.5287 31.7913 68.2374 32.7274 66.8007 33.1106C65.361 33.4967 63.7761 33.333 62.3859 32.5328V32.5297C60.9956 31.7265 60.0626 30.4351 59.6764 28.9985C59.2902 27.5619 59.4539 25.977 60.2541 24.5898L60.2572 24.5836C61.0605 23.1934 62.3519 22.2603 63.7885 21.8741C65.2097 21.4941 66.7729 21.6486 68.1477 22.421L68.1508 22.4271ZM69.2321 20.8051V20.8082C71.058 21.8803 72.2846 23.5888 72.7943 25.4888C73.3041 27.3951 73.0909 29.4959 72.0343 31.3465L72.0188 31.3774C70.9468 33.2342 69.226 34.4792 67.3074 34.9921C65.4011 35.5018 63.3003 35.2886 61.4498 34.232L61.4189 34.2166C59.5621 33.1445 58.317 31.4237 57.8042 29.5051C57.2913 27.5896 57.5076 25.4733 58.5796 23.6166L58.6105 23.5641C59.6826 21.7382 61.3911 20.5116 63.2911 20.0019C65.1974 19.489 67.2982 19.7053 69.1488 20.7619L69.1797 20.7774L69.2167 20.799L69.2321 20.8051ZM24.0388 39.8645C24.1933 39.8583 24.3508 39.8521 24.5084 39.8521C25.7257 39.8521 26.9336 40.0746 28.0459 40.5225C30.8017 41.6285 32.9675 44.1434 33.0601 48.064H23.1247L20.2638 45.4225C19.8684 45.058 19.2536 45.0858 18.889 45.4781C18.7778 45.5986 18.7036 45.7377 18.6665 45.886V45.8829L18.0826 48.061H15.9602C16.0559 44.1404 18.2186 41.6256 20.9744 40.5195C21.9043 40.1456 22.9053 39.9294 23.9187 39.8676H23.9249C23.965 39.8707 24.0017 39.8707 24.0388 39.8645ZM50.7257 81.1523V68.9399C50.7257 68.5074 50.4445 68.1397 50.0521 68.0161C48.699 67.426 47.5465 66.4559 46.7371 65.2356C45.9401 64.0338 45.4766 62.5909 45.4766 61.0339C45.4766 59.4768 45.9431 58.0278 46.7464 56.8229C47.2932 56.0042 47.9914 55.2967 48.804 54.7437V62.0411C48.804 62.4365 49.0357 62.7733 49.3725 62.9278L52.5948 64.7908C52.9099 64.97 53.2838 64.9545 53.5742 64.7815L56.8645 62.8815C57.1766 62.7023 57.3496 62.3779 57.3496 62.0412H57.3527V54.7438C58.1652 55.2968 58.8635 56.0043 59.4103 56.823C60.2135 58.0278 60.6801 59.4769 60.6801 61.0339C60.6801 62.591 60.2167 64.0339 59.4195 65.2356C58.5946 66.4776 57.4176 67.4632 56.0303 68.0471C55.6596 68.2016 55.4372 68.563 55.4372 68.9399H55.4341V81.1524L50.7257 81.1523ZM20.1246 68.1672C20.5818 69.406 21.521 70.2495 22.6302 70.6944C23.2295 70.9353 23.8722 71.0558 24.5086 71.0558C25.145 71.0558 25.7877 70.9353 26.387 70.6944C27.4961 70.2495 28.4353 69.406 28.8926 68.1672H33.2055C35.3651 68.1672 37.3269 69.0508 38.748 70.4719C40.1723 71.8962 41.0559 73.858 41.0559 76.0176V81.1523H7.96112V76.0176C7.96112 73.858 8.84472 71.8962 10.269 70.4719C11.6933 69.0477 13.655 68.1672 15.8115 68.1672H20.1246ZM21.1719 62.8347C20.1554 62.3991 19.241 61.775 18.4686 61.0026C16.9177 59.4517 15.9537 57.3138 15.9537 54.9627V50.0103H18.8269C19.2564 50.0103 19.6519 49.7229 19.7662 49.2873L20.1276 47.9434L22.04 49.7106C22.2161 49.896 22.4664 50.0103 22.7444 50.0103H33.0634V54.9627C33.0634 57.3139 32.1026 59.4518 30.5486 61.0027C29.7762 61.775 28.8617 62.3991 27.8452 62.8347L27.8205 62.8471C26.801 63.2765 25.6795 63.5175 24.5086 63.5175C23.3377 63.5175 22.2162 63.2765 21.1967 62.8471C21.1874 62.8409 21.1812 62.8378 21.1719 62.8347ZM21.7744 65.1024C22.6456 65.3403 23.5632 65.4639 24.5085 65.4639C25.4539 65.4639 26.3684 65.3372 27.2427 65.1024V66.403C27.2427 67.7068 26.5507 68.5379 25.664 68.8931C25.3056 69.0383 24.9101 69.1094 24.5085 69.1094C24.1069 69.1094 23.7115 69.0383 23.3531 68.8931C22.4664 68.5378 21.7744 67.7099 21.7744 66.403V65.1024ZM38.1826 47.7301C37.645 47.7301 37.2094 47.2945 37.2094 46.7569C37.2094 46.2193 37.645 45.7806 38.1826 45.7806H47.664C48.2016 45.7806 48.6372 46.2162 48.6372 46.7569C48.6372 47.2944 48.2016 47.7301 47.664 47.7301H38.1826ZM37.1599 43.2441C36.6223 43.2441 36.1867 42.8085 36.1867 42.2709C36.1867 41.7333 36.6223 41.2977 37.1599 41.2977H47.664C48.2016 41.2977 48.6372 41.7333 48.6372 42.2709C48.6372 42.8085 48.2016 43.2441 47.664 43.2441H37.1599ZM35.4885 38.6995C34.9509 38.6995 34.5153 38.2639 34.5153 37.7263C34.5153 37.1887 34.9509 36.753 35.4885 36.753H47.6645C48.2021 36.753 48.6377 37.1887 48.6377 37.7263C48.6377 38.2638 48.2021 38.6995 47.6645 38.6995H35.4885ZM33.2826 34.1548C32.745 34.1548 32.3094 33.7192 32.3094 33.1785C32.3094 32.641 32.745 32.2053 33.2826 32.2053H47.6645C48.202 32.2053 48.6377 32.6409 48.6377 33.1785C48.6377 33.7161 48.202 34.1548 47.6645 34.1548H33.2826Z" fill="#472667"/>
</svg>
