<svg width="100" height="100" viewBox="0 0 100 100" fill="none" xmlns="http://www.w3.org/2000/svg">
<path d="M37.4858 30.2006H51.7021C52.2161 30.2006 52.6288 29.7844 52.6288 29.2742C52.6288 28.764 52.2161 28.3479 51.7021 28.3479H37.4858C36.9754 28.3479 36.5591 28.764 36.5591 29.2742C36.5591 29.7844 36.9754 30.2006 37.4858 30.2006Z" fill="#CB1F49"/>
<path d="M37.4858 34.0866H42.6771C43.1875 34.0866 43.6038 33.6704 43.6038 33.1602C43.6038 32.65 43.1875 32.2339 42.6771 32.2339H37.4858C36.9754 32.2339 36.5591 32.65 36.5591 33.1602C36.5591 33.6704 36.9754 34.0866 37.4858 34.0866Z" fill="#CB1F49"/>
<path d="M37.4858 41.8556H48.3176C48.828 41.8556 49.2443 41.4395 49.2443 40.9293C49.2443 40.4191 48.828 40.0029 48.3176 40.0029H37.4858C36.9754 40.0029 36.5591 40.4191 36.5591 40.9293C36.5591 41.4431 36.9754 41.8556 37.4858 41.8556Z" fill="#CB1F49"/>
<path d="M37.4858 46.1215H62.3883C62.9024 46.1215 63.3151 45.7053 63.3151 45.1951C63.3151 44.6849 62.9024 44.2688 62.3883 44.2688H37.4858C36.9754 44.2688 36.5591 44.6849 36.5591 45.1951C36.5591 45.709 36.9754 46.1215 37.4858 46.1215Z" fill="#CB1F49"/>
<path d="M70.679 49.4647C70.679 48.9545 70.2663 48.5383 69.7523 48.5383H37.4868C36.9764 48.5383 36.5601 48.9545 36.5601 49.4647C36.5601 49.9749 36.9764 50.391 37.4868 50.391H69.7523C70.2663 50.391 70.679 49.9749 70.679 49.4647Z" fill="#CB1F49"/>
<path d="M37.4858 52.8013C36.9754 52.8013 36.5591 53.2174 36.5591 53.7276C36.5591 54.2378 36.9754 54.6539 37.4858 54.6539H45.841C46.3514 54.6539 46.7677 54.2378 46.7677 53.7276C46.7677 53.2174 46.3514 52.8013 45.841 52.8013H37.4858Z" fill="#CB1F49"/>
<path d="M22.2528 60.339C22.7633 60.339 23.1796 59.9265 23.1796 59.4127V15.7914H71.6529V21.7185H29.3628C28.8524 21.7185 28.4361 22.1346 28.4361 22.6448V59.4158C28.4361 59.9296 28.8524 60.3422 29.3628 60.3422C29.8732 60.3422 30.2895 59.9296 30.2895 59.4158V23.5712H78.7628V59.4158C78.7628 59.9296 79.1755 60.3422 79.6896 60.3422C80.2036 60.3422 80.6163 59.9296 80.6163 59.4158V22.6448C80.6163 22.1346 80.2036 21.7185 79.6896 21.7185H73.5064V14.8651C73.5064 14.3549 73.0938 13.9387 72.5797 13.9387H22.2529C21.7425 13.9387 21.3262 14.3549 21.3262 14.8651V59.4127C21.3262 59.9265 21.7424 60.339 22.2528 60.339Z" fill="#CB1F49"/>
<path d="M89.9887 87.6224H83.9395V64.8113H89.9887C90.5027 64.8113 90.9154 64.3988 90.9154 63.885C90.9154 63.3711 90.5027 62.9586 89.9887 62.9586H76.0328C75.5188 62.9586 75.1061 63.3711 75.1061 63.885V65.7557C72.8616 66.0669 70.2118 66.1718 69.5312 65.8027C68.8035 65.4047 67.9166 64.0442 67.1347 62.8464C66.0741 61.2217 65.0749 59.6874 63.8115 59.1012C60.977 57.7877 54.5293 57.7913 51.7129 59.1012C50.8296 59.5137 49.5408 60.6282 48.3715 61.7428H41.7829C38.5031 61.7428 36.6062 63.2915 35.0821 64.5362C34.4341 65.0645 33.873 65.5241 33.3264 65.7593C32.32 66.1935 29.0981 66.0271 26.832 65.7846V63.8813C26.832 63.3674 26.4157 62.9549 25.9052 62.9549L11.9531 62.9586C11.4427 62.9586 11.0264 63.3711 11.0264 63.8849C11.0264 64.3987 11.4427 64.8112 11.9531 64.8112H18.0022V87.6223H11.9531C11.4427 87.6223 11.0264 88.0348 11.0264 88.5487C11.0264 89.0625 11.4427 89.475 11.9531 89.475H25.9089C26.4194 89.475 26.8357 89.0625 26.8357 88.5487V87.0253H31.7445C31.7626 87.0253 31.7771 87.0181 31.7952 87.0144C32.1572 87.2316 32.5518 87.3944 32.9717 87.474C32.378 88.8128 32.617 90.4303 33.7138 91.5267C34.4017 92.2142 35.3176 92.5941 36.2877 92.5941C36.9827 92.5941 37.6416 92.3915 38.2172 92.0333C38.3728 92.6774 38.6914 93.2708 39.1692 93.7485C39.857 94.436 40.7729 94.8159 41.743 94.8159C42.2354 94.8159 42.7133 94.7182 43.1512 94.5336C43.2852 95.1524 43.5856 95.7422 44.0671 96.2235C44.7151 96.8712 45.5731 97.2258 46.489 97.2258C47.4049 97.2258 48.2629 96.8712 48.9108 96.2235L49.9353 95.1994L50.7861 95.9991C51.4811 96.6504 52.3753 97.005 53.3202 97.005H53.4432C54.4351 96.9724 55.351 96.5563 56.028 95.8362C56.5059 95.3296 56.7991 94.7145 56.933 94.0777C57.5702 94.5553 58.3304 94.8231 59.1304 94.8231C59.1739 94.8231 59.2137 94.8231 59.2535 94.8195C60.2454 94.7869 61.1613 94.3708 61.8383 93.6471C62.3017 93.155 62.6021 92.5543 62.7433 91.9102C63.413 92.4313 64.2094 92.7063 65.0131 92.7063C66.0014 92.7063 66.9897 92.3155 67.7209 91.5375C68.3979 90.8138 68.7563 89.873 68.7237 88.8815C68.702 88.2121 68.492 87.5789 68.1408 87.0289H75.1023V88.5522C75.1023 89.0661 75.5149 89.4786 76.029 89.4786H89.9848C90.4989 89.4786 90.9116 89.0661 90.9116 88.5522C90.9152 88.0384 90.5027 87.6224 89.9887 87.6224ZM24.9795 87.6224H19.8535V64.8113H24.9795V87.6224ZM37.6935 82.4009L34.9241 85.1691C34.2471 85.8421 33.0742 85.8421 32.3972 85.1691C32.0606 84.8325 31.8723 84.3838 31.8723 83.9062C31.8723 83.4285 32.057 82.9798 32.3972 82.6433L35.163 79.8787C35.4997 79.5422 35.9486 79.3541 36.4264 79.3541C36.9043 79.3541 37.3532 79.5422 37.6899 79.8787C38.0266 80.2153 38.2148 80.664 38.2148 81.1416C38.2184 81.6157 38.0302 82.0607 37.6935 82.4009ZM35.0219 90.2169C34.3268 89.5221 34.3268 88.3859 35.0219 87.6911L37.7949 84.9193C38.1315 84.5864 38.5768 84.4019 39.0547 84.4019C39.5326 84.4019 39.9814 84.5864 40.3181 84.9229C41.0132 85.6213 41.0168 86.7539 40.3181 87.4487L37.5523 90.2133C36.8754 90.8899 35.6989 90.8899 35.0219 90.2169ZM40.4809 92.435C40.1443 92.0985 39.956 91.6461 39.956 91.1721C39.956 90.6945 40.1407 90.2458 40.4773 89.9092L43.2467 87.1411C43.5834 86.8045 44.0323 86.62 44.5101 86.62C44.988 86.62 45.4369 86.8045 45.7736 87.1411C46.4686 87.8394 46.4686 88.9721 45.7772 89.6668L43.0078 92.435C42.3308 93.1116 41.1543 93.1116 40.4809 92.435ZM47.6053 94.9065C47.0116 95.4999 45.9763 95.4999 45.3826 94.9065C44.7708 94.2949 44.7708 93.2998 45.379 92.6883L47.9311 90.1373C48.228 89.8406 48.6226 89.6777 49.0425 89.6777C49.4624 89.6777 49.857 89.8406 50.1538 90.1373C50.7656 90.7524 50.7656 91.7476 50.1538 92.359L47.6053 94.9065ZM54.6789 94.5591C54.3386 94.9209 53.8825 95.1272 53.3866 95.1453C52.8689 95.1634 52.42 94.9824 52.058 94.6423L51.2471 93.886L51.4607 93.6725C52.6047 92.5291 52.7603 90.7813 51.953 89.4642L54.6102 91.9537C55.3451 92.6485 55.3776 93.8173 54.6789 94.5591ZM69.8757 85.1725C70.3246 84.5248 70.5671 83.7577 70.5381 82.9544C70.5056 81.9665 70.0892 81.0474 69.3653 80.3707L58.5085 70.1921C58.132 69.8411 57.5491 69.8628 57.1979 70.2355C56.8468 70.6082 56.8649 71.1945 57.2414 71.5455L68.0982 81.7204C68.4602 82.0605 68.6702 82.5201 68.6846 83.0158C68.6991 83.5115 68.5253 83.9819 68.1851 84.3402C67.4936 85.0747 66.3642 85.1326 65.5641 84.427L57.8244 77.1828C57.4479 76.8354 56.8614 76.8499 56.5138 77.2262C56.1627 77.5989 56.1808 78.1851 56.5573 78.5361L66.2844 87.6475C67.0301 88.3495 67.07 89.5218 66.3713 90.2673C65.669 91.0127 64.4925 91.0489 63.7503 90.3505L53.6433 80.8768C53.2668 80.5258 52.6839 80.5475 52.3328 80.9202C51.9816 81.2929 51.9997 81.8792 52.3762 82.2302L60.4128 89.7603C60.7712 90.0968 60.9776 90.5527 60.9921 91.0448C61.0065 91.5369 60.8292 92.011 60.4889 92.3728C60.1486 92.7347 59.6924 92.9446 59.1965 92.959C58.6969 92.9735 58.2335 92.7998 57.8716 92.4597L49.5236 84.6365C49.5092 84.622 49.4911 84.6184 49.4766 84.6075L48.8105 83.9851C48.6403 83.8042 48.4014 83.692 48.1335 83.692C47.6231 83.692 47.2068 84.1082 47.2068 84.6184C47.2068 84.8753 47.3118 85.1177 47.5 85.295L50.6495 88.2441C50.1571 87.98 49.6141 87.8244 49.0385 87.8244C48.7163 87.8244 48.4086 87.8823 48.1045 87.9691C48.0104 87.1875 47.681 86.4312 47.0836 85.8306C45.9035 84.651 43.9739 84.4918 42.5802 85.3385C42.4282 84.7052 42.1205 84.1046 41.6282 83.6124C41.1069 83.0914 40.4371 82.7729 39.7348 82.6463C39.9484 82.1759 40.0715 81.6692 40.0715 81.141C40.0715 80.1676 39.6914 79.2557 39.0036 78.5682C37.628 77.1932 35.2279 77.1932 33.8558 78.5682L31.0901 81.3328C30.4022 82.0203 30.0222 82.9322 30.0222 83.9055C30.0222 84.347 30.1091 84.774 30.2611 85.172H26.8365V67.6512C27.8574 67.7562 29.3597 67.8828 30.7968 67.8828C32.0964 67.8828 33.3273 67.7815 34.0621 67.4631C34.8477 67.1266 35.5319 66.5657 36.2595 65.9722C37.6895 64.8035 39.1701 63.5985 41.7874 63.5985H46.5333C46.0627 64.0942 45.726 64.4597 45.6319 64.5683C44.6871 65.4223 44.097 66.5657 43.9703 67.7816C43.8399 69.0336 44.2164 70.2168 45.0237 71.1106C45.8527 72.0189 47.0075 72.4749 48.2058 72.4749C49.3895 72.4749 50.6095 72.0298 51.5905 71.1396C51.6158 71.1179 51.6412 71.089 51.6665 71.0636C52.8069 69.7537 54.7617 67.778 55.5328 67.4813C56.007 67.3004 57.9184 67.3619 59.4063 67.5392C59.9023 67.6043 60.3765 67.2353 60.4344 66.7287C60.4924 66.2221 60.1303 65.7589 59.6235 65.701C58.7909 65.6033 55.9962 65.3174 54.8667 65.7589C53.4259 66.3125 50.8992 69.1349 50.309 69.808C49.0927 70.879 47.3442 70.9116 46.3993 69.8731C45.9468 69.3774 45.7404 68.7044 45.8164 67.9842C45.8961 67.2243 46.2726 66.5042 46.9423 65.8927C48.4663 64.2138 51.3226 61.3479 52.5027 60.7979C54.8087 59.7269 60.7167 59.7231 63.0407 60.7979C63.8226 61.1597 64.7603 62.5999 65.5892 63.8736C66.5775 65.3897 67.5115 66.8191 68.6446 67.4415C70.0203 68.1941 73.4956 67.854 75.1101 67.6441V85.1871L69.8757 85.1725ZM76.9601 64.8116H82.0861V87.6227H76.9601V64.8116Z" fill="#CB1F49"/>
</svg>
