<svg width="100" height="83" viewBox="0 0 100 83" fill="none" xmlns="http://www.w3.org/2000/svg">
<path d="M41.4341 0.694804C37.7188 0.694804 34.6765 3.73363 34.6765 7.45069V76.1742C34.6765 79.8913 37.7176 82.933 41.4341 82.933H92.8535C96.57 82.933 99.6077 79.8901 99.6077 76.1742V18.3407C99.6045 18.2093 99.5847 18.0789 99.5488 17.9525C99.5492 17.9328 99.5492 17.9132 99.5488 17.8936C99.5155 17.7747 99.4681 17.6602 99.4077 17.5525C99.3408 17.4387 99.2598 17.334 99.1665 17.2407L83.0818 1.15128C82.993 1.06535 82.8942 0.990316 82.7877 0.927746C82.7686 0.907617 82.749 0.888003 82.7288 0.868922C82.6246 0.811371 82.514 0.765975 82.3994 0.733628C82.3779 0.73318 82.3563 0.73318 82.3347 0.733628C82.2159 0.699612 82.0935 0.679866 81.97 0.674805L41.4341 0.694804ZM41.4341 3.80775H80.4106V13.1407C80.4106 16.8566 83.4494 19.8966 87.1653 19.8966H96.4953V76.1742C96.4953 78.2207 94.8977 79.8201 92.8535 79.8201H41.4341C39.39 79.8201 37.7894 78.2195 37.7894 76.1742V7.45069C37.7894 5.40539 39.3888 3.80775 41.4341 3.80775ZM83.5235 6.00951L94.2947 16.7836H87.1653C85.12 16.7836 83.5235 15.1872 83.5235 13.1407V6.00951ZM25.6082 11.2307C25.1954 11.2307 24.7996 11.3947 24.5077 11.6866C24.2158 11.9785 24.0518 12.3744 24.0518 12.7872V16.8372C21.7459 17.4372 19.5341 18.3536 17.4794 19.5619L14.6235 16.7007C14.479 16.5559 14.3073 16.441 14.1183 16.3627C13.9293 16.2843 13.7267 16.2439 13.5221 16.2439C13.3175 16.2439 13.1149 16.2843 12.9259 16.3627C12.7369 16.441 12.5652 16.5559 12.4206 16.7007L5.46 23.6742C5.16884 23.966 5.00532 24.3614 5.00532 24.7736C5.00532 25.1858 5.16884 25.5812 5.46 25.873L8.31823 28.7366C7.11118 30.796 6.19529 33.013 5.59647 35.3242H1.55647C1.14367 35.3242 0.747788 35.4882 0.455897 35.7801C0.164005 36.072 1.55531e-05 36.4679 0 36.8807V46.7448C1.55531e-05 47.1576 0.164005 47.5535 0.455897 47.8454C0.747788 48.1373 1.14367 48.3013 1.55647 48.3013H5.59647C6.19529 50.6125 7.11118 52.8295 8.31823 54.8889L5.46 57.7525C5.16866 58.0443 5.00503 58.4398 5.00503 58.8522C5.00503 59.2645 5.16866 59.66 5.46 59.9519L12.4206 66.9248C12.5652 67.0696 12.7369 67.1845 12.9259 67.2628C13.1149 67.3412 13.3175 67.3815 13.5221 67.3815C13.7267 67.3815 13.9293 67.3412 14.1183 67.2628C14.3073 67.1845 14.479 67.0696 14.6235 66.9248L17.4794 64.0636C19.5341 65.2719 21.7459 66.1889 24.0518 66.7883V70.8389C24.0518 71.2517 24.2158 71.6476 24.5077 71.9395C24.7996 72.2314 25.1954 72.3954 25.6082 72.3954H30.5029C30.7073 72.3954 30.9097 72.3552 31.0986 72.2769C31.2874 72.1987 31.459 72.0841 31.6036 71.9395C31.7481 71.795 31.8627 71.6234 31.941 71.4346C32.0192 71.2457 32.0594 71.0433 32.0594 70.8389C32.0594 70.6345 32.0192 70.4321 31.941 70.2433C31.8627 70.0544 31.7481 69.8828 31.6036 69.7383C31.459 69.5938 31.2874 69.4791 31.0986 69.4009C30.9097 69.3227 30.7073 69.2824 30.5029 69.2825H27.1641V65.556C27.1642 65.1982 27.041 64.8513 26.8152 64.5737C26.5895 64.2961 26.275 64.1048 25.9247 64.0319C23.1376 63.4554 20.4847 62.353 18.1041 60.7895C17.8049 60.5929 17.4471 60.5054 17.0909 60.5419C16.7347 60.5783 16.402 60.7364 16.1488 60.9895L13.5224 63.6207L8.76059 58.8507L11.3906 56.216C11.6428 55.963 11.8004 55.631 11.8368 55.2756C11.8732 54.9202 11.7863 54.5631 11.5906 54.2642C10.0294 51.8789 8.93118 49.2207 8.35294 46.4283C8.2804 46.0777 8.08921 45.7628 7.81158 45.5367C7.53395 45.3106 7.18686 45.1872 6.82882 45.1872H3.11176V38.436H6.82882C7.18678 38.436 7.5338 38.3126 7.81142 38.0866C8.08904 37.8607 8.28028 37.5459 8.35294 37.1954C8.92941 34.4025 10.0294 31.7442 11.5906 29.3589C11.7863 29.06 11.8732 28.7029 11.8368 28.3476C11.8004 27.9922 11.6428 27.6601 11.3906 27.4072L8.76059 24.7725L13.5224 20.0025L16.1488 22.6336C16.402 22.8868 16.7347 23.0449 17.0909 23.0813C17.4471 23.1177 17.8049 23.0303 18.1041 22.8336C20.4847 21.2707 23.1376 20.1707 25.9247 19.5913C26.275 19.5184 26.5895 19.327 26.8152 19.0494C27.041 18.7718 27.1642 18.425 27.1641 18.0672V14.3407H30.5029C30.9156 14.3407 31.3115 14.1768 31.6034 13.885C31.8952 13.5933 32.0593 13.1975 32.0594 12.7848C32.0594 12.5804 32.0192 12.378 31.941 12.1892C31.8627 12.0003 31.7481 11.8287 31.6036 11.6842C31.459 11.5397 31.2874 11.425 31.0986 11.3468C30.9097 11.2686 30.7073 11.2283 30.5029 11.2283L25.6082 11.2307ZM30.5 25.9701C21.7935 25.9701 14.7141 33.0954 14.7141 41.813C14.7141 46.0077 16.3759 50.033 19.3347 53.003C22.2935 55.973 26.31 57.6472 30.5 57.6554C30.7044 57.6558 30.9069 57.6159 31.0959 57.5381C31.2849 57.4602 31.4567 57.3459 31.6015 57.2016C31.7463 57.0574 31.8613 56.886 31.9398 56.6973C32.0184 56.5086 32.059 56.3063 32.0594 56.1019C32.0598 55.8975 32.0199 55.695 31.9421 55.506C31.8642 55.317 31.7499 55.1452 31.6056 55.0004C31.4614 54.8556 31.29 54.7406 31.1013 54.662C30.9126 54.5835 30.7103 54.5428 30.5059 54.5425C27.1412 54.5425 23.9176 53.193 21.54 50.806C19.1618 48.4195 17.8265 45.186 17.8265 41.813C17.8265 34.7724 23.4824 29.0972 30.5059 29.083C30.7103 29.0827 30.9126 29.042 31.1013 28.9635C31.29 28.8849 31.4614 28.7699 31.6056 28.6251C31.7499 28.4803 31.8642 28.3085 31.9421 28.1195C32.0199 27.9305 32.0598 27.728 32.0594 27.5236C32.059 27.3192 32.0184 27.1169 31.9398 26.9282C31.8613 26.7395 31.7463 26.5681 31.6015 26.4239C31.4567 26.2796 31.2849 26.1653 31.0959 26.0874C30.9069 26.0096 30.7044 25.9697 30.5 25.9701ZM50.1659 29.073C49.9615 29.073 49.7591 29.1133 49.5702 29.1915C49.3814 29.2697 49.2098 29.3844 49.0653 29.5289C48.9207 29.6734 48.8061 29.845 48.7279 30.0339C48.6497 30.2227 48.6094 30.4251 48.6094 30.6295C48.6094 30.8339 48.6497 31.0363 48.7279 31.2252C48.8061 31.414 48.9207 31.5856 49.0653 31.7301C49.2098 31.8747 49.3814 31.9893 49.5702 32.0675C49.7591 32.1457 49.9615 32.186 50.1659 32.186H84.1188C84.5315 32.1859 84.9273 32.0218 85.2191 31.7299C85.5108 31.438 85.6747 31.0422 85.6747 30.6295C85.6747 30.2168 85.5108 29.821 85.2191 29.5291C84.9273 29.2372 84.5315 29.0732 84.1188 29.073H50.1659ZM50.1659 46.0542C49.9615 46.0542 49.7591 46.0945 49.5702 46.1727C49.3814 46.2509 49.2098 46.3655 49.0653 46.5101C48.9207 46.6546 48.8061 46.8262 48.7279 47.015C48.6497 47.2039 48.6094 47.4063 48.6094 47.6107C48.6094 47.8151 48.6497 48.0175 48.7279 48.2063C48.8061 48.3952 48.9207 48.5668 49.0653 48.7113C49.2098 48.8558 49.3814 48.9705 49.5702 49.0487C49.7591 49.1269 49.9615 49.1672 50.1659 49.1672H84.1188C84.5315 49.167 84.9273 49.003 85.2191 48.7111C85.5108 48.4192 85.6747 48.0234 85.6747 47.6107C85.6747 47.198 85.5108 46.8022 85.2191 46.5103C84.9273 46.2184 84.5315 46.0543 84.1188 46.0542H50.1659ZM50.1659 63.0354C49.9615 63.0354 49.7591 63.0756 49.5702 63.1539C49.3814 63.2321 49.2098 63.3467 49.0653 63.4912C48.9207 63.6358 48.8061 63.8074 48.7279 63.9962C48.6497 64.1851 48.6094 64.3875 48.6094 64.5919C48.6094 64.7963 48.6497 64.9987 48.7279 65.1875C48.8061 65.3764 48.9207 65.548 49.0653 65.6925C49.2098 65.837 49.3814 65.9517 49.5702 66.0299C49.7591 66.1081 49.9615 66.1484 50.1659 66.1483H84.1188C84.5315 66.1482 84.9273 65.9842 85.2191 65.6923C85.5108 65.4004 85.6747 65.0046 85.6747 64.5919C85.6747 64.1792 85.5108 63.7833 85.2191 63.4915C84.9273 63.1996 84.5315 63.0355 84.1188 63.0354H50.1659Z" fill="#CB1F49"/>
</svg>
