<svg width="87" height="87" viewBox="0 0 87 87" fill="none" xmlns="http://www.w3.org/2000/svg">
<path d="M69.3862 38.7704C70.2975 39.4872 71.6075 39.3821 72.3953 38.5325L75.0245 35.7644V35.7613C75.4632 35.2978 75.6825 34.6676 75.6331 34.0312C75.5837 33.3947 75.2654 32.8077 74.7618 32.4153L68.7806 27.8305V14.4807C68.7775 13.1584 67.7085 12.0895 66.3863 12.0864H61.752C60.4297 12.0895 59.3608 13.1616 59.3577 14.4807V20.6103L44.8034 9.45689C43.9815 8.84209 42.8508 8.84826 42.0383 9.47234L12.8609 32.4245C12.3573 32.8169 12.0453 33.407 12.0051 34.0465C11.9618 34.686 12.1935 35.3132 12.6415 35.7735L15.3139 38.5171V38.514C16.111 39.3574 17.4241 39.4439 18.3262 38.7148L19.0769 38.1247L19.08 69.5475H15.9133C15.5858 69.5475 15.2707 69.6773 15.0389 69.909C14.8072 70.1407 14.6775 70.4558 14.6775 70.7833V76.9685C14.6775 77.296 14.8072 77.6111 15.0389 77.8428C15.2707 78.0746 15.5858 78.2043 15.9133 78.2043H71.7341C72.0616 78.2043 72.3767 78.0745 72.6084 77.8428C72.8401 77.6111 72.9699 77.296 72.9699 76.9685V70.7833C72.9699 70.4558 72.8401 70.1407 72.6084 69.909C72.3767 69.6773 72.0616 69.5475 71.7341 69.5475H68.5674V38.1429L69.3862 38.7704ZM61.7521 14.5583L66.309 14.4811V25.9366L61.8231 22.5011L61.7521 14.5583ZM16.951 36.6547L14.5783 34.2202L43.4338 11.5219L73.0684 34.2329L70.7358 36.6891L44.2309 16.3785C43.7829 16.0356 43.1588 16.0387 42.717 16.3878L16.951 36.6547ZM70.4979 75.7336H17.1487V72.02H20.3155H53.7804H70.4979L70.4979 75.7336ZM52.5451 69.5484H35.1016V55.4077C35.1016 50.5881 39.0067 46.6832 43.8229 46.6832C48.6392 46.6832 52.5443 50.5883 52.5443 55.4077L52.5451 69.5484ZM66.0957 69.5484H55.0167V55.4077C55.0105 49.2288 49.9993 44.2235 43.8237 44.2235C37.6448 44.2235 32.6363 49.2285 32.6276 55.4077V69.5484H21.5486L21.5517 36.1792L43.4899 18.9247L66.0957 36.2504L66.0957 69.5484Z" fill="#472667"/>
<path d="M47.2407 58.1137C47.2531 59.0652 48.0285 59.8284 48.977 59.8284C49.9285 59.8284 50.7009 59.0653 50.7163 58.1137C50.7009 57.1652 49.9285 56.4021 48.977 56.4021C48.0285 56.4021 47.253 57.1652 47.2407 58.1137Z" fill="#472667"/>
<path d="M55.4772 46.2311H61.2113C62.2309 46.228 63.0557 45.4031 63.0557 44.3867V39.6474C63.0557 38.6278 62.2308 37.803 61.2113 37.803H55.4772C54.4607 37.803 53.6328 38.6279 53.6328 39.6474V44.3867C53.6328 45.4031 54.4608 46.228 55.4772 46.2311ZM56.1044 40.2746H60.5842V43.7564H56.1044V40.2746Z" fill="#472667"/>
<path d="M32.1707 37.8032H26.4366C25.4171 37.8032 24.5922 38.6281 24.5922 39.6476V44.3869C24.5922 45.4034 25.4171 46.2282 26.4366 46.2313H32.1707C33.1872 46.2282 34.012 45.4033 34.0151 44.3869V39.6476C34.012 38.6281 33.1871 37.8032 32.1707 37.8032ZM31.5435 43.7597H27.0638V40.2748H31.5435V43.7597Z" fill="#472667"/>
</svg>
