<svg width="87" height="87" viewBox="0 0 87 87" fill="none" xmlns="http://www.w3.org/2000/svg">
<path d="M27.4034 55.4191C27.5919 55.6076 27.6969 55.8609 27.6969 56.1297C27.6969 56.1915 27.6969 56.2656 27.6722 56.3274C27.6568 56.3892 27.6413 56.4541 27.6166 56.5159C27.5919 56.5777 27.561 56.6333 27.5208 56.6889C27.4807 56.7445 27.4405 56.8001 27.3942 56.8403C27.2057 57.0287 26.9524 57.1338 26.6836 57.1338C26.6218 57.1338 26.5476 57.1338 26.4859 57.1091C26.4241 57.0936 26.3592 57.0782 26.2974 57.0534C26.2356 57.0287 26.18 56.9978 26.1244 56.9577C26.0688 56.9175 26.0224 56.8773 25.973 56.831C25.9267 56.7847 25.8865 56.7352 25.8463 56.6796C25.8062 56.624 25.7753 56.5684 25.7506 56.5066C25.7258 56.4448 25.7042 56.3799 25.695 56.3181C25.6795 56.2564 25.6702 56.1822 25.6702 56.1204C25.6702 56.0586 25.6702 55.9845 25.695 55.9227C25.7104 55.8609 25.7258 55.796 25.7506 55.7342C25.7753 55.6724 25.8062 55.6168 25.8463 55.5612C25.8865 55.5056 25.9267 55.4593 25.973 55.4098C26.0193 55.3635 26.0688 55.3233 26.1244 55.2832C26.18 55.243 26.2356 55.2121 26.2974 55.1874C26.3592 55.1627 26.4241 55.141 26.4859 55.1318C26.8103 55.07 27.1594 55.1719 27.3941 55.4098L27.4034 55.4191ZM57.3409 62.8308C57.9249 63.6063 58.1071 64.5794 57.8383 65.5032L55.7653 72.7481C55.3946 74.0518 54.1835 74.9633 52.8303 74.9633H40.3577L40.1847 75.3031C40.0425 75.5812 40.1538 75.816 40.2094 75.9056C40.265 75.9921 40.4226 76.1991 40.7315 76.1991H54.3652C54.9182 76.1991 55.3693 76.6501 55.3693 77.2031C55.3693 77.7561 54.9182 78.2072 54.3652 78.2072H40.7315C39.8139 78.2072 38.9766 77.7407 38.5009 76.959C38.0189 76.1774 37.9788 75.2258 38.3897 74.404L38.6585 73.8572C38.2476 72.4267 36.7522 67.19 35.535 62.9268C35.535 62.9114 35.5257 62.8866 35.5196 62.8712C35.3465 62.2687 35.1797 61.6848 35.0221 61.1318C34.8955 60.69 34.4846 60.3718 34.0181 60.3718H31.5743C31.0213 60.3718 30.5703 59.9207 30.5703 59.3677C30.5703 58.8148 31.0213 58.3637 31.5743 58.3637H34.0181C35.3713 58.3637 36.5793 59.272 36.9531 60.5789C37.0488 60.9125 37.1415 61.2524 37.2466 61.6077H54.891C55.8549 61.6077 56.7415 62.0495 57.3255 62.825L57.3409 62.8308ZM55.7344 64.0387C55.5367 63.7792 55.2278 63.6278 54.9034 63.6278H37.8276C38.878 67.3043 40.0336 71.3485 40.4939 72.9614H52.8336C53.3001 72.9614 53.7111 72.6524 53.8377 72.2014L55.9107 64.9565C55.9972 64.6413 55.9416 64.3077 55.7377 64.0388L55.7344 64.0387ZM42.9779 79.0818C42.085 79.0818 41.3559 79.811 41.3559 80.7038C41.3559 81.5967 42.085 82.3258 42.9779 82.3258C43.8707 82.3258 44.5999 81.5967 44.5999 80.7038C44.5999 79.811 43.8707 79.0818 42.9779 79.0818ZM51.14 79.0818C50.2472 79.0818 49.5181 79.811 49.5181 80.7038C49.5181 81.5967 50.2472 82.3258 51.14 82.3258C52.0329 82.3258 52.7621 81.5967 52.7621 80.7038C52.7621 79.811 52.0329 79.0818 51.14 79.0818ZM78.4509 33.512V34.3029C78.4509 36.3822 77.6446 38.344 76.1647 39.8146C74.932 41.0473 73.3564 41.8166 71.6572 42.0298V62.0865C71.6572 64.6569 69.5625 66.7516 66.9921 66.7516H65.3639C65.4041 67.3046 65.4257 67.8576 65.4257 68.4199C65.4257 71.9481 64.573 75.4423 62.9418 78.5443C62.7595 78.8842 62.4104 79.0819 62.0489 79.0819C61.8914 79.0819 61.7338 79.0417 61.5824 78.9707C61.0912 78.7112 60.9027 78.1088 61.1561 77.6175C62.6267 74.803 63.4114 71.6239 63.4114 68.4264C63.4114 57.4707 54.4979 48.5579 43.543 48.5579C38.3619 48.5579 33.4589 50.5445 29.7329 54.1407C29.3375 54.5268 28.6979 54.5114 28.3087 54.1159C27.9225 53.7205 27.9379 53.081 28.3334 52.6917C32.43 48.7279 37.8338 46.5374 43.5426 46.5374C54.3559 46.5374 63.3556 54.4156 65.1106 64.7378H66.986C68.4504 64.7378 69.643 63.5422 69.643 62.0809V42.0242C67.9901 41.8018 66.4484 41.0448 65.2126 39.8245C64.6905 39.3024 64.2394 38.7092 63.8841 38.0759C63.535 38.7 63.1025 39.2869 62.571 39.8091C61.1004 41.2797 59.1479 42.0953 57.0594 42.0953C54.149 42.0953 51.6095 40.4981 50.2749 38.1253C49.9257 38.734 49.4994 39.3025 48.9927 39.8091C47.5221 41.2797 45.5696 42.0861 43.481 42.0861C40.5707 42.0861 38.0312 40.4888 36.6965 38.1161C36.3474 38.7247 35.9211 39.2932 35.4144 39.7999C33.9438 41.2705 31.9913 42.0861 29.9027 42.0861C26.9924 42.0861 24.4529 40.4796 23.1182 38.1161C22.7691 38.7247 22.3427 39.2932 21.8361 39.7999C20.6033 41.0326 19.0277 41.8018 17.3285 42.015V62.0717C17.3285 63.5361 18.5241 64.7287 19.9855 64.7287H21.9628C22.2964 62.7514 22.9051 60.8359 23.7732 59.01C24.0111 58.5126 24.6105 58.2994 25.111 58.5342C25.6084 58.7721 25.8216 59.3715 25.5868 59.872C24.3139 62.5444 23.6651 65.4176 23.6651 68.4051C23.6651 70.8025 24.1007 73.1907 24.938 75.4213L25.9174 72.8509C26.1151 72.3287 26.6928 72.0754 27.2149 72.2731C27.737 72.4709 27.9904 73.0486 27.7927 73.5707L26.0131 78.2544C25.9575 78.5479 25.7752 78.8167 25.491 78.965C25.3396 79.0453 25.182 79.0762 25.0245 79.0762H25.009H24.9998C24.8267 79.0762 24.6506 79.0298 24.5023 78.9402L19.5282 76.0763C19.0463 75.7982 18.8795 75.1834 19.1575 74.7076C19.4356 74.2256 20.0504 74.0588 20.5262 74.3369L22.8896 75.7055C22.0678 73.373 21.6415 70.9045 21.6415 68.4143C21.6415 67.852 21.6662 67.299 21.7033 66.746H19.9701C17.3996 66.746 15.305 64.6513 15.305 62.0809V42.0242C13.6522 41.8018 12.1104 41.0448 10.884 39.8245C9.38252 38.3292 8.52051 36.2747 8.52051 34.177V33.4664C8.52051 31.3717 9.11369 29.3388 10.2383 27.5747L18.4471 14.6979C19.2936 13.3756 20.7333 12.5847 22.2997 12.5847H64.4868C66.044 12.5847 67.4774 13.3602 68.324 14.6639L76.6594 27.5407C77.8148 29.3203 78.4235 31.3841 78.4235 33.5035L78.4509 33.512ZM76.4396 33.512C76.4396 31.7788 75.9422 30.0951 75 28.6399L66.6646 15.7631C66.1888 15.034 65.3917 14.5921 64.5205 14.5921H22.3271C21.4496 14.5921 20.6433 15.0339 20.1675 15.7785L11.9587 28.6553C11.041 30.095 10.5499 31.7633 10.5499 33.4718V34.1824C10.5499 35.7488 11.1987 37.2904 12.3202 38.4057C13.4108 39.4901 14.835 40.0833 16.3365 40.0833H16.3828C17.9091 40.0678 19.3487 39.4654 20.4239 38.3902C21.5145 37.2996 22.1169 35.8445 22.1169 34.2997V30.5676C22.1169 30.0856 22.466 29.6747 22.9171 29.5882C22.9789 29.5728 23.053 29.5635 23.1241 29.5635C23.1951 29.5635 23.26 29.5635 23.3311 29.5882C23.7883 29.684 24.1312 30.0856 24.1312 30.5676V34.2997C24.1312 37.488 26.7264 40.0802 29.9117 40.0802C31.4533 40.0802 32.9085 39.4777 34.0022 38.3871C35.0928 37.2966 35.6952 35.8414 35.6952 34.2966V30.5645C35.6952 30.0115 36.1463 29.5604 36.6993 29.5604C37.2523 29.5604 37.7033 30.0115 37.7033 30.5645V34.2966C37.7033 37.485 40.2985 40.0771 43.4838 40.0771C45.0254 40.0771 46.4806 39.4746 47.5743 38.3841C48.6648 37.2935 49.2673 35.8383 49.2673 34.2936V30.5614C49.2673 30.0084 49.7183 29.5574 50.2713 29.5574C50.8243 29.5574 51.2754 30.0084 51.2754 30.5614V34.2936C51.2754 37.4819 53.8705 40.074 57.0558 40.074C58.5975 40.074 60.0527 39.4715 61.1463 38.381C62.2369 37.2904 62.8394 35.8352 62.8394 34.2905V30.5583C62.8394 30.0764 63.1885 29.6655 63.6395 29.579C63.7013 29.5635 63.7755 29.5542 63.8465 29.5542C63.9176 29.5542 63.9825 29.5542 64.0535 29.579C64.5108 29.6747 64.8537 30.0764 64.8537 30.5583V34.173C64.8537 35.7394 65.5025 37.2749 66.624 38.3963C67.7146 39.4807 69.1481 40.0801 70.6403 40.0801H70.6805C72.2159 40.0708 73.6556 39.4715 74.7308 38.3871C75.8214 37.2965 76.4238 35.8413 76.4238 34.2966V33.5057L76.4396 33.512Z" fill="#472667"/>
</svg>
