<svg width="87" height="87" viewBox="0 0 87 87" fill="none" xmlns="http://www.w3.org/2000/svg">
<path d="M68.4138 69.5565H11.5364C9.04934 69.5534 7.02881 67.5329 7.02881 65.0459V24.4193C7.02881 21.9292 9.04934 19.9086 11.5364 19.9086H57.0943C57.7369 19.9303 58.2497 20.4586 58.2497 21.1042C58.2497 21.7469 57.7369 22.2783 57.0943 22.2999H11.5364C10.9741 22.2999 10.4365 22.5254 10.038 22.9209C9.64253 23.3194 9.41699 23.8601 9.41699 24.4223V65.0489C9.42008 66.2199 10.3685 67.1653 11.5364 67.1653H68.4138C69.5848 67.1653 70.5332 66.2137 70.5332 65.0459V33.3478C70.5548 32.7021 71.0862 32.1924 71.7288 32.1924C72.3745 32.1924 72.9029 32.7021 72.9245 33.3478V65.0459C72.9245 67.5329 70.9039 69.5534 68.4138 69.5565Z" fill="#CB1F49"/>
<path d="M71.7286 60.2578H8.22409C7.56294 60.2578 7.02539 59.7202 7.02539 59.059C7.02539 58.401 7.56296 57.8665 8.22409 57.8665H71.7286C72.3897 57.8665 72.9242 58.401 72.9242 59.059C72.9242 59.7202 72.3897 60.2578 71.7286 60.2578Z" fill="#CB1F49"/>
<path d="M67.4005 60.2578C66.7393 60.2578 66.2018 59.7202 66.2018 59.0591V37.4143C66.2265 36.7717 66.7548 36.2588 67.4005 36.2588C68.0431 36.2588 68.5745 36.7717 68.5961 37.4143V59.0591C68.5961 59.3773 68.4694 59.6832 68.2439 59.9056C68.0214 60.1311 67.7156 60.2578 67.4005 60.2578ZM12.562 60.2578H12.5589C12.2438 60.2578 11.9379 60.1311 11.7155 59.9056C11.4899 59.6831 11.3633 59.3773 11.3633 59.0591V30.1972C11.3664 27.3549 13.665 25.0501 16.5073 25.0409H53.6642C54.3068 25.0625 54.8196 25.5939 54.8196 26.2365C54.8196 26.8822 54.3068 27.4105 53.6642 27.4352H16.5073C14.9841 27.4352 13.7483 28.671 13.7483 30.1972V59.0591C13.7483 59.3773 13.6217 59.6832 13.3992 59.9056C13.1737 60.1311 12.8709 60.2578 12.5527 60.2578H12.562Z" fill="#CB1F49"/>
<path d="M53.2842 35.6091H47.0837C46.441 35.5875 45.9282 35.0592 45.9282 34.4135C45.9282 33.7708 46.4411 33.2394 47.0837 33.2178H53.2842C53.6086 33.2055 53.9238 33.326 54.1586 33.5515C54.3934 33.777 54.5231 34.0891 54.5231 34.4134C54.5231 34.7378 54.3934 35.0499 54.1586 35.2754C53.9238 35.5009 53.6087 35.6214 53.2842 35.6091Z" fill="#CB1F49"/>
<path d="M59.1638 41.1028H47.0843C46.4231 41.1028 45.8887 40.5652 45.8887 39.9041C45.8887 39.246 46.4232 38.7115 47.0843 38.7115H59.1638C59.825 38.7115 60.3595 39.246 60.3595 39.9041C60.3595 40.5652 59.825 41.1028 59.1638 41.1028Z" fill="#CB1F49"/>
<path d="M59.1642 46.5893H47.0846C46.442 46.5645 45.9292 46.0362 45.9292 45.3906C45.9292 44.7479 46.4421 44.2165 47.0846 44.1949H59.1642C59.8068 44.2166 60.3196 44.748 60.3196 45.3906C60.3196 46.0363 59.8068 46.5646 59.1642 46.5862V46.5893Z" fill="#CB1F49"/>
<path d="M59.1642 52.0766H47.0846C46.442 52.055 45.9292 51.5267 45.9292 50.881C45.9292 50.2384 46.4421 49.707 47.0846 49.6854H59.1642C59.8068 49.707 60.3196 50.2384 60.3196 50.881C60.3196 51.5267 59.8068 52.055 59.1642 52.0766Z" fill="#CB1F49"/>
<path d="M30.3447 79.0166C29.9493 79.0166 29.5754 78.8188 29.3561 78.4883C29.1337 78.1577 29.0904 77.7406 29.2387 77.3729L33.0882 67.9097V67.9066C33.3385 67.298 34.0367 67.0014 34.6484 67.2516C35.2571 67.5019 35.5536 68.2001 35.3034 68.8088L31.4508 78.272C31.2685 78.7231 30.8328 79.0166 30.3447 79.0166Z" fill="#CB1F49"/>
<path d="M49.5987 79.0166C49.1136 79.0197 48.6749 78.7231 48.4927 78.272L44.6432 68.8088C44.5227 68.5153 44.5258 68.1878 44.6493 67.8943C44.7729 67.6039 45.0046 67.3722 45.2981 67.2517C45.9098 67.0015 46.608 67.2981 46.8584 67.9067L50.7079 77.3699V77.373C50.955 77.9847 50.6615 78.6798 50.0498 78.9301C49.9077 78.9888 49.7531 79.0197 49.5987 79.0166Z" fill="#CB1F49"/>
<path d="M52.5401 84.1511H27.4129C25.516 84.0615 24.0269 82.5014 24.0269 80.6013C24.0269 78.7044 25.516 77.1411 27.4129 77.0515H52.5401C54.4339 77.141 55.9261 78.7043 55.9261 80.6013C55.9261 82.5013 54.4339 84.0615 52.5401 84.1511ZM27.4129 79.4458C26.7734 79.4458 26.2544 79.9649 26.2544 80.6044C26.2544 81.2439 26.7734 81.7629 27.4129 81.7629H52.5401C53.1796 81.7629 53.6955 81.2439 53.6955 80.6044C53.6955 79.9648 53.1796 79.4458 52.5401 79.4458H27.4129Z" fill="#CB1F49"/>
<path d="M66.6958 38.6185H64.5703C64.252 38.6185 63.9493 38.4918 63.7237 38.2663C63.5013 38.0408 63.3746 37.738 63.3746 37.4198V35.7144L61.0884 34.7567L59.5066 35.9307C59.0339 36.2768 58.382 36.2335 57.9619 35.8257L55.3451 33.2614C54.9404 32.866 54.8693 32.2388 55.1752 31.7599L56.3152 29.9835L55.4192 27.7158H53.6644C53.3462 27.7158 53.0434 27.5891 52.8179 27.3636C52.5954 27.1411 52.4688 26.8353 52.4688 26.5202V22.751C52.4688 22.1547 52.9044 21.6512 53.4945 21.5646L55.7807 21.2341L56.5531 19.0714L55.2122 17.5267L55.2153 17.5298C54.8013 17.054 54.826 16.3403 55.2709 15.8985L57.8352 13.3404V13.3373C58.2677 12.9079 58.9506 12.8708 59.4232 13.2477L61.2398 14.6874L63.3654 13.6741L63.4828 11.8667H63.4859C63.5261 11.2395 64.0482 10.7514 64.6784 10.7483H66.3714H66.3684C67.0141 10.773 67.5238 11.3013 67.5238 11.947C67.5238 12.5896 67.014 13.121 66.3684 13.1426H65.7999L65.7072 14.5329C65.6825 14.9654 65.423 15.3485 65.0306 15.5338L61.5982 17.1774C61.1873 17.3752 60.6961 17.3196 60.3377 17.0353L58.7713 15.7995L57.7517 16.8191L58.8207 18.0549H58.8238C59.1049 18.3793 59.1914 18.8334 59.0462 19.2412L57.7919 22.7324C57.6405 23.1464 57.2729 23.443 56.8373 23.5048L54.86 23.789V25.3214H56.2287C56.7199 25.3214 57.1617 25.6211 57.3409 26.0814L58.759 29.6776C58.898 30.0329 58.8578 30.4345 58.6508 30.7589L57.7116 32.2295L58.9042 33.3974L60.211 32.4273H60.2079C60.5477 32.1739 60.9957 32.1214 61.385 32.2851L65.0368 33.8114H65.0337C65.4786 33.9967 65.769 34.4323 65.769 34.9112V36.2211H66.6959V36.2242C67.0203 36.2118 67.3354 36.3323 67.5702 36.5579C67.8051 36.7834 67.9348 37.0954 67.9348 37.4198C67.9348 37.7442 67.805 38.0562 67.5702 38.2817C67.3354 38.5072 67.0203 38.6278 66.6958 38.6185Z" fill="#CB1F49"/>
<path d="M67.8694 38.6185H65.7438C65.1012 38.5938 64.5884 38.0655 64.5884 37.4198C64.5884 36.7772 65.1012 36.2458 65.7438 36.2242H66.6707V34.9111C66.6707 34.4292 66.9611 33.9935 67.406 33.8082L71.0578 32.282C71.4501 32.1183 71.895 32.1739 72.2349 32.4241L73.5417 33.3942L74.7342 32.2264L73.7889 30.7558L73.7858 30.7589C73.5788 30.4376 73.5386 30.0328 73.6776 29.6775L75.0927 26.0813H75.0957C75.2749 25.6241 75.7167 25.3244 76.2079 25.3213H77.5766V23.7889L75.6055 23.5047C75.1699 23.4429 74.8022 23.1463 74.6509 22.7323L73.3903 19.2412H73.3934C73.242 18.8303 73.3316 18.3699 73.622 18.0425L74.691 16.8067L73.6684 15.7871L72.1051 17.0229H72.1081C71.7498 17.3133 71.2585 17.3751 70.8414 17.1774L67.4121 15.54C67.0198 15.3546 66.7572 14.9715 66.7324 14.539L66.6397 13.1487H66.0713C65.4256 13.1271 64.9158 12.5957 64.9158 11.9531C64.9158 11.3074 65.4256 10.7791 66.0713 10.7575H67.7643H67.7612C68.3915 10.7575 68.9136 11.2456 68.9537 11.8759L69.0711 13.6833L71.1998 14.6966L73.0133 13.2569L73.0164 13.2538C73.4891 12.8738 74.175 12.914 74.6044 13.3434L77.1749 15.9046C77.6198 16.3495 77.6445 17.0601 77.2305 17.5359L75.8897 19.0806L76.662 21.2433L78.9482 21.5739C79.5383 21.6573 79.974 22.1639 79.974 22.7571V26.5201C79.974 26.8383 79.8473 27.1442 79.6248 27.3666C79.3993 27.5922 79.0965 27.7188 78.7783 27.7188H77.0204L76.1275 29.9865L77.2706 31.763H77.2675C77.5765 32.2388 77.5054 32.869 77.1007 33.2644L74.4839 35.8287C74.0637 36.2365 73.4118 36.2798 72.9392 35.9338L71.3574 34.7597L69.0681 35.7144V37.4136C69.0681 37.7318 68.9445 38.0376 68.719 38.2632C68.4934 38.4887 68.1907 38.6185 67.8694 38.6185Z" fill="#CB1F49"/>
<path d="M66.2204 32.1615C63.1989 32.1615 60.4709 30.3387 59.3154 27.5459C58.1569 24.753 58.7964 21.5368 60.9343 19.3987C63.0723 17.2607 66.2884 16.6213 69.0846 17.7767C71.8775 18.9352 73.6972 21.6602 73.6972 24.6848C73.6941 28.8124 70.348 32.1585 66.2204 32.1615ZM66.2204 19.5995C64.1659 19.5995 62.3092 20.8384 61.5213 22.7385C60.7366 24.6385 61.1691 26.8259 62.6243 28.281C64.0794 29.7361 66.2668 30.1718 68.1668 29.3839C70.0668 28.5992 71.3058 26.7425 71.3058 24.6879V24.6848C71.2996 21.8826 69.0257 19.6088 66.2204 19.6026V19.5995Z" fill="#CB1F49"/>
<path d="M41.4514 64.5269H38.4948C37.8522 64.5052 37.3394 63.9769 37.3394 63.3313C37.3394 62.6886 37.8522 62.1572 38.4948 62.1356H41.4514C41.7758 62.1233 42.091 62.2438 42.3258 62.4693C42.5606 62.6948 42.6904 63.0069 42.6904 63.3312C42.6904 63.6556 42.5606 63.9677 42.3258 64.1932C42.091 64.4187 41.7759 64.5392 41.4514 64.5269Z" fill="#CB1F49"/>
<path d="M39.7434 52.351H21.5651C20.9225 52.3294 20.4097 51.798 20.4097 51.1554C20.4097 50.5097 20.9225 49.9814 21.5651 49.9567H39.7434C40.3891 49.9814 40.8988 50.5097 40.8988 51.1554C40.8988 51.798 40.389 52.3295 39.7434 52.351Z" fill="#CB1F49"/>
<path d="M32.9524 45.9747C32.5477 45.9747 32.1707 45.7677 31.9514 45.431C31.729 45.0911 31.695 44.6648 31.8587 44.2941L36.564 33.6571H36.5609C36.8328 33.0516 37.5403 32.7828 38.1427 33.0516C38.7483 33.3204 39.0202 34.0279 38.7483 34.6334L34.0461 45.2616C33.8545 45.6972 33.4251 45.9747 32.9524 45.9747Z" fill="#CB1F49"/>
<path d="M38.4024 45.9748C38.0007 45.9686 37.6269 45.7616 37.4106 45.4248C37.1944 45.0881 37.1604 44.6617 37.321 44.2941L42.0232 33.6571C42.1406 33.3482 42.3785 33.101 42.6844 32.9713C42.9902 32.8446 43.3332 32.8508 43.6359 32.9836C43.9356 33.1196 44.1704 33.3729 44.2785 33.6849C44.3867 33.997 44.3589 34.3399 44.2044 34.6334L39.5022 45.2616C39.3076 45.6973 38.8781 45.9779 38.4024 45.9748Z" fill="#CB1F49"/>
<path d="M23.048 45.5018C22.7298 45.5018 22.427 45.3751 22.2015 45.1496L17.3572 40.3053C16.8907 39.8388 16.8907 39.0818 17.3572 38.6123L22.2046 33.768H22.2015C22.4271 33.5393 22.7329 33.4096 23.0511 33.4065C23.3724 33.4034 23.6783 33.5301 23.9038 33.7587C24.1324 33.9842 24.256 34.2901 24.256 34.6114C24.2529 34.9296 24.1231 35.2354 23.8945 35.461L19.8967 39.4588L23.8945 43.4597C24.2344 43.8026 24.3363 44.3154 24.151 44.7634C23.9656 45.2083 23.53 45.5018 23.048 45.5018Z" fill="#CB1F49"/>
<path d="M29.808 45.5018C29.4929 45.5018 29.187 45.3751 28.9646 45.1496L24.1203 40.3052H24.1172C23.8947 40.0797 23.7681 39.7769 23.7681 39.4587C23.7681 39.1436 23.8947 38.8378 24.1172 38.6122L28.9646 33.7679C29.4311 33.3014 30.188 33.3014 30.6545 33.7679C31.1241 34.2344 31.1241 34.9914 30.6545 35.4609L26.6629 39.4587L30.6638 43.4596C31.0036 43.8026 31.1056 44.3154 30.9202 44.7634C30.7379 45.2083 30.3023 45.5018 29.8173 45.5018L29.808 45.5018Z" fill="#CB1F49"/>
</svg>
