<svg width="87" height="87" viewBox="0 0 87 87" fill="none" xmlns="http://www.w3.org/2000/svg">
<path d="M75.4298 12.7905H11.5702C9.12021 12.7905 7.11826 14.7832 7.11826 17.2425V61.8482C7.11826 64.3074 9.12021 66.3001 11.5702 66.3001H34.3895L31.921 75.9887H29.0663C27.7069 75.9887 26.6071 77.0948 26.6071 78.448V79.6498C26.6071 81.0092 27.7131 82.109 29.0663 82.109H57.9345C59.2939 82.109 60.3937 81.003 60.3937 79.6498V78.4573C60.3937 77.0978 59.2877 75.998 57.9345 75.998H55.0798L52.6113 66.3094H75.4306C77.8898 66.3094 79.8825 64.3074 79.8825 61.8574V17.2422C79.8825 14.783 77.8806 12.7903 75.4306 12.7903L75.4298 12.7905ZM11.5702 14.2673H75.4203C77.0577 14.2673 78.3955 15.5958 78.3955 17.2425V56.5997L8.60406 56.5966V17.2425C8.60406 15.6051 9.93279 14.2673 11.5702 14.2673ZM58.9132 78.4575V79.6593C58.9132 80.1968 58.4776 80.6387 57.9339 80.6387H29.0657C28.5281 80.6387 28.0863 80.203 28.0863 79.6593V78.4575C28.0863 77.9199 28.5281 77.4781 29.0657 77.4781H57.9339C58.4714 77.4843 58.9132 77.9199 58.9132 78.4575ZM53.5437 75.9982H33.4562L35.9247 66.3096H51.0785L53.5437 75.9982ZM75.4297 64.8235H11.5701C9.93271 64.8235 8.59497 63.495 8.59497 61.8576V58.0915H78.3832V61.8576C78.3956 63.4857 77.0671 64.8235 75.4297 64.8235ZM15.2494 38.2972C16.5718 38.2972 17.6685 37.3951 18.0022 36.1778H29.9774V36.7617C29.9774 37.4723 30.484 38.0748 31.1791 38.2014L32.6899 38.4794C32.9278 39.3259 33.2677 40.1478 33.7032 40.9232L32.832 42.1806C32.4273 42.7645 32.4983 43.5492 32.9988 44.0559L33.4097 44.4668L28.4109 49.4656H23.8941C23.5605 48.2483 22.4637 47.3462 21.1414 47.3462C19.5596 47.3462 18.2774 48.6283 18.2774 50.2101C18.2774 51.792 19.5596 53.0741 21.1414 53.0741C22.4637 53.0741 23.5604 52.172 23.8941 50.9547H28.7199C28.9177 50.9547 29.1061 50.8744 29.2421 50.7323L34.454 45.5203L34.8649 45.9312C35.3623 46.4286 36.1532 46.4997 36.7402 46.0981L37.9976 45.2268C38.7638 45.6624 39.5887 46.0023 40.4414 46.2401L40.7194 47.7509C40.8461 48.446 41.4547 48.9527 42.1591 48.9527H44.8161C45.5267 48.9527 46.1292 48.446 46.2558 47.7509L46.5338 46.2401C47.3803 46.0022 48.2022 45.6624 48.9776 45.2268L50.235 46.0981C50.8189 46.5028 51.6036 46.4317 52.1103 45.9312L52.5212 45.5203L57.7331 50.7323C57.8752 50.8744 58.0575 50.9547 58.2553 50.9547H63.0811C63.4147 52.172 64.5115 53.0741 65.8338 53.0741C67.4156 53.0741 68.6978 51.792 68.6978 50.2101C68.6978 48.6283 67.4156 47.3462 65.8338 47.3462C64.5115 47.3462 63.4147 48.2483 63.0811 49.4656H58.5643L53.5655 44.4668L53.9764 44.0559C54.4738 43.5585 54.5448 42.7676 54.1432 42.1806L53.2719 40.9232C53.7076 40.157 54.0474 39.3321 54.2853 38.4794L55.7961 38.2014C56.4912 38.0747 56.9978 37.4661 56.9978 36.7617V36.1778H68.973C69.3067 37.3951 70.4034 38.2972 71.7258 38.2972C73.3076 38.2972 74.5897 37.015 74.5897 35.4332C74.5897 33.8514 73.3076 32.5693 71.7258 32.5693C70.4034 32.5693 69.3067 33.4714 68.973 34.6887H57.0168V34.1047C57.0168 33.3942 56.5102 32.7917 55.815 32.6651L54.3042 32.387C54.0664 31.5405 53.7265 30.7187 53.2909 29.9433L54.1622 28.6859C54.5669 28.102 54.4959 27.3172 53.9954 26.8105L53.5845 26.3996L58.5832 21.4009H63.1C63.4337 22.6181 64.5305 23.5203 65.8528 23.5203C67.4346 23.5203 68.7168 22.2381 68.7168 20.6563C68.7168 19.0745 67.4346 17.7923 65.8528 17.7923C64.5305 17.7923 63.4337 18.6944 63.1 19.9117H58.2742C58.0765 19.9117 57.8881 19.9921 57.7521 20.1342L52.5402 25.3461L52.1293 24.9352C51.6319 24.4378 50.841 24.3667 50.254 24.7684L48.9966 25.6396C48.2211 25.204 47.3993 24.8642 46.5528 24.6263L46.2748 23.1155C46.1481 22.4204 45.5395 21.9137 44.8351 21.9137H42.1781C41.4675 21.9137 40.865 22.4204 40.7384 23.1155L40.4604 24.6263C39.6138 24.8642 38.792 25.2041 38.0166 25.6396L36.7592 24.7684C36.1753 24.3636 35.3905 24.4347 34.8839 24.9352L34.473 25.3461L29.2611 20.1342C29.1189 19.9921 28.9367 19.9117 28.7389 19.9117H23.9131C23.5794 18.6944 22.4827 17.7923 21.1604 17.7923C19.5785 17.7923 18.2964 19.0745 18.2964 20.6563C18.2964 22.2381 19.5785 23.5203 21.1604 23.5203C22.4827 23.5203 23.5794 22.6181 23.9131 21.4009H28.4299L33.4287 26.3996L33.0178 26.8105C32.5204 27.3079 32.4493 28.0989 32.851 28.6859L33.7222 29.9433C33.2866 30.7094 32.9468 31.5343 32.7089 32.387L31.1981 32.6651C30.503 32.7917 29.9963 33.4004 29.9963 34.1047V34.6887H18.003C17.6693 33.4714 16.5726 32.5693 15.2502 32.5693C13.6684 32.5693 12.3863 33.8514 12.3863 35.4332C12.3863 37.015 13.6746 38.2972 15.2502 38.2972H15.2494ZM21.1473 51.5821C20.3872 51.5821 19.7724 50.9642 19.7724 50.2072C19.7724 49.4472 20.3903 48.8324 21.1473 48.8324C21.9073 48.8324 22.5221 49.4503 22.5221 50.2072C22.5252 50.9673 21.9073 51.5821 21.1473 51.5821ZM65.8518 48.8293C66.6118 48.8293 67.2266 49.4472 67.2266 50.2042C67.2266 50.9642 66.6087 51.579 65.8518 51.579C65.0918 51.579 64.477 50.9611 64.477 50.2042C64.4739 49.4472 65.0918 48.8293 65.8518 48.8293ZM71.7496 34.0551C72.5096 34.0551 73.1245 34.673 73.1245 35.43C73.1245 36.19 72.5066 36.8048 71.7496 36.8048C70.9896 36.8048 70.3748 36.1869 70.3748 35.43C70.3748 34.673 70.9927 34.0551 71.7496 34.0551ZM65.8518 19.281C66.6118 19.281 67.2266 19.8989 67.2266 20.6558C67.2266 21.4158 66.6087 22.0306 65.8518 22.0306C65.0918 22.0306 64.477 21.4127 64.477 20.6558C64.4739 19.9081 65.0918 19.281 65.8518 19.281ZM21.1473 22.043C20.3872 22.043 19.7724 21.4251 19.7724 20.6681C19.7724 19.9081 20.3903 19.2933 21.1473 19.2933C21.9073 19.2933 22.5221 19.9112 22.5221 20.6681C22.5252 21.4158 21.9073 22.043 21.1473 22.043ZM31.4631 34.1202L32.9645 33.8421C33.5176 33.7401 33.9624 33.3447 34.1107 32.7979C34.3177 32.0533 34.6174 31.3334 34.9974 30.663C35.2755 30.1718 35.2507 29.5725 34.9264 29.1121L34.0551 27.8548L35.915 25.9949L37.1724 26.8661C37.6389 27.1905 38.232 27.2152 38.7233 26.9372C39.3968 26.5572 40.1166 26.2575 40.8581 26.0505C41.4049 25.8991 41.8066 25.4573 41.9023 24.9043L42.1804 23.4028H44.8064L45.0845 24.9043C45.1864 25.4573 45.5819 25.9022 46.1287 26.0505C46.8733 26.2575 47.5932 26.5572 48.2635 26.9372C48.7548 27.2152 49.3541 27.1905 49.8144 26.8661L51.0718 25.9949L52.9317 27.8548L52.0605 29.1121C51.7361 29.5787 51.7113 30.1718 51.9894 30.663C52.3694 31.3365 52.6691 32.0564 52.8761 32.7979C53.0275 33.3447 53.4693 33.7463 54.0223 33.8421L55.5237 34.1202V36.7462L54.0223 37.0243C53.4693 37.1262 53.0244 37.5217 52.8761 38.0685C52.6691 38.8131 52.3694 39.5329 51.9894 40.2033C51.7114 40.6945 51.7361 41.2939 52.0605 41.7542L52.9317 43.0116L51.0718 44.8715L49.8268 43.9972C49.3603 43.6728 48.7671 43.648 48.2759 43.9261C47.6024 44.3061 46.8825 44.6058 46.1411 44.8128C45.5942 44.9642 45.1926 45.406 45.0968 45.959L44.8188 47.4604H42.1927L41.9147 45.959C41.8127 45.4059 41.4173 44.9611 40.8704 44.8128C40.1259 44.6058 39.406 44.3061 38.7356 43.9261C38.2444 43.648 37.645 43.6728 37.1847 43.9972L35.9273 44.8684L34.0674 43.0085L34.9387 41.7511C35.2631 41.2846 35.2878 40.6915 35.0098 40.2002C34.6297 39.5267 34.3301 38.8069 34.1231 38.0654C33.9717 37.5186 33.5299 37.117 32.9769 37.0212L31.4754 36.7431L31.4785 34.1202H31.4631ZM15.2494 34.0553C16.0095 34.0553 16.6243 34.6732 16.6243 35.4301C16.6243 36.1901 16.0064 36.8049 15.2494 36.8049C14.4894 36.8049 13.8746 36.187 13.8746 35.4301C13.8715 34.6732 14.4894 34.0553 15.2494 34.0553ZM43.4999 41.8068C47.0127 41.8068 49.8674 38.9521 49.8674 35.4394C49.8674 31.9266 47.0127 29.0719 43.4999 29.0719C39.9872 29.0719 37.1325 31.9266 37.1325 35.4394C37.1325 38.9429 39.9872 41.8068 43.4999 41.8068ZM43.4999 30.5522C46.1971 30.5522 48.3875 32.7426 48.3875 35.4398C48.3875 38.1369 46.1971 40.3273 43.4999 40.3273C40.8028 40.3273 38.6123 38.1369 38.6123 35.4398C38.6123 32.7426 40.8028 30.5522 43.4999 30.5522Z" fill="#472667"/>
</svg>
