<svg width="80" height="80" viewBox="0 0 80 80" fill="none" xmlns="http://www.w3.org/2000/svg">
<path d="M55.339 63.1787C47.0875 67.925 35.7417 68.4127 24.327 63.5415C15.0847 59.6262 7.41598 52.7725 2.5 44.9417C4.85967 46.8995 7.61258 48.4663 10.5621 49.836C22.3503 55.3375 34.136 54.9608 42.43 49.85C30.6315 40.8435 20.5907 29.0815 13.1187 19.4887C11.545 17.9222 10.3651 15.9642 9.1853 14.2021C18.2306 22.4254 32.5858 32.8017 37.6973 35.74C26.8838 24.383 17.2477 10.2867 17.6402 10.6776C34.7482 27.9075 50.6768 37.6975 50.6768 37.6975C51.2038 37.9935 51.6105 38.2397 51.9375 38.46C52.2822 37.5868 52.5845 36.68 52.8392 35.74C55.592 25.7545 52.4468 14.3975 45.5635 5C61.4905 14.5938 70.9303 32.6063 66.9962 47.683C66.8938 48.0898 66.7822 48.4912 66.662 48.8855C74.5265 58.6757 72.502 69.221 71.519 67.2633C67.2525 58.9502 59.3545 61.4922 55.339 63.1787Z" fill="url(#paint0_linear_129_430)"/>
<defs>
<linearGradient id="paint0_linear_129_430" x1="37.5258" y1="5" x2="37.5258" y2="67.5033" gradientUnits="userSpaceOnUse">
<stop stop-color="#F88A36"/>
<stop offset="1" stop-color="#FD2020"/>
</linearGradient>
</defs>
</svg>
