<svg width="416" height="82" viewBox="0 0 416 82" fill="none" xmlns="http://www.w3.org/2000/svg">
<path d="M24.9744 32.8087V45.3717C24.9744 48.84 26.2819 51.8007 28.8978 54.2547C31.5138 56.7082 34.6699 57.9352 38.3671 57.9352V67.3574C31.8798 67.3574 26.3518 65.2152 21.7831 60.9289C17.2139 56.6431 14.9298 51.4573 14.9298 45.3717V10.8225H24.9744V23.386H38.3671V32.8087H24.9744Z" fill="#472667"/>
<path d="M77.9685 36.4892C75.3526 34.0352 72.1954 32.8087 68.4998 32.8087C64.8025 32.8087 61.6464 34.0352 59.0305 36.4892C58.1585 37.3072 57.4433 38.1745 56.8858 39.0897H80.1132C79.5552 38.1745 78.8394 37.3072 77.9685 36.4892ZM59.0305 54.2547C61.6464 56.7082 64.8025 57.9352 68.4998 57.9352C72.1954 57.9352 75.3526 56.7082 77.9685 54.2547L78.0211 54.2054L85.1353 60.8801L85.0832 60.9289C80.514 65.2152 74.9865 67.3574 68.4998 67.3574C62.0125 67.3574 56.4845 65.2152 51.9158 60.9289C47.3466 56.6431 45.063 51.4573 45.063 45.3717C45.063 39.2866 47.3466 34.1013 51.9158 29.815C56.4845 25.5296 62.0125 23.386 68.4998 23.386C74.9865 23.386 80.514 25.5296 85.0832 29.815C89.6519 34.1013 91.9365 39.2866 91.9365 45.3717C91.9365 46.4191 91.8314 47.466 91.6226 48.5129H88.588H55.5257C56.0832 50.6719 57.2518 52.5861 59.0305 54.2547Z" fill="#472667"/>
<path d="M138.653 60.9289C134.084 65.2152 128.557 67.3574 122.07 67.3574C115.583 67.3574 110.055 65.2152 105.486 60.9289C100.917 56.6426 98.6326 51.4573 98.6326 45.3717C98.6326 39.2866 100.917 34.1013 105.486 29.815C110.055 25.5296 115.583 23.386 122.07 23.386C128.557 23.386 134.084 25.5296 138.653 29.815L138.705 29.8643L131.591 36.538L131.539 36.4892C128.923 34.0352 125.766 32.8087 122.07 32.8087C118.372 32.8087 115.217 34.0352 112.601 36.4892C109.985 38.9432 108.677 41.9043 108.677 45.3717C108.677 48.84 109.985 51.8007 112.601 54.2547C115.217 56.7082 118.372 57.9352 122.07 57.9352C125.766 57.9352 128.923 56.7082 131.539 54.2547L131.591 54.2054L138.705 60.8796L138.653 60.9289Z" fill="#472667"/>
<path d="M152.201 45.3717V67.3574H142.156V10.823H152.201V27.2633C156.072 24.6791 160.536 23.386 165.594 23.386C172.08 23.386 177.608 25.5296 182.177 29.815C186.746 34.1013 189.03 39.2866 189.03 45.3717V67.3574H178.986V45.3717C178.986 41.9048 177.678 38.9432 175.062 36.4892C172.446 34.0352 169.289 32.8087 165.594 32.8087C161.896 32.8087 158.74 34.0352 156.124 36.4892C153.508 38.9432 152.201 41.9048 152.201 45.3717Z" fill="#472667"/>
<path d="M195.727 23.386H242.6L215.815 57.9347H242.6V67.3574H195.727L222.511 32.8087H195.727V23.386Z" fill="#472667"/>
<path d="M315.81 67.3574H305.766V45.3717C305.766 39.2866 308.05 34.1013 312.619 29.815C317.188 25.5291 322.716 23.386 329.203 23.386C335.69 23.386 341.217 25.5291 345.787 29.815C350.355 34.1013 352.639 39.2866 352.639 45.3717V67.3574H342.595V45.3717C342.595 41.9043 341.287 38.9427 338.672 36.4892C336.056 34.0352 332.899 32.8087 329.203 32.8087C325.506 32.8087 322.35 34.0352 319.734 36.4892C317.118 38.9427 315.81 41.9043 315.81 45.3717V67.3574Z" fill="#472667"/>
<path d="M392.234 36.4892C389.618 34.0352 386.461 32.8087 382.765 32.8087C379.068 32.8087 375.912 34.0352 373.296 36.4892C372.424 37.3072 371.709 38.1745 371.151 39.0897H394.378C393.82 38.1745 393.105 37.3072 392.234 36.4892ZM373.296 54.2547C375.912 56.7082 379.068 57.9352 382.765 57.9352C386.461 57.9352 389.618 56.7082 392.234 54.2547L392.286 54.2054L399.401 60.8801L399.348 60.9289C394.779 65.2152 389.252 67.3574 382.765 67.3574C376.278 67.3574 370.75 65.2152 366.181 60.9289C361.612 56.6431 359.328 51.4573 359.328 45.3717C359.328 39.2866 361.612 34.1013 366.181 29.815C370.75 25.5296 376.278 23.386 382.765 23.386C389.252 23.386 394.779 25.5296 399.348 29.815C403.917 34.1013 406.202 39.2866 406.202 45.3717C406.202 46.4191 406.097 47.466 405.888 48.5129H402.853H369.791C370.348 50.6719 371.517 52.5861 373.296 54.2547Z" fill="#472667"/>
<path fill-rule="evenodd" clip-rule="evenodd" d="M292.118 42.7168C294.981 42.7168 297.316 40.5263 297.316 37.8424C297.316 35.1555 294.981 32.9665 292.118 32.9665C289.256 32.9665 286.922 35.1555 286.922 37.8424C286.922 40.5263 289.256 42.7168 292.118 42.7168Z" fill="#17A1C8"/>
<path fill-rule="evenodd" clip-rule="evenodd" d="M285.034 33.5566C287.074 33.5566 288.74 31.9956 288.74 30.0804C288.74 28.1652 287.074 26.6042 285.034 26.6042C282.994 26.6042 281.328 28.1652 281.328 30.0804C281.328 31.9956 282.994 33.5566 285.034 33.5566Z" fill="#CB1F49"/>
<path fill-rule="evenodd" clip-rule="evenodd" d="M277.371 29.5895C278.582 29.2646 279.306 28.0114 278.981 26.7994C278.657 25.5874 277.405 24.8648 276.195 25.1897C274.984 25.5147 274.26 26.7678 274.584 27.9798C274.909 29.1918 276.161 29.9144 277.371 29.5895Z" fill="#919113"/>
<path fill-rule="evenodd" clip-rule="evenodd" d="M286.994 44.9615C286.994 52.056 280.863 57.8072 273.301 57.8072V67.4277C286.528 67.4277 297.249 57.3696 297.249 44.9615H286.994ZM249.352 44.9615C249.352 32.5534 260.072 22.4957 273.301 22.4957V32.1158C265.736 32.1158 259.607 37.8674 259.607 44.9615H249.352Z" fill="#913276"/>
<path fill-rule="evenodd" clip-rule="evenodd" d="M254.479 56.957C257.342 56.957 259.675 54.7665 259.675 52.0811C259.675 49.3958 257.342 47.2067 254.479 47.2067C251.616 47.2067 249.281 49.3958 249.281 52.0811C249.281 54.7665 251.616 56.957 254.479 56.957Z" fill="#17A1C8"/>
<path fill-rule="evenodd" clip-rule="evenodd" d="M261.573 63.3184C263.613 63.3184 265.279 61.7574 265.279 59.8421C265.279 57.9269 263.613 56.3659 261.573 56.3659C259.533 56.3659 257.867 57.9269 257.867 59.8421C257.867 61.7574 259.533 63.3184 261.573 63.3184Z" fill="#CB1F49"/>
<path fill-rule="evenodd" clip-rule="evenodd" d="M269.179 66.0338C270.389 65.7089 271.113 64.4558 270.789 63.2438C270.465 62.0317 269.212 61.3092 268.002 61.6341C266.792 61.959 266.068 63.2121 266.392 64.4241C266.716 65.6362 267.968 66.3587 269.179 66.0338Z" fill="#919113"/>
</svg>
