<svg width="87" height="87" viewBox="0 0 87 87" fill="none" xmlns="http://www.w3.org/2000/svg">
<path d="M83.6515 43.7505L71.1046 27.717C70.7923 27.3152 70.3359 27.0964 69.8274 27.0964H57.2999V19.8077C57.2999 19.362 56.9356 19.004 56.4912 19.004L3.80872 19C3.36032 19 3 19.3621 3 19.8037V52.1335C3 52.2528 3.03203 52.3642 3.08007 52.4677C3.03203 52.6188 3 52.774 3 52.9371V60.2139C3 61.1012 3.72865 61.8252 4.62141 61.8252H13.3372C13.7415 65.2945 16.7122 68 20.3114 68C23.9105 68 26.8813 65.2946 27.2856 61.8252H55.6828C55.9791 61.8252 56.2553 61.7417 56.4915 61.6024C56.7317 61.7417 57.004 61.8252 57.3002 61.8252H61.2718C61.6761 65.2945 64.6468 68 68.246 68C71.8452 68 74.8159 65.2946 75.2202 61.8252H82.3786C83.2714 61.8252 84 61.1011 84 60.2139V44.7335C84 44.3674 83.8839 44.0333 83.6597 43.7468L83.6515 43.7505ZM82.3744 54.1231C82.3744 54.3061 82.2183 54.4613 82.0341 54.4613H80.6448C80.4607 54.4613 80.3045 54.3061 80.3045 54.1231V51.366C80.3045 51.183 80.4607 51.0278 80.6448 51.0278H82.0341C82.2183 51.0278 82.3744 51.183 82.3744 51.366V54.1271V54.1231ZM80.3086 42.0954H64.4429V34.2497H74.1716L80.3131 42.0954H80.3086ZM4.61682 20.6108H55.6779V51.3334H4.61682V20.6108ZM20.3072 66.3963C17.3286 66.3963 14.9024 63.9852 14.9024 61.0252C14.9024 58.0652 17.3286 55.6542 20.3072 55.6542C23.2858 55.6542 25.712 58.0652 25.712 61.0252C25.712 63.9852 23.2858 66.3963 20.3072 66.3963ZM27.2814 60.2215C26.877 56.7522 23.9064 54.0467 20.3072 54.0467C16.708 54.0467 13.7373 56.7521 13.333 60.2215H4.61723V52.9447H55.6783V60.2215H27.2814ZM68.242 66.3963C65.2634 66.3963 62.8372 63.9852 62.8372 61.0252C62.8372 58.0652 65.2634 55.6542 68.242 55.6542C71.2206 55.6542 73.6468 58.0652 73.6468 61.0252C73.6468 63.9852 71.2206 66.3963 68.242 66.3963ZM75.2162 60.2215C74.8118 56.7522 71.8412 54.0467 68.242 54.0467C64.6428 54.0467 61.6721 56.7521 61.2678 60.2215H57.2962V28.7075H69.8237L72.9065 32.6464H63.6302C63.1818 32.6464 62.8215 33.0084 62.8215 33.45V42.9072C62.8215 43.3528 63.1858 43.7108 63.6302 43.7108H81.5661L82.3749 44.7413V49.4519C82.2628 49.432 82.1507 49.4161 82.0346 49.4161H80.6453C79.5643 49.4161 78.6875 50.2914 78.6875 51.3617V54.1188C78.6875 55.193 79.5683 56.0644 80.6453 56.0644H82.0346C82.1507 56.0644 82.2628 56.0485 82.3749 56.0286V60.2141H75.2165L75.2162 60.2215ZM67.8696 46.5907C67.8696 47.0363 67.5053 47.3944 67.0609 47.3944H63.8341C63.3857 47.3944 63.0254 47.0323 63.0254 46.5907C63.0254 46.1451 63.3897 45.787 63.8341 45.787H67.0609C67.5093 45.787 67.8696 46.1491 67.8696 46.5907ZM20.3035 57.8066C18.5179 57.8066 17.0606 59.2509 17.0606 61.0293C17.0606 62.8037 18.5139 64.252 20.3035 64.252C22.0891 64.252 23.5464 62.8077 23.5464 61.0293C23.5464 59.2548 22.0931 57.8066 20.3035 57.8066ZM20.3035 62.6366C19.4107 62.6366 18.6821 61.9125 18.6821 61.0253C18.6821 60.1381 19.4107 59.414 20.3035 59.414C21.1963 59.414 21.9249 60.1381 21.9249 61.0253C21.9249 61.9125 21.1963 62.6366 20.3035 62.6366ZM68.2386 57.8066C66.453 57.8066 64.9957 59.2509 64.9957 61.0293C64.9957 62.8037 66.449 64.252 68.2386 64.252C70.0242 64.252 71.4815 62.8077 71.4815 61.0293C71.4815 59.2548 70.0282 57.8066 68.2386 57.8066ZM68.2386 62.6366C67.3458 62.6366 66.6172 61.9125 66.6172 61.0253C66.6172 60.1381 67.3458 59.414 68.2386 59.414C69.1314 59.414 69.86 60.1381 69.86 61.0253C69.86 61.9125 69.1314 62.6366 68.2386 62.6366ZM8.68203 28.612H51.8C52.8529 28.612 53.7138 27.7606 53.7138 26.7102C53.7138 25.6639 52.857 24.8085 51.8 24.8085H8.68203C7.62514 24.8085 6.76831 25.6599 6.76831 26.7102C6.76831 27.7566 7.62508 28.612 8.68203 28.612ZM8.68203 26.0975H51.8C52.1404 26.0975 52.4166 26.372 52.4166 26.7102C52.4166 27.0484 52.1404 27.3229 51.8 27.3229H8.68203C8.34172 27.3229 8.06548 27.0484 8.06548 26.7102C8.06548 26.372 8.34172 26.0975 8.68203 26.0975ZM8.68203 34.8981H51.8C52.8529 34.8981 53.7138 34.0467 53.7138 32.9963C53.7138 31.946 52.857 31.0945 51.8 31.0945H8.68203C7.62514 31.0945 6.76831 31.946 6.76831 32.9963C6.76831 34.0426 7.62508 34.8981 8.68203 34.8981ZM8.68203 32.3836H51.8C52.1404 32.3836 52.4166 32.6581 52.4166 32.9963C52.4166 33.3345 52.1404 33.609 51.8 33.609H8.68203C8.34172 33.609 8.06548 33.3345 8.06548 32.9963C8.06548 32.6581 8.34172 32.3836 8.68203 32.3836ZM8.68203 41.1842H51.8C52.8529 41.1842 53.7138 40.3328 53.7138 39.2824C53.7138 38.2361 52.857 37.3806 51.8 37.3806H8.68203C7.62514 37.3806 6.76831 38.232 6.76831 39.2824C6.76831 40.3328 7.62508 41.1842 8.68203 41.1842ZM8.68203 38.6697H51.8C52.1404 38.6697 52.4166 38.9442 52.4166 39.2824C52.4166 39.6205 52.1404 39.8951 51.8 39.8951H8.68203C8.34172 39.8951 8.06548 39.6205 8.06548 39.2824C8.06548 38.9442 8.34172 38.6697 8.68203 38.6697ZM8.68203 47.4703H51.8C52.8529 47.4703 53.7138 46.6189 53.7138 45.5685C53.7138 44.5222 52.857 43.6667 51.8 43.6667H8.68203C7.62514 43.6667 6.76831 44.5181 6.76831 45.5685C6.76831 46.6148 7.62508 47.4703 8.68203 47.4703ZM8.68203 44.9558H51.8C52.1404 44.9558 52.4166 45.2303 52.4166 45.5685C52.4166 45.9066 52.1404 46.1812 51.8 46.1812H8.68203C8.34172 46.1812 8.06548 45.9066 8.06548 45.5685C8.06548 45.2303 8.34172 44.9558 8.68203 44.9558Z" fill="#472667"/>
</svg>
