<svg width="87" height="87" viewBox="0 0 87 87" fill="none" xmlns="http://www.w3.org/2000/svg">
<path fill-rule="evenodd" clip-rule="evenodd" d="M60.4982 23.0076L65.6576 17.1808L62.8462 16.0469L55.4005 20.8202L60.5012 23.0107L60.4982 23.0076ZM45.8324 48.913C46.0981 49.3548 46.3947 49.7749 46.716 50.1736C47.4605 49.5927 48.2699 49.1015 49.1289 48.7091C48.029 48.5485 46.9075 48.6195 45.8324 48.913ZM47.9208 51.4619C48.7272 50.844 49.6231 50.3589 50.5809 50.0222L49.237 52.5092C48.7705 52.1941 48.3318 51.845 47.9208 51.4619ZM50.7817 53.3434C51.2977 53.5596 51.8321 53.7357 52.3759 53.8717C52.45 52.8614 52.3666 51.845 52.1256 50.8594L50.7817 53.3434ZM54.1152 54.1775C54.625 54.2301 55.1379 54.2455 55.6507 54.227C55.3109 53.1673 54.7548 52.191 54.0195 51.3538C54.1585 52.2868 54.1925 53.2352 54.1152 54.1744L54.1152 54.1775ZM56.006 55.9725C55.2892 56.0127 54.5725 55.9941 53.8619 55.9169C53.6827 56.7882 53.4139 57.6408 53.0617 58.4564L55.4437 59.7447C55.9319 58.5491 56.1234 57.2546 56.006 55.9694L56.006 55.9725ZM52.1287 55.6296C51.3811 55.4535 50.6458 55.2094 49.9414 54.9004L49.1597 56.3463L51.5109 57.6192H51.5078C51.7766 56.9766 51.9866 56.3093 52.1287 55.6296ZM48.3935 54.0663V54.0632C47.7478 53.6399 47.1423 53.158 46.583 52.6235C46.0918 53.1178 45.6469 53.6585 45.2576 54.2331L47.6118 55.506L48.3935 54.0602L48.3935 54.0663ZM45.3967 51.3352C44.7664 51.9592 44.201 52.6513 43.7098 53.3928L41.3278 52.1045H41.3309C42.0631 51.0386 43.0425 50.1674 44.1856 49.565C44.5409 50.189 44.9456 50.7791 45.3967 51.3352ZM39.9282 57.4091C40.645 57.3659 41.3618 57.3813 42.0754 57.4585C42.2546 56.5935 42.5172 55.75 42.8663 54.9406L40.4936 53.6523C40.0085 54.8417 39.8139 56.1301 39.9282 57.4091ZM43.8086 57.752C44.5624 57.9251 45.2977 58.1691 46.0052 58.4781L46.7775 57.0538L44.4264 55.7809C44.1607 56.4174 43.9538 57.0785 43.8086 57.752ZM47.55 59.3184C48.1957 59.7417 48.8012 60.2236 49.3605 60.7581C49.8455 60.2669 50.2842 59.7324 50.6735 59.1609L48.3255 57.8942L47.55 59.3184ZM50.5561 62.0495C51.1801 61.4285 51.7424 60.7427 52.2275 60.0043L54.6095 61.2926C53.8773 62.3523 52.9041 63.2205 51.7703 63.826C51.415 63.2019 51.0103 62.6087 50.5561 62.0526V62.0495ZM50.1235 64.4809H50.1204C49.8547 64.0392 49.5612 63.6158 49.2368 63.2142C48.4861 63.8012 47.6704 64.2956 46.8054 64.6941C47.9145 64.8547 49.0453 64.7837 50.1266 64.4809L50.1235 64.4809ZM48.032 61.9228C47.2226 62.5469 46.3204 63.0382 45.3565 63.3779L46.7127 60.8693V60.8723C47.1792 61.1875 47.621 61.5397 48.032 61.9228ZM45.1618 60.029C44.6397 59.8127 44.1053 59.6366 43.5584 59.5007C43.4812 60.5203 43.5646 61.5428 43.8056 62.5376L45.1618 60.029ZM41.819 59.1979V59.201C41.3061 59.1485 40.7902 59.133 40.2743 59.1516C40.6172 60.2175 41.1764 61.203 41.9179 62.0433C41.7757 61.1041 41.7448 60.1495 41.8252 59.2009L41.819 59.1979ZM52.645 48.0476C56.7694 50.2813 58.7405 55.1163 57.3564 59.5965C55.9723 64.0793 51.6131 66.9556 46.948 66.4706C42.2829 65.9886 38.6095 62.275 38.1769 57.6068C37.7412 52.9356 40.6639 48.6102 45.1591 47.2728C47.6585 46.5252 50.3526 46.8025 52.645 48.0476ZM31.9326 68.0363L47.2502 76.3227C47.6734 76.5358 48.1925 76.3721 48.418 75.955C48.6436 75.5349 48.4953 75.0097 48.0813 74.7748L32.7669 66.4885C32.3375 66.2568 31.8061 66.4174 31.5744 66.8469C31.3457 67.2732 31.5063 67.8077 31.9326 68.0363ZM33.9315 64.3413L49.249 72.63C49.4529 72.7474 49.7001 72.7783 49.9256 72.7134C50.1542 72.6485 50.3458 72.4941 50.4601 72.284C50.5713 72.0739 50.5961 71.8298 50.525 71.6012C50.4539 71.3757 50.2933 71.1872 50.0801 71.0822L34.7657 62.7958C34.3425 62.595 33.8358 62.7618 33.6134 63.1727C33.391 63.5836 33.53 64.0996 33.9285 64.3437L33.9315 64.3413ZM45.0722 38.893C43.8024 38.2102 42.2206 38.6829 41.5347 39.9496L40.1599 42.4891C39.474 40.4191 37.5524 39.0103 35.3712 38.9825V29.8871C38.9766 27.1683 38.1672 25.0056 37.5277 23.2972C37.2898 22.6731 37.1106 22.185 37.5215 21.9039H37.5246C37.9602 21.6134 38.4113 21.3508 38.8747 21.1129C38.9643 21.8977 39.474 22.5743 40.2062 22.874L49.2859 26.5999L52.468 38.6431C52.5422 38.9211 52.743 39.1435 53.0118 39.2424L57.3803 41.0065V41.0096C57.6522 41.1178 57.9642 41.0838 58.2083 40.9139C58.4493 40.747 58.5914 40.469 58.5852 40.1724L58.8416 30.5177L65.1164 33.0851C65.3543 33.7463 65.5057 34.4352 65.5582 35.1334C65.6014 35.8131 65.413 36.4835 65.0237 37.0427L61.5727 39.7646V39.7615C61.5048 39.8171 61.443 39.8789 61.3935 39.953C61.1 40.3052 58.7521 42.8849 54.3402 41.0715C52.4896 40.2929 50.4258 40.1786 48.5011 40.7502L45.0687 38.8933L45.0722 38.893ZM51.0844 42.1493H51.0813C51.9711 42.1678 52.8485 42.3532 53.6672 42.6961C59.0862 44.9206 62.1908 41.7106 62.7223 41.0927L66.2011 38.3492C66.2628 38.3029 66.3185 38.2473 66.3648 38.1824C67.2607 36.9589 67.5573 35.3957 67.1711 33.9282L69.3183 34.8056V34.8087C69.9794 35.0806 70.7147 35.1177 71.3975 34.9076C72.1452 34.6759 72.7785 34.1692 73.1709 33.4926C75.6301 39.2174 76.2851 45.5602 75.0462 51.6676C73.6127 50.9015 71.0361 50.1909 68.2555 52.5945C67.236 53.5553 65.9817 54.2288 64.6223 54.5564L65.509 52.9189H65.5059C66.1886 51.6491 65.7159 50.0673 64.4493 49.3814L51.0844 42.1493ZM63.6274 56.3857C65.7282 56.4413 67.6839 55.4032 69.4017 53.9172H69.3986C70.795 52.5146 72.9948 52.3168 74.6199 53.4476C71.8517 63.7729 63.8904 71.9011 53.6236 74.8828L63.627 56.3921L63.6274 56.3857ZM52.4772 76.9983L50.7192 80.2423C50.3918 80.851 49.8356 81.3082 49.1714 81.506C48.5072 81.7068 47.7904 81.6326 47.1818 81.3052L39.662 77.2332C38.7692 78.744 37.1533 79.6802 35.3986 79.7017H12.9905C10.108 79.6091 7.84035 77.2116 7.90829 74.3291V44.3521C7.83723 41.4603 10.1204 39.0536 13.0152 38.9763V29.8777C13.0214 27.9189 14.6063 26.334 16.565 26.3279H19.2405C23.6986 20.3312 30.0973 16.0643 37.3484 14.257C44.5994 12.4496 52.2523 13.2128 59.0027 16.4197L62.2775 14.322V14.3189C62.5154 14.1644 62.8151 14.1366 63.0777 14.2416L67.4648 16.015C67.7274 16.1231 67.9251 16.3487 67.99 16.6267C68.0579 16.9048 67.9838 17.1983 67.7953 17.4115L65.228 20.3094V20.3125C66.8685 21.6163 68.3793 23.0776 69.7355 24.6749L72.8003 21.5761C73.1741 21.1961 73.7395 21.0787 74.2338 21.2795L78.2563 22.9046V22.9015C78.3397 22.9355 78.42 22.9787 78.4942 23.0281C78.7877 23.2197 78.9916 23.5225 79.0596 23.8654C79.1306 24.2083 79.0627 24.5636 78.868 24.8571L74.3172 31.7529C78.488 40.5731 78.4479 50.8091 74.206 59.5953C69.9641 68.3815 61.9776 74.7767 52.4772 76.9983ZM38.1206 76.4021L27.8016 70.8163C26.5349 70.1273 26.0623 68.5455 26.7451 67.2757L30.5513 60.244V45.8226C30.5513 45.3376 30.9468 44.9421 31.4318 44.9421C31.92 44.9421 32.3154 45.3375 32.3154 45.8226V56.9847L38.7169 45.1614V44.3582C38.7879 42.4457 37.3081 40.8362 35.3988 40.7435H12.9908C11.0814 40.8361 9.60155 42.4457 9.67265 44.3582V74.332C9.60159 76.2414 11.0814 77.8509 12.9908 77.9436H35.3988C36.511 77.9282 37.5367 77.3474 38.1206 76.4021ZM63.6211 50.9356V50.9325C64.032 51.1611 64.1834 51.6771 63.961 52.0879L49.1717 79.4115C48.9431 79.8224 48.4272 79.9738 48.0163 79.7544L28.639 69.2685V69.2654C28.2281 69.0399 28.0767 68.524 28.2961 68.11L32.1796 60.9301H32.1827C32.2043 60.8992 32.2229 60.8652 32.2383 60.8281L40.3451 45.8443C40.3637 45.8103 40.3822 45.7764 40.3977 45.7424L43.0793 40.7838H43.0824C43.3079 40.3729 43.8239 40.2215 44.2379 40.4439L63.6151 50.9298L63.6211 50.9356ZM33.6101 38.9826V29.8776C33.6039 28.8921 32.8068 28.095 31.8213 28.0919H16.5686C15.583 28.095 14.786 28.8921 14.7798 29.8776V38.9826H15.8735V30.5112C15.8765 29.677 16.5531 29.0004 17.3873 28.9973H31.0028C31.837 29.0035 32.5105 29.677 32.5167 30.5112V38.9826H33.6101ZM21.468 26.328C25.6574 21.1655 31.4193 17.511 37.8794 15.926C44.3365 14.3411 51.1334 14.9127 57.2385 17.548L53.4415 19.9794L46.6539 17.066C45.3254 16.6551 43.9042 16.6675 42.582 17.0969C41.4481 17.3688 40.4193 17.9743 39.6346 18.8363C39.1032 19.0495 38.6058 19.2781 38.1362 19.516C37.5894 19.794 37.058 20.0999 36.5482 20.4398C34.9757 21.4902 35.3834 22.5777 35.884 23.9123C36.2856 24.9813 36.783 26.3129 34.8552 28.043L34.8521 28.0399C34.2095 26.9802 33.0602 26.3345 31.8213 26.3314L21.468 26.328ZM30.7517 38.9826L30.7548 30.7611H17.6368V38.9826H30.7517ZM15.1526 74.666C14.3926 74.6629 13.7778 74.0481 13.7747 73.2881C13.7623 72.8092 13.37 72.4323 12.8942 72.4323C12.4184 72.4323 12.026 72.8093 12.0137 73.2881C12.0168 75.0213 13.4193 76.4239 15.1526 76.4271C15.6408 76.4271 16.0331 76.0316 16.0331 75.5465C16.0331 75.0584 15.6408 74.666 15.1526 74.666ZM23.3116 45.8224V72.862C23.3271 73.3377 23.7164 73.7177 24.1922 73.7177C24.671 73.7177 25.0603 73.3377 25.0758 72.862V45.8224C25.0603 45.3466 24.671 44.9666 24.1922 44.9666C23.7164 44.9666 23.3271 45.3466 23.3116 45.8224ZM16.073 45.8224V72.862C16.073 73.3501 16.4685 73.7425 16.9535 73.7425C17.4417 73.7425 17.8371 73.3501 17.8371 72.862V45.8224C17.8371 45.3373 17.4417 44.9418 16.9535 44.9418C16.4685 44.9418 16.073 45.3373 16.073 45.8224ZM64.0622 21.6285C65.6811 22.9106 67.1672 24.3503 68.4956 25.929L68.2516 26.1762C68.1898 26.2472 68.0909 26.2689 68.0044 26.2287L62.1961 23.7386L64.0622 21.6285ZM53.1999 21.786L67.316 27.8414C68.0637 28.1689 68.9349 27.9958 69.5033 27.4119L73.8472 23.0156L77.1035 24.3317L71.5981 32.6766C71.252 33.2142 70.5693 33.4274 69.9792 33.1802L58.8938 28.6417L58.9277 27.3411C58.937 26.9734 58.7146 26.6429 58.3747 26.5069L49.8076 23.0745C49.3565 22.8953 48.8436 23.1147 48.6645 23.5658C48.5749 23.8623 48.5965 24.1837 48.7232 24.4679L40.8759 21.2486H40.8728C40.6689 21.1621 40.57 20.9304 40.6504 20.7265L40.9037 20.0932C41.3671 18.9872 44.6883 18.1344 45.9581 18.6812L53.1566 21.7707L53.203 21.7892L53.1999 21.786ZM57.1544 27.9063L50.7746 25.3574L54.0556 37.7708L56.864 38.9015L57.1544 27.9063Z" fill="#472667"/>
</svg>
