<svg width="49" height="49" viewBox="0 0 49 49" fill="none" xmlns="http://www.w3.org/2000/svg">
<g id="Youtube">
<g id="Solid/Brands/Youtube">
<path id="Subtract" fill-rule="evenodd" clip-rule="evenodd" d="M20.1153 18.2797C23.034 18.0513 25.9661 18.0513 28.8848 18.2797L30.8454 18.433C31.9374 18.5185 32.8308 19.337 33.0114 20.4174C33.463 23.1207 33.463 25.8802 33.0114 28.5835C32.8308 29.6639 31.9374 30.4824 30.8454 30.5679L28.8848 30.7212C25.9661 30.9496 23.034 30.9496 20.1153 30.7212L18.1546 30.5679C17.0626 30.4824 16.1692 29.6639 15.9887 28.5835C15.537 25.8802 15.537 23.1207 15.9887 20.4174C16.1692 19.337 17.0626 18.5185 18.1546 18.433L20.1153 18.2797ZM22.75 26.6618V22.3391C22.75 22.135 22.9726 22.009 23.1475 22.114L26.7498 24.2754C26.9198 24.3773 26.9198 24.6236 26.7498 24.7255L23.1475 26.8869C22.9726 26.9919 22.75 26.8659 22.75 26.6618Z" fill="white"/>
</g>
</g>
</svg>
